<svg width="206" height="116" viewBox="0 0 206 116" fill="none" xmlns="http://www.w3.org/2000/svg">
<g clip-path="url(#clip0_779_11659)">
<path d="M21.4691 38.4498C21.7099 37.7407 22.0463 37.0678 22.4691 36.4498C22.9177 35.8927 23.439 35.3983 24.0191 34.9798C24.5137 34.4665 25.0754 34.0225 25.6891 33.6598C26.6891 33.1498 26.7991 33.3298 27.8191 32.8198C28.8391 32.3098 28.8191 32.2198 29.8191 31.7098C30.8191 31.1998 30.9091 31.3398 31.9291 30.8298C32.9491 30.3198 32.7991 30.0198 33.8191 29.5198L35.8191 28.5198C36.8191 28.0098 36.8191 28.0698 37.8891 27.5198C38.9591 26.9698 38.8891 26.9299 39.8891 26.4199L41.8891 25.4199C42.8891 24.9099 42.9991 25.1098 44.0191 24.5998C45.0391 24.0898 45.1091 24.2298 46.1291 23.7198C47.1491 23.2098 47.0591 23.0298 48.0791 22.5198L50.0791 21.5198C51.0791 21.0098 51.1691 21.1498 52.1891 20.6398C53.2091 20.1298 53.1891 20.0998 54.1891 19.6398C55.1891 19.1798 55.1891 19.0898 56.1891 18.5798C57.1891 18.0698 57.1891 17.9598 58.1891 17.4498C59.1891 16.9398 59.2591 17.0298 60.2791 16.5198C61.2991 16.0098 61.2791 16.0498 62.3391 15.5198C63.3991 14.9898 63.2291 14.7398 64.2491 14.2298C65.2691 13.7198 65.3091 13.7898 66.3291 13.2298C67.3491 12.6698 67.3891 12.7999 68.4091 12.2899C69.4291 11.7799 69.4091 11.6998 70.4091 11.1898C71.4091 10.6798 71.4091 10.7198 72.4691 10.1898C73.5291 9.65975 73.5891 9.86979 74.6091 9.34979C75.6291 8.82979 75.6091 8.86979 76.6691 8.34979C77.7291 7.82979 77.5491 7.56987 78.5691 7.05987C79.5891 6.54987 79.6391 6.63981 80.6591 6.11981C81.6791 5.59981 81.6591 5.57981 82.6591 5.11981C83.6591 4.65981 83.6591 4.56986 84.6591 4.04986C85.3191 3.72986 85.9791 3.40981 86.6591 3.11981C87.3391 2.82981 88.0391 2.61981 88.7191 2.36981C89.3991 2.11981 90.0591 1.77976 90.7191 1.56976C91.3791 1.35976 92.1891 1.40979 92.8891 1.22979C93.5891 1.04979 94.2691 0.739797 94.9891 0.609797C95.7091 0.479797 96.4491 0.549772 97.1691 0.459772C97.8891 0.369772 98.5891 0.0397917 99.3091 -0.0202083C100.029 -0.0802083 100.769 -0.0202083 101.499 -0.0202083C102.229 -0.0202083 102.949 -0.0202083 103.679 -0.0202083C104.409 -0.0202083 105.129 -0.0201302 105.859 0.0598698C106.589 0.13987 107.279 0.319855 108.009 0.419855C108.739 0.519855 109.479 0.419821 110.199 0.509821C110.919 0.599821 111.609 0.86985 112.319 1.03985C113.029 1.20985 113.689 1.55983 114.379 1.76983C115.069 1.97983 115.739 2.26983 116.379 2.51983C117.019 2.76983 117.849 2.77976 118.519 3.06976C119.189 3.35976 119.729 3.89979 120.379 4.22979C121.379 4.73979 121.549 4.43977 122.569 4.95977C123.589 5.47977 123.569 5.51984 124.569 6.02984C125.569 6.53984 125.459 6.79987 126.479 7.30987C127.499 7.81987 127.669 7.47979 128.679 7.97979C129.689 8.47979 129.569 8.75983 130.589 9.26983C131.609 9.77983 131.699 9.58979 132.719 10.0998C133.739 10.6098 133.659 10.7698 134.719 11.2798L136.719 12.2798C137.719 12.7898 137.789 12.6798 138.809 13.1898C139.829 13.6998 139.809 13.8098 140.809 14.3198C141.809 14.8298 141.809 14.7998 142.859 15.3198C143.909 15.8398 143.969 15.6498 144.989 16.1598L147.039 17.1598C148.039 17.6698 148.039 17.7698 149.039 18.2798C150.039 18.7898 149.959 18.9798 150.979 19.4898C151.999 19.9998 152.069 19.8698 153.089 20.3798C154.109 20.8898 154.089 20.8498 155.149 21.3798C156.209 21.9098 156.149 22.0299 157.149 22.5399C158.149 23.0499 158.149 23.0998 159.149 23.6098C160.149 24.1198 160.219 24.0098 161.239 24.5198C162.259 25.0298 162.239 25.1098 163.239 25.6298C164.239 26.1498 164.239 26.2198 165.239 26.7298C166.239 27.2398 166.239 27.1698 167.309 27.7298C168.379 28.2898 168.309 28.2799 169.309 28.7899C170.309 29.2999 170.429 29.0998 171.459 29.6098C172.489 30.1198 172.539 29.9998 173.559 30.5098C174.579 31.0198 174.559 31.0898 175.559 31.5998C176.559 32.1098 176.499 32.2999 177.559 32.8099C178.619 33.3199 178.559 33.3998 179.559 33.9098C180.223 34.1605 180.852 34.4967 181.429 34.9098C182.599 35.8141 183.41 37.1038 183.719 38.5499C184.059 39.6099 184.179 39.5498 184.519 40.6398C184.859 41.7298 184.669 41.7698 185.009 42.8398C185.349 43.9098 185.439 43.8398 185.779 44.9398C186.119 46.0398 186.259 45.9398 186.599 47.0298C186.939 48.1198 186.719 48.1698 187.059 49.2398C187.399 50.3098 187.759 50.2398 188.059 51.2398C188.359 52.2398 188.119 52.3998 188.459 53.4698C188.799 54.5398 188.819 54.4698 189.159 55.5898C189.499 56.7098 189.549 56.6398 189.889 57.7098C190.229 58.7798 190.089 58.8198 190.429 59.8898C190.769 60.9598 191.129 60.8398 191.429 61.8898C191.729 62.9398 191.649 62.9899 191.989 64.0599C192.329 65.1299 192.439 65.0598 192.779 66.1598C193.119 67.2598 192.859 67.3098 193.199 68.3798C193.539 69.4498 193.809 69.3798 194.199 70.3798C194.589 71.3798 194.199 71.5398 194.579 72.6098C194.959 73.6798 195.189 73.6098 195.579 74.6098C195.969 75.6098 195.719 75.7399 196.059 76.8099C196.399 77.8799 196.339 77.8998 196.679 78.9698C197.019 80.0398 197.269 79.9698 197.609 81.0198C197.949 82.0698 197.929 82.0999 198.269 83.1699C198.609 84.2399 198.689 84.1698 199.029 85.2798C199.369 86.3898 199.159 86.4198 199.499 87.4898C199.839 88.5598 200.029 88.4898 200.369 89.5698C200.709 90.6498 200.679 90.6398 201.019 91.7098C201.359 92.7798 201.019 92.8698 201.399 93.9398C201.779 95.0098 201.979 94.9398 202.319 96.0098C202.659 97.0798 202.719 97.0098 203.059 98.1298L203.739 100.27C204.079 101.34 203.899 101.4 204.239 102.47C204.579 103.54 204.819 103.47 205.159 104.54C205.368 105.242 205.486 105.968 205.509 106.7C205.416 107.418 205.227 108.121 204.949 108.79C204.889 109.506 204.738 110.212 204.499 110.89C204.149 111.532 203.719 112.127 203.219 112.66C202.694 113.158 202.106 113.585 201.469 113.93C200.844 114.285 200.17 114.548 199.469 114.71C198.785 114.926 198.076 115.05 197.359 115.08C196.229 115.08 196.229 114.86 195.109 114.86C193.989 114.86 193.989 114.86 192.859 114.86H188.349C187.229 114.86 187.229 115.13 186.109 115.13C184.989 115.13 184.979 115.13 183.859 115.13C182.739 115.13 182.739 115.04 181.619 115.04C180.499 115.04 180.489 114.95 179.369 114.95C178.249 114.95 178.249 114.8 177.119 114.8C175.989 114.8 175.999 115.16 174.879 115.16C173.759 115.16 173.749 114.83 172.629 114.83C171.509 114.83 171.499 115.15 170.379 115.15C169.259 115.15 169.249 114.92 168.129 114.92H165.879C164.749 114.92 164.749 114.85 163.619 114.85C162.489 114.85 162.499 115.03 161.369 115.03C160.239 115.03 160.249 114.92 159.119 114.92C157.989 114.92 157.999 115.05 156.879 115.05C155.759 115.05 155.749 115.05 154.629 115.05C153.509 115.05 153.499 114.83 152.379 114.83H150.129C149.009 114.83 149.009 114.98 147.879 114.98C146.749 114.98 146.759 114.85 145.639 114.85C144.519 114.85 144.509 114.92 143.389 114.92C142.269 114.92 142.259 114.99 141.139 114.99C140.019 114.99 140.009 114.83 138.889 114.83H136.629C135.509 114.83 135.509 114.83 134.379 114.83C133.249 114.83 133.259 115.07 132.129 115.07C130.999 115.07 130.999 114.92 129.879 114.92C128.759 114.92 128.749 114.73 127.629 114.73C126.509 114.73 126.509 114.95 125.379 114.95H123.129C122.009 114.95 122.009 114.8 120.879 114.8C119.749 114.8 119.759 114.8 118.629 114.8C117.499 114.8 117.499 114.94 116.379 114.94C115.259 114.94 115.249 114.94 114.119 114.94C112.989 114.94 112.999 114.83 111.869 114.83C110.739 114.83 110.749 114.89 109.619 114.89C108.489 114.89 108.499 114.89 107.369 114.89C106.239 114.89 106.239 115.13 105.119 115.13C103.999 115.13 103.989 114.85 102.869 114.85C101.749 114.85 101.739 115.13 100.619 115.13C99.4991 115.13 99.4891 114.83 98.3591 114.83C97.2291 114.83 97.2391 114.92 96.1091 114.92C94.9791 114.92 94.9791 114.82 93.8591 114.82C92.7391 114.82 92.7291 115.11 91.6091 115.11H89.3491C88.2291 115.11 88.2291 114.94 87.0991 114.94H84.8491H82.5891C81.4691 114.94 81.4691 114.94 80.3391 114.94C79.2091 114.94 79.2091 114.72 78.0891 114.72C76.9691 114.72 76.9591 114.95 75.8291 114.95C74.6991 114.95 74.7091 114.83 73.5791 114.83C72.4491 114.83 72.4491 115.09 71.3291 115.09C70.2091 115.09 70.1991 114.95 69.0691 114.95C67.9391 114.95 67.9491 114.77 66.8191 114.77C65.6891 114.77 65.6891 114.94 64.5591 114.94C63.4291 114.94 63.4391 114.72 62.3091 114.72C61.1791 114.72 61.1791 114.72 60.0591 114.72C58.9391 114.72 58.9291 114.88 57.7991 114.88C56.6691 114.88 56.6791 114.88 55.5491 114.88C54.4191 114.88 54.4291 114.8 53.2991 114.8C52.1691 114.8 52.1791 114.86 51.0491 114.86C49.9191 114.86 49.9191 114.96 48.7991 114.96C47.6791 114.96 47.6691 115.02 46.5391 115.02C45.4091 115.02 45.4191 115.02 44.2891 115.02C43.1591 115.02 43.1691 114.72 42.0391 114.72C40.9091 114.72 40.9091 114.86 39.7791 114.86C38.6491 114.86 38.6591 115.03 37.5291 115.03C36.3991 115.03 36.3991 114.73 35.2691 114.73C34.1391 114.73 34.1491 114.79 33.0191 114.79C31.8891 114.79 31.8891 115.01 30.7591 115.01C29.6291 115.01 29.6291 114.84 28.5091 114.84C27.3891 114.84 27.3791 114.68 26.2491 114.68C25.1191 114.68 25.1191 114.68 23.9891 114.68C22.8591 114.68 22.8691 114.78 21.7391 114.78C20.6091 114.78 20.6091 114.83 19.4791 114.83C18.3491 114.83 18.3491 114.59 17.2191 114.59C16.0891 114.59 16.0991 115 14.9691 115C13.8391 115 13.8391 114.94 12.7091 114.94C11.5791 114.94 11.5691 114.72 10.4391 114.72C9.3091 114.72 9.3091 114.65 8.1791 114.65C7.46191 114.74 6.73629 114.74 6.0191 114.65C5.31614 114.452 4.64333 114.159 4.0191 113.78C3.45812 113.325 2.95741 112.801 2.5291 112.22C2.03358 111.722 1.6065 111.16 1.2591 110.55C0.882463 109.946 0.589776 109.293 0.389097 108.61C0.258372 107.911 0.22807 107.197 0.299101 106.49C0.358598 105.807 0.506496 105.135 0.739096 104.49C1.0791 103.42 1.0291 103.4 1.3691 102.33C1.7091 101.26 1.6391 101.24 1.9791 100.18C2.3191 99.1199 2.2391 99.0798 2.5791 98.0198C2.9191 96.9598 2.9791 97.0198 3.3091 95.8998C3.6391 94.7798 3.7191 94.8998 4.0591 93.7898C4.3991 92.6798 4.1491 92.6398 4.4891 91.5698C4.8291 90.4998 5.1291 90.5698 5.4891 89.5698C5.8491 88.5698 5.6591 88.4498 5.9991 87.3798C6.3391 86.3098 6.4991 86.3799 6.8391 85.2999C7.1791 84.2199 6.9191 84.1498 7.2591 83.0898C7.5991 82.0298 7.5791 82.0098 7.9191 80.9498C8.2591 79.8898 8.2991 79.8898 8.6291 78.8298C8.9591 77.7698 9.1591 77.8298 9.4991 76.7498C9.8391 75.6698 9.6991 75.6398 10.0391 74.5698C10.3791 73.4998 10.2591 73.4698 10.5991 72.3998C10.9391 71.3298 11.0491 71.3999 11.3891 70.2999C11.7291 69.1999 11.9791 69.2998 12.3191 68.2398C12.6591 67.1798 12.4991 67.1199 12.8391 66.0599C13.1791 64.9999 13.3091 65.0598 13.6491 63.9598C13.9891 62.8598 13.9591 62.8799 14.2991 61.8099C14.6391 60.7399 14.2991 60.6498 14.6691 59.5798C15.0391 58.5098 15.2891 58.5798 15.6691 57.5798C16.0491 56.5798 15.8991 56.4798 16.2391 55.4098C16.5791 54.3398 16.5191 54.3198 16.8591 53.2498C17.1991 52.1798 17.3691 52.2499 17.7091 51.1699C18.0491 50.0899 18.0691 50.1099 18.4091 49.0399C18.7491 47.9699 18.4691 47.8799 18.8091 46.8099C19.1491 45.7399 19.1891 45.7499 19.5291 44.6799C19.8691 43.6099 20.0491 43.6798 20.3891 42.5998C20.7291 41.5198 20.8491 41.5998 21.1291 40.4698C21.4091 39.3398 21.1291 39.5198 21.4691 38.4498Z" fill="#6C85BD"/>
<path d="M159.721 36.2401C158.611 36.2401 158.611 36.2401 157.491 36.2401C156.371 36.2401 156.381 36.1301 155.261 36.1301C154.141 36.1301 154.151 36.1301 153.031 36.1301C151.911 36.1301 151.911 36.3301 150.801 36.3301C149.691 36.3301 149.681 36.0901 148.561 36.0901C147.441 36.0901 147.451 36.3102 146.331 36.3102C145.211 36.3102 145.221 36.2001 144.101 36.2001C142.981 36.2001 142.991 36.3501 141.871 36.3501C140.751 36.3501 140.761 36.2101 139.641 36.2101C138.521 36.2101 138.531 36.0701 137.411 36.0701H135.171C134.051 36.0701 134.051 36.3201 132.941 36.3201C131.831 36.3201 131.821 36.2501 130.701 36.2501C129.581 36.2501 129.591 36.2501 128.471 36.2501C127.351 36.2501 127.361 36.2501 126.241 36.2501C125.121 36.2501 125.121 36.1301 124.011 36.1301C122.901 36.1301 122.891 36.2101 121.781 36.2101C120.671 36.2101 120.661 36.1401 119.541 36.1401C118.421 36.1401 118.431 36.1401 117.311 36.1401H112.851C111.731 36.1401 111.731 36.0602 110.611 36.0602C109.491 36.0602 109.491 35.9801 108.381 35.9801C107.271 35.9801 107.261 35.9801 106.151 35.9801C105.041 35.9801 105.031 36.0801 103.911 36.0801C102.791 36.0801 102.801 36.0001 101.681 36.0001C100.561 36.0001 100.561 36.2101 99.4513 36.2101C98.3413 36.2101 98.3314 36.0402 97.2113 36.0402C96.0913 36.0402 96.0913 36.2101 94.9813 36.2101C93.8713 36.2101 93.8614 36.0502 92.7514 36.0502C91.6413 36.0502 91.6313 36.0502 90.5213 36.0502C89.4113 36.0502 89.4013 36.1802 88.2913 36.1802C87.1813 36.1802 87.1713 36.1802 86.0513 36.1802C84.9314 36.1802 84.9413 36.0502 83.8213 36.0502C82.7013 36.0502 82.7113 35.9801 81.5913 35.9801C80.4713 35.9801 80.4713 35.9801 79.3613 35.9801C78.2513 35.9801 78.2413 36.0801 77.1213 36.0801C76.0014 36.0801 76.0113 35.8901 74.8913 35.8901C73.7713 35.8901 73.7713 36.0201 72.6513 36.0201C71.5313 36.0201 71.5413 35.8801 70.4213 35.8801C69.3013 35.8801 69.3013 36.0302 68.1813 36.0302C67.0613 36.0302 67.0713 35.9601 65.9513 35.9601C64.8313 35.9601 64.8314 35.9001 63.7114 35.9001C62.5914 35.9001 62.5913 36.0901 61.4813 36.0901C60.3713 36.0901 60.3614 35.8701 59.2414 35.8701C58.1213 35.8701 58.1314 36.0801 57.0114 36.0801C55.8913 36.0801 55.8913 36.0801 54.7713 36.0801C53.6513 36.0801 53.6513 35.9202 52.5313 35.9202C51.4113 35.9202 51.4114 35.9202 50.2913 35.9202H48.0514H45.8113C45.1095 35.9649 44.4168 36.1027 43.7513 36.3301C43.0623 36.4512 42.3907 36.656 41.7513 36.9401C41.1345 37.2951 40.5665 37.7288 40.0613 38.2301C39.6247 38.7879 39.2617 39.3997 38.9814 40.0502C38.629 40.6498 38.363 41.2961 38.1914 41.9701C37.9214 43.0401 37.8014 42.9701 37.5214 44.0701C37.2414 45.1701 37.3713 45.1701 37.1013 46.2401C36.8313 47.3101 36.6814 47.2401 36.4114 48.3401C36.1414 49.4401 36.0713 49.3901 35.7913 50.4601C35.5113 51.5301 35.5613 51.5401 35.2913 52.6001C35.0213 53.6601 35.1814 53.7102 34.9114 54.7802C34.6414 55.8502 34.5913 55.8401 34.3113 56.9001C34.0313 57.9601 33.9413 57.9001 33.6713 59.0201C33.4013 60.1401 33.5014 60.1102 33.2314 61.1802C32.9614 62.2502 32.7813 62.1802 32.5013 63.2802C32.2213 64.3802 32.2114 64.3502 31.9414 65.4202C31.8164 66.222 31.8164 67.0383 31.9414 67.8401C31.9606 68.6411 32.1057 69.4341 32.3714 70.1901C32.588 70.9741 32.9254 71.7198 33.3714 72.4001C33.8886 73.032 34.4989 73.5816 35.1813 74.0302C35.8591 74.4743 36.6011 74.8116 37.3814 75.0302C38.1447 75.3183 38.947 75.4903 39.7614 75.5402C40.8914 75.5402 40.8914 75.5402 42.0114 75.5402C43.1314 75.5402 43.1414 75.5402 44.2614 75.5402C45.3814 75.5402 45.3814 75.5402 46.5114 75.5402C47.6414 75.5402 47.6313 75.3701 48.7513 75.3701C49.8713 75.3701 49.8713 75.3701 51.0013 75.3701C52.1313 75.3701 52.1213 75.3701 53.2414 75.3701C54.3614 75.3701 54.3713 75.3701 55.4914 75.3701C56.6114 75.3701 56.6213 75.6101 57.7414 75.6101C58.8614 75.6101 58.8614 75.4501 59.9914 75.4501C61.1213 75.4501 61.1114 75.6101 62.2414 75.6101C63.3713 75.6101 63.3613 75.4202 64.4913 75.4202C65.6213 75.4202 65.6113 75.4901 66.7313 75.4901C67.8513 75.4901 67.8613 75.6101 68.9813 75.6101H71.2313C72.3513 75.6101 72.3513 75.4601 73.4813 75.4601C74.6113 75.4601 74.6013 75.4001 75.7313 75.4001C76.8613 75.4001 76.8513 75.6001 77.9813 75.6001C79.1113 75.6001 79.1013 75.4801 80.2313 75.4801H84.7213C85.8513 75.4801 85.8513 75.4801 86.9713 75.4801H89.2213C90.3513 75.4801 90.3513 75.4001 91.4713 75.4001C92.5913 75.4001 92.6013 75.5901 93.7213 75.5901C94.8413 75.5901 94.8514 75.3401 95.9714 75.3401C97.0914 75.3401 97.1013 75.5302 98.2214 75.5302H100.471C101.601 75.5302 101.601 75.6101 102.721 75.6101H104.971C106.101 75.6101 106.101 75.6101 107.221 75.6101C108.341 75.6101 108.351 75.4501 109.471 75.4501H111.721C112.851 75.4501 112.851 75.4501 113.981 75.4501C115.111 75.4501 115.101 75.5302 116.231 75.5302C117.361 75.5302 117.351 75.5302 118.471 75.5302C119.591 75.5302 119.601 75.6401 120.721 75.6401C121.841 75.6401 121.841 75.6401 122.971 75.6401C124.101 75.6401 124.091 75.4601 125.221 75.4601C126.351 75.4601 126.341 75.5201 127.471 75.5201H129.721C130.841 75.5201 130.841 75.5201 131.971 75.5201H134.221C135.341 75.5201 135.341 75.5901 136.471 75.5901C137.601 75.5901 137.601 75.5901 138.721 75.5901C139.841 75.5901 139.851 75.5302 140.971 75.5302C142.091 75.5302 142.101 75.4302 143.231 75.4302C144.361 75.4302 144.351 75.5402 145.481 75.5402C146.611 75.5402 146.611 75.5402 147.731 75.5402C148.851 75.5402 148.861 75.5402 149.991 75.5402C151.121 75.5402 151.111 75.5402 152.231 75.5402H154.491H156.721C157.851 75.5402 157.851 75.3801 158.981 75.3801C160.111 75.3801 160.111 75.3801 161.231 75.3801C162.351 75.3801 162.361 75.4901 163.491 75.4901C164.621 75.4901 164.621 75.4901 165.751 75.4901C166.577 75.4964 167.399 75.3819 168.191 75.1501C168.939 74.8189 169.63 74.3735 170.241 73.8301C170.902 73.3828 171.486 72.8325 171.971 72.2001C172.493 71.6011 172.921 70.9269 173.241 70.2001C173.723 68.6614 173.789 67.0224 173.431 65.4501C173.151 64.3801 173.341 64.3301 173.071 63.2601C172.801 62.1901 172.771 62.2001 172.501 61.1401C172.231 60.0801 172.141 60.1401 171.871 59.0201C171.601 57.9001 171.461 58.0202 171.181 56.9202C170.901 55.8202 171.061 55.8201 170.791 54.7501C170.521 53.6801 170.381 53.7501 170.101 52.6501C169.821 51.5501 169.971 51.5501 169.691 50.4801C169.411 49.4101 169.491 49.3901 169.221 48.3201C168.951 47.2501 168.721 47.3201 168.451 46.2401C168.181 45.1601 168.241 45.1501 167.971 44.0801C167.701 43.0101 167.631 43.0201 167.361 41.9501C167.237 41.2594 167.025 40.5873 166.731 39.9501C166.397 39.3207 165.98 38.739 165.491 38.2201C164.958 37.7479 164.362 37.3509 163.721 37.0402C163.089 36.7113 162.417 36.4659 161.721 36.3102C161.06 36.2018 160.388 36.1782 159.721 36.2401Z" fill="#DEDEDE"/>
<path d="M20.8786 41.0298C21.1046 40.3397 21.4802 39.708 21.9786 39.1798C22.4504 38.5849 23.0436 38.0973 23.7186 37.7498C24.4292 37.5105 25.1826 37.4253 25.9286 37.4998C26.6455 37.6237 27.3275 37.9 27.9286 38.3098C28.9286 38.8398 29.0286 38.6398 30.0286 39.1698C31.0286 39.6998 30.9586 39.8298 31.9586 40.3598C32.9586 40.8898 32.9586 40.8298 33.9586 41.3598C34.9586 41.8898 35.0486 41.7098 36.0486 42.2498C37.0486 42.7898 37.0486 42.8498 38.0486 43.3798C39.0486 43.9098 39.0486 43.8698 40.0486 44.3798C41.0486 44.8898 40.9686 45.0497 41.9686 45.5797C42.9686 46.1097 43.0386 45.9798 44.0386 46.5098C45.0386 47.0398 45.0386 47.1098 46.0386 47.6498C47.0386 48.1898 47.0386 48.2698 48.0386 48.7998C49.0386 49.3298 49.0386 49.2498 50.0386 49.7998C51.0386 50.3498 51.0386 50.3898 52.0386 50.9198C53.0386 51.4498 53.0386 51.4198 54.0386 51.9198C55.0386 52.4198 55.0386 52.4398 56.0386 52.9198C57.0386 53.3998 57.0386 53.3598 58.0386 53.9198C59.0386 54.4798 58.9386 54.6398 59.9386 55.1698C60.9386 55.6998 60.9386 55.7498 61.9386 56.2898C62.9386 56.8298 62.9386 56.9297 63.9386 57.4597C64.9386 57.9897 65.0086 57.8498 66.0086 58.3898C67.0086 58.9298 67.0086 59.0098 68.0086 59.5498C69.0086 60.0898 69.1286 59.8598 70.1286 60.3898C71.1286 60.9198 71.0586 61.0497 72.0486 61.5897C73.0386 62.1297 73.0486 62.0497 74.0486 62.5897C75.0486 63.1297 74.9286 63.3598 75.9286 63.8998C76.9286 64.4398 77.0586 64.1797 78.0586 64.7097C79.0586 65.2397 79.0586 65.2097 80.0586 65.7097C81.0586 66.2097 80.8886 66.5497 81.8986 67.0897C82.9086 67.6297 83.0586 67.3298 84.0586 67.8698C84.7386 68.2298 85.4086 68.5998 86.1086 68.8698C86.8086 69.1398 87.5186 69.4898 88.2386 69.7698C88.9586 70.0498 89.5986 70.5498 90.3286 70.7698C91.0586 70.9898 91.8286 71.1798 92.5686 71.3798C93.3086 71.5798 94.0586 71.8298 94.8086 71.9798C95.5586 72.1298 96.3486 72.2297 97.1086 72.3397C97.8686 72.4497 98.6386 72.5898 99.4086 72.6598C100.179 72.7298 100.959 72.7598 101.729 72.7798C102.499 72.7998 103.269 72.4897 104.039 72.4697C104.809 72.4497 105.569 72.3997 106.339 72.3397C107.109 72.2797 107.869 72.1798 108.629 72.0598C109.389 71.9398 110.189 72.0598 110.949 71.9098C111.709 71.7598 112.409 71.3897 113.159 71.1897C113.909 70.9897 114.639 70.7998 115.379 70.5598C116.119 70.3198 116.919 70.2798 117.639 69.9898C118.359 69.6998 119.069 69.3997 119.769 69.0797C120.469 68.7597 121.149 68.3798 121.839 68.0198C122.839 67.4798 122.839 67.3998 123.839 66.8698C124.839 66.3398 124.839 66.3598 125.839 65.8698C126.839 65.3798 126.839 65.3098 127.839 64.7798C128.839 64.2498 128.759 64.0998 129.759 63.5598C130.759 63.0198 130.759 63.0598 131.759 62.5598C132.759 62.0598 132.889 62.2698 133.889 61.7298L135.889 60.7298C136.889 60.1898 136.789 60.0098 137.789 59.4798C138.789 58.9498 138.789 58.9098 139.789 58.3798C140.789 57.8498 140.909 58.0698 141.899 57.5298C142.889 56.9898 142.839 56.8797 143.839 56.3397C144.839 55.7997 144.839 55.7498 145.839 55.2198C146.839 54.6898 146.839 54.6598 147.839 54.1198C148.839 53.5798 148.839 53.4998 149.839 52.9698C150.839 52.4398 150.989 52.7098 151.979 52.1698C152.969 51.6298 152.909 51.5098 153.909 50.9698L155.909 49.8998C156.909 49.3698 156.799 49.1598 157.789 48.6298C158.779 48.0998 158.869 48.2397 159.869 47.6997C160.869 47.1597 160.929 47.2898 161.929 46.7598C162.929 46.2298 162.929 46.1698 163.929 45.6398C164.929 45.1098 164.929 45.0198 165.929 44.4898C166.929 43.9598 166.929 43.9198 167.929 43.3898C168.929 42.8598 168.929 42.8198 169.929 42.2898C170.929 41.7598 170.929 41.6898 171.929 41.1498C172.929 40.6098 173.069 40.8797 174.069 40.3397C175.069 39.7997 175.009 39.6998 176.009 39.1598C177.009 38.6198 177.089 38.7598 178.089 38.2198C178.702 37.871 179.385 37.6627 180.089 37.6098C180.809 37.5383 181.536 37.6271 182.219 37.8698C182.907 38.1354 183.531 38.5444 184.049 39.0697C184.58 39.5944 184.99 40.2295 185.249 40.9298C185.589 41.9898 185.549 42.0097 185.879 43.0697C186.209 44.1297 185.989 44.1998 186.329 45.2598L187.009 47.3898C187.349 48.4498 187.419 48.3898 187.759 49.4898C188.099 50.5898 188.199 50.4897 188.539 51.5697C188.879 52.6497 188.989 52.5698 189.329 53.6498C189.669 54.7298 189.389 54.7998 189.729 55.8598C190.069 56.9198 190.129 56.8598 190.469 57.9698C190.809 59.0798 190.929 58.9698 191.269 60.0398C191.609 61.1098 191.519 61.1297 191.859 62.1897C192.199 63.2497 192.249 63.1898 192.589 64.2898C192.929 65.3898 192.969 65.3398 193.309 66.3998C193.649 67.4598 193.569 67.4898 193.909 68.5498C194.249 69.6098 194.279 69.5998 194.619 70.6598C194.959 71.7198 195.069 71.6598 195.409 72.7398C195.749 73.8198 195.559 73.8598 195.899 74.9298C196.239 75.9998 196.189 75.9998 196.529 77.0598C196.869 78.1198 197.039 78.0598 197.379 79.1298C197.719 80.1998 197.769 80.1298 198.109 81.2398C198.449 82.3498 198.299 82.3498 198.639 83.4098C198.979 84.4698 198.879 84.4997 199.219 85.5697C199.559 86.6397 199.569 86.6197 199.909 87.6897C200.249 88.7597 200.419 88.6898 200.759 89.7598C201.099 90.8298 200.819 90.8997 201.159 91.9697C201.499 93.0397 201.479 93.0297 201.819 94.0897C202.159 95.1497 202.389 95.0898 202.729 96.1498C203.069 97.2098 203.089 97.1498 203.429 98.2698C203.769 99.3898 203.599 99.3797 203.939 100.45C204.279 101.52 204.529 101.45 204.869 102.45C205.209 103.45 205.189 103.52 205.519 104.59C205.761 105.28 205.909 106 205.959 106.73C205.911 107.453 205.766 108.166 205.529 108.85C205.319 109.902 204.881 110.895 204.245 111.759C203.609 112.623 202.791 113.337 201.849 113.85C201.248 114.237 200.599 114.543 199.919 114.76C199.214 114.871 198.498 114.891 197.789 114.82C196.659 114.82 196.659 114.82 195.539 114.82C194.419 114.82 194.419 115.12 193.289 115.12C192.159 115.12 192.169 114.93 191.049 114.93C189.929 114.93 189.919 115.07 188.799 115.07C187.679 115.07 187.679 114.87 186.559 114.87H183.859C182.739 114.87 182.739 115 181.619 115C180.499 115 180.489 115.13 179.369 115.13C178.249 115.13 178.249 115.13 177.119 115.13C175.989 115.13 175.999 115.13 174.879 115.13C173.759 115.13 173.749 114.97 172.629 114.97C171.509 114.97 171.499 114.77 170.379 114.77C169.259 114.77 169.249 114.77 168.129 114.77C167.009 114.77 166.999 115 165.879 115C164.759 115 164.749 115 163.619 115C162.489 115 162.499 114.71 161.369 114.71H159.119C157.999 114.71 157.999 114.83 156.879 114.83C155.759 114.83 155.749 114.76 154.629 114.76H150.129C149.009 114.76 149.009 114.76 147.879 114.76C146.749 114.76 146.759 114.94 145.639 114.94C144.519 114.94 144.509 114.62 143.389 114.62C142.269 114.62 142.259 114.92 141.139 114.92C140.019 114.92 140.009 114.63 138.889 114.63C137.769 114.63 137.759 114.73 136.629 114.73C135.499 114.73 135.509 115.01 134.379 115.01C133.249 115.01 133.259 114.8 132.129 114.8C130.999 114.8 130.999 114.63 129.879 114.63C128.759 114.63 128.749 114.74 127.629 114.74C126.509 114.74 126.509 114.98 125.379 114.98C124.249 114.98 124.259 114.74 123.129 114.74C121.999 114.74 122.009 115 120.879 115C119.749 115 119.759 114.8 118.629 114.8C117.499 114.8 117.499 115 116.379 115C115.259 115 115.249 114.83 114.119 114.83C112.989 114.83 112.999 114.97 111.869 114.97C110.739 114.97 110.749 114.69 109.619 114.69H107.369C106.239 114.69 106.239 114.69 105.119 114.69H102.869C101.739 114.69 101.739 114.99 100.619 114.99C99.4986 114.99 99.4886 114.99 98.3586 114.99C97.2286 114.99 97.2386 114.79 96.1086 114.79C94.9786 114.79 94.9786 114.79 93.8586 114.79C92.7386 114.79 92.7286 114.99 91.6086 114.99C90.4886 114.99 90.4786 114.82 89.3486 114.82C88.2186 114.82 88.2286 114.71 87.0986 114.71C85.9686 114.71 85.9686 114.79 84.8486 114.79C83.7286 114.79 83.7186 114.79 82.5886 114.79C81.4586 114.79 81.4686 114.96 80.3386 114.96C79.2086 114.96 79.2086 114.74 78.0886 114.74H75.8286C74.7086 114.74 74.7086 114.83 73.5786 114.83H71.3286C70.1986 114.83 70.1986 114.68 69.0686 114.68C67.9386 114.68 67.9486 114.78 66.8186 114.78C65.6886 114.78 65.6886 114.84 64.5586 114.84C63.4286 114.84 63.4386 114.93 62.3086 114.93H60.0586C58.9286 114.93 58.9286 114.73 57.7986 114.73C56.6686 114.73 56.6786 114.81 55.5486 114.81H53.2986C52.1786 114.81 52.1786 114.67 51.0486 114.67C49.9186 114.67 49.9186 114.99 48.7986 114.99C47.6786 114.99 47.6686 114.9 46.5386 114.9C45.4086 114.9 45.4186 114.7 44.2886 114.7C43.1586 114.7 43.1686 114.64 42.0386 114.64C40.9086 114.64 40.9086 114.71 39.7786 114.71C38.6486 114.71 38.6586 114.96 37.5286 114.96C36.3986 114.96 36.3986 114.85 35.2686 114.85C34.1386 114.85 34.1486 114.85 33.0186 114.85H30.7186C29.5886 114.85 29.5886 114.75 28.4686 114.75C27.3486 114.75 27.3386 114.81 26.2086 114.81C25.0786 114.81 25.0786 115.03 23.9486 115.03C22.8186 115.03 22.8286 114.95 21.6986 114.95C20.5686 114.95 20.5686 114.95 19.4386 114.95C18.3086 114.95 18.3086 114.81 17.1786 114.81C16.0486 114.81 16.0586 115.07 14.9286 115.07C13.7986 115.07 13.7986 115.07 12.6686 115.07C11.5386 115.07 11.5286 114.98 10.3986 114.98C9.26864 114.98 9.26864 114.81 8.13864 114.81C7.43467 114.777 6.73836 114.649 6.06864 114.43C5.38788 114.255 4.73492 113.985 4.12864 113.63C3.45651 113.353 2.82158 112.994 2.23864 112.56C1.80349 111.976 1.44085 111.341 1.15864 110.67C0.742342 110.073 0.406141 109.424 0.158642 108.74C-0.013191 108.03 -0.0905292 107.3 -0.0713615 106.57C0.0293796 105.849 0.220898 105.143 0.498638 104.47C0.838638 103.41 0.81864 103.4 1.14864 102.34C1.47864 101.28 1.42864 101.26 1.75864 100.2C2.08864 99.1397 2.35864 99.1997 2.69864 98.1997C3.03864 97.1997 2.81864 97.0698 3.15864 96.0098C3.49864 94.9498 3.63864 95.0098 3.97864 93.9298C4.31864 92.8498 4.19864 92.8298 4.53864 91.7798C4.87864 90.7298 4.78864 90.6898 5.12864 89.6298L5.80864 87.5098C6.14864 86.4498 6.34864 86.5097 6.68864 85.4497C7.02864 84.3897 6.98864 84.3797 7.32864 83.3197C7.66864 82.2597 7.75864 82.3198 8.09864 81.2298C8.43864 80.1398 8.23864 80.1098 8.57864 79.0498C8.91864 77.9898 9.08864 78.0498 9.42864 76.9798C9.76864 75.9098 9.78864 75.9798 10.1286 74.8698C10.4686 73.7598 10.3686 73.7798 10.7086 72.7197C11.0486 71.6597 10.8386 71.5898 11.1786 70.5198C11.5186 69.4498 11.6286 69.5197 11.9586 68.4397C12.2886 67.3597 12.3786 67.4397 12.7186 66.3397C13.0586 65.2397 13.0086 65.2597 13.3486 64.1997C13.6886 63.1397 13.5686 63.0998 13.9086 62.0398C14.2486 60.9798 14.2086 60.9698 14.5486 59.8998C14.8886 58.8298 14.8786 58.8398 15.2186 57.7698C15.5586 56.6998 15.8486 56.7698 16.2186 55.7698C16.5886 54.7698 16.3986 54.6598 16.7386 53.5998C17.0786 52.5398 16.9486 52.4997 17.2886 51.4397C17.6286 50.3797 17.8086 50.4398 18.1486 49.3698C18.4886 48.2998 18.2486 48.2298 18.5886 47.1698C18.9286 46.1098 19.3086 46.2198 19.5886 45.1698C19.8686 44.1198 19.7986 44.0598 20.1486 42.9998C20.4986 41.9398 20.5386 42.0998 20.8786 41.0298Z" fill="#9CABD8"/>
<path fill-rule="evenodd" clip-rule="evenodd" d="M204.109 111.36C203.807 111.967 203.427 112.532 202.979 113.04C202.435 113.45 201.84 113.786 201.209 114.04C200.622 114.374 199.993 114.626 199.339 114.79C198.685 114.957 198.013 115.038 197.339 115.03C196.209 115.03 196.209 115.03 195.089 115.03C193.969 115.03 193.969 114.93 192.839 114.93C191.709 114.93 191.719 115.1 190.599 115.1C189.479 115.1 189.469 115.04 188.349 115.04C187.229 115.04 187.229 114.95 186.109 114.95C184.989 114.95 184.979 115.17 183.859 115.17C182.739 115.17 182.739 115.17 181.619 115.17C180.499 115.17 180.489 115.04 179.369 115.04C178.249 115.04 178.249 115.14 177.119 115.14C175.989 115.14 175.999 114.89 174.879 114.89C173.759 114.89 173.749 115.07 172.629 115.07C171.509 115.07 171.499 115.07 170.379 115.07C169.259 115.07 169.249 114.9 168.129 114.9C167.009 114.9 166.999 115.16 165.879 115.16C164.759 115.16 164.749 115.16 163.619 115.16C162.489 115.16 162.499 114.85 161.369 114.85C160.239 114.85 160.249 115.03 159.119 115.03C157.989 115.03 157.999 115.12 156.879 115.12C155.759 115.12 155.749 115 154.629 115C153.509 115 153.499 115.18 152.379 115.18C151.259 115.18 151.259 115.04 150.129 115.04C148.999 115.04 149.009 115.04 147.879 115.04C146.749 115.04 146.759 115.17 145.639 115.17C144.519 115.17 144.509 114.99 143.389 114.99C142.269 114.99 142.259 114.85 141.139 114.85C140.019 114.85 140.009 115.23 138.889 115.23C137.769 115.23 137.759 115.23 136.629 115.23C135.499 115.23 135.509 115.23 134.379 115.23C133.249 115.23 133.259 115.08 132.129 115.08C130.999 115.08 130.999 115.08 129.879 115.08C128.759 115.08 128.749 115.17 127.629 115.17C126.509 115.17 126.509 115.17 125.379 115.17C124.249 115.17 124.259 115.17 123.129 115.17C121.999 115.17 122.009 114.87 120.879 114.87C119.749 114.87 119.759 114.98 118.629 114.98C117.499 114.98 117.499 115.05 116.379 115.05C115.259 115.05 115.249 114.94 114.119 114.94C112.989 114.94 112.999 115.23 111.869 115.23C110.739 115.23 110.749 114.93 109.619 114.93C108.489 114.93 108.499 114.93 107.369 114.93C106.239 114.93 106.239 114.83 105.119 114.83C103.999 114.83 103.989 115.06 102.869 115.06C101.749 115.06 101.739 114.97 100.619 114.97H98.3586C97.2386 114.97 97.2386 115.02 96.1086 115.02C94.9786 115.02 94.9786 115.08 93.8586 115.08C92.7386 115.08 92.7286 114.98 91.6086 114.98C90.4886 114.98 90.4786 114.98 89.3486 114.98C88.2186 114.98 88.2286 114.89 87.0986 114.89C85.9686 114.89 85.9686 115.17 84.8486 115.17C83.7286 115.17 83.7186 114.87 82.5886 114.87C81.4586 114.87 81.4686 114.87 80.3386 114.87C79.2086 114.87 79.2086 114.87 78.0886 114.87C76.9686 114.87 76.9586 115.03 75.8286 115.03C74.6986 115.03 74.7086 115.15 73.5786 115.15C72.4486 115.15 72.4486 115.02 71.3286 115.02C70.2086 115.02 70.1986 114.94 69.0686 114.94C67.9386 114.94 67.9486 115.11 66.8186 115.11C65.6886 115.11 65.6886 115 64.5586 115C63.4286 115 63.4386 115 62.3086 115C61.1786 115 61.1786 115.15 60.0586 115.15C58.9386 115.15 58.9286 115.15 57.7986 115.15C56.6686 115.15 56.6786 115.15 55.5486 115.15C54.4186 115.15 54.4286 114.98 53.2986 114.98C52.1686 114.98 52.1786 115.05 51.0486 115.05C49.9186 115.05 49.9186 115.17 48.7986 115.17C47.6786 115.17 47.6686 115.05 46.5386 115.05C45.4086 115.05 45.4186 115.05 44.2886 115.05C43.1586 115.05 43.1686 114.97 42.0386 114.97C40.9086 114.97 40.9086 115.31 39.7786 115.31C38.6486 115.31 38.6586 115.17 37.5286 115.17C36.3986 115.17 36.3986 115.31 35.2686 115.31C34.1386 115.31 34.1486 115.12 33.0186 115.12C31.8886 115.12 31.8886 115.2 30.7586 115.2C29.6286 115.2 29.6286 115.28 28.5086 115.28C27.3886 115.28 27.3786 115.17 26.2486 115.17H23.9886C22.8686 115.17 22.8686 114.93 21.7386 114.93C20.6086 114.93 20.6086 115.01 19.4786 115.01C18.3486 115.01 18.3486 115.3 17.2186 115.3H14.9686C13.8386 115.3 13.8386 114.97 12.7086 114.97C11.5786 114.97 11.5686 115.03 10.4386 115.03C9.3086 115.03 9.3086 115.03 8.1786 115.03C7.34898 115.067 6.51878 114.972 5.7186 114.75C4.93177 114.43 4.20223 113.985 3.55859 113.43C2.80479 112.931 2.13055 112.321 1.55859 111.62C2.30859 110.8 2.7486 111.36 3.7486 110.87C4.7486 110.38 4.6186 110.11 5.6186 109.63C6.6186 109.15 6.6186 109.19 7.6186 108.7C8.6186 108.21 8.6886 108.36 9.6886 107.87C10.6886 107.38 10.7486 107.51 11.7486 107.02C12.7486 106.53 12.6286 106.29 13.6286 105.8C14.6286 105.31 14.6286 105.25 15.6286 104.8L17.6286 103.8C18.6286 103.31 18.7486 103.57 19.7486 103.08C20.7486 102.59 20.7486 102.62 21.7486 102.08C22.7486 101.54 22.6686 101.45 23.6786 100.96L25.6786 99.9602L27.6786 98.9602L29.6786 97.9602C30.6786 97.4802 30.7586 97.6403 31.7586 97.1503C32.7586 96.6603 32.6886 96.5103 33.6886 96.0203C34.6886 95.5303 34.7886 95.7402 35.7886 95.2502C36.7886 94.7603 36.6686 94.5303 37.6686 94.0503C38.6686 93.5703 38.6686 93.5902 39.6686 93.1002C40.6686 92.6102 40.6686 92.5303 41.6686 92.0403C42.6686 91.5503 42.6686 91.6303 43.6686 91.1403C44.6686 90.6503 44.6686 90.5903 45.6686 90.1403C46.6686 89.6903 46.6686 89.7202 47.6686 89.2402C48.6686 88.7602 48.6686 88.7302 49.6686 88.2402C50.6686 87.7502 50.6686 87.8502 51.6686 87.3702C52.6686 86.8902 52.7186 86.9902 53.7186 86.5002C54.7186 86.0103 54.6486 85.8603 55.6486 85.3803C56.6486 84.9003 56.6486 84.8503 57.6486 84.3803C58.6486 83.9103 58.6486 83.9802 59.6486 83.4902L61.6486 82.4902C62.6486 82.0002 62.5786 81.8602 63.5786 81.3702C64.5786 80.8802 64.6286 80.9802 65.6286 80.4902C66.6286 80.0002 66.6286 79.9802 67.6286 79.4902C68.6286 79.0002 68.7286 79.1902 69.7286 78.7002C70.7286 78.2102 70.7286 78.1702 71.7286 77.7002C72.7286 77.2302 72.6586 77.0702 73.6586 76.5802C74.6586 76.0902 74.6586 76.1503 75.6586 75.6603C76.6586 75.1703 76.5886 75.0403 77.5986 74.5503C78.6086 74.0603 78.7086 74.2903 79.7186 73.8003L81.7186 72.8003C82.7186 72.3103 82.7186 72.2002 83.7186 71.7102C84.7186 71.2202 84.7186 71.2703 85.7186 70.7803C86.3986 70.4503 86.9986 69.9403 87.7186 69.6503C88.4386 69.3603 89.2286 69.3602 89.9386 69.1102C90.6486 68.8602 91.3686 68.6303 92.0886 68.4203C92.8086 68.2103 93.5286 67.9803 94.2586 67.8103C94.9886 67.6403 95.7286 67.4902 96.4786 67.3602C97.2286 67.2302 97.9486 66.9803 98.6886 66.9003C99.4286 66.8203 100.199 66.7802 100.959 66.7302C101.719 66.6802 102.459 66.7302 103.219 66.7302C103.979 66.7302 104.719 66.8403 105.479 66.8803C106.239 66.9203 106.989 66.8802 107.739 66.9802C108.489 67.0802 109.209 67.3402 109.949 67.4702C110.689 67.6002 111.459 67.6003 112.189 67.7703C112.919 67.9403 113.659 68.1302 114.379 68.3402C115.099 68.5502 115.829 68.7803 116.539 69.0303C117.249 69.2803 117.929 69.6103 118.629 69.9003C119.329 70.1903 120.039 70.4403 120.719 70.7703C121.719 71.2703 121.829 71.0702 122.839 71.5702C123.849 72.0702 123.839 72.1703 124.839 72.6603C125.839 73.1503 125.839 73.1403 126.839 73.6603C127.839 74.1803 127.759 74.3502 128.779 74.8502C129.799 75.3502 129.779 75.3002 130.829 75.8502L132.829 76.8502C133.829 77.3502 133.879 77.2803 134.899 77.7803C135.919 78.2803 135.899 78.3403 136.899 78.7803C137.899 79.2203 137.989 79.1302 138.999 79.6202L140.999 80.6202C141.999 81.1102 141.899 81.3502 142.909 81.8502C143.919 82.3502 143.959 82.2703 144.979 82.7703C145.999 83.2703 146.059 83.1303 147.079 83.6303C148.099 84.1303 148.129 84.0403 149.149 84.5303C150.169 85.0203 150.149 84.9802 151.209 85.4702C152.269 85.9602 152.079 86.2603 153.089 86.7502L155.089 87.7502C156.089 88.2402 156.209 88.0303 157.219 88.5303C158.229 89.0303 158.219 89.1503 159.219 89.6503C160.219 90.1503 160.219 90.2202 161.219 90.7102C162.219 91.2002 162.349 90.9602 163.359 91.4602C164.369 91.9602 164.249 92.2102 165.269 92.7102C166.289 93.2102 166.399 92.9702 167.409 93.4702C168.419 93.9702 168.479 93.8702 169.489 94.3602C170.499 94.8502 170.359 95.1603 171.379 95.6503C172.399 96.1403 172.479 95.9702 173.499 96.4702C174.519 96.9702 174.499 97.0902 175.499 97.5902C176.499 98.0902 176.549 98.0002 177.569 98.5002C178.589 99.0003 178.569 98.9602 179.619 99.5002C180.669 100.04 180.549 100.18 181.559 100.67C182.569 101.16 182.639 101.05 183.659 101.54C184.679 102.03 184.659 102.15 185.659 102.64L187.659 103.64C188.659 104.14 188.749 103.98 189.769 104.47C190.789 104.96 190.849 104.83 191.869 105.33L193.869 106.33C194.869 106.83 194.779 107.04 195.799 107.53L197.799 108.53C198.799 109.02 198.859 108.94 199.879 109.43C200.899 109.92 200.789 110.2 201.879 110.61C202.969 111.02 203.279 110.59 204.109 111.36Z" fill="#859ACA"/>
</g>
<defs>
<clipPath id="clip0_779_11659">
<rect width="205.51" height="115.34" fill="white"/>
</clipPath>
</defs>
</svg>
