<svg width="200" height="140" viewBox="0 0 200 140" fill="none" xmlns="http://www.w3.org/2000/svg">
<g filter="url(#filter0_i_918_9700)">
<rect width="200" height="140" rx="10" fill="white"/>
</g>
<path d="M77.3576 102.766C77.5443 102.766 77.7076 102.813 77.8476 102.906C77.997 102.999 78.0716 103.149 78.0716 103.354V105.44C78.0716 105.739 78.0903 106.009 78.1276 106.252C78.165 106.485 78.2256 106.709 78.3096 106.924C78.403 107.139 78.5196 107.349 78.6596 107.554C78.7996 107.759 78.977 107.974 79.1916 108.198C79.4716 108.497 79.747 108.786 80.0176 109.066C80.2976 109.337 80.559 109.584 80.8016 109.808C80.9416 109.929 80.9976 110.074 80.9696 110.242C80.951 110.41 80.8856 110.555 80.7736 110.676C80.671 110.788 80.531 110.858 80.3536 110.886C80.1856 110.914 80.0363 110.867 79.9056 110.746C79.4763 110.345 78.9956 109.864 78.4636 109.304C78.2583 109.099 78.0903 108.917 77.9596 108.758C77.829 108.599 77.7216 108.464 77.6376 108.352C77.5536 108.231 77.4883 108.128 77.4416 108.044C77.4043 107.96 77.381 107.881 77.3716 107.806H77.3576C77.339 107.89 77.311 107.979 77.2736 108.072C77.2363 108.156 77.1756 108.259 77.0916 108.38C77.0076 108.501 76.9003 108.641 76.7696 108.8C76.639 108.949 76.471 109.127 76.2656 109.332C75.995 109.612 75.729 109.883 75.4676 110.144C75.2063 110.396 74.9263 110.662 74.6276 110.942C74.4783 111.073 74.3196 111.119 74.1516 111.082C73.9836 111.035 73.8483 110.951 73.7456 110.83C73.6336 110.699 73.573 110.555 73.5636 110.396C73.5543 110.237 73.615 110.093 73.7456 109.962C74.063 109.663 74.371 109.369 74.6696 109.08C74.9683 108.791 75.2576 108.497 75.5376 108.198C75.743 107.974 75.9156 107.759 76.0556 107.554C76.1956 107.349 76.3076 107.139 76.3916 106.924C76.485 106.709 76.5503 106.485 76.5876 106.252C76.625 106.009 76.6436 105.739 76.6436 105.44V103.354C76.6436 103.149 76.7136 102.999 76.8536 102.906C77.003 102.813 77.171 102.766 77.3576 102.766ZM82.7896 102.108C82.9763 102.108 83.1396 102.155 83.2796 102.248C83.4196 102.341 83.4896 102.491 83.4896 102.696V106.336H85.0296C85.2163 106.336 85.347 106.397 85.4216 106.518C85.5056 106.63 85.5476 106.77 85.5476 106.938C85.5476 107.106 85.5056 107.251 85.4216 107.372C85.347 107.493 85.2163 107.554 85.0296 107.554H83.4896V113.616C83.4896 113.821 83.4196 113.971 83.2796 114.064C83.1396 114.157 82.9763 114.204 82.7896 114.204C82.603 114.204 82.4396 114.157 82.2996 114.064C82.1596 113.971 82.0896 113.821 82.0896 113.616V102.696C82.0896 102.491 82.1596 102.341 82.2996 102.248C82.4396 102.155 82.603 102.108 82.7896 102.108ZM93.2638 102.948C93.4318 102.948 93.5531 103.009 93.6278 103.13C93.7118 103.251 93.7538 103.391 93.7538 103.55C93.7538 103.709 93.7118 103.849 93.6278 103.97C93.5531 104.091 93.4318 104.152 93.2638 104.152H90.9818V104.922C90.9818 105.389 91.0611 105.79 91.2198 106.126C91.3785 106.453 91.6258 106.756 91.9618 107.036C92.2698 107.307 92.5685 107.554 92.8578 107.778C93.1565 108.002 93.4131 108.193 93.6278 108.352C93.7865 108.464 93.8658 108.599 93.8658 108.758C93.8751 108.917 93.8285 109.071 93.7258 109.22C93.6325 109.341 93.5065 109.43 93.3478 109.486C93.1891 109.533 93.0258 109.495 92.8578 109.374C92.6711 109.234 92.4471 109.061 92.1858 108.856C91.9245 108.651 91.6445 108.427 91.3458 108.184C90.9911 107.895 90.7391 107.657 90.5898 107.47C90.4405 107.283 90.3471 107.115 90.3098 106.966H90.2958C90.2585 107.125 90.1605 107.307 90.0018 107.512C89.8431 107.708 89.5865 107.951 89.2318 108.24C88.9331 108.492 88.6345 108.735 88.3358 108.968C88.0465 109.192 87.7618 109.402 87.4818 109.598C87.3231 109.71 87.1598 109.743 86.9918 109.696C86.8331 109.64 86.7118 109.551 86.6278 109.43C86.5251 109.299 86.4738 109.15 86.4738 108.982C86.4738 108.814 86.5578 108.669 86.7258 108.548C87.3605 108.091 87.9858 107.601 88.6018 107.078C88.9378 106.789 89.1851 106.481 89.3438 106.154C89.5025 105.827 89.5818 105.431 89.5818 104.964V104.152H87.2018C87.0245 104.152 86.8938 104.091 86.8098 103.97C86.7351 103.849 86.6978 103.709 86.6978 103.55C86.6978 103.391 86.7351 103.251 86.8098 103.13C86.8938 103.009 87.0245 102.948 87.2018 102.948H93.2638ZM95.9938 102.108C96.1805 102.108 96.3438 102.155 96.4838 102.248C96.6238 102.341 96.6938 102.491 96.6938 102.696V110.984C96.6938 111.189 96.6238 111.339 96.4838 111.432C96.3438 111.525 96.1805 111.572 95.9938 111.572C95.8071 111.572 95.6438 111.525 95.5038 111.432C95.3638 111.339 95.2938 111.189 95.2938 110.984V102.696C95.2938 102.491 95.3638 102.341 95.5038 102.248C95.6438 102.155 95.8071 102.108 95.9938 102.108ZM89.2318 110.396C89.4091 110.396 89.5678 110.443 89.7078 110.536C89.8571 110.629 89.9318 110.779 89.9318 110.984V113.35C89.9318 113.453 89.9505 113.523 89.9878 113.56C90.0345 113.607 90.1138 113.63 90.2258 113.63H96.5258C96.7031 113.63 96.8291 113.691 96.9038 113.812C96.9878 113.933 97.0298 114.078 97.0298 114.246C97.0298 114.405 96.9878 114.545 96.9038 114.666C96.8291 114.787 96.7031 114.848 96.5258 114.848H89.5958C89.1851 114.848 88.9005 114.773 88.7418 114.624C88.5925 114.475 88.5178 114.199 88.5178 113.798V110.984C88.5178 110.779 88.5878 110.629 88.7278 110.536C88.8771 110.443 89.0451 110.396 89.2318 110.396ZM110.164 102.892C110.332 102.892 110.453 102.953 110.528 103.074C110.612 103.195 110.654 103.335 110.654 103.494C110.654 103.653 110.612 103.793 110.528 103.914C110.453 104.026 110.332 104.082 110.164 104.082H108.96V104.838C108.96 105.099 108.969 105.333 108.988 105.538C109.016 105.734 109.053 105.916 109.1 106.084C109.156 106.243 109.226 106.392 109.31 106.532C109.394 106.672 109.501 106.817 109.632 106.966C109.809 107.162 109.977 107.349 110.136 107.526C110.295 107.694 110.467 107.876 110.654 108.072C110.785 108.212 110.836 108.357 110.808 108.506C110.789 108.655 110.729 108.791 110.626 108.912C110.533 109.015 110.402 109.08 110.234 109.108C110.075 109.136 109.921 109.08 109.772 108.94C109.613 108.781 109.464 108.627 109.324 108.478C109.193 108.329 109.053 108.17 108.904 108.002C108.717 107.787 108.577 107.601 108.484 107.442C108.391 107.274 108.33 107.115 108.302 106.966H108.288C108.241 107.274 108.069 107.619 107.77 108.002C107.639 108.189 107.509 108.357 107.378 108.506C107.257 108.646 107.131 108.791 107 108.94C106.701 109.248 106.393 109.248 106.076 108.94C105.945 108.791 105.819 108.646 105.698 108.506C105.577 108.357 105.446 108.189 105.306 108.002C104.998 107.591 104.825 107.246 104.788 106.966H104.774C104.755 107.115 104.699 107.274 104.606 107.442C104.522 107.61 104.382 107.801 104.186 108.016C104.027 108.184 103.873 108.343 103.724 108.492C103.584 108.641 103.421 108.809 103.234 108.996C103.094 109.136 102.94 109.192 102.772 109.164C102.613 109.136 102.483 109.066 102.38 108.954C102.277 108.842 102.212 108.711 102.184 108.562C102.165 108.403 102.221 108.254 102.352 108.114C102.576 107.89 102.767 107.694 102.926 107.526C103.094 107.349 103.267 107.162 103.444 106.966C103.575 106.817 103.682 106.672 103.766 106.532C103.859 106.392 103.929 106.243 103.976 106.084C104.032 105.916 104.069 105.734 104.088 105.538C104.116 105.333 104.13 105.099 104.13 104.838V104.082H102.926C102.749 104.082 102.618 104.026 102.534 103.914C102.459 103.793 102.422 103.653 102.422 103.494C102.422 103.335 102.459 103.195 102.534 103.074C102.618 102.953 102.749 102.892 102.926 102.892H110.164ZM105.432 104.838C105.432 105.081 105.437 105.291 105.446 105.468C105.455 105.636 105.474 105.785 105.502 105.916C105.53 106.047 105.567 106.173 105.614 106.294C105.661 106.406 105.721 106.527 105.796 106.658C105.861 106.779 105.936 106.905 106.02 107.036C106.104 107.167 106.202 107.297 106.314 107.428C106.407 107.559 106.482 107.624 106.538 107.624C106.603 107.624 106.683 107.559 106.776 107.428C106.879 107.288 106.972 107.157 107.056 107.036C107.149 106.905 107.229 106.779 107.294 106.658C107.359 106.527 107.415 106.406 107.462 106.294C107.509 106.173 107.546 106.047 107.574 105.916C107.602 105.785 107.621 105.636 107.63 105.468C107.639 105.291 107.644 105.081 107.644 104.838V104.082H105.432V104.838ZM112.32 102.108C112.497 102.108 112.651 102.155 112.782 102.248C112.922 102.341 112.992 102.481 112.992 102.668V109.108C112.992 109.304 112.922 109.449 112.782 109.542C112.651 109.635 112.497 109.682 112.32 109.682C112.152 109.682 112.003 109.635 111.872 109.542C111.741 109.449 111.676 109.304 111.676 109.108V102.668C111.676 102.481 111.741 102.341 111.872 102.248C112.003 102.155 112.152 102.108 112.32 102.108ZM111.914 110.284C112.325 110.284 112.605 110.359 112.754 110.508C112.913 110.657 112.992 110.933 112.992 111.334V114.54C112.992 114.745 112.922 114.895 112.782 114.988C112.642 115.081 112.479 115.128 112.292 115.128C112.105 115.128 111.942 115.081 111.802 114.988C111.662 114.895 111.592 114.745 111.592 114.54V111.768C111.592 111.581 111.494 111.488 111.298 111.488H104.676C104.499 111.488 104.368 111.427 104.284 111.306C104.209 111.185 104.172 111.045 104.172 110.886C104.172 110.727 104.209 110.587 104.284 110.466C104.368 110.345 104.499 110.284 104.676 110.284H111.914ZM120.204 103.06C120.615 103.06 120.895 103.135 121.044 103.284C121.203 103.433 121.282 103.709 121.282 104.11V105.692C121.282 106.084 121.259 106.439 121.212 106.756C121.166 107.064 121.077 107.358 120.946 107.638C120.816 107.918 120.634 108.193 120.4 108.464C120.167 108.725 119.864 109.005 119.49 109.304C119.126 109.593 118.683 109.911 118.16 110.256C117.638 110.601 117.017 110.993 116.298 111.432C116.14 111.525 115.981 111.544 115.822 111.488C115.664 111.423 115.538 111.325 115.444 111.194C115.351 111.063 115.304 110.909 115.304 110.732C115.314 110.555 115.398 110.415 115.556 110.312C116.219 109.911 116.784 109.561 117.25 109.262C117.726 108.954 118.123 108.679 118.44 108.436C118.758 108.184 119.01 107.955 119.196 107.75C119.392 107.535 119.542 107.325 119.644 107.12C119.747 106.905 119.812 106.681 119.84 106.448C119.868 106.205 119.882 105.935 119.882 105.636V104.558C119.882 104.455 119.859 104.385 119.812 104.348C119.775 104.301 119.7 104.278 119.588 104.278H115.948C115.771 104.278 115.64 104.217 115.556 104.096C115.482 103.975 115.444 103.835 115.444 103.676C115.444 103.508 115.482 103.363 115.556 103.242C115.64 103.121 115.771 103.06 115.948 103.06H120.204ZM124.544 102.108C124.731 102.108 124.894 102.155 125.034 102.248C125.184 102.341 125.258 102.491 125.258 102.696V113.616C125.258 113.821 125.184 113.971 125.034 114.064C124.894 114.157 124.731 114.204 124.544 114.204C124.367 114.204 124.204 114.157 124.054 114.064C123.914 113.971 123.844 113.821 123.844 113.616V102.696C123.844 102.491 123.914 102.341 124.054 102.248C124.204 102.155 124.367 102.108 124.544 102.108Z" fill="black"/>
<path d="M86.51 32C88.74 32 88.74 32.0801 90.98 32.0801C93.22 32.0801 93.2102 32.29 95.4402 32.29C97.6702 32.29 97.6802 32.0901 99.9102 32.0901H108.85C111.09 32.0901 111.09 32 113.33 32C114.036 32.041 114.699 32.3512 115.183 32.8666C115.666 33.382 115.934 34.0632 115.93 34.77C115.93 36.5 116.1 36.5001 116.1 38.2301C116.056 38.9235 115.741 39.5716 115.222 40.0339C114.704 40.4963 114.024 40.7357 113.33 40.7001C111.09 40.7001 111.09 40.8701 108.86 40.8701C106.63 40.8701 106.63 40.77 104.39 40.77C102.15 40.77 102.16 40.7101 99.9302 40.7101C97.7002 40.7101 97.69 40.66 95.46 40.66C93.23 40.66 93.22 40.9801 90.98 40.9801C88.74 40.9801 88.75 40.8601 86.51 40.8601C85.8007 40.8585 85.1192 40.5848 84.6057 40.0955C84.0922 39.6061 83.7858 38.9385 83.75 38.2301C83.75 36.5001 83.75 36.5 83.75 34.77C83.7794 34.0465 84.0795 33.3604 84.5906 32.8474C85.1017 32.3344 85.7866 32.032 86.51 32Z" fill="#89BAFF"/>
<path d="M123.348 34.54H126.348C126.878 34.54 127.387 34.7508 127.762 35.1259C128.137 35.5009 128.348 36.0096 128.348 36.54V40.54C128.348 41.0705 128.137 41.5792 127.762 41.9542C127.387 42.3293 126.878 42.54 126.348 42.54C124.848 42.54 124.848 42.54 123.348 42.54C122.817 42.54 122.308 42.3293 121.933 41.9542C121.558 41.5792 121.348 41.0705 121.348 40.54C121.348 38.54 121.348 38.54 121.348 36.54C121.348 36.0096 121.558 35.5009 121.933 35.1259C122.308 34.7508 122.817 34.54 123.348 34.54Z" fill="#89BAFF"/>
<path d="M68.8901 38.3096C71.1201 38.3096 71.1201 38.1796 73.3401 38.1796C75.5601 38.1796 75.57 38.2595 77.79 38.2595C80.01 38.2595 80.01 38.1096 82.23 38.1096C84.45 38.1096 84.4602 38.3396 86.6802 38.3396C88.9002 38.3396 88.9001 38.0996 91.1201 38.0996H95.5701C97.8001 38.0996 97.8 38.2096 100.02 38.2096H104.47C106.7 38.2096 106.7 38.3396 108.92 38.3396H113.37C115.59 38.3396 115.59 38.1295 117.82 38.1295C120.05 38.1295 120.04 38.2495 122.27 38.2495C124.5 38.2495 124.5 38.2495 126.72 38.2495C128.94 38.2495 128.95 38.3895 131.18 38.3895C132.527 38.373 133.853 38.7184 135.02 39.3895C136.246 40.0055 137.269 40.9608 137.967 42.1415C138.666 43.3222 139.01 44.6786 138.96 46.0496C138.96 48.4496 139.09 48.4496 139.09 50.8596C139.09 53.2696 139.09 53.2696 139.09 55.6796C139.09 58.0896 138.98 58.0895 138.98 60.4995C138.98 62.9095 139.09 62.9096 139.09 65.3096C139.09 67.7096 139.09 67.7195 139.09 70.1295C139.09 72.5395 138.83 72.5496 138.83 74.9596C138.83 77.3696 139.12 77.3695 139.12 79.7795C139.111 81.1582 138.736 82.5098 138.033 83.6958C137.33 84.8818 136.325 85.8597 135.12 86.5295C133.935 87.2011 132.592 87.5462 131.23 87.5295C129.01 87.5295 129.01 87.4696 126.78 87.4696C124.55 87.4696 124.56 87.4696 122.34 87.4696C120.12 87.4696 120.11 87.7495 117.89 87.7495C115.67 87.7495 115.67 87.7495 113.44 87.7495C111.21 87.7495 111.22 87.5496 109 87.5496C106.78 87.5496 106.78 87.5496 104.55 87.5496C102.32 87.5496 102.33 87.5496 100.1 87.5496C97.8701 87.5496 97.8801 87.6896 95.6501 87.6896C93.4201 87.6896 93.43 87.5396 91.2 87.5396C88.97 87.5396 88.98 87.6595 86.76 87.6595C84.54 87.6595 84.5301 87.6595 82.3101 87.6595C80.0901 87.6595 80.0801 87.5295 77.8601 87.5295C75.6401 87.5295 75.6301 87.6796 73.4001 87.6796C71.1701 87.6796 71.1702 87.5896 68.9402 87.5896C67.568 87.6097 66.2149 87.2646 65.02 86.5896C63.8179 85.9107 62.8121 84.9323 62.1001 83.7495C61.4056 82.5312 61.0434 81.1518 61.05 79.7495C61.05 77.3395 61.1101 77.3396 61.1101 74.9396C61.1101 72.5396 61.1101 72.5296 61.1101 70.1196C61.1101 67.7096 61.2 67.7096 61.2 65.2996C61.2 62.8896 61.0701 62.8896 61.0701 60.4896C61.0701 58.0896 61.1401 58.0695 61.1401 55.6595C61.1401 53.2495 61.25 53.2496 61.25 50.8396C61.25 48.4296 61 48.4295 61 46.0195C61.0481 44.6373 61.4388 43.2887 62.137 42.0948C62.8351 40.901 63.819 39.8992 65 39.1796C66.1983 38.5545 67.5397 38.2545 68.8901 38.3096Z" fill="#AFD0FF"/>
<circle cx="100" cy="63" r="15" fill="#AED0FF"/>
<path d="M100.039 81.0502C98.1114 81.1299 96.1837 80.9004 94.3289 80.3703C92.5181 79.708 90.8288 78.7518 89.3289 77.5402C87.7786 76.4261 86.412 75.0765 85.2788 73.5402C84.0845 72.0303 83.133 70.3433 82.4588 68.5402C81.2898 64.8267 81.2898 60.8437 82.4588 57.1301C83.0445 55.5543 83.8895 54.0875 84.9588 52.7902L85.5088 52.0402C86.5212 50.4947 87.7775 49.1236 89.2288 47.9802C90.7877 46.8466 92.5157 45.9658 94.3489 45.3703C97.0879 44.3428 100.046 44.0394 102.936 44.4896C105.827 44.9399 108.552 46.1284 110.849 47.9402C112.402 49.0853 113.772 50.4612 114.909 52.0202C116.043 53.5827 116.923 55.3138 117.519 57.1502C118.539 60.8529 118.438 64.7748 117.229 68.4202L117.019 69.1102C116.588 70.7394 115.892 72.2866 114.959 73.6902C113.817 75.252 112.441 76.6282 110.879 77.7702C107.668 79.918 103.892 81.0664 100.029 81.0702L100.039 81.0502ZM100.039 50.5202C97.4289 50.4583 94.8721 51.2637 92.7688 52.8102C91.8376 53.5968 91.0318 54.5208 90.3789 55.5502L89.7688 56.3602C89.112 57.1427 88.5762 58.019 88.179 58.9602C87.7831 60.205 87.584 61.504 87.5889 62.8102C87.6561 64.7498 88.1657 66.6483 89.0791 68.3607C89.9925 70.0731 91.2855 71.554 92.8589 72.6902C93.8646 73.5168 94.9868 74.1907 96.189 74.6902C97.4472 75.0026 98.7439 75.1306 100.039 75.0702C101.323 75.0887 102.603 74.903 103.829 74.5202C105.078 74.1642 106.268 73.6251 107.359 72.9202C108.416 72.1481 109.347 71.2171 110.119 70.1602C110.649 69.2729 111.047 68.3127 111.299 67.3102L111.529 66.5702C111.96 65.3691 112.193 64.106 112.219 62.8302C112.274 61.5414 112.143 60.2513 111.829 59.0001C111.012 56.5119 109.439 54.3409 107.329 52.7902C106.294 51.9888 105.145 51.3482 103.919 50.8902C102.65 50.5832 101.343 50.4586 100.039 50.5202Z" fill="#6AA6FB"/>
<path d="M100.039 57.1697C100.787 57.1486 101.533 57.2765 102.231 57.5461C102.93 57.8156 103.568 58.2214 104.109 58.7398C105.189 59.8188 105.797 61.2827 105.799 62.8097C105.739 64.3184 105.114 65.7493 104.046 66.8169C102.978 67.8846 101.547 68.5105 100.039 68.5697C98.8936 68.5786 97.772 68.2458 96.817 67.6142C95.8619 66.9825 95.1166 66.0805 94.6766 65.0234C94.2365 63.9662 94.1217 62.8019 94.3465 61.6791C94.5713 60.5563 95.1257 59.526 95.9388 58.7198C96.4848 58.2018 97.1286 57.7979 97.8326 57.5318C98.5366 57.2656 99.2865 57.1425 100.039 57.1697Z" fill="#6AA6FB"/>
<path d="M98.3779 58.9801C98.6472 58.9693 98.9158 59.0131 99.1677 59.1088C99.4197 59.2044 99.6497 59.35 99.844 59.5368C100.038 59.7236 100.193 59.9478 100.298 60.1958C100.404 60.4438 100.458 60.7106 100.458 60.9801C100.455 61.5319 100.236 62.0605 99.8464 62.4516C99.4572 62.8427 98.9297 63.0648 98.3779 63.0701C97.8224 63.065 97.2906 62.8441 96.895 62.4541C96.4994 62.0641 96.2708 61.5355 96.2578 60.9801C96.2656 60.7096 96.3267 60.4431 96.4375 60.1962C96.5483 59.9492 96.7064 59.7265 96.9033 59.5408C97.1002 59.355 97.332 59.2099 97.585 59.1137C97.838 59.0175 98.1074 58.9721 98.3779 58.9801Z" fill="#EFF5FF"/>
<defs>
<filter id="filter0_i_918_9700" x="0" y="-4" width="200" height="144" filterUnits="userSpaceOnUse" color-interpolation-filters="sRGB">
<feFlood flood-opacity="0" result="BackgroundImageFix"/>
<feBlend mode="normal" in="SourceGraphic" in2="BackgroundImageFix" result="shape"/>
<feColorMatrix in="SourceAlpha" type="matrix" values="0 0 0 0 0 0 0 0 0 0 0 0 0 0 0 0 0 0 127 0" result="hardAlpha"/>
<feOffset dy="-4"/>
<feGaussianBlur stdDeviation="5"/>
<feComposite in2="hardAlpha" operator="arithmetic" k2="-1" k3="1"/>
<feColorMatrix type="matrix" values="0 0 0 0 0.341176 0 0 0 0 0.615686 0 0 0 0 1 0 0 0 0.3 0"/>
<feBlend mode="normal" in2="shape" result="effect1_innerShadow_918_9700"/>
</filter>
</defs>
</svg>
