<svg width="147" height="77" viewBox="0 0 147 77" fill="none" xmlns="http://www.w3.org/2000/svg">
<path d="M23.9426 73.53C23.497 74.2856 22.8605 74.9106 22.0969 75.3424C21.3334 75.7742 20.4697 75.9976 19.5925 75.99C18.7177 75.9925 17.858 75.7612 17.1026 75.32L14.5026 73.82C13.7419 73.3909 13.11 72.7659 12.6726 72.01C12.2302 71.2509 11.9957 70.3886 11.9926 69.51C11.9815 68.629 12.2096 67.7616 12.6525 67C13.1525 66.14 13.1625 66.15 13.6525 65.29C14.1425 64.43 14.1625 64.43 14.6525 63.56C15.1425 62.69 15.1225 62.68 15.6525 61.82C16.1825 60.96 15.6525 60.31 16.6525 60.09C17.6525 59.87 17.6526 60.6 18.5426 61.14C19.4326 61.68 19.4625 61.72 20.4025 62.26C21.3425 62.8 21.4026 62.77 22.2926 63.31L24.1626 64.4L26.0426 65.49C26.9826 66.03 27.6126 65.55 27.9426 66.58C28.2726 67.61 27.4226 67.45 26.9426 68.32C26.4626 69.19 26.4626 69.2 25.9426 70.06C25.4226 70.92 25.4326 70.92 24.9426 71.79C24.4526 72.66 24.4426 72.66 23.9426 73.53Z" fill="#805656"/>
<path d="M122.158 73.5096C122.588 74.2758 123.217 74.9116 123.978 75.3496C124.736 75.7944 125.599 76.0289 126.478 76.0289C127.357 76.0289 128.22 75.7944 128.978 75.3496L131.578 73.8496C132.349 73.424 132.992 72.7988 133.438 72.0395C133.87 71.2769 134.096 70.4157 134.096 69.5395C134.096 68.6634 133.87 67.8022 133.438 67.0395C132.938 66.1695 132.968 66.1495 132.438 65.2895C131.908 64.4295 131.958 64.4196 131.438 63.5496L130.438 61.8195C129.938 60.9495 130.438 60.2996 129.438 60.0796C128.438 59.8596 128.498 60.6296 127.558 61.1696C126.618 61.7096 126.628 61.7295 125.688 62.2695L123.818 63.3596C122.888 63.8996 122.878 63.8895 121.938 64.4295L120.048 65.4996C119.108 66.0396 118.518 65.5695 118.198 66.5995C117.878 67.6295 118.678 67.4595 119.198 68.3195C119.718 69.1795 119.718 69.1695 120.198 70.0395C120.678 70.9095 120.668 70.9195 121.198 71.7895C121.728 72.6595 121.658 72.6396 122.158 73.5096Z" fill="#805656"/>
<path d="M35.4402 10.4404H110.88C127.33 10.4404 140.66 23.3604 140.66 39.3004C140.66 55.2304 127.33 68.1504 110.88 68.1504H35.4402C18.9902 68.1504 5.66016 55.2304 5.66016 39.3004C5.66016 23.3604 18.9902 10.4404 35.4402 10.4404Z" fill="#D9D9D9"/>
<path d="M33.2607 5.09C33.2481 4.22726 33.4693 3.3772 33.9007 2.62999C34.3295 1.87764 34.9507 1.25293 35.7007 0.819992C36.4353 0.338619 37.2838 0.0592486 38.1607 0.00999451C39.2707 0.00999451 39.2707 0.0599976 40.3807 0.0599976C41.4907 0.0599976 41.4907 0 42.6007 0H44.8207C45.9307 0 45.9307 0.0699921 47.0407 0.0699921C48.1507 0.0699921 48.1507 0.190002 49.2607 0.190002C50.3707 0.190002 50.3707 0.0299988 51.4807 0.0299988H53.7007C54.8107 0.0299988 54.8107 0.110001 55.9207 0.110001C57.0307 0.110001 57.0307 0.110001 58.1407 0.110001C59.2507 0.110001 59.2508 0.110001 60.3708 0.110001H62.5907C63.7007 0.110001 63.7008 0.209991 64.8108 0.209991C65.9208 0.209991 65.9207 0.209991 67.0307 0.209991C68.1407 0.209991 68.1408 0.149994 69.2508 0.149994C70.3608 0.149994 70.3707 0.199997 71.4807 0.199997C72.5907 0.199997 72.5907 0.119995 73.7007 0.119995C74.8107 0.119995 74.8208 0.119995 75.9308 0.119995C77.0408 0.119995 77.0507 0.269989 78.1607 0.269989C79.03 0.255762 79.8869 0.476918 80.6407 0.910004C81.4204 1.32403 82.0787 1.93406 82.5507 2.67999C82.9921 3.45044 83.2264 4.32208 83.2307 5.20999C83.2307 6.70999 84.1307 7.05999 83.2307 8.25999C82.5507 9.15999 82.0407 8.25999 80.9007 8.25999C79.7607 8.25999 79.7707 8.14 78.6407 8.14C77.5107 8.14 77.5008 8.19 76.3708 8.19C75.2408 8.19 75.2307 8.19 74.1007 8.19C72.9707 8.19 72.9607 8.23999 71.8307 8.23999C70.7007 8.23999 70.6908 8.16 69.5608 8.16C68.4308 8.16 68.4207 8.08 67.2907 8.08H65.0107C63.8807 8.08 63.8807 8.19 62.7407 8.19C61.6007 8.19 61.6107 8.23999 60.4707 8.23999H58.1607C57.0207 8.23999 57.0207 8.23999 55.8807 8.23999C54.7407 8.23999 54.7507 8.23999 53.6107 8.23999C52.4707 8.23999 52.4707 8.17999 51.3407 8.17999C50.2107 8.17999 50.2008 8.08 49.0608 8.08C47.9208 8.08 47.9307 8.08 46.7907 8.08C45.6507 8.08 45.6607 8.22 44.5207 8.22C43.3807 8.22 43.3807 8.12 42.2407 8.12H39.9707H37.6908H35.4107C34.2707 8.12 34.0207 8.85 33.0807 8.2C31.8707 7.31 33.2607 6.59 33.2607 5.09Z" fill="#805656"/>
<path d="M99.1624 5.08982C99.1624 3.76374 99.6892 2.49196 100.627 1.55428C101.565 0.6166 102.836 0.0898196 104.162 0.0898196C105.662 0.0898196 105.662 0.0898196 107.162 0.0898196C108.04 0.0725636 108.907 0.290062 109.672 0.719824C110.425 1.17059 111.048 1.80777 111.482 2.56982C111.931 3.33347 112.166 4.20398 112.162 5.08982C112.162 6.58982 113.052 6.85982 112.162 8.08982C111.532 8.96982 111.102 8.08982 110.022 8.08982C108.942 8.08982 108.932 8.08982 107.852 8.08982H101.352C100.262 8.08982 100.072 8.68982 99.1824 8.08982C97.9224 7.23982 99.1624 6.58982 99.1624 5.08982Z" fill="#805656"/>
<path d="M108.86 71.7702C107.997 71.7777 107.136 71.6736 106.3 71.4602C105.469 71.6641 104.616 71.7649 103.76 71.7602C102.96 71.7602 102.56 71.7602 102.16 71.7602C101.92 71.7602 101.69 71.7602 101.16 71.7602H98.62H97.54C97.17 71.7602 96.8099 71.7602 96.0699 71.7602C95.3427 71.7655 94.6164 71.7053 93.9 71.5802C93.7737 71.5654 93.6462 71.5654 93.52 71.5802H93.3C92.5336 71.7387 91.7526 71.8158 90.97 71.8102C90.18 71.8102 89.79 71.8102 89.39 71.8102C89.15 71.8102 88.91 71.8102 88.39 71.8102C87.7652 71.8124 87.1409 71.779 86.52 71.7102C86.2937 71.6921 86.0663 71.6921 85.84 71.7102C85.1707 71.7137 84.5022 71.6669 83.84 71.5702C83.6637 71.554 83.4863 71.554 83.31 71.5702H82.18H80.7599C80.2799 71.5702 80.0299 71.5702 79.7599 71.5702C79.3599 71.5702 78.97 71.5702 78.19 71.5702C78.1237 71.56 78.0563 71.56 77.99 71.5702H77.84C77.1139 71.6998 76.3775 71.7634 75.64 71.7602C74.8815 71.7655 74.1244 71.6951 73.3799 71.5502H73.24H73.16C72.3 71.5502 71.8 71.5502 71.44 71.4802C71.23 71.4802 71.03 71.4802 70.62 71.4802C70.21 71.4802 70.03 71.4802 69.83 71.4802C69.2419 71.5401 68.651 71.5668 68.06 71.5602C67.8136 71.5449 67.5664 71.5449 67.3199 71.5602C66.7222 71.6245 66.1212 71.6546 65.52 71.6502C65.3303 71.6336 65.1396 71.6336 64.95 71.6502C64.2875 71.7439 63.6189 71.7873 62.95 71.7802C62.0728 71.791 61.1983 71.6833 60.35 71.4602C60.1504 71.4428 59.9496 71.4428 59.75 71.4602C59.1198 71.5386 58.485 71.5753 57.85 71.5702C57.14 71.5702 56.78 71.5702 56.43 71.5702H55.3C54.8 71.5702 54.56 71.5702 54.3 71.5702C54.04 71.5702 53.52 71.5702 52.73 71.5702C52.1053 71.5724 51.4809 71.539 50.86 71.4702C50.6337 71.4521 50.4063 71.4521 50.18 71.4702H50.08C49.2754 71.6472 48.4537 71.7344 47.6299 71.7302C46.713 71.7387 45.801 71.5968 44.93 71.3102C44.1467 71.5154 43.3397 71.6162 42.53 71.6102C41.9522 71.6168 41.3746 71.5901 40.8 71.5302C40.59 71.5302 40.39 71.5302 39.98 71.5302C39.2183 71.5347 38.4579 71.4644 37.71 71.3202H37.5699H37.42C37.2001 71.3081 36.9798 71.3081 36.7599 71.3202C36.1297 71.3986 35.495 71.4353 34.86 71.4302C34.1366 71.4323 33.4141 71.3755 32.7 71.2602C32.5707 71.241 32.4393 71.241 32.31 71.2602H32.16C31.31 71.2602 30.34 71.2602 29.3 71.1702H28.94C26.9736 71.4046 24.9836 71.0052 23.2599 70.0302L23.09 69.9402H22.92C21.8906 69.8714 20.8784 69.6419 19.92 69.2602C19.06 68.9002 18.03 68.4602 17.04 67.9302C16.3062 67.5242 15.5982 67.0734 14.92 66.5802L14.37 66.2002C13.6852 65.7299 13.0398 65.2049 12.44 64.6302L11.92 64.1702C11.16 63.5402 10.4 62.8502 9.59998 62.0502C8.98618 61.4166 8.40862 60.7488 7.87 60.0502L7.53998 59.6502C6.2365 58.017 5.10391 56.2544 4.15997 54.3902C3.7027 53.5193 3.29214 52.6247 2.92999 51.7102L2.78998 51.5102C2.16588 50.6598 1.68302 49.7143 1.35999 48.7102C1.12439 47.8771 0.970312 47.0231 0.899963 46.1602C0.887087 45.9624 0.863713 45.7655 0.829956 45.5702L0.72998 45.0802L0.669983 44.8002H0V39.3002C0.0118021 38.4579 0.0954387 37.6182 0.25 36.7902C0.25 36.5702 0.329976 36.3602 0.349976 36.1502C0.438712 35.3267 0.589146 34.5111 0.799988 33.7102C0.799988 33.4902 0.909951 33.2702 0.949951 33.0402C1.18995 31.8602 1.42995 30.8902 1.69995 29.9702C1.76995 29.7502 1.81994 29.5302 1.87994 29.3002C2.05906 28.4951 2.30323 27.7058 2.60999 26.9402C2.93762 26.1809 3.31858 25.4457 3.75 24.7402C3.87 24.5402 3.98998 24.3402 4.09998 24.1402C4.50303 23.4084 4.96808 22.7125 5.48999 22.0602C5.61999 21.8902 5.75994 21.7202 5.87994 21.5402C5.99994 21.3602 6.01997 21.2802 6.08997 21.1302C6.48214 20.3172 6.96163 19.5494 7.51996 18.8402C8.13996 18.0902 8.83996 17.3302 9.64996 16.5102C10.2767 15.9051 10.9636 15.3656 11.7 14.9002C11.85 14.8002 12.01 14.7002 12.15 14.5902L12.67 14.1402C13.2777 13.5898 13.9225 13.0819 14.6 12.6202L14.99 12.3002C15.6601 11.7037 16.3946 11.1838 17.18 10.7502C18.1036 10.2286 19.055 9.7579 20.03 9.34017C20.7988 9.03447 21.5872 8.78057 22.39 8.58018L23.06 8.39018L23.72 8.18017C24.5033 7.89828 25.3052 7.67107 26.12 7.50018C26.9869 7.33978 27.869 7.27605 28.75 7.31018C28.9299 7.32016 29.1101 7.32016 29.29 7.31018L29.97 7.23017C30.7878 7.10765 31.6131 7.04083 32.44 7.03018C33.32 7.03018 33.84 7.03018 34.21 7.11018C34.4664 7.12556 34.7235 7.12556 34.98 7.11018C35.1126 7.12989 35.2473 7.12989 35.3799 7.11018C36.0907 6.99433 36.8098 6.93747 37.53 6.94018C38 6.94018 38.24 6.94018 38.47 6.94018C38.87 6.94018 39.28 6.89018 40.08 6.89018C41.0012 6.88019 41.9186 7.01172 42.8 7.28018H43.65C44.03 7.28018 44.41 7.28018 45.18 7.28018H45.3C46.0936 7.09845 46.9059 7.01117 47.72 7.02017H55.37C56.2619 7.01465 57.1503 7.13244 58.0099 7.37017H58.58C59.2068 7.29136 59.8382 7.25461 60.47 7.26017C60.7431 7.27451 61.0168 7.27451 61.29 7.26017C61.65 7.26017 62.1499 7.19018 63.0099 7.19018C63.2464 7.20539 63.4835 7.20539 63.72 7.19018C64.3311 7.12545 64.9455 7.09539 65.56 7.10017C66.2599 7.09596 66.9589 7.14948 67.65 7.26017C67.7996 7.27541 67.9504 7.27541 68.1 7.26017C68.8584 7.25488 69.6155 7.32524 70.36 7.47018H70.5H73.16C73.9877 7.26617 74.8375 7.1654 75.69 7.17018C75.9198 7.1827 76.1501 7.1827 76.3799 7.17018C77.0004 7.09591 77.6251 7.06249 78.25 7.07017H80.79C81.59 7.07017 82.0399 7.07018 82.5099 7.14018C82.7864 7.15544 83.0635 7.15544 83.34 7.14018C83.85 7.14018 84.11 7.14018 84.34 7.14018C84.57 7.14018 85.1 7.14018 85.86 7.14018C86.5017 7.13515 87.143 7.1719 87.78 7.25018C87.9896 7.26739 88.2003 7.26739 88.41 7.25018C89.2377 7.24326 90.0634 7.33388 90.87 7.52017C91.32 7.52017 91.51 7.52017 91.7 7.52017C92.05 7.52017 92.53 7.45018 93.33 7.44018C94.2055 7.19562 95.1109 7.07445 96.02 7.08018C96.823 7.07189 97.6246 7.15237 98.41 7.32017H98.52H99.72H101.12C101.88 7.32017 102.26 7.32017 102.64 7.32017H103.64H106.19H106.32C107.118 7.14351 107.933 7.05632 108.75 7.06018C109.491 7.05757 110.23 7.12116 110.96 7.25018H111.11C111.176 7.26553 111.244 7.26553 111.31 7.25018C112.048 7.24796 112.784 7.31155 113.51 7.44018C113.626 7.45461 113.744 7.45461 113.86 7.44018H114.57C115.382 7.3809 116.198 7.3809 117.01 7.44018H117.22C118.1 7.53018 119.1 7.62018 120.15 7.83018C121.185 8.02867 122.21 8.27899 123.22 8.58018C124.015 8.83986 124.791 9.15737 125.54 9.53018C125.74 9.63018 125.93 9.73017 126.14 9.82017C127.103 10.2244 128.044 10.6783 128.96 11.1802L129.58 11.5002C130.323 11.8518 131.041 12.2526 131.73 12.7002C131.874 12.7902 132.025 12.8704 132.18 12.9402C132.981 13.3367 133.739 13.816 134.44 14.3702C135.137 14.9609 135.761 15.6323 136.3 16.3702L136.59 16.7402C137.337 17.4691 138.044 18.2368 138.71 19.0402C139.224 19.6743 139.696 20.3425 140.12 21.0402C140.24 21.2302 140.36 21.4302 140.49 21.6202C141.17 22.6202 141.68 23.4702 142.13 24.3002C142.618 25.2308 143.058 26.1854 143.45 27.1602C143.45 27.2102 143.56 27.3202 143.63 27.4402C144.143 28.2457 144.553 29.1125 144.85 30.0202C145.078 30.822 145.239 31.6415 145.33 32.4702C145.33 32.7002 145.39 32.9202 145.44 33.1502C145.587 33.9529 145.677 34.7649 145.71 35.5802C145.71 35.8102 145.71 36.0502 145.76 36.2802C145.81 36.5102 145.76 36.7302 145.85 36.9602C145.982 37.7738 146.056 38.596 146.07 39.4202V44.9202H145.69C145.69 45.1702 145.62 45.4402 145.57 45.7202C145.35 46.8202 145.05 47.8202 144.78 48.7202C144.489 49.6266 144.093 50.4958 143.6 51.3102L143.41 51.6402C143.41 51.7502 143.35 51.8702 143.33 51.9802C143.109 52.9147 142.773 53.8183 142.33 54.6702C142.23 54.8702 142.12 55.0802 142.02 55.3002C141.679 56.0525 141.281 56.7779 140.83 57.4702C140.304 58.2243 139.694 58.9155 139.01 59.5302C138.9 59.6402 138.78 59.7402 138.67 59.8602C138.15 60.4746 137.589 61.0526 136.99 61.5902L136.48 62.0702C135.8 62.7502 135.06 63.4102 134.14 64.1702C133.341 64.8471 132.506 65.4813 131.64 66.0702L131.2 66.3802C130.56 66.8102 129.84 67.3002 128.99 67.7602C128.79 67.8602 128.61 67.9702 128.42 68.0802C127.694 68.5029 126.943 68.8803 126.17 69.2102L125.61 69.4502C124.834 69.8047 124.035 70.1087 123.22 70.3602C122.427 70.5941 121.618 70.7712 120.8 70.8902C120.57 70.8902 120.33 70.9602 120.11 71.0102C119.304 71.1576 118.489 71.2445 117.67 71.2702H116.97L116.52 71.3602C115.64 71.5797 114.737 71.6971 113.83 71.7102C112.96 71.7102 112.45 71.7102 112.08 71.6302C111.817 71.6149 111.553 71.6149 111.29 71.6302H111.1C110.36 71.7555 109.609 71.8024 108.86 71.7702ZM106.34 60.4502C107.214 60.4393 108.085 60.547 108.93 60.7702H109.08C109.856 60.6077 110.647 60.5272 111.44 60.5302C112.32 60.5302 112.82 60.5802 113.19 60.6102H113.89L114.32 60.5102C114.89 60.3798 115.468 60.283 116.05 60.2202C116.45 60.2202 116.84 60.1602 117.23 60.1402C117.62 60.1202 117.96 60.1402 118.12 60.0702L119.17 59.8802C119.56 59.8202 119.97 59.7502 120.17 59.6902C120.37 59.6302 120.92 59.4002 121.38 59.2002L122.1 58.9002C122.37 58.7802 122.76 58.5702 123.17 58.3402C123.42 58.1902 123.68 58.0502 123.93 57.9202C124.344 57.6824 124.745 57.422 125.13 57.1402L125.66 56.7802C126.228 56.3882 126.775 55.9677 127.3 55.5202C127.84 55.0874 128.358 54.6268 128.85 54.1402L129.63 53.3902C129.875 53.1727 130.109 52.9424 130.33 52.7002C130.73 52.2317 131.157 51.7875 131.61 51.3702L131.89 51.1102C131.98 50.9402 132.12 50.6402 132.24 50.3902L132.68 49.5102C132.68 49.4102 132.68 49.3102 132.75 49.2102C132.898 48.5584 133.099 47.9197 133.35 47.3002C133.59 46.7309 133.871 46.1795 134.19 45.6502L134.38 45.3202C134.6 44.6002 134.78 43.9802 134.89 43.4402C134.89 43.3802 134.89 43.0702 134.89 42.8502C134.89 42.3502 134.89 41.8502 134.97 41.3502C135.05 40.5302 135.08 39.8702 135.08 39.2802V38.5602C135.086 38.5137 135.086 38.4667 135.08 38.4202C135.02 38.0102 134.97 37.6102 134.93 37.2102C134.89 36.8102 134.87 36.4602 134.85 36.0802C134.83 35.7002 134.85 35.3202 134.76 35.1402C134.68 34.7002 134.61 34.2502 134.55 33.8102C134.55 33.6202 134.49 33.3702 134.46 33.2002L134.33 32.9802C133.977 32.4223 133.669 31.8371 133.41 31.2302C133.07 30.4102 132.81 29.8502 132.55 29.3602C132.222 28.7543 131.862 28.1667 131.47 27.6002L130.93 26.7602C130.746 26.4532 130.545 26.1561 130.33 25.8702C129.9 25.3502 129.4 24.8702 128.92 24.3502C128.489 23.9147 128.088 23.4503 127.72 22.9602L127.54 22.7102L127.22 22.5502C126.706 22.2937 126.209 22.0065 125.73 21.6902C125.53 21.5602 125.17 21.3802 124.8 21.1902L123.89 20.7302C123.29 20.3965 122.673 20.0961 122.04 19.8302C121.63 19.6602 121.23 19.4602 120.83 19.2702C120.61 19.152 120.383 19.0485 120.15 18.9602C119.493 18.7605 118.825 18.597 118.15 18.4702C117.63 18.3702 116.98 18.3102 116.3 18.2402H116.08C115.794 18.2218 115.506 18.2218 115.22 18.2402C114.82 18.2402 114.41 18.2402 114 18.2402C113.263 18.2452 112.527 18.185 111.8 18.0602C111.684 18.0411 111.566 18.0411 111.45 18.0602C110.706 18.0683 109.962 18.0047 109.23 17.8702H109.08H108.89H108.76C107.962 18.0468 107.147 18.134 106.33 18.1302H103.78C103.02 18.1302 102.64 18.1302 102.25 18.1302C101.86 18.1302 101.74 18.1302 101.25 18.1302H100.1H98.7C97.8964 18.1368 97.0948 18.0529 96.31 17.8802H96.16C95.2981 18.1251 94.4059 18.2463 93.5099 18.2402C93.2502 18.2245 92.9897 18.2245 92.73 18.2402C92.35 18.2402 91.84 18.3202 90.95 18.3202C90.1255 18.3265 89.3033 18.2359 88.5 18.0502H88.45C87.7817 18.0534 87.1138 18.0167 86.45 17.9402C86.237 17.9226 86.023 17.9226 85.81 17.9402C85.3 17.9402 85.05 17.9402 84.81 17.9402C84.57 17.9402 84.05 17.9402 83.28 17.9402C82.51 17.9402 82.03 17.9402 81.56 17.8702C81.2836 17.8543 81.0064 17.8543 80.73 17.8702H78.19C77.9602 17.8576 77.7298 17.8576 77.5 17.8702C76.8829 17.9442 76.2615 17.9776 75.64 17.9702C74.8116 18.1698 73.962 18.2672 73.11 18.2602H70.56C69.802 18.2666 69.0451 18.1997 68.3 18.0602H68.16H68.0099C67.3101 18.0648 66.611 18.0113 65.92 17.9002C65.7704 17.8849 65.6196 17.8849 65.47 17.9002C65.2336 17.8846 64.9964 17.8846 64.7599 17.9002C64.1488 17.9649 63.5345 17.9949 62.92 17.9902C62.51 17.9902 62.3 17.9902 62.1 17.9902C61.73 17.9902 61.2399 18.0602 60.3799 18.0602C60.1603 18.0424 59.9396 18.0424 59.72 18.0602C59.0931 18.1383 58.4617 18.175 57.83 18.1702C56.9348 18.1756 56.0431 18.0578 55.18 17.8202H47.5099C46.7163 18.0019 45.9041 18.0892 45.09 18.0802C44.57 18.0802 44.32 18.0802 44.09 18.0802C43.86 18.0802 43.3299 18.0802 42.5699 18.0802C41.6487 18.0902 40.7313 17.9586 39.85 17.6902H39.08C38.68 17.6902 38.27 17.7402 37.47 17.7402C37.337 17.726 37.2029 17.726 37.0699 17.7402C36.3603 17.8655 35.6406 17.9257 34.92 17.9202C34.3371 18.011 33.7494 18.0678 33.16 18.0902C32.97 18.0902 32.77 18.0902 32.39 18.0902C32.0552 18.1069 31.7214 18.1403 31.39 18.1902C31.03 18.2402 30.68 18.2902 30.33 18.3202C29.7615 18.372 29.1907 18.392 28.62 18.3802H28.16C27.8216 18.4624 27.4878 18.5625 27.16 18.6802L26.16 18.9902C25.84 19.0902 25.51 19.1702 25.16 19.2602C24.81 19.3502 24.35 19.4902 24.16 19.5802C23.63 19.8002 23.02 20.1202 22.37 20.4702L22.0099 20.7702C21.5743 21.1499 21.1169 21.5039 20.64 21.8302C20.3542 22.0414 20.0804 22.2685 19.8199 22.5102L19.06 23.1502C18.6382 23.5112 18.1939 23.8452 17.73 24.1502C17.58 24.2602 17.42 24.3502 17.28 24.4602C16.82 24.9302 16.3899 25.4002 16.0099 25.8502C15.9399 25.9702 15.8899 26.0902 15.8199 26.2202C15.5627 26.7565 15.2687 27.2744 14.94 27.7702C14.68 28.1602 14.4099 28.5202 14.1299 28.8802C13.9799 29.0802 13.77 29.3502 13.71 29.4502C13.53 29.7902 13.34 30.1102 13.14 30.4502C12.94 30.7902 12.76 31.1002 12.69 31.2702C12.62 31.4402 12.55 31.7802 12.48 32.0502C12.41 32.3202 12.27 32.8802 12.15 33.2802C11.98 33.8402 11.83 34.4802 11.67 35.2802C11.59 35.6602 11.5 36.0302 11.41 36.4102C11.32 36.7902 11.24 37.1402 11.22 37.3202C11.17 37.7702 11.1 38.2402 11.02 38.7002C11.02 38.8402 11.02 39.0002 10.95 39.1402V39.4102C10.95 39.6202 11.01 40.0202 11.06 40.4102C11.11 40.8002 11.16 41.1402 11.19 41.5102C11.22 41.8802 11.34 42.4302 11.45 42.9802L11.5699 43.5602C11.6711 44.0859 11.7446 44.6167 11.79 45.1502V45.4102C12.2411 46.0355 12.6265 46.7057 12.94 47.4102V47.5102C13.1731 48.118 13.4401 48.7123 13.74 49.2902C14.0398 49.905 14.3737 50.5026 14.74 51.0802C15.1176 51.6575 15.5248 52.2149 15.96 52.7502L16.34 53.2202C16.6536 53.6106 16.9874 53.9845 17.34 54.3402C17.8236 54.838 18.3344 55.3087 18.87 55.7502C19.2 56.0202 19.52 56.3102 19.87 56.5902C20.22 56.8702 20.38 57.0602 20.49 57.1302L21.22 57.6402C21.61 57.9102 21.98 58.1602 22.22 58.3002C22.71 58.5602 23.22 58.8102 23.83 59.0502H24C24.7547 59.1158 25.5013 59.2531 26.23 59.4602C26.9008 59.6684 27.5503 59.9396 28.17 60.2702C28.8653 60.2087 29.5646 60.2087 30.2599 60.2702C30.7999 60.2702 31.42 60.2702 32.14 60.2702H32.33C33.0539 60.2652 33.7769 60.3255 34.49 60.4502C34.6196 60.4647 34.7503 60.4647 34.8799 60.4502C35.1029 60.4676 35.327 60.4676 35.55 60.4502C36.1776 60.3814 36.8086 60.348 37.44 60.3502C38.2014 60.3433 38.9615 60.4103 39.71 60.5502H39.85H40C40.86 60.5502 41.37 60.5502 41.73 60.6202H42.39C43.2689 60.3575 44.1826 60.2294 45.1 60.2402C46.0584 60.2327 47.0115 60.3848 47.92 60.6902C48.6699 60.5343 49.434 60.4572 50.2 60.4602C50.8284 60.4552 51.4564 60.492 52.08 60.5702C52.3031 60.5823 52.5268 60.5823 52.75 60.5702H53.75C54.14 60.5702 54.5299 60.5702 55.3199 60.5702H56.73C57.01 60.5702 57.3 60.5702 57.87 60.5702C58.083 60.5877 58.297 60.5877 58.5099 60.5702C59.1435 60.4918 59.7816 60.4551 60.42 60.4602C61.2938 60.4493 62.165 60.557 63.0099 60.7802C63.1831 60.7916 63.3568 60.7916 63.53 60.7802C64.1924 60.6867 64.861 60.6432 65.53 60.6502C65.7764 60.6658 66.0235 60.6658 66.27 60.6502C66.75 60.6502 67.2699 60.5602 68.0699 60.5602C68.3331 60.5745 68.5968 60.5745 68.86 60.5602C69.23 60.5602 69.7399 60.4802 70.6299 60.4802C71.5199 60.4802 71.98 60.4802 72.35 60.5502C72.6231 60.5645 72.8968 60.5645 73.17 60.5502C73.9284 60.5449 74.6855 60.6152 75.43 60.7602H75.5699H75.91H76.06C76.7889 60.6261 77.5289 60.5625 78.27 60.5702C78.76 60.5702 79 60.5702 79.27 60.5702C79.54 60.5702 80.05 60.5702 80.83 60.5702H81.97H83.3799C84.0489 60.5644 84.7174 60.6078 85.3799 60.7002C85.5562 60.7166 85.7337 60.7166 85.91 60.7002C86.5347 60.6976 87.1591 60.731 87.78 60.8002C88.0063 60.8183 88.2337 60.8183 88.46 60.8002C89.25 60.8002 89.64 60.8002 90.04 60.8002C90.28 60.8002 90.53 60.8002 91.04 60.8002H91.2599C92.0263 60.6417 92.8074 60.5646 93.59 60.5702C94.3172 60.5653 95.0434 60.6256 95.7599 60.7502C95.8862 60.765 96.0137 60.765 96.14 60.7502H97.21C97.58 60.7502 97.95 60.7502 98.69 60.7502H101.23C102.04 60.7502 102.44 60.7502 102.84 60.7502C103.07 60.7502 103.3 60.7502 103.76 60.7502C104.594 60.5418 105.451 60.441 106.31 60.4502H106.34Z" fill="#A26F6E"/>
<path d="M35.0898 31.5215C34.2578 31.5215 33.5898 30.8535 33.5898 30.0332C33.5898 29.2012 34.2578 28.5449 35.0898 28.5449C35.9102 28.5449 36.5781 29.2012 36.5781 30.0332C36.5781 30.8535 35.9102 31.5215 35.0898 31.5215ZM27.9766 34.4629C27.1562 34.4629 26.4883 33.7949 26.4883 32.9746C26.4883 32.1426 27.1562 31.4746 27.9766 31.4746C28.8086 31.4746 29.4766 32.1426 29.4766 32.9746C29.4766 33.7949 28.8086 34.4629 27.9766 34.4629ZM42.1914 34.4629C41.3711 34.4629 40.7031 33.7949 40.7031 32.9746C40.7031 32.1426 41.3711 31.4746 42.1914 31.4746C43.0117 31.4746 43.6797 32.1426 43.6797 32.9746C43.6797 33.7949 43.0117 34.4629 42.1914 34.4629ZM35.0898 46.0645C31.7969 46.0645 29.1016 43.3574 29.1016 40.0762C29.1016 36.7949 31.8086 34.0879 35.0898 34.0879C38.3594 34.0879 41.0781 36.7949 41.0781 40.0762C41.0781 43.3574 38.3594 46.0645 35.0898 46.0645ZM25.0469 41.5645C24.2148 41.5645 23.5469 40.8965 23.5469 40.0762C23.5469 39.2559 24.2148 38.5879 25.0469 38.5879C25.8672 38.5879 26.5352 39.2559 26.5352 40.0762C26.5352 40.8965 25.8672 41.5645 25.0469 41.5645ZM45.1328 41.5645C44.3008 41.5645 43.6328 40.8965 43.6328 40.0762C43.6328 39.2559 44.3008 38.5879 45.1328 38.5879C45.9531 38.5879 46.6211 39.2559 46.6211 40.0762C46.6211 40.8965 45.9531 41.5645 45.1328 41.5645ZM42.1914 48.6777C41.3711 48.6777 40.7031 48.0098 40.7031 47.1777C40.7031 46.3574 41.3711 45.6895 42.1914 45.6895C43.0117 45.6895 43.6797 46.3574 43.6797 47.1777C43.6797 48.0098 43.0117 48.6777 42.1914 48.6777ZM27.9766 48.6777C27.1562 48.6777 26.4883 48.0098 26.4883 47.1777C26.4883 46.3574 27.1562 45.6895 27.9766 45.6895C28.8086 45.6895 29.4766 46.3574 29.4766 47.1777C29.4766 48.0098 28.8086 48.6777 27.9766 48.6777ZM35.0898 51.6074C34.2578 51.6074 33.5898 50.9395 33.5898 50.1191C33.5898 49.2988 34.2578 48.6309 35.0898 48.6309C35.9102 48.6309 36.5781 49.2988 36.5781 50.1191C36.5781 50.9395 35.9102 51.6074 35.0898 51.6074Z" fill="#BDBDBD"/>
</svg>
