<svg width="96" height="115" viewBox="0 0 96 115" fill="none" xmlns="http://www.w3.org/2000/svg">
<path d="M18.9489 25.1601L17.1289 22.7801C17.379 22.5969 17.6101 22.3892 17.8189 22.1601C18.1279 21.8341 18.4623 21.5332 18.8189 21.2601C19.215 20.9452 19.6524 20.6861 20.1189 20.4901C20.3638 20.3862 20.5927 20.2482 20.7989 20.0801C21.2289 19.7601 21.4289 19.5901 21.6389 19.4101C21.8489 19.2301 22.0989 19.0201 22.5889 18.6501C22.803 18.4897 22.9948 18.3014 23.1589 18.0901C23.4701 17.681 23.837 17.3175 24.2489 17.0101C24.7589 16.6301 25.0289 16.4501 25.2989 16.2801C25.5884 16.1059 25.8658 15.9121 26.1289 15.7001C26.5224 15.3946 26.9524 15.1393 27.4089 14.9401C27.6585 14.8291 27.8935 14.688 28.1089 14.5201C28.5289 14.2001 28.7289 14.0301 28.9289 13.8501C29.1289 13.6701 29.3989 13.4501 29.8789 13.0801L31.6989 11.6901C31.9226 11.5194 32.1271 11.3249 32.3089 11.1101C32.6221 10.7366 32.9778 10.401 33.3689 10.1101L34.3689 9.39011C34.5989 9.24011 34.8189 9.08011 35.2489 8.75011C35.5681 8.48795 35.9019 8.24421 36.2489 8.02011C36.4589 7.88011 36.6789 7.74011 37.0889 7.42011C37.3452 7.22941 37.5859 7.01876 37.8089 6.79011C38.1218 6.47744 38.4559 6.18675 38.8089 5.92011C39.269 5.5508 39.8052 5.28785 40.3789 5.15011C40.5763 5.11109 40.7614 5.02536 40.9189 4.90011L41.7989 4.20011L42.7289 3.48011C42.9358 3.3292 43.118 3.14702 43.2689 2.94011C43.5743 2.5202 43.9418 2.14928 44.3589 1.84011C45.0635 1.29758 45.8798 0.918434 46.7489 0.730114C47.4665 0.604505 48.2046 0.670033 48.8889 0.920112L49.3089 1.03011L49.6689 1.10011C50.3895 1.19181 51.0764 1.45971 51.6689 1.88011L52.5689 2.57011C52.7989 2.74011 53.0389 2.91011 53.4989 3.27011C53.7287 3.45187 53.9767 3.60937 54.2389 3.74011C54.6647 3.94618 55.0671 4.19764 55.4389 4.49011C55.869 4.81446 56.2438 5.20618 56.5489 5.65011C56.6728 5.85677 56.8399 6.03416 57.0389 6.17011C57.2746 6.35923 57.5293 6.52344 57.7989 6.66011C58.2096 6.87618 58.6011 7.1271 58.9689 7.41011C59.3202 7.67519 59.6543 7.96244 59.9689 8.27011C60.2044 8.49601 60.4514 8.70963 60.7089 8.91011C61.1589 9.25011 61.3789 9.42011 61.6089 9.58011L62.5389 10.2901L64.3489 11.6801C64.8389 12.0501 65.0689 12.2501 65.2989 12.4401C65.5289 12.6301 65.7089 12.7901 66.1389 13.1201C66.3412 13.2832 66.5671 13.4147 66.8089 13.5101C67.2834 13.6982 67.728 13.9542 68.1289 14.2701C68.5736 14.601 68.9533 15.0112 69.2489 15.4801C69.3654 15.6772 69.5222 15.8476 69.7089 15.9801C69.9193 16.1553 70.1554 16.297 70.4089 16.4001C70.8621 16.604 71.2886 16.8626 71.6789 17.1701C72.1189 17.5001 72.3389 17.6701 72.5689 17.8301L73.5689 18.5401C73.9631 18.8309 74.3221 19.1665 74.6389 19.5401C74.8116 19.7569 75.0135 19.9487 75.2389 20.1101C75.4158 20.2631 75.624 20.3757 75.8489 20.4401C76.3688 20.6141 76.8555 20.8744 77.2889 21.2101L78.2089 21.9301L79.0989 22.6301L77.2789 25.0101L76.3489 24.2901L75.4589 23.5901C75.2781 23.4452 75.071 23.3365 74.8489 23.2701C74.3273 23.0956 73.84 22.8317 73.4089 22.4901C73.0128 22.2017 72.6534 21.8659 72.3389 21.4901C72.1662 21.2733 71.9643 21.0815 71.7389 20.9201C71.2989 20.5801 71.0789 20.4201 70.8589 20.2601L69.9089 19.5501C69.6939 19.3764 69.4547 19.2349 69.1989 19.1301C68.7482 18.9216 68.3222 18.6633 67.9289 18.3601C67.4842 18.0292 67.1045 17.619 66.8089 17.1501C66.6946 16.9541 66.5374 16.7866 66.3489 16.6601C66.1491 16.4908 65.9227 16.3557 65.6789 16.2601C65.2033 16.0743 64.7584 15.8181 64.3589 15.5001C63.8789 15.1301 63.6389 14.9301 63.4089 14.7301C63.1789 14.5301 62.9989 14.3801 62.5789 14.0601L60.7689 12.6701L59.8689 11.9901L58.9389 11.2901C58.5881 11.0244 58.2541 10.7372 57.9389 10.4301C57.708 10.1992 57.4607 9.98526 57.1989 9.79011C56.96 9.60539 56.7058 9.44146 56.4389 9.30011C56.0268 9.08642 55.6352 8.83537 55.2689 8.55011C54.8389 8.22576 54.464 7.83405 54.1589 7.39011C54.0344 7.1867 53.8672 7.0127 53.6689 6.88011C53.4398 6.69452 53.1918 6.53363 52.9289 6.40011C52.5018 6.19635 52.0992 5.94474 51.7289 5.65011C51.2789 5.30011 51.0589 5.13011 50.8289 4.97011L49.9089 4.26011C49.668 4.15113 49.4116 4.08029 49.1489 4.05011C48.9889 4.05011 48.8289 4.00011 48.6689 3.96011C48.5089 3.92011 48.2589 3.86011 48.0589 3.80011C47.847 3.72112 47.6246 3.67394 47.3989 3.66011C46.9615 3.7531 46.5511 3.94462 46.1989 4.22011C45.9897 4.36832 45.8071 4.55091 45.6589 4.76011C45.3519 5.18192 44.9807 5.55308 44.5589 5.86011L43.6789 6.55011L42.7489 7.28011C42.2861 7.64312 41.7507 7.90232 41.1789 8.04011C40.9802 8.08093 40.7947 8.17025 40.6389 8.30011C40.3827 8.49081 40.1419 8.70146 39.9189 8.93011C39.606 9.24278 39.2718 9.53347 38.9189 9.80011C38.5977 10.0597 38.264 10.3033 37.9189 10.5301C37.6282 10.7148 37.3478 10.9151 37.0789 11.1301L36.0789 11.8401C35.8589 12.0001 35.6389 12.1501 35.1989 12.4901C34.9786 12.6575 34.7774 12.8487 34.5989 13.0601C34.2834 13.4314 33.9279 13.7667 33.5389 14.0601L31.7189 15.4501L30.8889 16.1201C30.6589 16.3201 30.4289 16.5201 29.9489 16.8901C29.5534 17.2006 29.1199 17.4594 28.6589 17.6601C28.4116 17.7653 28.1795 17.9032 27.9689 18.0701C27.4589 18.4601 27.1889 18.6301 26.9689 18.8101C26.6813 18.9836 26.4041 19.174 26.1389 19.3801C25.9226 19.5379 25.7305 19.7266 25.5689 19.9401C25.2434 20.3507 24.8592 20.7112 24.4289 21.0101C24.0089 21.3301 23.7989 21.5101 23.5989 21.6801C23.3989 21.8501 23.1289 22.0701 22.6489 22.4401C22.256 22.7544 21.822 23.0134 21.3589 23.2101C21.1095 23.3112 20.8769 23.4495 20.6689 23.6201C20.4183 23.8065 20.1842 24.0139 19.9689 24.2401C19.6569 24.5764 19.3155 24.8843 18.9489 25.1601Z" fill="#3B3C43"/>
<path d="M48.0681 1.75977C48.9781 1.75977 49.6881 2.49976 50.4281 2.92976C51.1415 3.34939 51.7356 3.94462 52.154 4.65878C52.5723 5.37294 52.801 6.18227 52.8181 7.00977C52.7837 7.83222 52.5129 8.62733 52.0381 9.29977C51.6801 10.0357 51.1221 10.656 50.4281 11.0898C49.6881 11.5198 48.9781 12.3798 48.0681 12.3798C47.1445 12.3016 46.2546 11.9958 45.4781 11.4898C44.7713 10.9697 44.2044 10.2825 43.8281 9.48977C43.2883 8.77345 42.9437 7.92924 42.8281 7.03976C42.8983 6.14393 43.2017 5.28206 43.7081 4.53976C44.236 3.88458 44.9252 3.37799 45.7081 3.06977C46.5081 2.60977 47.1581 1.75977 48.0681 1.75977Z" fill="#293355"/>
<path fill-rule="evenodd" clip-rule="evenodd" d="M1.80199 19.7965C1.29898 19.5277 0.893517 19.3111 0.370716 19.8397C-0.203077 20.4135 -0.0127229 20.7597 0.286163 21.3032C0.456082 21.6122 0.66108 21.985 0.780689 22.4997C0.944846 23.1728 0.782642 23.5105 0.602089 23.8864C0.452677 24.1974 0.290699 24.5347 0.290699 25.1097C0.290699 25.7435 0.370387 26.0585 0.450232 26.3741C0.53039 26.691 0.610706 27.0085 0.610706 27.6497C0.610706 28.291 0.545449 28.611 0.480319 28.9303C0.415444 29.2485 0.350696 29.566 0.350696 30.1997C0.350696 30.8347 0.408191 31.1522 0.465687 31.4697C0.523182 31.7872 0.580677 32.1047 0.580677 32.7397C0.580677 33.376 0.505383 33.6985 0.430238 34.0204C0.35539 34.341 0.280689 34.661 0.280689 35.2897C0.280689 35.9172 0.322851 36.2298 0.365179 36.5435C0.407841 36.8597 0.450672 37.1772 0.450672 37.8197C0.450672 38.461 0.513417 38.781 0.57604 39.1003C0.638417 39.4185 0.700672 39.736 0.700672 40.3697C0.700672 41.0047 0.660679 41.3222 0.620685 41.6397C0.580692 41.9572 0.540699 42.2747 0.540699 42.9097C0.540699 43.5447 0.568195 43.8672 0.595691 44.1897C0.623188 44.5122 0.650684 44.8347 0.650684 45.4697C0.650684 46.1072 0.622969 46.4298 0.595364 46.751C0.567977 47.0697 0.540699 47.3872 0.540699 48.0097V50.5297C0.540699 51.171 0.608469 51.486 0.676106 51.8003C0.743478 52.1135 0.810718 52.426 0.810718 53.0597C0.810718 53.6947 0.700718 54.0122 0.590717 54.3297C0.480716 54.6472 0.370716 54.9647 0.370716 55.5997C0.370716 56.2347 0.480716 56.5522 0.590717 56.8697C0.700718 57.1872 0.810718 57.5047 0.810718 58.1397C0.810718 58.776 0.778088 59.096 0.745523 59.4154C0.713086 59.7335 0.680713 60.051 0.680713 60.6797C0.680713 61.3085 0.665773 61.6235 0.650804 61.9391C0.635775 62.256 0.620716 62.5735 0.620716 63.2097C0.620716 63.8447 0.573215 64.1622 0.525715 64.4797C0.478214 64.7972 0.430713 65.1147 0.430713 65.7497C0.430713 66.3847 0.463215 66.7022 0.495716 67.0197C0.528217 67.3372 0.560718 67.6547 0.560718 68.2897C0.560718 68.9247 0.615711 69.2422 0.670704 69.5597C0.725696 69.8772 0.780689 70.1947 0.780689 70.8297C0.780689 71.4647 0.690693 71.7797 0.600696 72.0947C0.5107 72.4097 0.420704 72.7247 0.420704 73.3597C0.420704 73.9947 0.493198 74.3122 0.565693 74.6297C0.638187 74.9472 0.710682 75.2647 0.710682 75.8997C0.710682 76.5347 0.685688 76.8522 0.660694 77.1697C0.6357 77.4872 0.610706 77.8047 0.610706 78.4397C0.610706 79.0747 0.625705 79.3922 0.640705 79.7097C0.655704 80.0272 0.670704 80.3447 0.670704 80.9797C0.670704 81.6147 0.650699 81.9322 0.630695 82.2497C0.610691 82.5672 0.590687 82.8847 0.590687 83.5197C0.590687 84.1547 0.638187 84.4722 0.685688 84.7897C0.733189 85.1072 0.780689 85.4247 0.780689 86.0597C0.780689 86.6947 0.723194 87.0122 0.665699 87.3297C0.608203 87.6472 0.550709 87.9647 0.550709 88.5997C0.550709 89.2347 0.618214 89.5522 0.685719 89.8697C0.753223 90.1872 0.820728 90.5047 0.820728 91.1397C0.820728 91.7747 0.800724 92.0922 0.780719 92.4097C0.760715 92.7272 0.740711 93.0447 0.740711 93.6797C0.740711 94.3147 0.643207 94.6322 0.545703 94.9497C0.4482 95.2672 0.350696 95.5847 0.350696 96.2197C0.350696 96.8547 0.410694 97.1722 0.470692 97.4897C0.530689 97.8072 0.590687 98.1247 0.590687 98.7597C0.590687 99.3947 0.520694 99.7122 0.450702 100.03C0.38071 100.347 0.310718 100.665 0.310718 101.3C0.310718 101.935 0.410709 102.252 0.5107 102.57C0.610691 102.887 0.710682 103.205 0.710682 103.84C0.710682 104.475 0.640689 104.79 0.570697 105.105C0.500705 105.42 0.430713 105.735 0.430713 106.37C0.430713 107.005 0.460712 107.322 0.490711 107.64C0.52071 107.957 0.550709 108.275 0.550709 108.91C0.550709 109.545 0.608204 109.862 0.665699 110.18C0.723194 110.497 0.780689 110.815 0.780689 111.45C0.780689 111.964 0.60716 112.32 0.460142 112.622C0.243803 113.067 0.0848662 113.394 0.620716 113.93C1.23083 114.54 1.5744 114.474 2.12808 114.369C2.39115 114.319 2.70165 114.26 3.11071 114.26C3.74571 114.26 4.0657 114.13 4.3857 114C4.7057 113.87 5.02569 113.74 5.66069 113.74C6.29445 113.74 6.60945 113.812 6.92507 113.884C7.24193 113.957 7.55942 114.03 8.20067 114.03C8.84193 114.03 9.16194 113.959 9.48132 113.889C9.79946 113.819 10.117 113.75 10.7507 113.75C11.3857 113.75 11.7032 113.822 12.0207 113.895C12.3382 113.967 12.6557 114.04 13.2907 114.04C13.9245 114.04 14.242 114.075 14.5601 114.11C14.8794 114.145 15.1994 114.18 15.8407 114.18H18.3707C19.012 114.18 19.332 114.2 19.6513 114.22C19.9695 114.24 20.2869 114.26 20.9207 114.26C21.5557 114.26 21.8732 114.185 22.1907 114.11C22.5082 114.035 22.8257 113.96 23.4607 113.96C24.0957 113.96 24.4132 114.04 24.7307 114.12C25.0482 114.2 25.3657 114.28 26.0007 114.28C26.6382 114.28 26.9608 114.212 27.282 114.144C27.6007 114.077 27.9182 114.01 28.5407 114.01C29.162 114.01 29.4374 114.044 29.7145 114.079C29.9949 114.114 30.2769 114.15 30.9207 114.15C31.562 114.15 31.882 114.105 32.2013 114.059C32.5194 114.015 32.8369 113.97 33.4707 113.97C34.1057 113.97 34.4232 114.02 34.7407 114.07C35.0582 114.12 35.3757 114.17 36.0107 114.17H38.5507C39.187 114.17 39.507 114.152 39.8263 114.135C40.1444 114.117 40.4619 114.1 41.0907 114.1H43.6207C44.2557 114.1 44.5732 114.087 44.8907 114.075C45.2082 114.062 45.5257 114.05 46.1607 114.05C46.7957 114.05 47.1132 113.962 47.4307 113.875C47.7482 113.787 48.0657 113.7 48.7007 113.7C49.3357 113.7 49.6532 113.737 49.9707 113.775C50.2882 113.812 50.6057 113.85 51.2407 113.85C51.8757 113.85 52.1907 113.827 52.5057 113.805C52.8207 113.782 53.1357 113.76 53.7707 113.76C54.4057 113.76 54.7232 113.78 55.0407 113.8C55.3582 113.82 55.6757 113.84 56.3107 113.84C56.9457 113.84 57.2632 113.897 57.5807 113.955C57.8982 114.012 58.2157 114.07 58.8507 114.07C59.4857 114.07 59.8032 114.012 60.1207 113.955C60.4382 113.897 60.7557 113.84 61.3907 113.84C62.0257 113.84 62.3432 113.795 62.6607 113.75C62.9782 113.705 63.2957 113.66 63.9307 113.66C64.5657 113.66 64.8832 113.72 65.2007 113.78C65.5182 113.84 65.8357 113.9 66.4707 113.9C67.1057 113.9 67.4232 113.875 67.7407 113.85C68.0582 113.825 68.3757 113.8 69.0107 113.8C69.6457 113.8 69.9632 113.882 70.2807 113.965C70.5982 114.047 70.9157 114.13 71.5507 114.13C72.1857 114.13 72.5032 114.012 72.8207 113.895C73.1382 113.777 73.4557 113.66 74.0907 113.66C74.7257 113.66 75.0432 113.77 75.3607 113.88C75.6782 113.99 75.9957 114.1 76.6307 114.1C77.2657 114.1 77.5832 114.015 77.9007 113.93C78.2182 113.845 78.5357 113.76 79.1707 113.76C79.8057 113.76 80.1232 113.817 80.4407 113.875C80.7582 113.932 81.0757 113.99 81.7107 113.99C82.3457 113.99 82.6632 113.95 82.9807 113.91C83.2982 113.87 83.6157 113.83 84.2507 113.83H86.7807C87.4157 113.83 87.7332 113.902 88.0507 113.975C88.3682 114.047 88.6857 114.12 89.3207 114.12C89.9557 114.12 90.2732 114.14 90.5907 114.16C90.9082 114.18 91.2257 114.2 91.8607 114.2C92.3055 114.2 92.6461 114.288 92.9395 114.364C93.4838 114.505 93.8659 114.604 94.4507 114.02C94.993 113.477 94.8273 113.106 94.6099 112.618C94.4666 112.297 94.3007 111.924 94.3007 111.42C94.3007 110.785 94.2807 110.465 94.2607 110.145C94.2407 109.825 94.2207 109.505 94.2207 108.87C94.2207 108.236 94.3054 107.921 94.3902 107.605C94.4754 107.288 94.5607 106.971 94.5607 106.33C94.5607 105.688 94.4929 105.368 94.4253 105.049C94.3579 104.731 94.2907 104.413 94.2907 103.78V101.24C94.2907 100.603 94.3961 100.281 94.5013 99.9591C94.6061 99.6384 94.7107 99.3185 94.7107 98.6897C94.7107 98.0622 94.6412 97.7497 94.5715 97.4359C94.5013 97.1197 94.4307 96.8022 94.4307 96.1597C94.4307 95.5185 94.3931 95.1985 94.3555 94.8791C94.318 94.561 94.2807 94.2435 94.2807 93.6097C94.2807 92.9747 94.3307 92.6572 94.3807 92.3397C94.4307 92.0222 94.4807 91.7047 94.4807 91.0697C94.4807 90.4347 94.5057 90.1172 94.5307 89.7997C94.5557 89.4822 94.5807 89.1647 94.5807 88.5297C94.5807 87.8947 94.5232 87.5772 94.4657 87.2597C94.4082 86.9422 94.3507 86.6247 94.3507 85.9897V83.4497C94.3507 82.8085 94.3231 82.4885 94.2955 82.1691C94.2681 81.851 94.2407 81.5335 94.2407 80.8997C94.2407 80.2647 94.2982 79.9472 94.3557 79.6297C94.4132 79.3122 94.4707 78.9947 94.4707 78.3597C94.4707 77.7247 94.4882 77.4072 94.5057 77.0897C94.5232 76.7722 94.5407 76.4547 94.5407 75.8197C94.5407 75.1835 94.4579 74.8635 94.3752 74.5441C94.2929 74.226 94.2107 73.9085 94.2107 73.2797C94.2107 72.651 94.248 72.336 94.2855 72.0203C94.3231 71.7035 94.3607 71.386 94.3607 70.7497C94.3607 70.1147 94.3257 69.7972 94.2907 69.4797C94.2557 69.1622 94.2207 68.8447 94.2207 68.2097V65.6697C94.2207 65.0347 94.2582 64.7172 94.2957 64.3997C94.3332 64.0822 94.3707 63.7647 94.3707 63.1297V60.5997C94.3707 59.9647 94.3432 59.6472 94.3157 59.3297C94.2882 59.0122 94.2607 58.6947 94.2607 58.0597C94.2607 57.4247 94.3807 57.1072 94.5007 56.7897C94.6207 56.4722 94.7407 56.1547 94.7407 55.5197V52.9797C94.7407 52.3447 94.7207 52.0272 94.7007 51.7097C94.6807 51.3922 94.6607 51.0747 94.6607 50.4397C94.6607 49.8047 94.6207 49.4872 94.5807 49.1697C94.5407 48.8522 94.5007 48.5347 94.5007 47.8997C94.5007 47.2647 94.4507 46.9472 94.4007 46.6297C94.3507 46.3122 94.3007 45.9947 94.3007 45.3597C94.3007 44.7247 94.4107 44.4072 94.5207 44.0897C94.6307 43.7722 94.7407 43.4547 94.7407 42.8197C94.7407 42.1847 94.6032 41.8672 94.4657 41.5497C94.3282 41.2322 94.1907 40.9147 94.1907 40.2797C94.1907 39.6447 94.2707 39.3272 94.3507 39.0097C94.4307 38.6922 94.5107 38.3747 94.5107 37.7397V35.1997V32.6597C94.5107 32.0247 94.5732 31.7072 94.6357 31.3897C94.6982 31.0722 94.7607 30.7547 94.7607 30.1197C94.7607 29.4847 94.6782 29.1697 94.5957 28.8547C94.5132 28.5397 94.4307 28.2247 94.4307 27.5897C94.4307 26.9547 94.3907 26.6372 94.3507 26.3197C94.3107 26.0022 94.2707 25.6847 94.2707 25.0497C94.2707 24.4147 94.3682 24.0972 94.4657 23.7797C94.5632 23.4622 94.6607 23.1447 94.6607 22.5097C94.6607 22.0322 94.7879 21.6649 94.8989 21.3447C95.083 20.8133 95.2223 20.4113 94.6607 19.8497C94.1296 19.3187 93.7378 19.5223 93.2449 19.7784C92.9025 19.9564 92.5113 20.1597 91.9907 20.1597C91.3557 20.1597 91.0357 20.1772 90.7157 20.1947C90.3957 20.2122 90.0757 20.2297 89.4407 20.2297C88.807 20.2297 88.492 20.1899 88.1763 20.15C87.8594 20.1099 87.5419 20.0697 86.9007 20.0697H84.3507C83.7157 20.0697 83.3982 20.0547 83.0807 20.0397C82.7632 20.0247 82.4457 20.0097 81.8107 20.0097C81.1745 20.0097 80.8469 20.0649 80.52 20.12C80.1944 20.1749 79.8695 20.2297 79.2407 20.2297C78.6132 20.2297 78.3007 20.138 77.9869 20.0458C77.6707 19.953 77.3532 19.8597 76.7107 19.8597C76.0694 19.8597 75.7494 19.93 75.4301 20.0001C75.1119 20.07 74.7944 20.1397 74.1607 20.1397H71.6207C70.9857 20.1397 70.6682 20.1622 70.3507 20.1847C70.0332 20.2072 69.7157 20.2297 69.0807 20.2297C68.4432 20.2297 68.1206 20.1743 67.7994 20.1191C67.4807 20.0643 67.1632 20.0097 66.5407 20.0097C65.9194 20.0097 65.6094 20.0715 65.2975 20.1336C64.9819 20.1965 64.6645 20.2597 64.0207 20.2597C63.3794 20.2597 63.0594 20.1894 62.7401 20.1193C62.4219 20.0495 62.1044 19.9797 61.4707 19.9797C60.8357 19.9797 60.5182 19.9197 60.2007 19.8597C59.8832 19.7997 59.5657 19.7397 58.9307 19.7397C58.2957 19.7397 57.9782 19.7797 57.6607 19.8197C57.3432 19.8597 57.0257 19.8997 56.3907 19.8997C55.7557 19.8997 55.4382 19.9347 55.1207 19.9697C54.8032 20.0047 54.4857 20.0397 53.8507 20.0397H51.3207C50.6857 20.0397 50.3682 20.0622 50.0507 20.0847C49.7332 20.1072 49.4157 20.1297 48.7807 20.1297C48.1457 20.1297 47.8282 20.0622 47.5107 19.9947C47.1932 19.9272 46.8757 19.8597 46.2407 19.8597C45.6057 19.8597 45.2882 19.8347 44.9707 19.8097C44.6532 19.7847 44.3357 19.7597 43.7007 19.7597C43.0657 19.7597 42.7507 19.8272 42.4357 19.8947C42.1207 19.9622 41.8057 20.0297 41.1707 20.0297C40.5357 20.0297 40.2182 20.0022 39.9007 19.9747C39.5832 19.9472 39.2657 19.9197 38.6307 19.9197C37.9957 19.9197 37.6782 19.9422 37.3607 19.9647C37.0432 19.9872 36.7257 20.0097 36.0907 20.0097H33.5507C32.9157 20.0097 32.5982 20.0497 32.2807 20.0897C31.9632 20.1297 31.6457 20.1697 31.0107 20.1697C30.3757 20.1697 30.0582 20.0997 29.7407 20.0297C29.4232 19.9597 29.1057 19.8897 28.4707 19.8897C27.8357 19.8897 27.5182 19.9347 27.2007 19.9797C26.8832 20.0247 26.5657 20.0697 25.9307 20.0697H23.3907C22.7557 20.0697 22.4382 19.9822 22.1207 19.8947C21.8032 19.8072 21.4857 19.7197 20.8507 19.7197C20.2157 19.7197 19.8982 19.7397 19.5807 19.7597C19.2632 19.7797 18.9457 19.7997 18.3107 19.7997C17.6757 19.7997 17.3582 19.8272 17.0407 19.8547C16.7232 19.8822 16.4057 19.9097 15.7707 19.9097C15.1357 19.9097 14.8182 19.8697 14.5007 19.8297C14.1832 19.7897 13.8657 19.7497 13.2307 19.7497H10.6907C10.0557 19.7497 9.74072 19.8097 9.42571 19.8697C9.1107 19.9297 8.79569 19.9897 8.16069 19.9897C7.52569 19.9897 7.2082 19.9647 6.89071 19.9397C6.57321 19.9147 6.25572 19.8897 5.62072 19.8897C4.98572 19.8897 4.66821 19.9672 4.3507 20.0447C4.03319 20.1222 3.71568 20.1997 3.08068 20.1997C2.5567 20.1997 2.15528 19.9852 1.80199 19.7965ZM16.8098 34.8676C16.3978 34.7063 16.1102 34.5937 15.6196 35.0905C15.0776 35.6325 15.2117 35.9282 15.4256 36.4001C15.5314 36.6335 15.6568 36.9099 15.7296 37.2805C15.8546 37.9172 15.7793 38.2113 15.691 38.5561C15.624 38.8178 15.5496 39.1086 15.5496 39.6005C15.5496 40.1705 15.5271 40.458 15.5046 40.7455C15.4821 41.033 15.4595 41.3205 15.4595 41.8905C15.4595 42.4605 15.5021 42.748 15.5446 43.0355C15.5871 43.323 15.6296 43.6105 15.6296 44.1805C15.6296 44.7505 15.6521 45.038 15.6746 45.3255C15.6971 45.613 15.7196 45.9005 15.7196 46.4705C15.7196 47.0405 15.6896 47.3255 15.6596 47.6105C15.6296 47.8955 15.5996 48.1805 15.5996 48.7505C15.5996 49.3205 15.5721 49.608 15.5446 49.8955C15.5171 50.183 15.4896 50.4705 15.4896 51.0405C15.4896 51.6092 15.5418 51.8917 15.5942 52.1749C15.6468 52.4592 15.6995 52.7442 15.6995 53.3205C15.6995 53.8967 15.687 54.1842 15.6745 54.4711C15.662 54.7567 15.6495 55.0417 15.6495 55.6105C15.6495 56.1805 15.6296 56.468 15.6096 56.7555C15.5896 57.043 15.5696 57.3305 15.5696 57.9005V60.1805V62.4705V64.8105V67.0905C15.5696 67.6605 15.5171 67.948 15.4646 68.2355C15.4121 68.523 15.3596 68.8105 15.3596 69.3805C15.3596 69.9505 15.4146 70.2355 15.4696 70.5205C15.5245 70.8055 15.5795 71.0905 15.5795 71.6605C15.5795 72.2305 15.5945 72.5155 15.6095 72.8005C15.6245 73.0855 15.6395 73.3705 15.6395 73.9405C15.6395 74.5105 15.657 74.798 15.6745 75.0855C15.692 75.373 15.7095 75.6605 15.7095 76.2305C15.7095 76.8005 15.6746 77.0855 15.6396 77.3705C15.6046 77.6555 15.5696 77.9405 15.5696 78.5105C15.5696 79.0805 15.5521 79.3655 15.5346 79.6505C15.5171 79.9355 15.4996 80.2205 15.4996 80.7905C15.4996 81.3605 15.4821 81.6455 15.4646 81.9305C15.4471 82.2155 15.4296 82.5005 15.4296 83.0705V85.3505C15.4296 85.9267 15.4045 86.2142 15.3794 86.5011C15.3544 86.7867 15.3295 87.0717 15.3295 87.6405C15.3295 88.2092 15.4042 88.4917 15.4791 88.7749C15.5543 89.0592 15.6296 89.3442 15.6296 89.9205C15.6296 90.4967 15.602 90.7842 15.5744 91.0711C15.5469 91.3567 15.5195 91.6417 15.5195 92.2105C15.5195 92.7805 15.5596 93.0655 15.5996 93.3505C15.6396 93.6355 15.6796 93.9205 15.6796 94.4905C15.6796 95.0568 15.6129 95.3368 15.5459 95.6187C15.4779 95.9043 15.4096 96.1917 15.4096 96.7805C15.4096 97.1924 15.334 97.484 15.2718 97.724C15.1573 98.1656 15.0882 98.4321 15.6196 98.9505C16.1301 99.4485 16.4042 99.3536 16.8158 99.2109C17.0654 99.1245 17.3655 99.0205 17.7996 99.0205C18.3758 99.0205 18.6658 99.0782 18.9552 99.1358C19.2433 99.1932 19.5308 99.2505 20.0996 99.2505C20.6696 99.2505 20.9571 99.178 21.2446 99.1055C21.532 99.033 21.8195 98.9605 22.3895 98.9605C22.9595 98.9605 23.247 99.028 23.5346 99.0955C23.8221 99.163 24.1096 99.2305 24.6796 99.2305C25.2496 99.2305 25.5371 99.1905 25.8246 99.1505C26.1121 99.1105 26.3996 99.0705 26.9696 99.0705C27.5396 99.0705 27.8246 99.088 28.1096 99.1055C28.3946 99.123 28.6796 99.1405 29.2496 99.1405C29.8196 99.1405 30.1071 99.108 30.3946 99.0755C30.6821 99.043 30.9696 99.0105 31.5396 99.0105C32.1083 99.0105 32.3908 98.9806 32.674 98.9507C32.9583 98.9206 33.2433 98.8905 33.8196 98.8905C34.3958 98.8905 34.6833 98.9683 34.9702 99.046C35.2558 99.1233 35.5408 99.2005 36.1096 99.2005C36.6796 99.2005 36.9671 99.213 37.2546 99.2255C37.5421 99.238 37.8295 99.2505 38.3995 99.2505C38.9683 99.2505 39.2508 99.2206 39.534 99.1907C39.8183 99.1606 40.1033 99.1305 40.6796 99.1305C41.2558 99.1305 41.5433 99.0828 41.8302 99.0351C42.1158 98.9878 42.4008 98.9405 42.9696 98.9405C43.5383 98.9405 43.8233 98.9579 44.1089 98.9753C44.3958 98.9929 44.6833 99.0105 45.2595 99.0105H47.5396C48.1284 99.0105 48.4208 99.0409 48.7114 99.0711C48.9983 99.1009 49.2833 99.1305 49.8496 99.1305C50.4196 99.1305 50.7046 99.108 50.9896 99.0855C51.2746 99.063 51.5596 99.0405 52.1296 99.0405C52.6996 99.0405 52.9846 99.063 53.2696 99.0855C53.5546 99.108 53.8396 99.1305 54.4096 99.1305H56.6995C57.2695 99.1305 57.5545 99.083 57.8396 99.0355C58.1246 98.988 58.4096 98.9405 58.9796 98.9405C59.5496 98.9405 59.8346 98.918 60.1195 98.8955C60.4045 98.873 60.6895 98.8505 61.2595 98.8505C61.8295 98.8505 62.1145 98.8955 62.3995 98.9405C62.6846 98.9855 62.9696 99.0305 63.5396 99.0305H65.7595C66.3358 99.0305 66.6233 98.9777 66.9102 98.9251C67.1958 98.8727 67.4808 98.8205 68.0496 98.8205C68.6183 98.8205 68.9008 98.8553 69.184 98.8902C69.4683 98.9253 69.7533 98.9605 70.3295 98.9605C70.9058 98.9605 71.1933 98.9856 71.4802 99.0106C71.7658 99.0356 72.0508 99.0605 72.6196 99.0605C73.1896 99.0605 73.4746 99.0305 73.7596 99.0005C74.0446 98.9705 74.3296 98.9405 74.8996 98.9405H77.1896C77.6396 98.9405 77.9665 99.0838 78.2472 99.2069C78.6776 99.3957 78.9993 99.5368 79.4896 99.0405C80.0106 98.513 79.9193 98.1842 79.7878 97.7106C79.7149 97.448 79.6296 97.1408 79.6296 96.7305V94.4305C79.6296 93.8605 79.6046 93.573 79.5796 93.2855C79.5546 92.998 79.5296 92.7105 79.5296 92.1405V89.8505C79.5296 89.2805 79.5721 88.993 79.6145 88.7055C79.657 88.418 79.6995 88.1305 79.6995 87.5605C79.6995 86.9905 79.6196 86.7055 79.5396 86.4205C79.4596 86.1355 79.3796 85.8505 79.3796 85.2805V82.9905V80.7105V78.4205C79.3796 77.8505 79.3921 77.563 79.4046 77.2755C79.4171 76.988 79.4296 76.7005 79.4296 76.1305V73.8505C79.4296 73.2742 79.4597 72.9867 79.4898 72.6998C79.5197 72.4142 79.5496 72.1292 79.5496 71.5605C79.5496 70.9905 79.5696 70.703 79.5896 70.4155C79.6096 70.128 79.6296 69.8405 79.6296 69.2705V66.9905C79.6296 66.4205 79.5546 66.133 79.4796 65.8455C79.4046 65.558 79.3295 65.2705 79.3295 64.7005C79.3295 64.1305 79.397 63.8455 79.4646 63.5605C79.5321 63.2755 79.5996 62.9905 79.5996 62.4205C79.5996 61.8505 79.5321 61.5655 79.4646 61.2805C79.397 60.9955 79.3295 60.7105 79.3295 60.1405V57.8505C79.3295 57.2805 79.3671 56.9955 79.4046 56.7105C79.4421 56.4255 79.4796 56.1405 79.4796 55.5705C79.4796 55.0005 79.4521 54.7155 79.4246 54.4305C79.3971 54.1455 79.3696 53.8605 79.3696 53.2905C79.3696 52.7217 79.4119 52.4392 79.4543 52.1561C79.4969 51.8717 79.5396 51.5867 79.5396 51.0105C79.5396 50.4355 79.5646 50.178 79.5896 49.9205C79.6145 49.663 79.6395 49.4055 79.6395 48.8305C79.6395 48.2542 79.5718 47.9667 79.5041 47.6798C79.4368 47.3942 79.3696 47.1092 79.3696 46.5405C79.3696 45.9717 79.4592 45.6892 79.549 45.4061C79.6392 45.1217 79.7296 44.8367 79.7296 44.2605C79.7296 43.6842 79.6793 43.3967 79.6292 43.1098C79.5793 42.8242 79.5296 42.5392 79.5296 41.9705C79.5296 41.4005 79.5546 41.1155 79.5796 40.8305C79.6046 40.5455 79.6296 40.2605 79.6296 39.6905C79.6296 39.1205 79.6171 38.833 79.6046 38.5455C79.5921 38.258 79.5795 37.9705 79.5795 37.4005C79.5795 36.9676 79.6963 36.6458 79.7969 36.3687C79.9611 35.916 80.082 35.5829 79.5795 35.0805C79.0869 34.5878 78.757 34.724 78.3154 34.9064C78.031 35.0239 77.7001 35.1605 77.2496 35.1605C76.6733 35.1605 76.3833 35.1027 76.0939 35.0451C75.8058 34.9877 75.5183 34.9305 74.9495 34.9305C74.3795 34.9305 74.092 34.9605 73.8046 34.9905C73.5171 35.0205 73.2296 35.0505 72.6596 35.0505C72.0896 35.0505 71.8021 35.073 71.5146 35.0955C71.2271 35.118 70.9396 35.1405 70.3696 35.1405C69.7996 35.1405 69.5121 35.1605 69.2246 35.1805C68.937 35.2005 68.6495 35.2205 68.0795 35.2205C67.5095 35.2205 67.2246 35.203 66.9396 35.1855C66.6546 35.168 66.3696 35.1505 65.7996 35.1505C65.2296 35.1505 64.9421 35.108 64.6546 35.0655C64.367 35.023 64.0795 34.9805 63.5095 34.9805C62.9408 34.9805 62.6583 35.0203 62.3752 35.0602C62.0908 35.1003 61.8058 35.1405 61.2296 35.1405H58.9396H56.6495C56.0808 35.1405 55.7983 35.1106 55.5152 35.0807C55.2308 35.0506 54.9458 35.0205 54.3696 35.0205C53.7933 35.0205 53.5058 34.9954 53.2189 34.9703C52.9333 34.9454 52.6483 34.9205 52.0795 34.9205C51.5095 34.9205 51.222 34.908 50.9346 34.8955C50.6471 34.883 50.3596 34.8705 49.7896 34.8705C49.2196 34.8705 48.9346 34.913 48.6495 34.9555C48.3645 34.998 48.0795 35.0405 47.5095 35.0405C46.9395 35.0405 46.652 35.0055 46.3645 34.9705C46.077 34.9355 45.7896 34.9005 45.2196 34.9005H42.9396H40.6596C40.0896 34.9005 39.8021 34.888 39.5146 34.8755C39.2271 34.863 38.9396 34.8505 38.3696 34.8505C37.7996 34.8505 37.5146 34.9055 37.2296 34.9605C36.9446 35.0155 36.6595 35.0705 36.0896 35.0705C35.5196 35.0705 35.2346 35.013 34.9496 34.9555C34.6646 34.898 34.3796 34.8405 33.8096 34.8405C33.2396 34.8405 32.9546 34.8855 32.6696 34.9305C32.3846 34.9755 32.0996 35.0205 31.5296 35.0205C30.9608 35.0205 30.6783 35.0006 30.3952 34.9806C30.1108 34.9606 29.8258 34.9405 29.2496 34.9405C28.6733 34.9405 28.3858 34.9932 28.0989 35.0458C27.8133 35.0982 27.5283 35.1505 26.9595 35.1505C26.3908 35.1505 26.1083 35.1231 25.8252 35.0956C25.5408 35.0681 25.2558 35.0405 24.6796 35.0405C24.1033 35.0405 23.8158 35.0179 23.5289 34.9953C23.2433 34.9729 22.9583 34.9505 22.3895 34.9505C21.8195 34.9505 21.5345 34.9655 21.2496 34.9805C20.9646 34.9955 20.6796 35.0105 20.1096 35.0105C19.5396 35.0105 19.2521 35.0305 18.9646 35.0505C18.6771 35.0705 18.3896 35.0905 17.8196 35.0905C17.3788 35.0905 17.0696 34.9694 16.8098 34.8676Z" fill="#3B456A"/>
<path fill-rule="evenodd" clip-rule="evenodd" d="M94.7981 112.614C95.0129 113.121 95.178 113.51 94.6293 114.049C94.012 114.664 93.5773 114.463 92.9675 114.181C92.6836 114.05 92.3618 113.902 91.966 113.809C91.2244 113.637 90.9063 113.698 90.5014 113.776C90.2258 113.829 89.91 113.889 89.3931 113.889C88.7561 113.889 88.4395 113.847 88.1223 113.805C87.8038 113.762 87.4847 113.719 86.8403 113.719C86.1958 113.719 85.8742 113.82 85.5532 113.92C85.2335 114.02 84.9144 114.119 84.2775 114.119C83.6393 114.119 83.3202 114.104 83.0011 114.089C82.682 114.074 82.3629 114.059 81.7247 114.059C81.0852 114.059 80.7611 114.072 80.4376 114.085C80.1154 114.097 79.7938 114.109 79.1619 114.109C78.5312 114.109 78.2171 114.075 77.9018 114.04C77.5839 114.005 77.2649 113.969 76.6191 113.969C75.9746 113.969 75.653 114.01 75.3321 114.05C75.0123 114.09 74.6932 114.129 74.0563 114.129C73.4181 114.129 73.099 114.057 72.7799 113.984C72.4608 113.912 72.1417 113.839 71.5035 113.839C70.8653 113.839 70.5462 113.912 70.2271 113.984C69.908 114.057 69.5889 114.129 68.9507 114.129C68.3125 114.129 67.9934 113.994 67.6743 113.859C67.3552 113.724 67.0361 113.589 66.398 113.589C65.761 113.589 65.4444 113.719 65.1272 113.849C64.8087 113.979 64.4896 114.109 63.8451 114.109C63.2006 114.109 62.879 113.979 62.5581 113.849C62.2383 113.719 61.9193 113.589 61.2823 113.589C60.6441 113.589 60.325 113.612 60.0059 113.634C59.6868 113.657 59.3677 113.679 58.7295 113.679C58.0914 113.679 57.7723 113.747 57.4532 113.814C57.1341 113.882 56.815 113.949 56.1768 113.949C55.5373 113.949 55.2157 113.97 54.8947 113.99C54.575 114.01 54.2559 114.029 53.624 114.029C52.9921 114.029 52.6755 114.044 52.3583 114.059C52.0398 114.074 51.7207 114.089 51.0813 114.089H48.5285C47.8903 114.089 47.5712 114.002 47.2521 113.914C46.933 113.827 46.6139 113.739 45.9757 113.739C45.3375 113.739 45.0184 113.847 44.6993 113.954C44.3802 114.062 44.0611 114.169 43.4229 114.169C42.7847 114.169 42.4681 114.079 42.1516 113.989C41.835 113.899 41.5184 113.809 40.8802 113.809C40.242 113.809 39.9229 113.844 39.6038 113.879C39.2847 113.914 38.9656 113.949 38.3274 113.949C37.6892 113.949 37.3701 113.997 37.051 114.044C36.7319 114.092 36.4128 114.139 35.7746 114.139C35.1364 114.139 34.8173 114.052 34.4982 113.964C34.1791 113.877 33.86 113.789 33.2218 113.789H30.5886C29.9505 113.789 29.6314 113.809 29.3123 113.829C28.9932 113.849 28.6741 113.869 28.0359 113.869C27.3977 113.869 27.0786 113.922 26.7595 113.974C26.4404 114.027 26.1213 114.079 25.4831 114.079C24.8449 114.079 24.5258 114.007 24.2067 113.934C23.8876 113.862 23.5685 113.789 22.9303 113.789C22.2921 113.789 21.973 113.752 21.6539 113.714C21.3348 113.677 21.0157 113.639 20.3775 113.639C19.7393 113.639 19.4202 113.724 19.1011 113.809C18.782 113.894 18.4629 113.979 17.8247 113.979H15.272C14.6338 113.979 14.3147 113.932 13.9956 113.884C13.6765 113.837 13.3573 113.789 12.7192 113.789C12.081 113.789 11.7619 113.837 11.4428 113.884C11.1237 113.932 10.8046 113.979 10.1664 113.979C9.5282 113.979 9.21162 113.942 8.89504 113.904C8.57846 113.867 8.26189 113.829 7.62369 113.829C6.9855 113.829 6.66639 113.814 6.34728 113.799C6.02817 113.784 5.70907 113.769 5.07087 113.769C4.43268 113.769 4.11358 113.822 3.79449 113.874C3.4754 113.927 3.15631 113.979 2.51811 113.979C2.03322 113.979 1.6368 114.141 1.30516 114.276C0.763827 114.497 0.3951 114.647 0.095951 113.909C-0.192011 113.199 0.207583 113.084 0.771028 112.921C1.15151 112.811 1.6067 112.68 1.97536 112.329C2.46034 111.868 2.64011 111.59 2.83088 111.294C2.99986 111.032 3.17746 110.757 3.58344 110.329C4.01393 109.876 4.28985 109.713 4.57013 109.548C4.85259 109.381 5.13949 109.211 5.59351 108.739C6.03648 108.279 6.22636 108.008 6.41103 107.745C6.60345 107.47 6.79022 107.204 7.25177 106.739C7.71952 106.269 7.95345 106.052 8.19678 105.827C8.42401 105.617 8.65942 105.399 9.10106 104.959C9.55961 104.503 9.72509 104.21 9.89012 103.918C10.0542 103.628 10.2179 103.338 10.6689 102.889C11.119 102.442 11.4397 102.308 11.7598 102.175C12.083 102.041 12.4055 101.907 12.8599 101.449C13.3112 100.995 13.4473 100.676 13.5827 100.358C13.7186 100.038 13.8539 99.7204 14.3071 99.2695C14.6016 98.9764 14.829 98.8074 15.0333 98.6817C15.0867 98.7468 15.1507 98.8158 15.2271 98.8899C15.7401 99.388 16.0156 99.293 16.4293 99.1504C16.6801 99.0639 16.9818 98.9599 17.418 98.9599C17.9972 98.9599 18.2887 99.0177 18.5795 99.0753C18.869 99.1327 19.158 99.1899 19.7296 99.1899C20.3025 99.1899 20.5914 99.1174 20.8803 99.0449C21.1693 98.9724 21.4582 98.8999 22.0311 98.8999C22.604 98.8999 22.8929 98.9674 23.1819 99.0349C23.4708 99.1024 23.7598 99.1699 24.3327 99.1699C24.9055 99.1699 25.1945 99.1299 25.4834 99.0899C25.7723 99.0499 26.0613 99.0099 26.6342 99.0099C27.207 99.0099 27.4935 99.0274 27.7799 99.0449C28.0664 99.0624 28.3528 99.0799 28.9257 99.0799C29.4985 99.0799 29.7875 99.0474 30.0764 99.0149C30.3654 98.9824 30.6543 98.9499 31.2272 98.9499C31.7988 98.9499 32.0827 98.9201 32.3673 98.8901C32.6531 98.8601 32.9395 98.8299 33.5187 98.8299C34.0978 98.8299 34.3868 98.9078 34.6751 98.9854C34.9621 99.0628 35.2486 99.1399 35.8202 99.1399C36.393 99.1399 36.682 99.1524 36.9709 99.1649C37.2599 99.1774 37.5488 99.1899 38.1217 99.1899C38.6933 99.1899 38.9772 99.1601 39.2618 99.1301C39.5476 99.1001 39.834 99.0699 40.4132 99.0699C40.9923 99.0699 41.2813 99.0222 41.5696 98.9746C41.8566 98.9272 42.1431 98.8799 42.7147 98.8799C43.2863 98.8799 43.5727 98.8973 43.8598 98.9148C44.1481 98.9323 44.437 98.9499 45.0162 98.9499H47.3077C47.8994 98.9499 48.1934 98.9803 48.4854 99.0105C48.7737 99.0403 49.0601 99.0699 49.6293 99.0699C50.2022 99.0699 50.4886 99.0474 50.775 99.0249C51.0615 99.0024 51.3479 98.9799 51.9208 98.9799C52.4937 98.9799 52.7801 99.0024 53.0665 99.0249C53.3529 99.0474 53.6394 99.0699 54.2122 99.0699H56.5137C57.0866 99.0699 57.3731 99.0224 57.6595 98.9749C57.9459 98.9274 58.2324 98.8799 58.8052 98.8799C59.3781 98.8799 59.6645 98.8574 59.951 98.8349C60.2374 98.8124 60.5238 98.7899 61.0967 98.7899C61.6696 98.7899 61.956 98.8349 62.2424 98.8799C62.5289 98.9249 62.8153 98.9699 63.3882 98.9699H65.6193C66.1985 98.9699 66.4874 98.9172 66.7758 98.8646C67.0628 98.8122 67.3493 98.7599 67.9209 98.7599C68.4925 98.7599 68.7764 98.7948 69.061 98.8297C69.3468 98.8648 69.6332 98.8999 70.2123 98.8999C70.7915 98.8999 71.0804 98.925 71.3688 98.9501C71.6558 98.975 71.9423 98.9999 72.5139 98.9999C73.0868 98.9999 73.3732 98.9699 73.6596 98.9399C73.946 98.9099 74.2325 98.8799 74.8053 98.8799H77.1069C77.5592 98.8799 77.8877 99.0233 78.1699 99.1464C78.6024 99.3351 78.9258 99.4762 79.4185 98.9799C79.9421 98.4525 79.8503 98.1236 79.7182 97.6501C79.6449 97.3874 79.5592 97.0802 79.5592 96.6699V94.3699C79.5592 93.7999 79.534 93.5124 79.5089 93.2249C79.4838 92.9374 79.4586 92.6499 79.4586 92.0799V89.7899C79.4586 89.2199 79.5014 88.9324 79.5441 88.6449C79.5868 88.3574 79.6295 88.0699 79.6295 87.4999C79.6295 86.9299 79.5491 86.6449 79.4687 86.3599C79.3883 86.0749 79.3079 85.7899 79.3079 85.2199V82.9299V80.6499V78.3599C79.3079 77.7899 79.3205 77.5024 79.333 77.2149C79.3456 76.9274 79.3582 76.6399 79.3582 76.0699V73.7899C79.3582 73.2137 79.3884 72.9262 79.4187 72.6393C79.4487 72.3537 79.4788 72.0687 79.4788 71.4999C79.4788 70.9299 79.4989 70.6424 79.519 70.3549C79.5391 70.0674 79.5592 69.7799 79.5592 69.2099V66.9299C79.5592 66.3599 79.4838 66.0724 79.4084 65.7849C79.333 65.4974 79.2576 65.2099 79.2576 64.6399C79.2576 64.0699 79.3255 63.7849 79.3933 63.4999C79.4612 63.2149 79.529 62.9299 79.529 62.3599C79.529 61.7899 79.4612 61.5049 79.3933 61.2199C79.3255 60.9349 79.2576 60.6499 79.2576 60.0799V57.7899C79.2576 57.2199 79.2953 56.9349 79.333 56.6499C79.3707 56.3649 79.4084 56.0799 79.4084 55.5099C79.4084 54.9399 79.3808 54.6549 79.3531 54.3699C79.3255 54.0849 79.2979 53.7999 79.2979 53.2299C79.2979 52.6612 79.3404 52.3787 79.383 52.0955C79.4258 51.8112 79.4687 51.5262 79.4687 50.9499C79.4687 50.3749 79.4938 50.1174 79.5189 49.8599C79.5441 49.6024 79.5692 49.3449 79.5692 48.7699C79.5692 48.1937 79.5011 47.9062 79.4331 47.6193C79.3654 47.3337 79.2979 47.0487 79.2979 46.4799C79.2979 45.9112 79.3879 45.6287 79.4782 45.3455C79.5688 45.0612 79.6597 44.7762 79.6597 44.1999C79.6597 43.6237 79.6092 43.3362 79.5588 43.0493C79.5087 42.7637 79.4586 42.4787 79.4586 41.9099C79.4586 41.3399 79.4838 41.0549 79.5089 40.7699C79.534 40.4849 79.5592 40.1999 79.5592 39.6299C79.5592 39.0599 79.5466 38.7724 79.534 38.4849C79.5215 38.1974 79.5089 37.9099 79.5089 37.3399C79.5089 36.9071 79.6263 36.5852 79.7273 36.3081C79.8873 35.8694 80.0063 35.5429 79.5536 35.0657C79.6925 34.9338 79.8564 34.773 80.0664 34.5595C80.5158 34.1024 80.7007 33.829 80.8811 33.5622C81.0677 33.2861 81.2495 33.0172 81.7146 32.5595C82.1442 32.1368 82.3764 31.917 82.5956 31.7096C82.8432 31.4753 83.0741 31.2568 83.5539 30.7795C84.1431 30.1932 84.3485 29.9719 84.659 29.6373C84.8251 29.4582 85.0214 29.2467 85.3227 28.9295C85.774 28.4543 86.0226 28.2409 86.283 28.0173C86.5212 27.8127 86.7694 27.5995 87.1921 27.1695C87.6321 26.7217 87.8781 26.519 88.1256 26.315C88.3755 26.109 88.627 25.9018 89.0815 25.4395C89.5244 24.989 89.7239 24.7352 89.9184 24.4877C90.1211 24.2298 90.3184 23.9788 90.78 23.5195C91.2129 23.0888 91.4455 22.871 91.6696 22.6614C91.9137 22.4329 92.1476 22.214 92.6192 21.7395C92.9574 21.3992 93.127 21.0184 93.2688 20.7C93.5062 20.167 93.6657 19.809 94.4082 20.1095C95.1061 20.3919 94.913 20.7368 94.6358 21.2316C94.442 21.5775 94.2072 21.9969 94.2072 22.5195C94.2072 23.1545 94.2348 23.4745 94.2624 23.7945C94.2901 24.1145 94.3177 24.4345 94.3177 25.0695C94.3177 25.7032 94.3828 26.0182 94.448 26.3339C94.5134 26.6507 94.579 26.9682 94.579 27.6095C94.579 28.2507 94.4933 28.5707 94.4077 28.8901C94.3224 29.2082 94.2374 29.5257 94.2374 30.1595C94.2374 30.7945 94.3278 31.112 94.4183 31.4295C94.5087 31.747 94.5992 32.0645 94.5992 32.6995C94.5992 33.3357 94.526 33.6582 94.453 33.9801C94.3803 34.3007 94.3077 34.6207 94.3077 35.2495C94.3077 35.877 94.3975 36.1895 94.4875 36.5033C94.5783 36.8195 94.6695 37.137 94.6695 37.7795C94.6695 38.4207 94.5989 38.7407 94.5284 39.0601C94.4582 39.3782 94.3881 39.6957 94.3881 40.3295C94.3881 40.9645 94.3428 41.282 94.2976 41.5995C94.2524 41.917 94.2072 42.2345 94.2072 42.8695C94.2072 43.5045 94.2876 43.822 94.368 44.1395C94.4484 44.457 94.5288 44.7745 94.5288 45.4095V47.9495C94.5288 48.5708 94.5313 48.8808 94.5338 49.1926C94.5363 49.5082 94.5388 49.8257 94.5388 50.4695V53.0195C94.5388 53.6545 94.5062 53.972 94.4735 54.2895C94.4409 54.607 94.4082 54.9245 94.4082 55.5595C94.4082 56.1945 94.4785 56.512 94.5489 56.8295C94.6192 57.147 94.6896 57.4645 94.6896 58.0995V60.6395C94.6896 61.2682 94.6195 61.5832 94.5493 61.8988C94.4788 62.2157 94.4082 62.5332 94.4082 63.1695C94.4082 63.8045 94.3755 64.122 94.3429 64.4395C94.3102 64.757 94.2775 65.0745 94.2775 65.7095C94.2775 66.3445 94.3228 66.662 94.368 66.9795C94.4132 67.297 94.4584 67.6145 94.4584 68.2495C94.4584 68.8845 94.4836 69.202 94.5087 69.5195C94.5338 69.837 94.559 70.1545 94.559 70.7895C94.559 71.4245 94.466 71.7395 94.373 72.0545C94.28 72.3695 94.187 72.6845 94.187 73.3195C94.187 73.9545 94.2499 74.272 94.3127 74.5895C94.3755 74.907 94.4383 75.2245 94.4383 75.8595V78.3995C94.4383 79.0345 94.3755 79.352 94.3127 79.6695C94.2499 79.987 94.187 80.3045 94.187 80.9395C94.187 81.5745 94.2122 81.892 94.2373 82.2095C94.2625 82.527 94.2876 82.8445 94.2876 83.4795V86.0195V88.5595C94.2876 89.1945 94.3278 89.512 94.368 89.8295C94.4082 90.147 94.4484 90.4645 94.4484 91.0995C94.4484 91.7345 94.5112 92.052 94.574 92.3695C94.6368 92.687 94.6996 93.0045 94.6996 93.6395C94.6996 94.2745 94.6142 94.592 94.5288 94.9095C94.4434 95.227 94.358 95.5445 94.358 96.1795C94.358 96.8145 94.4484 97.132 94.5388 97.4495C94.6293 97.767 94.7197 98.0845 94.7197 98.7195C94.7197 99.3545 94.6243 99.672 94.5288 99.9895C94.4333 100.307 94.3378 100.624 94.3378 101.259V103.799C94.3378 104.434 94.3755 104.749 94.4132 105.064C94.4509 105.379 94.4886 105.694 94.4886 106.329C94.4886 106.964 94.4559 107.282 94.4233 107.599C94.3906 107.917 94.358 108.234 94.358 108.869C94.358 109.504 94.3931 109.822 94.4283 110.139C94.4634 110.457 94.4986 110.774 94.4986 111.409C94.4986 111.909 94.6588 112.286 94.7981 112.614Z" fill="#293355"/>
</svg>
