<svg width="48" height="48" viewBox="0 0 48 48" fill="none" xmlns="http://www.w3.org/2000/svg">
<circle cx="24" cy="24" r="22.5" fill="#C6D7EF" stroke="#8ED1BD" stroke-width="3"/>
<path d="M16.3158 31H31.6842L35 45H13L16.3158 31Z" fill="#92BBF5"/>
<path d="M34.9517 12H13.6932C10.6201 12 8.12891 14.4912 8.12891 17.5643V27.5515C8.12891 30.6246 10.6201 33.1158 13.6932 33.1158H34.9517C38.0248 33.1158 40.516 30.6246 40.516 27.5515V17.5643C40.516 14.4912 38.0248 12 34.9517 12Z" fill="white"/>
<path d="M16.7294 23.7598H12.6712C12.0071 23.7598 11.4688 24.2981 11.4688 24.9622V25.4131C11.4688 26.0772 12.0071 26.6155 12.6712 26.6155H16.7294C17.3935 26.6155 17.9318 26.0772 17.9318 25.4131V24.9622C17.9318 24.2981 17.3935 23.7598 16.7294 23.7598Z" fill="#C1ECDE"/>
<path d="M35.9716 23.7598H31.9134C31.2493 23.7598 30.7109 24.2981 30.7109 24.9622V25.4131C30.7109 26.0772 31.2493 26.6155 31.9134 26.6155H35.9716C36.6357 26.6155 37.174 26.0772 37.174 25.4131V24.9622C37.174 24.2981 36.6357 23.7598 35.9716 23.7598Z" fill="#C1ECDE"/>
<g opacity="0.8">
<path d="M17.639 19.7715H16.4459C15.9753 19.7715 15.5938 20.153 15.5938 20.6237V22.1576C15.5938 22.6283 15.9753 23.0098 16.4459 23.0098H17.639C18.1097 23.0098 18.4912 22.6283 18.4912 22.1576V20.6237C18.4912 20.153 18.1097 19.7715 17.639 19.7715Z" fill="#62AD96"/>
<path d="M32.4476 19.7715H31.2545C30.7839 19.7715 30.4023 20.153 30.4023 20.6237V22.1576C30.4023 22.6283 30.7839 23.0098 31.2545 23.0098H32.4476C32.9183 23.0098 33.2998 22.6283 33.2998 22.1576V20.6237C33.2998 20.153 32.9183 19.7715 32.4476 19.7715Z" fill="#62AD96"/>
</g>
<path opacity="0.8" d="M24.5501 22.9844C24.8203 22.9844 25.0795 23.0917 25.2706 23.2828C25.4616 23.4739 25.569 23.733 25.569 24.0032C25.569 24.2735 25.4616 24.5326 25.2706 24.7237C25.0795 24.9148 24.8203 25.0221 24.5501 25.0221C24.2799 25.0221 24.0207 24.9148 23.8297 24.7237C23.6386 24.5326 23.5312 24.2735 23.5312 24.0032C23.5312 23.733 23.6386 23.4739 23.8297 23.2828C24.0207 23.0917 24.2799 22.9844 24.5501 22.9844Z" fill="#62AD96"/>
<path opacity="0.8" d="M28.3082 25.7139C27.8149 26.2076 27.2291 26.5993 26.5844 26.8665C25.9396 27.1337 25.2485 27.2713 24.5506 27.2713C23.8526 27.2713 23.1615 27.1337 22.5168 26.8665C21.872 26.5993 21.2863 26.2076 20.793 25.7139" stroke="#62AD96" stroke-width="1.2249" stroke-linecap="round" stroke-linejoin="round"/>
<circle cx="24" cy="24" r="22.5" stroke="#8ED1BD" stroke-width="3"/>
</svg>
