<svg width="844" height="390" viewBox="0 0 844 390" fill="none" xmlns="http://www.w3.org/2000/svg">
<path d="M24.5499 3.79033C24.5638 6.38769 24.1759 8.97153 23.3999 11.4503C21.2885 16.1391 18.1392 20.2869 14.19 23.5803C12.1263 25.1174 9.83077 26.3158 7.38992 27.1304C5.02992 27.9004 2.38996 27.4803 -0.190039 27.4803C-2.77004 27.4803 -5.42 27.9004 -7.78 27.1304C-12.6926 25.5257 -16.9501 22.3668 -19.91 18.1304C-21.5522 16.1331 -22.8746 13.8931 -23.8301 11.4903C-24.6001 9.13035 -24 6.42035 -24 3.81035C-24.1114 1.29178 -23.828 -1.22875 -23.16 -3.65968C-22.4665 -6.116 -21.3971 -8.45025 -19.99 -10.5797C-18.49 -12.5797 -16.2901 -14.0197 -14.2301 -15.5197C-12.2701 -17.1241 -10.0654 -18.4037 -7.70005 -19.3096C-5.34005 -20.0796 -2.81004 -19.8497 -0.190039 -19.8497C2.30109 -19.914 4.78628 -19.5763 7.16995 -18.8497C9.61995 -18.0497 12.0899 -17.3697 14.1699 -15.8497C18.1915 -12.7022 21.2051 -8.44771 22.84 -3.60969C23.55 -1.31969 24.5499 1.17033 24.5499 3.79033Z" fill="#D5F0E7"/>
<path d="M99.4816 3.78998C99.4491 6.38475 99.0138 8.95875 98.1915 11.42C97.4015 13.87 95.7515 15.97 94.2715 18.01C92.6695 19.9662 90.7657 21.6541 88.6316 23.01C86.6316 24.5 84.7215 26.38 82.2815 27.17C79.8415 27.96 77.2815 27.62 74.6915 27.62C72.1857 27.6547 69.6906 27.2867 67.3015 26.53C64.866 25.8639 62.5509 24.8177 60.4415 23.43C58.2742 22.0396 56.3346 20.3226 54.6915 18.34C53.2347 16.1936 52.1244 13.8314 51.4015 11.34C50.6315 8.97997 50.8215 6.33997 50.8215 3.77997C50.8166 1.27262 51.2151 -1.21922 52.0016 -3.60003C52.6334 -6.04318 53.6458 -8.37163 55.0016 -10.5C56.581 -12.4792 58.4563 -14.2029 60.5615 -15.61C64.565 -18.7703 69.5532 -20.42 74.6515 -20.27C77.2615 -20.27 79.9515 -20.59 82.3115 -19.82C84.6715 -19.05 86.6515 -17.04 88.6915 -15.55C90.7315 -14.06 93.1116 -12.79 94.6116 -10.73C97.6398 -6.48693 99.3225 -1.43152 99.4415 3.77997L99.4816 3.78998Z" fill="#D5F0E7"/>
<path d="M171.721 3.78972C171.721 6.39972 170.721 8.93973 169.971 11.2997C169.234 13.7503 168.113 16.0689 166.651 18.1697C165.076 20.1818 163.197 21.9362 161.081 23.3697C156.979 26.39 151.931 27.841 146.851 27.4597C144.241 27.4597 141.701 27.6697 139.341 26.8997C133.393 24.7015 128.503 20.325 125.66 14.6566C122.818 8.98816 122.235 2.45136 124.031 -3.63026C124.831 -6.08026 125.521 -8.63026 127.031 -10.6303C128.527 -12.7323 130.339 -14.5909 132.401 -16.1403C136.664 -19.0615 141.714 -20.6202 146.881 -20.6103C149.424 -20.4785 151.928 -19.9417 154.301 -19.0203C158.974 -17.2068 163.059 -14.1456 166.111 -10.1703C167.591 -8.1703 169.221 -6.17029 170.011 -3.72029C170.801 -1.27029 171.721 1.16972 171.721 3.78972Z" fill="#D5F0E7"/>
<path d="M245.209 3.78993C245.209 6.39993 244.139 8.89996 243.379 11.26C242.688 13.7233 241.619 16.0644 240.209 18.1999C238.709 20.2599 236.449 21.5899 234.389 23.0899C232.432 24.691 230.231 25.9673 227.869 26.8699C225.423 27.5059 222.892 27.7522 220.369 27.5999C217.759 27.5999 215.149 27.89 212.789 27.13C210.429 26.37 208.349 24.62 206.319 23.13C204.289 21.64 201.939 20.31 200.449 18.25C198.959 16.1899 198.229 13.68 197.449 11.25C196.529 8.86628 195.992 6.35171 195.859 3.79994C195.859 1.17994 197.139 -1.15006 197.859 -3.51006C198.51 -5.92584 199.55 -8.21934 200.939 -10.3001C202.298 -12.4435 203.986 -14.3602 205.939 -15.9801C208.045 -17.4265 210.363 -18.5364 212.809 -19.2701C215.169 -20.0301 217.689 -19.9101 220.299 -19.9101C222.791 -19.9267 225.268 -19.5452 227.639 -18.7801C230.003 -18.0035 232.225 -16.8485 234.219 -15.3601C236.279 -13.8701 238.739 -12.7401 240.219 -10.6901C241.699 -8.64005 242.339 -6.07005 243.129 -3.63005C243.919 -1.19005 245.209 1.16993 245.209 3.78993Z" fill="#D5F0E7"/>
<path d="M318.131 3.79005C318.016 6.31474 317.503 8.80543 316.611 11.1701C315.811 13.6101 315.5 16.37 314.02 18.41C312.361 20.397 310.408 22.12 308.231 23.52C306.144 24.9932 303.839 26.1304 301.4 26.89C296.594 28.9662 291.17 29.0953 286.27 27.2501C283.82 26.4601 281.961 24.5 279.921 23.02C277.759 21.7141 275.879 19.9927 274.387 17.9553C272.895 15.9178 271.822 13.6048 271.231 11.15C270.504 8.76625 270.167 6.28115 270.231 3.79005C270.152 1.29911 270.469 -1.18856 271.171 -3.57994C271.845 -6.01265 272.898 -8.32417 274.29 -10.4299C275.707 -12.5606 277.44 -14.4625 279.431 -16.0699C281.431 -17.5499 284.08 -17.9599 286.53 -18.7599C288.98 -19.5599 291.241 -20.6 293.861 -20.6C296.449 -20.8733 299.065 -20.6171 301.551 -19.8469C304.037 -19.0767 306.34 -17.8086 308.321 -16.1199C310.381 -14.6199 311.821 -12.41 313.321 -10.35C314.957 -8.38703 316.276 -6.18035 317.231 -3.80993C317.919 -1.3378 318.222 1.22554 318.131 3.79005Z" fill="#D5F0E7"/>
<path d="M392.291 3.78983C392.291 6.39983 391.291 8.93983 390.551 11.2998C389.76 13.726 388.589 16.0111 387.081 18.0699C385.579 20.1323 383.764 21.9474 381.701 23.4498C379.701 24.9298 377.551 26.6598 375.111 27.4498C372.671 28.2398 370.031 27.5298 367.421 27.5298C364.811 27.5298 362.241 27.7498 359.881 26.9798C357.449 26.1891 355.157 25.0179 353.091 23.5099C350.838 22.2218 348.889 20.4637 347.375 18.3551C345.862 16.2465 344.82 13.8368 344.321 11.2898C343.422 8.88493 342.902 6.35461 342.781 3.78983C342.781 1.16983 343.781 -1.30019 344.491 -3.66019C345.155 -6.14192 346.205 -8.50402 347.601 -10.6602C349.047 -12.8044 350.815 -14.7133 352.841 -16.3202C354.841 -17.8102 357.571 -18.2402 360.021 -19.0402C362.42 -19.7621 364.917 -20.0996 367.421 -20.0402C369.914 -20.0543 372.393 -19.666 374.761 -18.8902C377.186 -18.229 379.489 -17.1823 381.581 -15.7902C383.581 -14.3002 385.901 -12.8702 387.391 -10.7902C388.881 -8.71019 389.391 -6.12015 390.201 -3.68015C391.011 -1.24014 392.291 1.16983 392.291 3.78983Z" fill="#D5F0E7"/>
<path d="M465.55 3.78998C465.55 6.39998 464.21 8.78998 463.44 11.1C462.67 13.41 462.27 16.17 460.79 18.21C459.322 20.3412 457.538 22.2363 455.5 23.83C453.348 25.268 450.987 26.3643 448.5 27.08C444.787 28.1075 440.9 28.3501 437.088 27.7922C433.276 27.2344 429.622 25.8884 426.36 23.84C424.3 22.35 422.78 20.11 421.28 18.06C419.667 16.0547 418.375 13.8114 417.45 11.41C416.69 9.04997 417.09 6.40998 417.09 3.78998C417.09 1.16998 416.79 -1.45 417.56 -3.81C418.33 -6.17 420.17 -8.18003 421.65 -10.22C423.13 -12.26 424.25 -14.85 426.31 -16.34C428.37 -17.83 431.04 -18.34 433.48 -19.13C435.92 -19.92 438.31 -21 440.93 -21C443.528 -20.9875 446.108 -20.5726 448.58 -19.77C451.03 -18.97 453.01 -17.12 455.04 -15.64C457.004 -14.0823 458.709 -12.2224 460.09 -10.13C461.57 -8.13 463.43 -6.23003 464.22 -3.78003C465.056 -1.34176 465.505 1.21263 465.55 3.78998Z" fill="#D5F0E7"/>
<path d="M538.103 3.78973C538.103 6.39973 538.292 8.91972 537.532 11.2797C536.33 16.3464 533.226 20.7571 528.863 23.5997C526.863 25.0797 524.313 25.7797 521.863 26.5997C518.252 27.6982 514.441 27.9711 510.711 27.3981C506.981 26.8252 503.427 25.4211 500.312 23.2897C498.312 21.7897 495.922 20.4298 494.422 18.3698C492.922 16.3097 492.533 13.6397 491.743 11.1997C490.874 8.83196 490.392 6.34039 490.312 3.81976C490.399 1.29906 490.885 -1.19195 491.753 -3.56024C492.553 -6.01024 493.062 -8.62028 494.542 -10.6603C496.022 -12.7003 498.263 -14.1503 500.323 -15.6603C504.491 -18.5616 509.39 -20.235 514.463 -20.4902C517.083 -20.4902 519.462 -19.4902 521.792 -18.7402C524.122 -17.9902 527.043 -17.8003 529.083 -16.3203C531.123 -14.8403 532.282 -12.3203 533.772 -10.2203C535.262 -8.12028 537.153 -6.22025 537.943 -3.82025C538.733 -1.42025 538.103 1.16973 538.103 3.78973Z" fill="#D5F0E7"/>
<path d="M612.051 3.79016C612.079 6.31268 611.708 8.8238 610.951 11.2302C610.356 13.7203 609.273 16.0677 607.764 18.1361C606.255 20.2046 604.351 21.953 602.161 23.2802C600.161 24.7702 598.091 26.5602 595.651 27.3602C593.211 28.1602 590.651 27.6702 587.981 27.6702C585.46 27.7337 582.946 27.3962 580.531 26.6702C578.081 25.8802 575.531 25.2302 573.441 23.7502C571.351 22.2702 570.081 19.8901 568.581 17.8301C567.081 15.7701 565.131 13.8302 564.341 11.4202C563.542 8.93815 563.13 6.34768 563.121 3.74017C563.273 1.15275 563.83 -1.39483 564.771 -3.80981C565.621 -6.21403 566.846 -8.46857 568.401 -10.4898C569.901 -12.5498 572.031 -13.8898 574.091 -15.3898C576.075 -16.889 578.291 -18.0544 580.651 -18.8398C583.011 -19.6098 585.371 -20.8398 587.981 -20.8398C590.591 -20.8398 592.981 -19.6298 595.341 -18.8398C597.78 -18.2039 600.104 -17.1918 602.231 -15.8398C604.221 -14.2795 605.959 -12.4209 607.381 -10.3298C610.287 -6.1895 611.911 -1.28613 612.051 3.77014V3.79016Z" fill="#D5F0E7"/>
<path d="M685.562 3.78974C685.562 6.39974 685.782 9.05975 685.012 11.4197C683.3 16.2946 679.968 20.4349 675.572 23.1497C673.608 24.7585 671.4 26.0446 669.032 26.9597C666.626 27.914 664.085 28.4842 661.502 28.6497C658.892 28.6497 656.422 27.4597 654.062 26.6497C649.442 24.714 645.389 21.6381 642.282 17.7097C640.802 15.7097 638.662 13.8698 637.862 11.4298C637.141 8.93538 636.803 6.34569 636.862 3.74976C636.862 1.12976 638.152 -1.25025 638.922 -3.58025C639.692 -5.91025 640.132 -8.64028 641.612 -10.6703C645.059 -14.4478 649.219 -17.5064 653.852 -19.6703C656.314 -20.4248 658.877 -20.7957 661.452 -20.7703C664.072 -20.7703 666.452 -19.6203 668.792 -18.8503C671.132 -18.0803 673.882 -17.6602 675.922 -16.1802C677.873 -14.5389 679.56 -12.6061 680.922 -10.4502C683.596 -6.17709 685.157 -1.30198 685.462 3.72974L685.562 3.78974Z" fill="#D5F0E7"/>
<path d="M758.721 3.79034C758.78 6.28773 758.442 8.77864 757.721 11.1703C756.921 13.6103 756.271 16.1203 754.791 18.1703C753.198 20.1615 751.301 21.8894 749.171 23.2903C747.149 24.8238 744.893 26.0224 742.491 26.8403C740.125 27.8704 737.572 28.402 734.991 28.402C732.41 28.402 729.857 27.8704 727.491 26.8403C725.028 26.1461 722.692 25.0625 720.571 23.6304C718.511 22.1404 717.151 19.9003 715.651 17.8403C714.21 15.7976 713.109 13.535 712.391 11.1403C711.621 8.78032 710.711 6.42036 710.711 3.81036C710.831 1.28122 711.351 -1.21297 712.251 -3.57965C713.067 -5.93987 714.256 -8.15446 715.771 -10.1396C717.271 -12.1996 718.291 -14.8297 720.351 -16.3297C722.411 -17.8297 725.151 -18.0896 727.601 -18.8896C729.963 -19.7758 732.45 -20.2821 734.971 -20.3896C740.011 -20.0769 744.87 -18.4006 749.031 -15.5397C751.175 -14.177 753.094 -12.4903 754.721 -10.5397C756.115 -8.41078 757.164 -6.0754 757.831 -3.61963C758.519 -1.21247 758.819 1.28877 758.721 3.79034Z" fill="#D5F0E7"/>
<path d="M832.31 3.78967C832.468 6.30813 832.229 8.83584 831.6 11.2797C830.876 13.7296 829.772 16.051 828.33 18.1597C826.84 20.2197 824.61 21.5697 822.56 23.0697C818.46 25.9591 813.575 27.5258 808.56 27.5597C803.564 27.338 798.713 25.8217 794.48 23.1597C792.433 21.6958 790.63 19.9171 789.14 17.8896C787.57 15.8995 786.322 13.6759 785.44 11.2997C784.521 8.89431 783.981 6.36075 783.84 3.78967C783.84 1.16967 784.84 -1.31036 785.62 -3.67036C786.297 -6.13067 787.356 -8.46922 788.76 -10.6003C790.26 -12.6603 792.55 -13.9103 794.61 -15.4103C798.575 -18.547 803.505 -20.2115 808.56 -20.1203C811.09 -20.2487 813.624 -19.9787 816.07 -19.3203C818.47 -18.4861 820.722 -17.2743 822.74 -15.7304C826.664 -12.553 829.653 -8.37137 831.39 -3.63032C832.085 -1.22077 832.395 1.28334 832.31 3.78967Z" fill="#D5F0E7"/>
<path d="M61.0999 67.4596C60.9804 70.0158 60.4572 72.537 59.5498 74.9297C58.7913 77.3502 57.6539 79.6352 56.1798 81.6996C54.6798 83.7596 52.5299 85.0996 50.4698 86.5996C48.5367 88.1977 46.3588 89.4741 44.0198 90.3797C40.4021 91.5545 36.5576 91.8552 32.8013 91.2573C29.0449 90.6593 25.4838 89.1797 22.4098 86.9397C20.2936 85.5269 18.4139 83.7888 16.8398 81.7896C15.4531 79.6581 14.4072 77.3234 13.7399 74.8697C12.8002 72.5028 12.2432 70.0015 12.0898 67.4596C12.0898 64.8396 13.0398 62.4597 13.8098 60.0597C14.657 57.7094 15.8721 55.5086 17.4098 53.5396C18.8508 51.5106 20.6102 49.7277 22.6199 48.2597C24.6199 46.7697 26.4698 44.6796 28.9098 43.8896C31.3994 43.1831 33.9833 42.866 36.5698 42.9496C39.1212 43.0662 41.6385 43.5825 44.0298 44.4796C46.3793 45.3887 48.5699 46.6645 50.5198 48.2597C52.5198 49.7497 54.7998 51.0697 56.2998 53.1297C57.7998 55.1897 58.3998 57.6597 59.1998 60.1297C59.9998 62.5997 61.0999 64.8396 61.0999 67.4596Z" fill="#D5F0E7"/>
<path d="M24.419 131.13C24.419 133.75 23.0891 136.13 22.3191 138.44C21.6526 140.854 20.5989 143.144 19.1991 145.22C17.7091 147.28 16.2891 149.48 14.1991 150.98C9.82713 153.705 4.8993 155.413 -0.220974 155.98C-2.84097 155.98 -5.33094 154.85 -7.69094 154.09C-10.1096 153.322 -12.3938 152.182 -14.461 150.71C-16.5572 149.254 -18.4158 147.483 -19.971 145.46C-21.3268 143.317 -22.339 140.976 -22.971 138.52C-24.3378 133.671 -24.3378 128.539 -22.971 123.69C-22.1157 121.335 -20.8866 119.134 -19.331 117.17C-17.831 115.11 -16.761 112.57 -14.701 111.07C-12.641 109.57 -10.031 109 -7.58096 108.21C-5.13096 107.42 -2.76089 106.42 -0.140896 106.42C2.4791 106.42 4.90902 107.52 7.26902 108.29C9.72942 108.937 12.0718 109.97 14.2091 111.35C17.4992 113.457 20.1784 116.392 21.9789 119.859C23.7794 123.327 24.6381 127.206 24.4691 131.11L24.419 131.13Z" fill="#D5F0E7"/>
<path d="M99.2103 131.13C99.225 133.704 98.8369 136.265 98.0602 138.72C97.2005 141.143 95.9617 143.415 94.3902 145.45C91.5199 149.742 87.1459 152.803 82.1303 154.03C79.7149 154.731 77.2042 155.048 74.6902 154.97C69.6074 155.249 64.5952 153.679 60.5803 150.55C57.377 148.443 54.7639 145.554 52.9878 142.156C51.2118 138.758 50.3315 134.963 50.4302 131.13C49.9463 125.925 51.5063 120.735 54.7802 116.66C56.2702 114.66 58.7202 113.48 60.7802 111.98C62.8402 110.48 64.6703 108.58 67.1103 107.79C69.5534 106.94 72.1143 106.478 74.7002 106.42C77.3102 106.42 79.7003 107.65 82.0803 108.42C85.7343 109.458 89.0646 111.407 91.7585 114.085C94.4523 116.763 96.4213 120.082 97.4803 123.73C98.2303 126.09 99.2103 128.51 99.2103 131.13Z" fill="#D5F0E7"/>
<path d="M134.761 67.4598C134.761 70.0698 133.501 72.4599 132.761 74.8499C131.011 79.538 127.941 83.619 123.921 86.5999C120.889 88.7872 117.391 90.2402 113.701 90.8441C110.012 91.448 106.232 91.1864 102.661 90.0798C100.221 89.2798 97.7412 88.6399 95.6612 87.1599C93.5488 85.7023 91.6736 83.9282 90.1012 81.8998C88.7425 79.7371 87.7302 77.3753 87.1012 74.8998C86.2924 72.5053 85.8704 69.9972 85.8512 67.4698C85.8512 64.8498 85.5612 62.1398 86.3212 59.7798C87.2059 57.3393 88.4605 55.0492 90.0412 52.9899C91.5412 50.9299 93.8012 49.5299 95.8612 47.9899C97.9119 46.5354 100.18 45.4148 102.581 44.6699C104.941 43.9099 107.361 42.8799 109.981 42.8799C112.601 42.8799 114.981 43.8799 117.391 44.6199C122.25 46.111 126.488 49.1483 129.461 53.2698C131.104 55.2335 132.427 57.444 133.381 59.8199C134.237 62.2789 134.703 64.8567 134.761 67.4598Z" fill="#D5F0E7"/>
<path d="M171.421 131.13C171.312 133.691 170.799 136.219 169.901 138.62C168.976 140.965 167.68 143.147 166.061 145.08C164.561 147.14 163.191 149.28 161.131 150.78C159.109 152.357 156.856 153.612 154.451 154.5C152.081 155.26 149.451 154.9 146.851 154.9C141.822 154.96 136.91 153.388 132.851 150.42C130.822 148.951 129.04 147.169 127.571 145.14C126.091 143.14 124.321 141.14 123.571 138.71C122.905 136.241 122.628 133.684 122.751 131.13C122.498 125.982 124.023 120.903 127.068 116.745C130.114 112.587 134.496 109.602 139.481 108.29C141.863 107.428 144.368 106.952 146.901 106.88C149.458 106.816 152.009 107.153 154.461 107.88C156.964 108.551 159.348 109.603 161.531 111C163.531 112.5 164.961 114.86 166.461 116.92C167.888 119.006 168.978 121.304 169.691 123.73C170.401 126.09 171.421 128.51 171.421 131.13Z" fill="#D5F0E7"/>
<path d="M245.141 131.13C245.043 133.713 244.54 136.264 243.651 138.69C242.717 141.061 241.407 143.266 239.771 145.22C238.285 147.249 236.482 149.025 234.431 150.48C232.431 151.97 230.431 153.82 228.001 154.61C225.571 155.4 223.001 154.82 220.371 154.82C217.873 154.904 215.378 154.586 212.981 153.88C210.531 153.09 207.821 152.7 205.781 151.22C203.676 149.684 201.821 147.832 200.281 145.73C198.791 143.73 198.281 141.01 197.501 138.56C196.679 136.168 196.243 133.66 196.211 131.13C196.229 127.289 197.104 123.501 198.771 120.041C200.439 116.581 202.858 113.537 205.851 111.13C207.851 109.65 210.621 109.44 213.071 108.65C215.521 107.86 217.761 106.88 220.371 106.88C222.981 106.88 225.701 106.71 228.061 107.48C230.421 108.25 232.311 110.42 234.341 111.9C236.449 113.28 238.325 114.985 239.901 116.95C241.377 119.002 242.515 121.278 243.271 123.69C244.041 126.05 245.141 128.51 245.141 131.13Z" fill="#D5F0E7"/>
<path d="M318.49 131.13C318.49 133.75 317.38 136.13 316.61 138.51C315.84 140.89 315.45 143.68 313.97 145.71C312.49 147.74 310.18 149.22 308.12 150.71C306.096 152.257 303.838 153.469 301.43 154.3C299.048 155.324 296.485 155.862 293.892 155.881C291.298 155.9 288.728 155.4 286.33 154.41C281.662 152.369 277.505 149.315 274.16 145.47C272.579 143.439 271.327 141.171 270.45 138.75C269.652 136.289 269.24 133.718 269.23 131.13C269.302 128.552 269.778 126.001 270.64 123.57C271.395 121.112 272.536 118.79 274.02 116.69C275.648 114.716 277.574 113.008 279.73 111.63C281.701 109.994 283.918 108.681 286.3 107.74C288.757 106.957 291.322 106.562 293.9 106.57C296.51 106.57 298.9 107.72 301.25 108.49C303.6 109.26 306.32 109.75 308.35 111.23C310.32 112.867 312.027 114.796 313.41 116.95C314.89 118.95 316.66 121.03 317.41 123.47C318.164 125.953 318.528 128.537 318.49 131.13Z" fill="#D5F0E7"/>
<path d="M391.081 131.13C391.212 133.632 390.949 136.139 390.301 138.56C389.635 141.022 388.585 143.364 387.191 145.5C385.601 147.49 383.704 149.215 381.571 150.61C379.571 152.1 377.481 153.78 375.041 154.61C372.576 155.39 370.007 155.788 367.421 155.79C364.836 155.778 362.269 155.363 359.811 154.56C357.371 153.77 355.361 152.04 353.331 150.56C351.199 149.177 349.299 147.466 347.701 145.49C346.16 143.441 344.949 141.163 344.111 138.74C343.478 136.269 343.228 133.716 343.371 131.17C343.371 128.55 343.131 125.89 343.891 123.52C344.804 121.108 346.082 118.852 347.681 116.83C349.181 114.77 351.451 113.52 353.511 112.03C355.571 110.54 357.431 108.75 359.871 107.95C362.299 107.085 364.846 106.603 367.421 106.52C370.031 106.52 372.421 107.73 374.791 108.52C379.717 109.799 383.978 112.892 386.721 117.18C388.201 119.18 389.921 121.18 390.721 123.63C391.521 126.08 391.081 128.51 391.081 131.13Z" fill="#D5F0E7"/>
<path d="M465.751 131.13C465.751 133.75 464.291 136.13 463.531 138.47C462.766 140.841 461.625 143.073 460.151 145.08C458.651 147.14 457.511 149.61 455.451 151.08C451.218 154.096 446.137 155.689 440.941 155.63C437.031 155.88 433.127 155.072 429.637 153.291C426.148 151.51 423.203 148.823 421.111 145.51C419.704 143.373 418.641 141.028 417.961 138.56C417.099 136.164 416.623 133.646 416.551 131.1C416.551 128.48 417.551 126.1 418.351 123.76C419.151 121.42 419.641 118.76 421.121 116.7C422.656 114.645 424.502 112.84 426.591 111.35C428.612 109.745 430.869 108.46 433.281 107.54C435.651 106.78 438.281 107.22 440.941 107.22C443.441 107.253 445.919 107.688 448.281 108.51C450.731 109.3 453.181 109.96 455.221 111.44C457.261 112.92 458.601 115.12 460.101 117.18C461.573 119.182 462.714 121.407 463.481 123.77C464.251 126.17 465.751 128.51 465.751 131.13Z" fill="#D5F0E7"/>
<path d="M538.65 131.13C538.714 133.683 538.376 136.231 537.65 138.68C536.86 141.12 535.06 143.01 533.58 145.05C532.1 147.09 530.88 149.46 528.82 150.95C526.698 152.378 524.362 153.459 521.9 154.15C519.506 155.071 516.981 155.608 514.42 155.74C511.8 155.74 509.42 154.56 507.06 153.74C504.7 152.92 501.95 152.53 499.91 151.04C497.87 149.55 496.43 147.29 494.91 145.24C493.328 143.244 492.072 141.009 491.19 138.62C489.63 133.714 489.63 128.446 491.19 123.54C491.715 120.996 492.78 118.595 494.312 116.497C495.843 114.4 497.807 112.655 500.07 111.38C504.186 108.261 509.215 106.585 514.38 106.61C516.949 106.593 519.506 106.975 521.96 107.74C524.41 108.54 526.43 110.21 528.47 111.74C530.51 113.27 532.8 114.6 534.3 116.66C535.677 118.821 536.713 121.182 537.37 123.66C538.185 126.067 538.617 128.588 538.65 131.13Z" fill="#D5F0E7"/>
<path d="M612.581 131.13C612.581 136.333 610.978 141.41 607.991 145.67C606.501 147.73 604.251 149.19 602.191 150.67C598.081 153.738 593.079 155.375 587.951 155.33C585.426 155.247 582.931 154.761 580.561 153.89C578.072 153.338 575.719 152.289 573.645 150.806C571.571 149.323 569.818 147.437 568.491 145.26C566.998 143.227 565.84 140.968 565.061 138.57C564.291 136.21 563.141 133.74 563.141 131.13C563.141 128.52 564.411 126.13 565.141 123.73C566.921 119.024 569.929 114.881 573.851 111.73C575.851 110.25 577.911 108.63 580.361 107.83C582.811 107.109 585.357 106.771 587.911 106.83C590.49 106.564 593.097 106.817 595.577 107.575C598.057 108.332 600.36 109.578 602.351 111.24C604.352 112.841 606.093 114.744 607.511 116.88C608.884 118.999 609.917 121.321 610.571 123.76C611.411 126.13 612.581 128.51 612.581 131.13Z" fill="#D5F0E7"/>
<path d="M685.681 131.13C685.56 133.648 685.033 136.129 684.122 138.48C683.472 140.914 682.439 143.23 681.061 145.34C679.561 147.34 678.061 149.63 676.061 151.12C674.061 152.61 671.442 153.29 668.992 154.12C666.578 154.873 664.06 155.238 661.531 155.2C658.921 155.2 656.281 155.35 653.921 154.59C651.512 153.7 649.255 152.442 647.232 150.86C645.172 149.36 643.862 147.15 642.362 145.1C640.862 143.05 639.052 141.18 638.252 138.73C637.603 136.265 637.343 133.714 637.482 131.17C637.501 126.082 639.056 121.12 641.941 116.93C643.398 114.837 645.173 112.985 647.201 111.44C651.486 108.714 656.454 107.255 661.531 107.23C664.065 107.1 666.602 107.37 669.051 108.03C671.419 108.938 673.627 110.217 675.591 111.82C678.877 113.822 681.554 116.681 683.337 120.09C685.12 123.499 685.941 127.329 685.711 131.17L685.681 131.13Z" fill="#D5F0E7"/>
<path d="M759.209 131.13C759.209 133.75 759.399 136.44 758.629 138.8C757.859 141.16 756.139 143.35 754.629 145.39C753.283 147.579 751.517 149.478 749.431 150.979C747.345 152.479 744.982 153.55 742.479 154.13C740.075 154.989 737.551 155.462 734.999 155.53C732.389 155.53 729.999 154.53 727.659 153.73C725.234 153.066 722.929 152.023 720.829 150.64C718.853 149.082 717.138 147.219 715.749 145.12C712.807 141.056 711.23 136.163 711.246 131.145C711.262 126.128 712.87 121.245 715.839 117.2C717.339 115.15 718.539 112.79 720.589 111.29C724.852 108.415 729.858 106.837 734.999 106.75C740.212 106.392 745.371 107.981 749.479 111.21C751.479 112.71 752.849 115.02 754.349 117.07C757.435 121.113 759.133 126.044 759.189 131.13H759.209Z" fill="#D5F0E7"/>
<path d="M833.052 131.13C833.25 136.351 831.694 141.487 828.632 145.72C827.142 147.78 824.872 149.28 822.822 150.72C820.772 152.16 818.322 152.83 815.872 153.62C813.527 154.501 811.055 154.997 808.552 155.09C805.932 155.09 803.292 155.28 800.932 154.52C798.506 153.652 796.229 152.414 794.182 150.85C792.182 149.35 790.782 147.13 789.282 145.08C787.852 143.039 786.761 140.779 786.052 138.39C785.282 136.03 783.922 133.69 783.922 131.08C783.922 128.47 785.082 126.08 785.842 123.7C786.602 121.32 787.162 118.7 788.642 116.62C790.122 114.54 792.452 113.25 794.512 111.76C796.464 110.143 798.662 108.846 801.022 107.92C805.975 106.678 811.15 106.613 816.132 107.73C818.623 108.463 820.985 109.58 823.132 111.04C825.132 112.54 826.502 114.9 828.002 116.96C829.494 118.993 830.652 121.252 831.432 123.65C832.369 126.041 832.915 128.566 833.052 131.13Z" fill="#D5F0E7"/>
<path d="M207.39 67.4602C207.49 69.9684 207.19 72.4764 206.5 74.8901C205.827 77.3469 204.771 79.6822 203.37 81.8102C201.086 84.9349 198.118 87.4975 194.694 89.3031C191.27 91.1087 187.48 92.1098 183.61 92.2302C181.023 92.181 178.459 91.7289 176.01 90.8901C173.621 89.9579 171.394 88.6553 169.41 87.0302C167.416 85.4846 165.681 83.6314 164.27 81.5402C162.79 79.5402 161.15 77.5402 160.35 75.0502C159.652 72.5935 159.341 70.0427 159.43 67.4902C159.278 64.9277 159.524 62.3572 160.16 59.8702C161.57 54.8309 164.827 50.5073 169.28 47.7602C173.366 44.6127 178.467 43.0785 183.61 43.4501C186.138 43.4288 188.653 43.8103 191.06 44.5802C193.5 45.3702 196.06 46.0202 198.14 47.5002C200.184 49.0753 201.975 50.9537 203.45 53.0702C204.93 55.0702 205.58 57.6402 206.38 60.0702C207.105 62.4649 207.445 64.959 207.39 67.4602Z" fill="#D5F0E7"/>
<path d="M281.782 67.4601C281.624 70.0208 281.067 72.5412 280.132 74.9301C279.205 77.2693 277.912 79.4464 276.302 81.3801C274.802 83.4401 273.562 85.7401 271.502 87.2301C267.091 89.7663 262.194 91.3408 257.132 91.8501C254.552 91.9757 251.968 91.7025 249.472 91.0401C244.601 89.2524 240.377 86.0484 237.342 81.8401C235.862 79.8401 235.182 77.2901 234.342 74.8401C233.502 72.3901 232.422 70.0601 232.422 67.4501C232.358 64.8539 232.695 62.2634 233.422 59.7701C234.212 57.3201 236.422 55.5501 237.872 53.5101C239.322 51.4701 240.582 49.1001 242.642 47.6101C244.702 46.1201 247.192 45.4101 249.642 44.6101C252.092 43.8101 254.442 42.8301 257.052 42.8301C259.625 42.8965 262.172 43.362 264.602 44.2101C267.101 44.8872 269.482 45.9427 271.662 47.3401C273.722 48.8301 275.162 51.1401 276.662 53.1901C278.108 55.2742 279.218 57.5721 279.952 60.0001C280.802 62.3801 281.782 64.8401 281.782 67.4601Z" fill="#D5F0E7"/>
<path d="M354.952 67.4602C355.033 70.0196 354.719 72.5763 354.022 75.0402C353.222 77.4902 351.392 79.3902 349.912 81.4302C348.432 83.4702 347.032 85.6502 344.982 87.1402C342.863 88.5351 340.538 89.5881 338.092 90.2602C335.708 91.0955 333.207 91.5445 330.682 91.5902C328.142 91.6492 325.608 91.3118 323.172 90.5902C320.692 89.9154 318.331 88.8631 316.172 87.4702C314.112 85.9702 312.992 83.4702 311.492 81.4702C309.992 79.4702 308.282 77.4702 307.492 75.0702C305.927 70.1842 305.98 64.9239 307.642 60.0702C309.514 55.3472 312.511 51.1525 316.372 47.8502C318.395 46.2619 320.656 45.0031 323.072 44.1202C325.432 43.3502 328.072 43.7902 330.692 43.7902C333.19 43.753 335.679 44.1176 338.062 44.8702C340.503 45.5177 342.826 46.5507 344.942 47.9302C347.114 49.2871 348.989 51.069 350.455 53.169C351.921 55.2689 352.947 57.6436 353.472 60.1502C354.346 62.4941 354.845 64.9609 354.952 67.4602Z" fill="#D5F0E7"/>
<path d="M428.842 67.4598C428.842 70.0698 427.842 72.5498 427.102 74.9098C426.477 77.3867 425.465 79.7492 424.102 81.9098C422.507 83.9195 420.607 85.6673 418.472 87.0898C416.359 88.4785 414.041 89.5248 411.602 90.1898C409.211 90.9384 406.716 91.2996 404.212 91.2598C401.692 91.3894 399.167 91.1193 396.732 90.4598C394.292 89.6598 391.662 88.9998 389.632 87.5198C387.602 86.0398 386.472 83.5198 384.972 81.4298C383.472 79.3398 381.622 77.4998 380.832 75.0498C380.106 72.5872 379.768 70.0264 379.832 67.4598C379.991 64.9264 380.554 62.4348 381.502 60.0798C382.196 57.6621 383.277 55.3726 384.702 53.2998C386.104 51.1727 387.835 49.2823 389.832 47.6998C393.909 44.4911 399.009 42.8645 404.192 43.1198C409.241 43.5471 414.112 45.1868 418.392 47.8998C420.452 49.3998 422.742 50.8398 424.232 52.8998C425.722 54.9598 426.152 57.6298 426.942 60.0698C427.732 62.5098 428.842 64.8398 428.842 67.4598Z" fill="#D5F0E7"/>
<path d="M501.949 67.4597C501.818 69.9806 501.288 72.4648 500.379 74.8198C499.579 77.2598 499.209 79.9497 497.729 81.9897C494.612 86.1595 490.296 89.2785 485.359 90.9297C482.875 91.6089 480.302 91.899 477.729 91.7897C475.198 91.6566 472.703 91.1233 470.339 90.2097C467.944 89.4491 465.686 88.3115 463.649 86.8397C461.525 85.4499 459.632 83.7358 458.039 81.7598C456.39 79.7693 455.064 77.532 454.109 75.1298C453.339 72.7698 453.539 70.0697 453.539 67.4597C453.539 64.8497 453.349 62.1397 454.109 59.7797C455.076 57.3843 456.404 55.1516 458.049 53.1597C459.663 51.2076 461.573 49.5205 463.709 48.1597C465.719 46.6629 467.958 45.5013 470.339 44.7197C472.699 43.9497 475.109 42.7197 477.729 42.7197C481.613 42.7531 485.435 43.7002 488.885 45.4843C492.335 47.2685 495.317 49.8396 497.589 52.9897C500.592 57.1881 502.125 62.2608 501.949 67.4197V67.4597Z" fill="#D5F0E7"/>
<path d="M576.022 67.4598C575.869 70.0373 575.312 72.5749 574.372 74.9798C572.39 79.6221 569.241 83.6732 565.232 86.7398C563.232 88.2198 561.352 90.2998 558.902 91.0898C556.452 91.8798 553.842 91.6698 551.222 91.6698C548.69 91.605 546.185 91.1357 543.802 90.2798C541.441 89.4404 539.23 88.2284 537.252 86.6898C535.192 85.1898 533.002 83.8398 531.502 81.7798C530.002 79.7198 529.502 77.2198 528.702 74.7798C527.816 72.4385 527.309 69.9708 527.202 67.4698C527.164 64.9416 527.529 62.4235 528.282 60.0098C528.911 57.5345 529.924 55.1727 531.282 53.0098C532.772 50.9498 535.122 49.6898 537.182 48.1898C539.242 46.6898 541.092 44.7298 543.542 43.9398C548.503 42.4819 553.791 42.5771 558.696 44.2128C563.602 45.8485 567.889 48.9462 570.982 53.0898C572.395 55.2124 573.464 57.5444 574.152 59.9998C574.952 62.3498 576.022 64.8398 576.022 67.4598Z" fill="#D5F0E7"/>
<path d="M649.392 67.46C649.392 70.07 648.022 72.41 647.252 74.77C646.482 77.13 646.252 79.93 644.712 81.97C643.172 84.01 640.912 85.3801 638.852 86.8801C636.792 88.3801 634.852 90.1201 632.362 90.8801C629.879 91.5362 627.308 91.8027 624.742 91.67C622.132 91.67 619.742 90.67 617.422 89.95C615.102 89.23 612.532 88.53 610.492 87.04C608.532 85.4343 606.844 83.5231 605.492 81.3801C603.952 79.4037 602.739 77.192 601.902 74.83C601.132 72.47 599.902 70.0401 599.902 67.43C599.992 62.2284 601.709 57.1855 604.812 53.0101C606.312 50.9501 608.632 49.7 610.682 48.2C612.708 46.7463 614.953 45.6255 617.332 44.8801C619.692 44.1201 622.042 42.96 624.652 42.96C629.886 42.6274 635.065 44.1892 639.242 47.36C641.242 48.85 642.552 51.28 644.052 53.36C645.462 55.4287 646.53 57.7114 647.212 60.1201C648.072 62.4901 649.392 64.84 649.392 67.46Z" fill="#D5F0E7"/>
<path d="M722.281 67.4595C722.281 70.0695 722.661 72.7696 721.891 75.1296C720.527 78.7638 718.391 82.0582 715.628 84.7846C712.865 87.5111 709.543 89.6044 705.891 90.9196C703.531 91.6896 700.891 91.2095 698.261 91.2095C695.754 91.3157 693.246 91.0221 690.831 90.3396C688.454 89.5125 686.228 88.3033 684.241 86.7596C682.181 85.2696 679.711 84.0796 678.241 82.0296C676.771 79.9796 676.371 77.2896 675.581 74.8396C674.762 72.4639 674.33 69.9722 674.301 67.4595C674.304 64.9422 674.706 62.4413 675.491 60.0496C676.291 57.5996 676.861 54.9895 678.341 52.9595C679.821 50.9295 682.111 49.5095 684.171 47.9595C686.234 46.5249 688.513 45.4278 690.921 44.7095C693.281 43.9495 695.681 42.8295 698.291 42.8295C700.889 42.6237 703.503 42.932 705.983 43.7367C708.462 44.5414 710.758 45.8268 712.741 47.5195C714.695 49.1543 716.382 51.0842 717.741 53.2396C720.484 57.4754 722.045 62.3677 722.261 67.4096L722.281 67.4595Z" fill="#D5F0E7"/>
<path d="M795.559 67.46C795.559 70.07 795.999 72.72 795.239 75.08C794.479 77.44 792.499 79.3901 791.009 81.4301C789.519 83.4701 788.159 85.6701 786.099 87.1601C781.955 90.1548 776.89 91.5988 771.789 91.2401C769.289 91.2681 766.8 90.8933 764.419 90.1301C762.065 89.3117 759.86 88.1161 757.889 86.59C755.829 85.09 753.319 84.02 751.819 81.96C750.319 79.9 749.949 77.2601 749.149 74.8101C748.349 72.3601 746.949 70.07 746.949 67.46C747.121 64.8792 747.698 62.3416 748.659 59.9401C749.574 57.5788 750.852 55.3753 752.449 53.4101C753.918 51.3751 755.7 49.5862 757.729 48.1101C759.729 46.6301 761.729 44.9201 764.199 44.1101C766.669 43.3001 769.199 43.5401 771.789 43.5401C774.294 43.5425 776.783 43.9477 779.159 44.7401C781.517 45.5606 783.726 46.7596 785.699 48.2901C787.743 49.7179 789.546 51.4632 791.039 53.46C792.519 55.46 794.569 57.3401 795.359 59.7901C796.149 62.2401 795.559 64.84 795.559 67.46Z" fill="#D5F0E7"/>
<path d="M869.002 67.4597C869.036 69.949 868.668 72.4276 867.912 74.7997C867.122 77.2497 866.912 80.0396 865.432 82.0797C863.952 84.1197 861.292 85.0797 859.232 86.6297C857.276 88.1959 855.082 89.4383 852.732 90.3097C850.343 91.1285 847.838 91.5606 845.312 91.5897C840.144 91.9158 835.024 90.4306 830.832 87.3896C828.772 85.8896 827.652 83.3896 826.152 81.3896C824.549 79.4551 823.263 77.278 822.342 74.9397C821.582 72.5797 820.652 70.0897 820.652 67.4797C820.652 64.8697 821.652 62.4097 822.462 60.0497C823.339 57.7048 824.589 55.5167 826.162 53.5697C827.662 51.5097 828.782 49.0597 830.842 47.5697C832.902 46.0797 835.482 45.5697 837.932 44.7897C840.382 44.0097 842.692 42.9297 845.312 42.9297C847.932 42.9297 850.312 44.1697 852.632 44.9297C855.024 45.6476 857.283 46.7486 859.322 48.1897C861.382 49.6797 863.622 51.0297 865.112 53.0897C866.47 55.2532 867.482 57.6148 868.112 60.0897C868.792 62.4848 869.092 64.9716 869.002 67.4597Z" fill="#D5F0E7"/>
<path d="M61.2509 194.8C61.2509 197.42 60.0908 199.8 59.3208 202.19C58.5178 204.561 57.3359 206.786 55.8208 208.78C54.4096 210.856 52.6781 212.696 50.6908 214.23C48.6908 215.71 46.6908 217.59 44.2308 218.39C41.7552 219.188 39.1719 219.603 36.5708 219.62C33.974 219.555 31.4032 219.086 28.9508 218.23C26.5008 217.44 24.6908 215.44 22.6508 213.95C20.602 212.532 18.7955 210.793 17.3008 208.8C15.7555 206.819 14.5367 204.605 13.6908 202.24C12.8054 199.857 12.3058 197.349 12.2108 194.81C12.1466 192.24 12.484 189.675 13.2108 187.21C14.1506 184.829 15.46 182.612 17.0908 180.64C18.6512 178.663 20.5142 176.945 22.6109 175.55C24.6217 174.065 26.8564 172.911 29.2308 172.13C31.5908 171.37 33.9808 170.43 36.6008 170.43C40.4752 170.301 44.3195 171.15 47.7797 172.898C51.2399 174.645 54.2046 177.235 56.4008 180.43C57.8908 182.43 58.4008 185.03 59.2108 187.43C60.0208 189.83 61.2509 192.23 61.2509 194.8Z" fill="#D5F0E7"/>
<path d="M23.779 258.47C23.7202 262.227 22.7866 265.918 21.0522 269.251C19.3177 272.583 16.8302 275.466 13.7871 277.669C10.7441 279.872 7.22939 281.336 3.52188 281.944C-0.185619 282.552 -3.98376 282.287 -7.57101 281.17C-10.011 280.37 -12.571 279.76 -14.571 278.28C-18.3949 274.881 -21.4787 270.732 -23.6309 266.09C-24.2618 263.602 -24.5081 261.033 -24.361 258.47C-24.2299 255.956 -23.6999 253.478 -22.791 251.13C-22.1588 248.681 -21.1465 246.346 -19.791 244.21C-18.2072 242.238 -16.3204 240.53 -14.201 239.15C-12.2275 237.575 -10.0122 236.329 -7.64096 235.46C-5.20758 234.787 -2.68302 234.504 -0.160976 234.62C2.35642 234.556 4.86791 234.893 7.27896 235.62C9.64856 236.465 11.8644 237.691 13.839 239.25C15.899 240.74 18.199 242.04 19.699 244.09C21.199 246.14 21.569 248.76 22.359 251.2C23.218 253.532 23.6974 255.987 23.779 258.47Z" fill="#D5F0E7"/>
<path d="M98.7419 258.47C98.6888 260.986 98.2364 263.477 97.4018 265.85C96.5875 268.211 95.3991 270.426 93.8819 272.41C92.3819 274.47 91.3519 277.08 89.2919 278.58C87.1421 280.026 84.7805 281.13 82.2918 281.85C79.9318 282.62 77.2919 282.49 74.7019 282.49C70.9384 282.432 67.2415 281.489 63.9096 279.738C60.5778 277.987 57.7045 275.477 55.5218 272.41C54.0318 270.41 52.3018 268.41 51.5218 266.01C50.8724 263.553 50.6126 261.008 50.7519 258.47C50.5987 255.932 50.8382 253.385 51.4619 250.92C52.2619 248.47 53.9919 246.53 55.4619 244.5C58.1386 240.153 62.3499 236.97 67.2619 235.58C69.6219 234.81 72.0819 233.7 74.7019 233.7C77.2854 233.786 79.8395 234.275 82.2718 235.15C84.7218 235.94 86.6719 237.71 88.7119 239.15C90.7519 240.59 93.1819 241.86 94.7119 243.91C96.151 246.061 97.2474 248.423 97.9619 250.91C98.6152 253.374 98.8784 255.925 98.7419 258.47Z" fill="#D5F0E7"/>
<path d="M133.951 194.8C133.951 197.42 134.231 200.07 133.471 202.43C132.711 204.79 130.941 206.92 129.471 208.95C126.175 212.719 122.022 215.641 117.361 217.47C115.011 218.403 112.526 218.953 110.001 219.1C107.381 219.1 105.001 218.04 102.691 217.28C100.381 216.52 97.691 216.08 95.611 214.6C93.5527 213.072 91.7445 211.233 90.251 209.15C88.761 207.15 88.1409 204.61 87.3509 202.15C86.5479 199.778 86.1326 197.293 86.121 194.79C86.0568 192.279 86.3944 189.774 87.121 187.37C87.589 184.846 88.6147 182.459 90.1234 180.383C91.6321 178.307 93.5855 176.594 95.8409 175.37C97.8491 173.825 100.091 172.61 102.481 171.77C104.841 171 107.351 171.11 109.971 171.11C115.056 170.658 120.124 172.144 124.161 175.27C126.221 176.77 128.521 178.18 130.021 180.27C131.521 182.36 131.831 185.03 132.621 187.48C133.453 189.833 133.902 192.304 133.951 194.8Z" fill="#D5F0E7"/>
<path d="M170.811 258.47C170.944 263.555 169.351 268.536 166.291 272.6C164.786 274.614 162.974 276.379 160.921 277.83C156.759 280.687 151.892 282.347 146.851 282.63C141.709 282.819 136.654 281.261 132.511 278.21C130.343 276.801 128.406 275.063 126.771 273.06C125.291 271.06 125.131 268.23 124.341 265.79C123.568 263.428 123.183 260.956 123.201 258.47C123.105 255.974 123.408 253.479 124.101 251.08C124.891 248.63 125.491 246.08 126.971 244.03C129.176 240.838 132.159 238.263 135.638 236.548C139.117 234.833 142.977 234.035 146.851 234.23C149.367 234.382 151.842 234.939 154.181 235.88C156.631 236.67 159.391 236.88 161.431 238.38C163.471 239.88 164.951 242.15 166.431 244.21C167.992 246.23 169.224 248.485 170.081 250.89C170.715 253.364 170.961 255.921 170.811 258.47Z" fill="#D5F0E7"/>
<path d="M245.11 258.47C245.11 261.09 244 263.54 243.23 265.9C242.496 268.321 241.382 270.609 239.93 272.68C238.487 274.78 236.722 276.639 234.7 278.19C232.662 279.755 230.391 280.99 227.97 281.85C225.61 282.62 222.97 282.35 220.37 282.35C216.574 282.538 212.796 281.711 209.427 279.953C206.057 278.195 203.217 275.571 201.2 272.35C199.72 270.35 197.55 268.54 196.75 266.1C195.95 263.66 196.64 261.04 196.64 258.42C196.628 253.382 198.095 248.451 200.86 244.24C202.302 242.148 204.064 240.296 206.08 238.75C208.086 237.136 210.329 235.841 212.73 234.91C215.222 234.263 217.798 234 220.37 234.13C222.99 234.13 225.69 234.03 228.05 234.8C230.41 235.57 232.35 237.66 234.38 239.14C236.41 240.62 238.62 242.02 240.12 244.08C241.481 246.241 242.493 248.604 243.12 251.08C243.87 253.45 245.11 255.86 245.11 258.47Z" fill="#D5F0E7"/>
<path d="M318.539 258.47C318.539 261.09 317.389 263.47 316.629 265.86C315.798 268.216 314.597 270.423 313.069 272.4C311.569 274.46 310.569 277.1 308.509 278.59C306.366 280.074 304.004 281.214 301.509 281.97C299.068 282.771 296.518 283.196 293.949 283.23C291.329 283.23 288.949 281.76 286.629 280.99C284.187 280.363 281.862 279.35 279.739 277.99C277.741 276.442 276 274.59 274.579 272.5C271.765 268.33 270.172 263.457 269.979 258.43C269.942 255.912 270.306 253.404 271.059 251C271.859 248.55 272.369 245.87 273.849 243.83C275.463 241.8 277.378 240.029 279.529 238.58C281.591 237.026 283.881 235.801 286.319 234.95C288.803 234.272 291.376 233.978 293.949 234.08C296.53 233.927 299.12 234.166 301.629 234.79C304.069 235.59 306.009 237.55 308.039 239.03C310.209 240.345 312.09 242.086 313.569 244.149C315.047 246.211 316.091 248.552 316.639 251.03C317.359 253.46 318.539 255.86 318.539 258.47Z" fill="#D5F0E7"/>
<path d="M392.189 258.47C392.062 261.049 391.536 263.592 390.629 266.01C389.756 268.403 388.51 270.644 386.939 272.65C385.558 274.807 383.851 276.736 381.879 278.37C378.645 280.424 375.015 281.775 371.225 282.337C367.435 282.899 363.57 282.658 359.879 281.63C357.521 280.703 355.324 279.411 353.369 277.8C351.309 276.3 349.029 274.97 347.539 272.91C346.144 270.753 345.094 268.391 344.429 265.91C343.588 263.506 343.129 260.986 343.069 258.44C343.011 255.877 343.348 253.32 344.069 250.86C344.938 248.449 346.183 246.191 347.759 244.17C351.051 240.309 355.216 237.288 359.909 235.36C362.269 234.59 364.789 233.59 367.409 233.59C370.029 233.59 372.409 235 374.769 235.77C377.129 236.54 379.869 237 381.909 238.48C383.949 239.96 385.139 242.42 386.629 244.48C388.119 246.54 389.929 248.48 390.729 250.88C391.605 253.319 392.097 255.88 392.189 258.47Z" fill="#D5F0E7"/>
<path d="M464.951 258.47C464.951 261.09 465.271 263.78 464.511 266.14C463.751 268.5 461.511 270.33 460.021 272.37C458.531 274.41 457.511 277.01 455.461 278.51C453.411 280.01 450.771 280.51 448.331 281.34C445.891 282.17 443.511 283.34 440.901 283.34C438.291 283.34 435.901 282.03 433.491 281.26C431.081 280.49 428.491 279.81 426.491 278.32C424.516 276.696 422.809 274.773 421.431 272.62C419.898 270.603 418.696 268.355 417.871 265.96C417.101 263.6 416.051 261.09 416.051 258.47C416.051 255.85 417.651 253.47 418.421 251.16C419.191 248.85 419.421 245.96 420.891 243.92C422.361 241.88 424.711 240.5 426.761 239C428.805 237.519 431.07 236.369 433.471 235.59C435.831 234.82 438.291 233.59 440.911 233.59C443.531 233.59 445.991 234.79 448.351 235.59C450.784 236.313 453.088 237.413 455.181 238.85C457.28 240.31 459.139 242.088 460.691 244.12C463.86 248.208 465.384 253.335 464.961 258.49L464.951 258.47Z" fill="#D5F0E7"/>
<path d="M538.95 258.47C539.059 261.062 538.769 263.656 538.09 266.16C536.239 271.002 532.983 275.181 528.74 278.16C526.718 279.75 524.461 281.016 522.049 281.91C519.689 282.67 517.05 282.35 514.44 282.35C510.61 282.729 506.751 282.011 503.314 280.279C499.877 278.548 497.003 275.874 495.029 272.57C493.549 270.57 491.779 268.57 491.029 266.09C490.279 263.61 490.56 261.09 490.56 258.47C490.297 255.93 490.541 253.364 491.277 250.92C492.013 248.475 493.228 246.201 494.85 244.23C496.249 242.075 497.976 240.151 499.97 238.53C503.142 236.276 506.788 234.776 510.628 234.146C514.469 233.515 518.402 233.769 522.13 234.89C524.57 235.68 526.619 237.46 528.649 238.95C530.774 240.363 532.661 242.105 534.24 244.11C537.317 248.268 538.975 253.306 538.97 258.48L538.95 258.47Z" fill="#D5F0E7"/>
<path d="M612.791 258.47C612.712 261.061 612.233 263.625 611.371 266.07C610.571 268.52 608.891 270.55 607.371 272.59C605.851 274.63 604.431 276.84 602.371 278.34C600.311 279.84 597.731 280.27 595.281 281.07C592.935 281.99 590.457 282.53 587.941 282.67C585.398 282.697 582.867 282.323 580.441 281.56C577.991 280.77 576.081 279.09 574.041 277.56C572.001 276.03 569.641 274.87 568.141 272.82C564.869 268.741 563.103 263.659 563.141 258.43C563.253 255.847 563.762 253.298 564.651 250.87C565.583 248.501 566.879 246.291 568.491 244.32C571.583 240.287 575.67 237.127 580.351 235.15C582.776 234.249 585.327 233.733 587.911 233.62C590.531 233.62 593.051 234.62 595.411 235.35C597.785 236.285 599.993 237.595 601.951 239.23C604.011 240.73 606.421 241.94 607.951 243.99C610.806 248.317 612.478 253.316 612.801 258.49L612.791 258.47Z" fill="#D5F0E7"/>
<path d="M686.232 258.47C686.232 261.09 684.952 263.47 684.232 265.84C683.512 268.21 682.912 270.84 681.432 272.91C679.909 274.993 678.074 276.828 675.992 278.35C673.992 279.83 671.402 280.46 668.992 281.26C666.582 282.06 664.202 283.32 661.582 283.32C658.962 283.32 656.432 282.32 654.072 281.61C651.682 280.747 649.445 279.512 647.442 277.95C645.382 276.45 642.992 275.12 641.442 273.07C640.041 270.894 638.982 268.517 638.302 266.02C637.513 263.581 637.108 261.034 637.102 258.47C637.157 255.914 637.616 253.383 638.462 250.97C639.307 248.58 640.525 246.339 642.072 244.33C643.572 242.28 644.972 240 647.072 238.51C649.144 236.943 651.448 235.708 653.901 234.85C656.386 234.086 658.972 233.705 661.572 233.72C664.192 233.72 666.661 234.79 669.021 235.56C671.439 236.309 673.721 237.44 675.781 238.91C677.891 240.348 679.764 242.106 681.332 244.12C682.812 246.12 683.402 248.68 684.192 251.12C684.982 253.56 686.232 255.86 686.232 258.47Z" fill="#D5F0E7"/>
<path d="M758.949 258.47C758.949 261.09 759.409 263.79 758.639 266.15C757.869 268.51 756.079 270.65 754.639 272.69C751.301 276.468 747.178 279.471 742.559 281.49C740.189 282.26 737.689 282.1 735.069 282.1C730.05 282.289 725.125 280.702 721.159 277.62C719.109 276.12 716.749 274.93 715.249 272.88C713.839 270.747 712.766 268.41 712.069 265.95C711.309 263.58 710.289 261.09 710.289 258.47C710.525 253.276 712.16 248.242 715.019 243.9C716.519 241.9 719.019 240.77 721.129 239.27C723.105 237.737 725.317 236.534 727.679 235.71C730.039 234.94 732.459 233.71 735.069 233.71C740.197 234.184 745.133 235.9 749.449 238.71C751.614 240.131 753.553 241.871 755.199 243.87C756.697 246.012 757.854 248.373 758.629 250.87C759.349 253.23 758.949 255.86 758.949 258.47Z" fill="#D5F0E7"/>
<path d="M832.291 258.47C832.414 262.238 831.58 265.976 829.868 269.335C828.156 272.694 825.622 275.565 822.501 277.68C820.501 279.16 818.501 280.74 816.041 281.54C813.64 282.442 811.113 282.965 808.551 283.09C805.967 283.096 803.397 282.705 800.931 281.93C796.257 279.796 792.048 276.765 788.541 273.01C787.061 271.01 786.541 268.32 785.771 265.87C784.64 262.277 784.368 258.47 784.976 254.753C785.584 251.037 787.055 247.515 789.271 244.47C790.771 242.41 792.171 240.25 794.271 238.76C796.284 237.142 798.534 235.844 800.941 234.91C803.301 234.15 805.941 234.4 808.601 234.4C811.126 234.406 813.633 234.811 816.031 235.6C818.47 236.304 820.784 237.384 822.891 238.8C827.318 241.559 830.572 245.852 832.031 250.86C832.751 253.23 832.291 255.86 832.291 258.47Z" fill="#D5F0E7"/>
<path d="M207.579 194.8C207.698 197.335 207.418 199.872 206.749 202.32C205.351 205.852 203.244 209.059 200.557 211.744C197.871 214.429 194.662 216.535 191.129 217.93C188.69 218.657 186.153 218.994 183.609 218.93C181.083 218.917 178.574 218.502 176.179 217.7C173.818 216.845 171.61 215.616 169.639 214.06C167.559 212.657 165.713 210.936 164.169 208.96C162.814 206.86 161.801 204.558 161.169 202.14C160.399 199.78 159.379 197.45 159.379 194.83C159.43 192.291 159.886 189.776 160.729 187.38C161.519 184.93 162.139 182.31 163.619 180.28C165.099 178.25 167.379 176.76 169.429 175.28C173.56 172.232 178.518 170.51 183.649 170.34C186.269 170.34 188.649 171.53 190.979 172.34C193.309 173.15 196.209 173.34 198.249 174.82C202.492 177.895 205.644 182.242 207.249 187.23C207.949 189.49 207.579 192.23 207.579 194.8Z" fill="#D5F0E7"/>
<path d="M280.82 194.8C280.849 197.289 280.482 199.767 279.73 202.14C278.93 204.59 278.73 207.37 277.24 209.41C275.75 211.45 273.18 212.57 271.13 214.06C269.08 215.55 267.23 217.54 264.78 218.34C262.33 219.14 259.78 218.8 257.13 218.8C253.326 218.88 249.56 218.024 246.164 216.306C242.769 214.589 239.848 212.062 237.66 208.95C234.624 204.877 233.104 199.873 233.36 194.8C233.338 192.302 233.72 189.816 234.49 187.44C235.28 184.99 235.92 182.5 237.41 180.44C238.893 178.352 240.695 176.509 242.75 174.98C246.802 171.729 251.956 170.174 257.13 170.64C259.649 170.731 262.138 171.228 264.5 172.11C266.95 172.9 269.5 173.46 271.5 174.94C275.887 177.797 279.127 182.11 280.65 187.12C281.45 189.51 280.82 192.23 280.82 194.8Z" fill="#D5F0E7"/>
<path d="M354.882 194.8C354.946 197.35 354.609 199.894 353.882 202.34C353.193 204.822 352.123 207.184 350.712 209.34C349.149 211.407 347.277 213.221 345.162 214.72C343.032 216.162 340.691 217.265 338.222 217.99C335.862 218.75 333.302 218.48 330.692 218.48C328.191 218.544 325.696 218.206 323.302 217.48C318.479 215.928 314.267 212.896 311.265 208.813C308.263 204.731 306.625 199.807 306.582 194.74C306.582 192.12 306.342 189.44 307.112 187.08C307.882 184.72 309.722 182.62 311.212 180.59C314.428 176.704 318.548 173.669 323.212 171.75C325.603 170.831 328.124 170.298 330.682 170.17C333.272 170.106 335.856 170.444 338.342 171.17C340.792 171.96 342.792 173.79 344.822 175.28C348.029 177.39 350.64 180.289 352.405 183.698C354.169 187.108 355.029 190.913 354.902 194.75L354.882 194.8Z" fill="#D5F0E7"/>
<path d="M428.502 194.8C428.459 197.347 428.017 199.871 427.192 202.28C426.006 205.942 424.01 209.29 421.352 212.076C418.695 214.861 415.445 217.013 411.842 218.37C409.482 219.14 406.792 218.74 404.182 218.74C399.164 218.591 394.309 216.928 390.252 213.97C386.032 211.133 382.763 207.091 380.872 202.37C380.019 199.934 379.554 197.38 379.492 194.8C379.492 192.18 380.882 189.8 381.652 187.48C382.422 185.16 383.052 182.57 384.542 180.48C386.072 178.454 387.915 176.685 390.002 175.24C391.983 173.621 394.207 172.325 396.592 171.4C399.062 170.717 401.622 170.424 404.182 170.53C406.725 170.527 409.253 170.925 411.672 171.71C414.112 172.5 416.072 174.09 418.112 175.58C420.152 177.07 422.692 178.16 424.192 180.21C425.692 182.26 426.062 184.94 426.852 187.38C427.798 189.748 428.355 192.254 428.502 194.8Z" fill="#D5F0E7"/>
<path d="M502.401 194.8C502.401 197.42 500.991 199.8 500.221 202.12C499.451 204.44 498.961 207.12 497.481 209.17C495.957 211.231 494.121 213.043 492.041 214.54C489.897 215.894 487.556 216.906 485.101 217.54C482.735 218.47 480.238 219.02 477.701 219.17C475.131 219.209 472.571 218.852 470.111 218.11C467.626 217.385 465.265 216.286 463.111 214.85C461.061 213.35 459.831 210.85 458.341 208.85C456.851 206.85 455.061 204.85 454.261 202.4C453.461 199.95 453.861 197.4 453.861 194.78C453.861 192.16 453.301 189.46 454.071 187.1C454.841 184.74 456.991 182.84 458.471 180.8C461.452 176.709 465.494 173.511 470.161 171.55C472.618 170.881 475.166 170.601 477.711 170.72C482.71 171.143 487.536 172.751 491.791 175.41C493.841 176.9 496.251 178.17 497.791 180.22C499.331 182.27 499.561 184.99 500.351 187.44C501.141 189.89 502.401 192.23 502.401 194.8Z" fill="#D5F0E7"/>
<path d="M575.69 194.8C575.538 199.966 574.023 204.999 571.3 209.39C569.696 211.426 567.787 213.2 565.64 214.65C563.522 216.095 561.19 217.198 558.73 217.92C556.31 218.743 553.776 219.179 551.22 219.21C546.009 219.483 540.864 217.943 536.66 214.85C534.555 213.319 532.697 211.474 531.15 209.38C529.67 207.38 529.51 204.56 528.72 202.11C527.924 199.755 527.516 197.286 527.51 194.8C527.51 192.18 527.37 189.66 528.14 187.3C528.851 184.84 529.948 182.507 531.39 180.39C532.759 178.195 534.559 176.301 536.682 174.823C538.805 173.344 541.206 172.313 543.74 171.79C546.177 171.138 548.701 170.874 551.22 171.01C556.253 171.087 561.165 172.57 565.4 175.29C567.4 176.78 569.66 178.29 571.16 180.29C572.643 182.403 573.793 184.73 574.57 187.19C575.339 189.653 575.717 192.221 575.69 194.8Z" fill="#D5F0E7"/>
<path d="M648.653 194.8C648.677 197.314 648.299 199.816 647.533 202.21C646.67 204.556 645.431 206.744 643.863 208.69C642.506 210.812 640.818 212.703 638.863 214.29C636.863 215.77 634.863 217.66 632.393 218.45C629.891 219.143 627.297 219.447 624.703 219.35C622.121 219.384 619.551 219.016 617.083 218.26C614.633 217.47 612.713 215.59 610.673 214.11C608.606 212.678 606.777 210.93 605.253 208.93C603.773 206.93 601.853 204.93 601.063 202.48C600.273 200.03 600.633 197.42 600.633 194.8C600.536 189.691 602.09 184.687 605.063 180.53C606.538 178.445 608.33 176.603 610.373 175.07C612.373 173.59 614.893 172.91 617.373 172.07C619.853 171.23 622.133 169.91 624.743 169.91C627.327 170.062 629.871 170.619 632.283 171.56C637.163 173.118 641.402 176.225 644.356 180.41C647.311 184.595 648.819 189.63 648.653 194.75V194.8Z" fill="#D5F0E7"/>
<path d="M722.05 194.8C722.05 197.42 722.67 200.12 721.91 202.48C721.15 204.84 718.91 206.65 717.38 208.69C716.017 210.787 714.329 212.653 712.38 214.22C710.38 215.7 708.3 217.35 705.86 218.14C700.868 219.254 695.692 219.254 690.7 218.14C688.256 217.341 685.954 216.16 683.88 214.64C681.82 213.15 680.43 210.94 678.88 208.88C677.33 206.82 675.36 204.97 674.56 202.52C673.76 200.07 674.25 197.45 674.25 194.83C674.25 192.21 674.1 189.6 674.86 187.24C676.198 182.17 679.264 177.726 683.529 174.676C687.794 171.625 692.99 170.159 698.22 170.53C703.293 170.701 708.186 172.449 712.22 175.53C714.366 176.894 716.288 178.581 717.92 180.53C719.39 182.621 720.524 184.929 721.28 187.37C722.14 189.65 722.05 192.23 722.05 194.8Z" fill="#D5F0E7"/>
<path d="M796.183 194.8C795.831 199.866 794.07 204.733 791.098 208.851C788.125 212.968 784.061 216.172 779.363 218.1C775.698 219.421 771.759 219.792 767.912 219.18C764.066 218.568 760.436 216.993 757.363 214.6C755.214 213.16 753.296 211.403 751.673 209.39C750.193 207.39 749.543 204.72 748.753 202.27C747.499 198.66 747.168 194.794 747.79 191.023C748.411 187.252 749.966 183.697 752.313 180.68C753.671 178.531 755.358 176.607 757.313 174.98C759.313 173.5 761.913 172.98 764.313 172.18C766.689 171.428 769.17 171.06 771.663 171.09C774.273 171.09 776.953 170.49 779.313 171.25C784.224 172.972 788.519 176.103 791.663 180.25C794.659 184.491 796.2 189.589 796.053 194.78L796.183 194.8Z" fill="#D5F0E7"/>
<path d="M869.801 194.8C869.771 197.364 869.343 199.908 868.531 202.34C867.585 204.699 866.273 206.892 864.641 208.84C863.141 210.9 861.751 213.11 859.641 214.6C857.531 216.09 855.021 216.53 852.581 217.33C847.838 218.964 842.684 218.964 837.941 217.33C835.491 216.53 833.041 215.91 831.001 214.43C828.961 212.95 826.641 211.43 825.151 209.43C823.661 207.43 823.421 204.62 822.631 202.17C821.785 199.81 821.326 197.328 821.271 194.82C821.271 192.2 821.161 189.6 821.931 187.24C822.862 184.863 824.164 182.648 825.791 180.68C827.281 178.62 828.731 176.4 830.791 174.9C834.008 172.774 837.643 171.361 841.452 170.758C845.26 170.154 849.154 170.373 852.871 171.4C855.264 172.323 857.494 173.619 859.481 175.24C861.541 176.74 863.881 178.15 865.371 180.24C866.861 182.33 867.371 184.97 868.181 187.41C869.102 189.774 869.649 192.268 869.801 194.8Z" fill="#D5F0E7"/>
<path d="M61.1326 322.14C60.9704 324.693 60.4032 327.205 59.4525 329.58C57.786 334.344 54.6659 338.464 50.5325 341.36C48.5842 342.955 46.3887 344.222 44.0325 345.11C41.6369 345.976 39.1188 346.456 36.5725 346.53C34.0062 346.588 31.4462 346.251 28.9825 345.53C26.5425 344.73 24.5326 343.03 22.5026 341.53C20.4873 340.038 18.7218 338.236 17.2725 336.19C15.6458 334.242 14.3395 332.048 13.4025 329.69C12.5794 327.263 12.1442 324.722 12.1126 322.16C11.8806 318.271 12.7042 314.392 14.4962 310.933C16.2882 307.474 18.982 304.564 22.2925 302.51C24.3909 301.085 26.6986 299.995 29.1326 299.28C31.5226 298.422 34.034 297.949 36.5725 297.88C39.1442 297.745 41.7212 298.008 44.2125 298.66C46.6525 299.45 48.6225 301.3 50.6525 302.78C52.6022 304.335 54.2903 306.191 55.6525 308.28C57.222 310.226 58.465 312.415 59.3325 314.76C60.1225 317.1 61.1326 319.53 61.1326 322.14Z" fill="#D5F0E7"/>
<path d="M24.3998 385.82C24.3998 388.43 23.3999 390.82 22.5899 393.22C21.8029 395.604 20.638 397.846 19.1398 399.86C16.2244 404.018 12.086 407.164 7.29985 408.86C3.62039 409.944 -0.249393 410.221 -4.04585 409.674C-7.84232 409.127 -11.4763 407.768 -14.7002 405.69C-16.7399 404.126 -18.5273 402.257 -20.0001 400.15C-21.3832 397.993 -22.4161 395.63 -23.0601 393.15C-23.8301 390.79 -24.9901 388.35 -24.9901 385.74C-25.1472 380.491 -23.4356 375.356 -20.1601 371.25C-18.6601 369.2 -16.3701 367.85 -14.3101 366.35C-12.317 364.8 -10.089 363.578 -7.71016 362.73C-5.31484 361.819 -2.79024 361.292 -0.230181 361.17C5.01458 360.794 10.206 362.428 14.2898 365.74C16.3498 367.24 17.7698 369.51 19.2898 371.57C20.8768 373.565 22.1359 375.8 23.0198 378.19C23.8811 380.644 24.3469 383.22 24.3998 385.82Z" fill="#D5F0E7"/>
<path d="M99.2091 385.82C99.1858 388.39 98.7607 390.941 97.9491 393.38C97.0938 395.789 95.8618 398.047 94.299 400.07C92.8778 402.203 91.1337 404.102 89.1291 405.7C87.1291 407.18 84.479 407.64 82.039 408.44C79.6824 409.316 77.2015 409.812 74.6891 409.91C72.0691 409.91 69.389 410.15 67.029 409.38C64.669 408.61 62.7391 406.54 60.6991 405.06C58.6591 403.58 56.3491 402.28 54.8491 400.22C53.2947 398.162 52.0701 395.874 51.2191 393.44C50.4591 391.08 50.8591 388.44 50.8591 385.82C50.968 382.063 51.8845 378.373 53.5461 375.001C55.2078 371.629 57.5758 368.655 60.4891 366.28C62.5324 364.776 64.8003 363.605 67.2091 362.81C70.8587 361.577 74.7496 361.231 78.5594 361.802C82.3693 362.372 85.9883 363.843 89.1164 366.091C92.2446 368.339 94.7918 371.301 96.547 374.73C98.3022 378.159 99.2148 381.958 99.2091 385.81V385.82Z" fill="#D5F0E7"/>
<path d="M133.781 322.14C133.921 327.203 132.401 332.173 129.451 336.29C127.078 339.26 124.125 341.715 120.773 343.506C117.42 345.298 113.738 346.388 109.951 346.71C107.331 346.71 104.951 345.52 102.601 344.71C100.251 343.9 97.5209 343.49 95.4809 342.01C93.5049 340.378 91.7915 338.453 90.4008 336.3C88.7795 334.317 87.4772 332.094 86.5408 329.71C85.789 327.244 85.4214 324.678 85.4509 322.1C85.4509 319.49 86.6809 317.15 87.4509 314.79C88.2209 312.43 88.4508 309.57 89.8908 307.53C91.4213 305.425 93.2623 303.564 95.3509 302.01C97.3509 300.53 100.051 300.01 102.501 299.19C104.919 298.484 107.433 298.166 109.951 298.25C112.561 298.25 115.191 297.94 117.551 298.71C120.027 299.465 122.371 300.599 124.501 302.07C126.561 303.57 127.831 305.97 129.321 308.07C130.914 310.04 132.177 312.256 133.061 314.63C133.871 316.99 133.781 319.53 133.781 322.14Z" fill="#D5F0E7"/>
<path d="M171.392 385.82C171.392 388.43 170.252 390.82 169.482 393.17C168.701 395.538 167.535 397.761 166.032 399.75C164.542 401.81 163.382 404.23 161.322 405.75C159.21 407.229 156.883 408.372 154.422 409.14C152.062 409.91 149.422 409.48 146.852 409.48C144.282 409.48 141.662 409.86 139.302 409.09C136.856 408.304 134.548 407.14 132.462 405.64C130.261 404.276 128.356 402.486 126.856 400.376C125.357 398.265 124.295 395.877 123.732 393.35C123.026 390.911 122.709 388.377 122.792 385.84C122.792 383.22 122.492 380.53 123.262 378.17C124.032 375.81 125.892 373.72 127.372 371.68C128.881 369.66 130.701 367.892 132.762 366.44C134.762 364.95 136.762 363.2 139.242 362.44C141.691 361.584 144.259 361.115 146.852 361.05C151.97 361.674 156.914 363.302 161.402 365.84C163.462 367.34 164.582 369.84 166.082 371.9C167.628 373.874 168.843 376.086 169.682 378.45C170.452 380.76 171.392 383.23 171.392 385.82Z" fill="#D5F0E7"/>
<path d="M244.949 385.82C244.896 388.385 244.441 390.926 243.599 393.35C242.471 397.01 240.425 400.321 237.656 402.968C234.887 405.614 231.487 407.508 227.779 408.47C225.399 409.225 222.915 409.596 220.419 409.57C215.316 409.917 210.248 408.505 206.059 405.57C204.036 404.013 202.268 402.151 200.819 400.05C199.339 398.05 197.599 395.93 196.819 393.48C196.034 390.999 195.633 388.412 195.629 385.81C195.629 383.19 196.629 380.67 197.389 378.31C199.394 373.706 202.523 369.68 206.489 366.6C208.489 365.12 210.489 363.36 212.889 362.6C215.289 361.84 217.829 362.19 220.439 362.19C223.049 362.19 225.699 361.63 228.059 362.4C230.419 363.17 232.579 364.86 234.609 366.34C236.646 367.838 238.431 369.651 239.899 371.71C241.313 373.787 242.381 376.08 243.059 378.5C243.759 380.83 244.949 383.23 244.949 385.82Z" fill="#D5F0E7"/>
<path d="M318.742 385.82C318.742 388.43 317.272 390.82 316.502 393.16C315.732 395.5 315.062 398.08 313.582 400.16C312.09 402.237 310.282 404.065 308.222 405.58C306.223 407.22 303.979 408.536 301.572 409.48C296.538 410.807 291.246 410.807 286.212 409.48C283.754 408.621 281.446 407.383 279.372 405.81C277.322 404.32 276.262 401.81 274.762 399.73C273.262 397.65 271.552 395.79 270.762 393.35C269.842 390.942 269.306 388.404 269.172 385.83C269.172 383.21 270.582 380.83 271.352 378.5C272.113 376.131 273.254 373.902 274.732 371.9C276.232 369.84 277.492 367.56 279.552 366.07C281.544 364.443 283.839 363.228 286.304 362.495C288.769 361.762 291.355 361.526 293.912 361.8C296.522 361.8 299.192 361.53 301.552 362.3C303.912 363.07 305.802 365.17 307.832 366.65C309.862 368.13 312.492 369.18 313.982 371.24C315.479 373.381 316.633 375.743 317.402 378.24C318.231 380.684 318.682 383.24 318.742 385.82Z" fill="#D5F0E7"/>
<path d="M391.731 385.82C391.799 389.637 390.875 393.405 389.05 396.758C387.226 400.111 384.563 402.934 381.321 404.95C379.321 406.43 377.511 408.57 375.071 409.36C372.631 410.15 370.071 409.79 367.421 409.79C362.448 409.397 357.644 407.805 353.421 405.15C351.38 403.686 349.585 401.907 348.101 399.88C346.621 397.88 344.931 395.88 344.101 393.4C343.334 390.947 342.949 388.39 342.961 385.82C343.006 380.642 344.559 375.589 347.431 371.28C348.949 369.17 350.784 367.308 352.871 365.76C354.871 364.28 357.571 363.76 360.011 362.96C362.451 362.16 364.821 361.13 367.441 361.13C370.061 361.13 372.521 362.13 374.881 362.92C377.342 363.585 379.684 364.631 381.821 366.02C383.871 367.52 385.071 369.86 386.571 371.92C388.071 373.98 390.031 375.77 390.821 378.22C391.518 380.691 391.825 383.255 391.731 385.82Z" fill="#D5F0E7"/>
<path d="M465.4 385.82C465.478 390.995 463.836 396.05 460.73 400.19C457.515 404.224 453.351 407.399 448.61 409.43C446.25 410.2 443.55 409.43 440.94 409.43C438.33 409.43 435.75 409.79 433.39 409.03C431.024 408.102 428.817 406.809 426.85 405.2C424.79 403.7 422.44 402.39 420.95 400.33C419.46 398.27 418.85 395.69 418.06 393.24C417.418 390.819 417.165 388.311 417.31 385.81C417.31 383.19 416.75 380.56 417.52 378.19C418.262 375.697 419.389 373.336 420.86 371.19C422.35 369.19 424.86 368 426.93 366.5C429 365 430.93 363.2 433.34 362.41C435.75 361.62 438.34 362.03 440.94 362.03C443.458 361.877 445.985 362.116 448.43 362.74C450.88 363.462 453.205 364.558 455.32 365.99C457.445 367.454 459.337 369.23 460.93 371.26C462.38 373.409 463.486 375.771 464.21 378.26C464.999 380.703 465.4 383.254 465.4 385.82Z" fill="#D5F0E7"/>
<path d="M539.172 385.82C539.235 388.416 538.897 391.007 538.172 393.5C537.382 395.95 535.171 397.69 533.661 399.73C531.078 404.128 526.856 407.321 521.922 408.61C519.562 409.38 517.132 410.41 514.512 410.41C511.929 410.426 509.358 410.045 506.891 409.28C504.441 408.48 502.392 406.79 500.352 405.28C498.312 403.77 496.002 402.38 494.502 400.28C493.002 398.18 492.402 395.64 491.602 393.19C490.802 390.74 489.852 388.36 489.852 385.75C489.852 383.14 491.222 380.75 491.992 378.43C492.762 376.11 493.312 373.43 494.802 371.43C496.292 369.43 498.432 367.95 500.492 366.43C502.528 364.98 504.783 363.866 507.172 363.13C509.532 362.36 511.892 360.96 514.512 360.96C517.132 360.96 519.512 362.47 521.822 363.23C524.132 363.99 526.732 364.63 528.822 366.11C530.912 367.59 533.112 369.11 534.612 371.17C536.112 373.23 536.702 375.84 537.502 378.28C538.302 380.72 539.172 383.23 539.172 385.82Z" fill="#D5F0E7"/>
<path d="M611.819 385.82C611.819 388.43 611.989 391.01 611.219 393.37C610.366 395.775 609.137 398.029 607.579 400.05C606.079 402.11 604.639 404.42 602.579 405.92C600.519 407.42 597.779 407.69 595.339 408.48C592.961 409.263 590.473 409.658 587.969 409.65C585.359 409.65 582.649 410.22 580.289 409.46C576.54 408.327 573.137 406.267 570.394 403.47C567.652 400.674 565.659 397.231 564.599 393.46C563.839 391.1 564.069 388.46 564.069 385.87C564.069 383.28 563.779 380.62 564.549 378.25C565.458 375.849 566.737 373.606 568.339 371.6C569.839 369.55 571.339 367.26 573.339 365.77C575.339 364.28 578.149 364.06 580.599 363.26C583.049 362.46 585.329 361.5 587.939 361.5C590.474 361.645 592.969 362.196 595.329 363.13C597.715 363.906 599.96 365.061 601.979 366.55C603.979 368.05 606.429 369.29 607.979 371.34C609.529 373.39 609.739 376.09 610.539 378.54C611.349 380.884 611.781 383.341 611.819 385.82Z" fill="#D5F0E7"/>
<path d="M685.471 385.82C685.471 388.43 685.911 391.14 685.151 393.5C684.391 395.86 682.151 397.73 680.711 399.77C679.271 401.81 678.141 404.38 676.081 405.88C674.021 407.38 671.261 407.52 668.811 408.32C666.451 409.089 663.983 409.473 661.501 409.46C658.891 409.46 656.251 410.03 653.881 409.26C651.511 408.49 649.641 406.43 647.611 404.94C645.581 403.45 643.041 402.37 641.551 400.31C640.061 398.25 639.551 395.65 638.771 393.2C637.87 390.838 637.354 388.346 637.241 385.82C637.086 383.245 637.328 380.661 637.961 378.16C638.751 375.72 640.791 373.88 642.271 371.84C645.34 367.863 649.398 364.76 654.041 362.84C656.469 362.175 658.986 361.898 661.501 362.02C664.121 362.02 666.751 361.61 669.111 362.38C673.853 364.333 678.013 367.474 681.191 371.5C682.586 373.617 683.636 375.943 684.301 378.39C685.086 380.788 685.481 383.297 685.471 385.82Z" fill="#D5F0E7"/>
<path d="M758.949 385.82C758.949 388.43 759.189 391.07 758.429 393.43C757.686 395.919 756.566 398.279 755.109 400.43C753.609 402.43 750.949 403.43 748.899 404.95C744.849 407.894 739.995 409.527 734.989 409.63C729.932 409.904 724.945 408.341 720.949 405.23C716.748 402.352 713.613 398.169 712.029 393.33C711.343 390.902 711.046 388.381 711.149 385.86C710.99 383.328 711.23 380.787 711.859 378.33C712.563 375.842 713.653 373.48 715.089 371.33C716.589 369.27 718.819 367.83 720.869 366.33C722.95 364.91 725.241 363.827 727.659 363.12C730.035 362.345 732.52 361.954 735.019 361.96C737.639 361.96 740.249 361.69 742.609 362.45C744.969 363.21 747.039 364.98 749.069 366.45C752.26 368.533 754.853 371.413 756.591 374.805C758.329 378.196 759.152 381.983 758.979 385.79L758.949 385.82Z" fill="#D5F0E7"/>
<path d="M832.329 385.82C832.332 388.313 831.937 390.791 831.159 393.16C830.396 395.536 829.251 397.772 827.769 399.78C826.279 401.84 825.189 404.4 823.139 405.9C821.089 407.4 818.499 408.11 816.049 408.9C813.607 409.563 811.076 409.836 808.549 409.71C805.929 409.71 803.319 409.93 800.959 409.16C798.511 408.361 796.203 407.183 794.119 405.67C790.84 403.56 788.195 400.599 786.467 397.103C784.739 393.607 783.993 389.707 784.309 385.82C784.427 383.293 784.951 380.801 785.859 378.44C786.659 376 787.159 373.39 788.639 371.35C790.119 369.31 792.579 368.17 794.639 366.67C796.585 365.093 798.769 363.834 801.109 362.94C803.507 362.126 806.017 361.694 808.549 361.66C811.159 361.66 813.489 362.57 815.849 363.34C818.25 364.025 820.523 365.095 822.579 366.51C824.59 367.991 826.352 369.784 827.799 371.82C829.396 373.776 830.672 375.974 831.579 378.33C832.217 380.773 832.47 383.3 832.329 385.82Z" fill="#D5F0E7"/>
<path d="M207.882 322.14C207.604 327.231 206.064 332.172 203.401 336.52C201.911 338.58 199.711 339.97 197.651 341.46C195.702 343.084 193.504 344.384 191.141 345.31C188.715 346.133 186.174 346.568 183.612 346.6C181.002 346.6 178.612 345.6 176.242 344.82C173.872 344.04 171.322 343.34 169.242 341.82C167.202 340.287 165.413 338.445 163.942 336.36C162.462 334.36 160.802 332.2 160.012 329.76C159.285 327.274 158.947 324.69 159.012 322.1C159.557 317.04 161.246 312.171 163.952 307.86C165.485 305.841 167.324 304.073 169.401 302.62C171.473 301.19 173.758 300.097 176.172 299.38C178.553 298.598 181.045 298.203 183.552 298.21C186.079 298.092 188.609 298.369 191.052 299.03C195.782 300.829 199.874 303.988 202.812 308.11C204.262 310.14 205.38 312.388 206.122 314.77C206.952 317.17 207.882 319.53 207.882 322.14Z" fill="#D5F0E7"/>
<path d="M281.95 322.14C281.801 324.717 281.247 327.255 280.31 329.66C279.506 332.077 278.325 334.352 276.81 336.4C275.31 338.46 273.87 340.78 271.81 342.28C269.75 343.78 267.05 344.2 264.61 344.99C262.238 345.94 259.73 346.508 257.18 346.67C251.947 346.938 246.785 345.375 242.58 342.25C240.52 340.75 239.23 338.33 237.74 336.25C236.25 334.17 234.429 332.25 233.639 329.77C232.936 327.283 232.622 324.702 232.71 322.12C232.77 319.56 233.232 317.026 234.08 314.61C234.934 312.224 236.163 309.989 237.72 307.99C239.081 305.836 240.767 303.907 242.72 302.27C244.72 300.79 247.38 300.4 249.83 299.61C252.28 298.82 254.529 297.26 257.139 297.26C262.251 297.734 267.138 299.585 271.28 302.618C275.422 305.65 278.664 309.75 280.66 314.48C281.479 316.952 281.915 319.535 281.95 322.14Z" fill="#D5F0E7"/>
<path d="M355.27 322.14C355.213 324.714 354.758 327.265 353.92 329.7C352.972 332.066 351.656 334.266 350.02 336.22C348.53 338.22 347.12 340.48 345.02 341.98C342.978 343.575 340.701 344.844 338.27 345.74C335.91 346.51 333.27 346.39 330.61 346.39C328.059 346.411 325.521 346.03 323.09 345.26C320.731 344.344 318.533 343.058 316.58 341.45C314.52 339.95 312.17 338.68 310.68 336.62C309.19 334.56 308.79 331.94 307.99 329.49C307.19 327.04 305.93 324.76 305.93 322.14C306.562 317.055 308.182 312.143 310.7 307.68C312.222 305.594 314.057 303.756 316.14 302.23C318.14 300.75 320.81 300.32 323.26 299.52C325.575 298.498 328.079 297.97 330.61 297.97C333.141 297.97 335.644 298.498 337.96 299.52C340.377 300.204 342.671 301.264 344.76 302.66C347.804 304.961 350.315 307.894 352.12 311.256C353.926 314.618 354.983 318.331 355.22 322.14H355.27Z" fill="#D5F0E7"/>
<path d="M428.87 322.14C428.87 324.76 427.55 327.14 426.78 329.49C426.01 331.84 425.59 334.59 424.11 336.62C420.978 340.778 416.73 343.962 411.86 345.8C409.5 346.56 406.79 345.8 404.18 345.8C399.17 345.661 394.31 344.058 390.2 341.19C386.09 338.322 382.909 334.314 381.05 329.66C380.148 327.25 379.631 324.712 379.52 322.14C379.52 319.53 380.78 317.14 381.52 314.79C382.277 312.408 383.411 310.163 384.88 308.14C386.306 306.075 388.051 304.249 390.05 302.73C392.05 301.25 394.05 299.27 396.47 298.47C398.962 297.712 401.555 297.338 404.16 297.36C406.74 297.477 409.287 297.993 411.71 298.89C414.131 299.723 416.409 300.927 418.46 302.46C420.46 303.96 421.81 306.18 423.3 308.24C424.79 310.3 426.91 312.05 427.7 314.49C428.482 316.965 428.877 319.545 428.87 322.14Z" fill="#D5F0E7"/>
<path d="M502.483 322.14C502.483 324.76 501.482 327.25 500.662 329.61C499.93 332.042 498.813 334.341 497.353 336.42C495.912 338.539 494.151 340.422 492.133 342C489.97 343.359 487.608 344.371 485.133 345C482.731 345.787 480.219 346.185 477.693 346.18C472.544 346.488 467.45 344.976 463.302 341.91C458.818 339.173 455.571 334.803 454.243 329.72C453.378 327.268 452.896 324.698 452.812 322.1C452.812 319.49 453.812 316.95 454.562 314.59C455.265 312.105 456.347 309.744 457.772 307.59C459.256 305.464 461.057 303.579 463.113 302C465.113 300.52 467.783 299.89 470.233 299.1C472.683 298.31 475.073 298.44 477.693 298.44C480.313 298.44 482.922 297.93 485.282 298.7C487.642 299.47 489.693 301.26 491.723 302.75C493.753 304.24 495.973 305.64 497.473 307.69C498.869 309.824 499.925 312.162 500.603 314.62C501.373 317.06 502.483 319.53 502.483 322.14Z" fill="#D5F0E7"/>
<path d="M575.621 322.14C575.604 324.698 575.189 327.239 574.391 329.67C573.591 332.12 571.941 334.09 570.461 336.12C568.981 338.15 567.751 340.57 565.691 342.12C563.632 343.699 561.342 344.951 558.901 345.83C556.541 346.59 553.841 346.44 551.221 346.44C548.661 346.653 546.084 346.341 543.649 345.522C541.214 344.704 538.972 343.396 537.061 341.68C535.115 340.102 533.428 338.229 532.061 336.13C530.581 334.13 528.831 332.13 528.061 329.74C527.408 327.279 527.145 324.732 527.281 322.19C527.336 319.681 527.788 317.197 528.621 314.83C529.284 312.397 530.323 310.082 531.701 307.97C534.48 303.616 538.778 300.451 543.761 299.09C547.443 298.169 551.272 297.994 555.022 298.574C558.773 299.155 562.37 300.479 565.601 302.47C567.661 303.96 568.951 306.2 570.451 308.26C571.951 310.32 573.911 312.13 574.701 314.58C575.395 317.037 575.705 319.587 575.621 322.14Z" fill="#D5F0E7"/>
<path d="M648.951 322.14C648.951 324.76 649.151 327.45 648.381 329.81C647.611 332.17 645.761 334.27 644.281 336.3C642.785 338.335 640.98 340.123 638.931 341.6C636.834 342.977 634.532 344.013 632.111 344.67C629.77 345.574 627.298 346.097 624.791 346.22C622.264 346.241 619.749 345.859 617.341 345.09C614.891 344.3 612.341 343.58 610.341 342.09C608.217 340.598 606.329 338.795 604.741 336.74C603.261 334.74 602.741 332.03 601.911 329.58C600.118 324.779 600.118 319.492 601.911 314.69C602.558 312.213 603.587 309.851 604.961 307.69C606.414 305.542 608.188 303.63 610.221 302.02C612.221 300.53 615.021 300.25 617.471 299.46C619.845 298.671 622.33 298.269 624.831 298.27C627.356 298.13 629.887 298.39 632.331 299.04C634.825 299.67 637.207 300.682 639.391 302.04C641.424 303.639 643.198 305.542 644.651 307.68C646.011 309.842 647.023 312.204 647.651 314.68C648.481 317.081 648.92 319.6 648.951 322.14Z" fill="#D5F0E7"/>
<path d="M722.069 322.14C722.21 324.66 721.957 327.187 721.319 329.63C720.708 332.123 719.606 334.468 718.076 336.529C716.545 338.59 714.619 340.324 712.409 341.63C710.416 343.205 708.184 344.454 705.799 345.33C700.915 346.885 695.664 346.853 690.799 345.24C688.359 344.44 685.799 343.72 683.709 342.24C681.632 340.674 679.805 338.803 678.289 336.69C676.809 334.69 676.289 332.01 675.499 329.56C674.838 327.148 674.561 324.647 674.679 322.15C674.679 319.54 674.179 316.93 674.949 314.56C675.786 312.13 676.998 309.846 678.539 307.79C680.019 305.688 681.814 303.826 683.859 302.27C686.021 300.909 688.383 299.897 690.859 299.27C693.219 298.5 695.689 297.27 698.299 297.27C700.897 297.364 703.465 297.864 705.909 298.75C708.342 299.587 710.629 300.798 712.689 302.34C714.848 303.774 716.774 305.531 718.399 307.55C719.793 309.728 720.839 312.11 721.499 314.61C722.229 316.97 722.069 319.53 722.069 322.14Z" fill="#D5F0E7"/>
<path d="M795.95 322.14C796.044 324.695 795.737 327.249 795.04 329.71C794.288 332.173 793.158 334.504 791.69 336.62C790.211 338.752 788.413 340.644 786.36 342.23C784.36 343.71 781.62 344.16 779.18 344.96C774.287 346.08 769.212 346.148 764.29 345.16C761.84 344.36 759.21 343.71 757.18 342.22C755.15 340.73 753.79 338.35 752.29 336.29C750.783 334.257 749.605 331.999 748.8 329.6C748.04 327.24 746.91 324.76 746.91 322.14C746.91 319.52 748.47 317.14 749.24 314.82C750.01 312.5 750.69 309.94 752.17 307.91C753.553 305.737 755.263 303.791 757.24 302.14C759.24 300.66 761.91 300.14 764.36 299.34C766.81 298.54 769.15 297.63 771.77 297.63C774.39 297.63 776.77 298.63 779.16 299.38C781.587 300.085 783.885 301.172 785.97 302.6C790.293 305.454 793.599 309.607 795.41 314.46C796.2 316.82 795.95 319.53 795.95 322.14Z" fill="#D5F0E7"/>
<path d="M869.642 322.14C869.89 327.312 868.329 332.41 865.227 336.556C862.124 340.702 857.674 343.638 852.642 344.86C850.282 345.62 847.872 346.61 845.262 346.61C840.097 346.524 835.064 344.959 830.762 342.1C828.644 340.598 826.769 338.78 825.202 336.71C823.722 334.71 823.142 332.04 822.342 329.59C821.53 327.188 821.102 324.674 821.072 322.14C820.673 316.946 822.145 311.782 825.222 307.58C826.712 305.53 829.102 304.23 831.162 302.73C833.163 301.188 835.398 299.976 837.782 299.14C840.187 298.29 842.712 297.828 845.262 297.77C847.872 297.77 850.262 298.85 852.582 299.62C854.991 300.296 857.276 301.352 859.352 302.75C862.586 304.824 865.228 307.7 867.022 311.098C868.817 314.495 869.702 318.299 869.592 322.14H869.642Z" fill="#D5F0E7"/>
</svg>
