<svg width="392" height="27" viewBox="0 0 392 27" fill="none" xmlns="http://www.w3.org/2000/svg">
<path d="M1.54083 1.868C1.91417 1.868 2.24083 1.96133 2.52083 2.148C2.8195 2.33467 2.96883 2.64266 2.96883 3.072V14.888C2.96883 15.28 3.16483 15.476 3.55683 15.476C5.3675 15.476 7.05683 15.4293 8.62483 15.336C10.2115 15.224 11.7608 15.0653 13.2728 14.86C13.5902 14.8227 13.8422 14.9067 14.0288 15.112C14.2342 15.3173 14.3555 15.5787 14.3928 15.896C14.4302 16.232 14.3835 16.54 14.2528 16.82C14.1408 17.0813 13.9262 17.2307 13.6088 17.268C12.9555 17.3613 12.2462 17.4453 11.4808 17.52C10.7342 17.5947 9.9035 17.66 8.98883 17.716C8.07417 17.772 7.06617 17.8187 5.96483 17.856C4.8635 17.8747 3.64083 17.884 2.29683 17.884C1.4755 17.884 0.906166 17.7347 0.588832 17.436C0.290166 17.1373 0.140832 16.5867 0.140832 15.784V3.072C0.140832 2.64266 0.280832 2.33467 0.560832 2.148C0.840832 1.96133 1.1675 1.868 1.54083 1.868ZM17.5568 0.215998C17.9302 0.215998 18.2568 0.309332 18.5368 0.496C18.8168 0.682666 18.9568 0.981332 18.9568 1.392V8.672H22.0368C22.4102 8.672 22.6715 8.79333 22.8208 9.036C22.9888 9.26 23.0728 9.54 23.0728 9.876C23.0728 10.212 22.9888 10.5013 22.8208 10.744C22.6715 10.9867 22.4102 11.108 22.0368 11.108H18.9568V23.232C18.9568 23.6427 18.8168 23.9413 18.5368 24.128C18.2568 24.3147 17.9302 24.408 17.5568 24.408C17.1835 24.408 16.8568 24.3147 16.5768 24.128C16.2968 23.9413 16.1568 23.6427 16.1568 23.232V1.392C16.1568 0.981332 16.2968 0.682666 16.5768 0.496C16.8568 0.309332 17.1835 0.215998 17.5568 0.215998ZM30.0772 1.868C32.0185 1.868 33.4465 2.55867 34.3612 3.94C35.2759 5.32133 35.7332 7.34667 35.7332 10.016C35.7332 12.6853 35.2759 14.7107 34.3612 16.092C33.4465 17.4733 32.0185 18.164 30.0772 18.164C28.1359 18.164 26.7079 17.4733 25.7932 16.092C24.8972 14.7107 24.4492 12.6853 24.4492 10.016C24.4492 7.34667 24.8972 5.32133 25.7932 3.94C26.7079 2.55867 28.1359 1.868 30.0772 1.868ZM30.0772 4.332C28.9572 4.332 28.1639 4.81733 27.6972 5.788C27.2492 6.74 27.0252 8.14933 27.0252 10.016C27.0252 11.8827 27.2492 13.3013 27.6972 14.272C28.1639 15.224 28.9572 15.7 30.0772 15.7C31.1972 15.7 31.9905 15.224 32.4572 14.272C32.9239 13.3013 33.1572 11.8827 33.1572 10.016C33.1572 8.14933 32.9239 6.74 32.4572 5.788C31.9905 4.81733 31.1972 4.332 30.0772 4.332ZM39.8492 0.496C40.1665 0.496 40.4559 0.589333 40.7172 0.776C40.9972 0.944 41.1372 1.21467 41.1372 1.588V22.14C41.1372 22.5133 40.9972 22.784 40.7172 22.952C40.4559 23.1387 40.1665 23.232 39.8492 23.232C39.5132 23.232 39.2052 23.1387 38.9252 22.952C38.6639 22.784 38.5332 22.5133 38.5332 22.14V11.192H34.0532V8.812H38.5332V1.588C38.5332 1.21467 38.6639 0.944 38.9252 0.776C39.2052 0.589333 39.5132 0.496 39.8492 0.496ZM44.8612 0.215998C45.1972 0.215998 45.4959 0.309332 45.7572 0.496C46.0372 0.663999 46.1772 0.934665 46.1772 1.308V23.316C46.1772 23.6893 46.0372 23.96 45.7572 24.128C45.4959 24.3147 45.1972 24.408 44.8612 24.408C44.5439 24.408 44.2452 24.3147 43.9652 24.128C43.7039 23.96 43.5732 23.6893 43.5732 23.316V1.308C43.5732 0.934665 43.7039 0.663999 43.9652 0.496C44.2452 0.309332 44.5439 0.215998 44.8612 0.215998ZM57.9136 2.316C58.7349 2.316 59.2949 2.46533 59.5936 2.764C59.9109 3.06267 60.0696 3.61333 60.0696 4.416V7.384C60.0696 8.224 60.0416 8.97067 59.9856 9.624C59.9296 10.2587 59.7989 10.8467 59.5936 11.388C59.4069 11.9293 59.1269 12.4427 58.7536 12.928C58.3989 13.4133 57.9136 13.936 57.2976 14.496C56.7002 15.0373 55.9536 15.644 55.0576 16.316C54.1802 16.9693 53.1162 17.7347 51.8656 18.612C51.5856 18.8173 51.2776 18.8733 50.9416 18.78C50.6056 18.6867 50.3349 18.5093 50.1296 18.248C49.9429 17.9867 49.8402 17.6787 49.8216 17.324C49.8216 16.9507 49.9709 16.6613 50.2696 16.456C51.3896 15.6907 52.3416 15.028 53.1256 14.468C53.9096 13.8893 54.5629 13.376 55.0856 12.928C55.6269 12.4613 56.0469 12.0413 56.3456 11.668C56.6442 11.276 56.8682 10.8653 57.0176 10.436C57.1856 10.0067 57.2882 9.54 57.3256 9.036C57.3629 8.532 57.3816 7.944 57.3816 7.272V5.312C57.3816 4.93867 57.1856 4.752 56.7936 4.752H51.1096C50.7549 4.752 50.4936 4.63067 50.3256 4.388C50.1762 4.14533 50.1016 3.86533 50.1016 3.548C50.1016 3.212 50.1762 2.92267 50.3256 2.68C50.4936 2.43733 50.7549 2.316 51.1096 2.316H57.9136ZM64.8856 0.496C65.2029 0.496 65.4922 0.589333 65.7536 0.776C66.0336 0.944 66.1736 1.21467 66.1736 1.588V22.14C66.1736 22.5133 66.0336 22.784 65.7536 22.952C65.4922 23.1387 65.2029 23.232 64.8856 23.232C64.5496 23.232 64.2416 23.1387 63.9616 22.952C63.7002 22.784 63.5696 22.5133 63.5696 22.14V11.192H58.8936V8.812H63.5696V1.588C63.5696 1.21467 63.7002 0.944 63.9616 0.776C64.2416 0.589333 64.5496 0.496 64.8856 0.496ZM70.0656 0.215998C70.4016 0.215998 70.7002 0.309332 70.9616 0.496C71.2416 0.663999 71.3816 0.934665 71.3816 1.308V23.316C71.3816 23.6893 71.2416 23.96 70.9616 24.128C70.7002 24.3147 70.4016 24.408 70.0656 24.408C69.7482 24.408 69.4496 24.3147 69.1696 24.128C68.9082 23.96 68.7776 23.6893 68.7776 23.316V1.308C68.7776 0.934665 68.9082 0.663999 69.1696 0.496C69.4496 0.309332 69.7482 0.215998 70.0656 0.215998ZM91.77 2.148C92.5913 2.148 93.1513 2.29733 93.45 2.596C93.7673 2.89467 93.926 3.44533 93.926 4.248V7.356C93.926 8.14 93.8793 8.84933 93.786 9.484C93.6926 10.1 93.5153 10.688 93.254 11.248C92.9926 11.808 92.6286 12.3587 92.162 12.9C91.714 13.4227 91.1166 13.9827 90.37 14.58C89.642 15.1587 88.7553 15.7933 87.71 16.484C86.6646 17.1747 85.4326 17.9587 84.014 18.836C83.6966 19.0227 83.3793 19.06 83.062 18.948C82.7446 18.8173 82.4926 18.6213 82.306 18.36C82.1193 18.0987 82.026 17.7907 82.026 17.436C82.0446 17.0813 82.2126 16.8013 82.53 16.596C83.8366 15.7933 84.9566 15.0933 85.89 14.496C86.8233 13.88 87.6073 13.3293 88.242 12.844C88.8953 12.34 89.4086 11.8827 89.782 11.472C90.1553 11.0427 90.4446 10.6227 90.65 10.212C90.8553 9.78267 90.986 9.33467 91.042 8.868C91.098 8.38267 91.126 7.84133 91.126 7.244V5.144C91.126 4.93867 91.0793 4.79867 90.986 4.724C90.9113 4.63067 90.762 4.584 90.538 4.584H83.314C82.9593 4.584 82.698 4.46267 82.53 4.22C82.3806 3.97733 82.306 3.69733 82.306 3.38C82.306 3.044 82.3806 2.75467 82.53 2.512C82.698 2.26933 82.9593 2.148 83.314 2.148H91.77ZM99.89 0.215998C100.263 0.215998 100.59 0.309332 100.87 0.496C101.15 0.682666 101.29 0.981332 101.29 1.392V8.672H104.37C104.743 8.672 105.005 8.79333 105.154 9.036C105.322 9.26 105.406 9.54 105.406 9.876C105.406 10.212 105.322 10.5013 105.154 10.744C105.005 10.9867 104.743 11.108 104.37 11.108H101.29V23.232C101.29 23.6427 101.15 23.9413 100.87 24.128C100.59 24.3147 100.263 24.408 99.89 24.408C99.5166 24.408 99.19 24.3147 98.91 24.128C98.63 23.9413 98.49 23.6427 98.49 23.232V1.392C98.49 0.981332 98.63 0.682666 98.91 0.496C99.19 0.309332 99.5166 0.215998 99.89 0.215998ZM120.222 1.672C120.558 1.672 120.801 1.79333 120.95 2.036C121.118 2.27867 121.202 2.55867 121.202 2.876C121.202 3.19333 121.118 3.47333 120.95 3.716C120.801 3.94 120.558 4.052 120.222 4.052H115.686V5.312C115.686 6.22667 115.826 6.992 116.106 7.608C116.386 8.224 116.862 8.80267 117.534 9.344C118.188 9.88533 118.804 10.3707 119.382 10.8C119.961 11.2293 120.474 11.6027 120.922 11.92C121.24 12.144 121.408 12.4147 121.426 12.732C121.445 13.0493 121.352 13.348 121.146 13.628C120.96 13.852 120.708 14.0293 120.39 14.16C120.092 14.272 119.765 14.2067 119.41 13.964C119.074 13.7213 118.636 13.404 118.094 13.012C117.553 12.6013 116.984 12.1533 116.386 11.668C115.677 11.0893 115.173 10.632 114.874 10.296C114.594 9.94133 114.417 9.624 114.342 9.344H114.314C114.24 9.66133 114.044 10.0067 113.726 10.38C113.428 10.7533 112.924 11.22 112.214 11.78C111.598 12.2653 110.992 12.732 110.394 13.18C109.816 13.6093 109.246 14.02 108.686 14.412C108.369 14.636 108.042 14.692 107.706 14.58C107.389 14.468 107.146 14.2907 106.978 14.048C106.773 13.7867 106.68 13.488 106.698 13.152C106.717 12.816 106.885 12.5267 107.202 12.284C107.874 11.8173 108.518 11.36 109.134 10.912C109.769 10.4453 110.413 9.95067 111.066 9.428C111.72 8.88667 112.186 8.308 112.466 7.692C112.746 7.076 112.886 6.31067 112.886 5.396V4.052H108.154C107.8 4.052 107.538 3.94 107.37 3.716C107.221 3.47333 107.146 3.19333 107.146 2.876C107.146 2.55867 107.221 2.27867 107.37 2.036C107.538 1.79333 107.8 1.672 108.154 1.672H120.222ZM125.094 0.215998C125.468 0.215998 125.794 0.309332 126.074 0.496C126.354 0.682666 126.494 0.981332 126.494 1.392V6.404H129.574C129.948 6.404 130.209 6.52533 130.358 6.768C130.526 7.01067 130.61 7.29067 130.61 7.608C130.61 7.96267 130.526 8.26133 130.358 8.504C130.209 8.728 129.948 8.84 129.574 8.84H126.494V14.412C126.494 14.804 126.354 15.0933 126.074 15.28C125.794 15.4667 125.468 15.56 125.094 15.56C124.721 15.56 124.394 15.4667 124.114 15.28C123.834 15.0933 123.694 14.804 123.694 14.412V1.392C123.694 0.981332 123.834 0.682666 124.114 0.496C124.394 0.309332 124.721 0.215998 125.094 0.215998ZM118.626 15.812C121.184 15.812 123.153 16.26 124.534 17.156C125.934 18.0333 126.634 19.3493 126.634 21.104C126.634 22.8587 125.934 24.1747 124.534 25.052C123.153 25.948 121.184 26.396 118.626 26.396C116.069 26.396 114.09 25.948 112.69 25.052C111.309 24.1747 110.618 22.8587 110.618 21.104C110.618 19.3493 111.309 18.0333 112.69 17.156C114.09 16.26 116.069 15.812 118.626 15.812ZM118.626 18.08C116.778 18.08 115.444 18.36 114.622 18.92C113.801 19.4613 113.39 20.1893 113.39 21.104C113.39 22.0373 113.801 22.7747 114.622 23.316C115.444 23.8573 116.778 24.128 118.626 24.128C120.474 24.128 121.809 23.8573 122.63 23.316C123.452 22.7747 123.862 22.0373 123.862 21.104C123.862 20.1707 123.452 19.4333 122.63 18.892C121.809 18.3507 120.474 18.08 118.626 18.08ZM150.271 1.28C150.644 1.28 150.971 1.37333 151.251 1.56C151.549 1.74667 151.699 2.05467 151.699 2.484V4.024C151.699 4.62133 151.745 5.15333 151.839 5.62C151.932 6.08667 152.081 6.52533 152.287 6.936C152.511 7.328 152.791 7.70133 153.127 8.056C153.481 8.392 153.92 8.728 154.443 9.064C155.283 9.60533 156.141 10.1373 157.019 10.66C157.896 11.164 158.792 11.668 159.707 12.172C159.987 12.34 160.136 12.6013 160.155 12.956C160.173 13.292 160.108 13.5907 159.959 13.852C159.772 14.132 159.529 14.3373 159.231 14.468C158.932 14.58 158.624 14.552 158.307 14.384C157.411 13.8987 156.524 13.3947 155.647 12.872C154.769 12.3493 153.939 11.836 153.155 11.332C152.203 10.7347 151.512 10.1933 151.083 9.708C150.653 9.22267 150.392 8.80267 150.299 8.448H150.271C150.177 8.82133 149.907 9.26 149.459 9.764C149.029 10.2493 148.339 10.7907 147.387 11.388C146.603 11.892 145.772 12.4053 144.895 12.928C144.017 13.4507 143.131 13.9547 142.235 14.44C141.936 14.608 141.628 14.636 141.311 14.524C141.012 14.3933 140.769 14.1787 140.583 13.88C140.415 13.6 140.34 13.292 140.359 12.956C140.396 12.6013 140.555 12.34 140.835 12.172C141.749 11.668 142.645 11.164 143.523 10.66C144.4 10.1373 145.259 9.60533 146.099 9.064C146.621 8.728 147.051 8.392 147.387 8.056C147.741 7.70133 148.021 7.328 148.227 6.936C148.451 6.52533 148.609 6.08667 148.703 5.62C148.796 5.15333 148.843 4.62133 148.843 4.024V2.484C148.843 2.05467 148.983 1.74667 149.263 1.56C149.561 1.37333 149.897 1.28 150.271 1.28ZM150.271 14.076C150.644 14.076 150.971 14.1693 151.251 14.356C151.531 14.5427 151.671 14.8413 151.671 15.252V19.592H161.051C161.387 19.592 161.629 19.7133 161.779 19.956C161.947 20.18 162.031 20.4507 162.031 20.768C162.031 21.0853 161.947 21.3653 161.779 21.608C161.629 21.8507 161.387 21.972 161.051 21.972H139.491C139.155 21.972 138.903 21.8507 138.735 21.608C138.585 21.3653 138.511 21.0853 138.511 20.768C138.511 20.4507 138.585 20.18 138.735 19.956C138.903 19.7133 139.155 19.592 139.491 19.592H148.871V15.252C148.871 14.8413 149.011 14.5427 149.291 14.356C149.571 14.1693 149.897 14.076 150.271 14.076ZM183.371 1.14C183.707 1.14 183.95 1.26133 184.099 1.504C184.267 1.728 184.351 1.99867 184.351 2.316C184.351 2.63333 184.267 2.91333 184.099 3.156C183.95 3.38 183.707 3.492 183.371 3.492H176.903V3.912C176.903 4.472 177.08 4.96667 177.435 5.396C177.79 5.80667 178.443 6.19867 179.395 6.572C181.224 7.28133 182.895 7.89733 184.407 8.42C184.724 8.51333 184.93 8.71867 185.023 9.036C185.135 9.35333 185.135 9.652 185.023 9.932C184.892 10.2493 184.696 10.4827 184.435 10.632C184.174 10.7627 183.866 10.772 183.511 10.66C182.802 10.436 182.046 10.1747 181.243 9.876C180.459 9.57733 179.647 9.26 178.807 8.924C178.21 8.7 177.706 8.48533 177.295 8.28C176.903 8.056 176.576 7.85067 176.315 7.664C176.072 7.47733 175.886 7.3 175.755 7.132C175.643 6.94533 175.559 6.768 175.503 6.6H175.475C175.419 6.768 175.326 6.94533 175.195 7.132C175.064 7.31867 174.868 7.51467 174.607 7.72C174.364 7.90667 174.038 8.112 173.627 8.336C173.235 8.54133 172.74 8.756 172.143 8.98C171.303 9.316 170.482 9.63333 169.679 9.932C168.895 10.2307 168.158 10.492 167.467 10.716C167.094 10.828 166.776 10.8093 166.515 10.66C166.254 10.5107 166.058 10.2773 165.927 9.96C165.815 9.68 165.806 9.38133 165.899 9.064C165.992 8.728 166.207 8.51333 166.543 8.42C168.055 7.89733 169.726 7.28133 171.555 6.572C172.507 6.19867 173.16 5.80667 173.515 5.396C173.87 4.96667 174.047 4.472 174.047 3.912V3.492H167.579C167.243 3.492 166.991 3.38 166.823 3.156C166.674 2.91333 166.599 2.63333 166.599 2.316C166.599 1.99867 166.674 1.728 166.823 1.504C166.991 1.26133 167.243 1.14 167.579 1.14H183.371ZM186.283 12.2C186.6 12.2 186.834 12.3213 186.983 12.564C187.151 12.788 187.235 13.0587 187.235 13.376C187.235 13.6933 187.151 13.9733 186.983 14.216C186.834 14.44 186.6 14.552 186.283 14.552H176.847V18.332H174.103V14.552H164.667C164.35 14.552 164.107 14.44 163.939 14.216C163.79 13.9733 163.715 13.6933 163.715 13.376C163.715 13.0587 163.79 12.788 163.939 12.564C164.107 12.3213 164.35 12.2 164.667 12.2H186.283ZM175.475 16.876C178.182 16.876 180.282 17.268 181.775 18.052C183.287 18.836 184.043 20.0493 184.043 21.692C184.043 23.3533 183.287 24.5667 181.775 25.332C180.282 26.116 178.182 26.508 175.475 26.508C172.768 26.508 170.659 26.116 169.147 25.332C167.654 24.5667 166.907 23.3533 166.907 21.692C166.907 20.0493 167.654 18.836 169.147 18.052C170.659 17.268 172.768 16.876 175.475 16.876ZM175.475 19.116C173.44 19.116 171.966 19.34 171.051 19.788C170.136 20.2173 169.679 20.852 169.679 21.692C169.679 22.532 170.136 23.1667 171.051 23.596C171.966 24.044 173.44 24.268 175.475 24.268C177.51 24.268 178.984 24.044 179.899 23.596C180.814 23.1667 181.271 22.532 181.271 21.692C181.271 20.852 180.814 20.2173 179.899 19.788C178.984 19.34 177.51 19.116 175.475 19.116ZM196.507 7.076C198.374 7.076 199.83 7.50533 200.875 8.364C201.939 9.204 202.471 10.3333 202.471 11.752C202.471 13.1707 201.939 14.3093 200.875 15.168C199.83 16.008 198.374 16.428 196.507 16.428C194.641 16.428 193.175 16.008 192.111 15.168C191.066 14.3093 190.543 13.1707 190.543 11.752C190.543 10.3333 191.066 9.204 192.111 8.364C193.175 7.50533 194.641 7.076 196.507 7.076ZM196.507 0.159999C196.881 0.159999 197.207 0.253332 197.487 0.439999C197.767 0.626665 197.907 0.925332 197.907 1.336V3.1H202.919C203.255 3.1 203.498 3.22133 203.647 3.464C203.815 3.70667 203.899 3.98667 203.899 4.304C203.899 4.62133 203.815 4.90133 203.647 5.144C203.498 5.38667 203.255 5.508 202.919 5.508H189.815C189.479 5.508 189.227 5.38667 189.059 5.144C188.91 4.90133 188.835 4.62133 188.835 4.304C188.835 3.98667 188.91 3.70667 189.059 3.464C189.227 3.22133 189.479 3.1 189.815 3.1H195.107V1.336C195.107 0.925332 195.247 0.626665 195.527 0.439999C195.826 0.253332 196.153 0.159999 196.507 0.159999ZM196.507 9.288C195.387 9.288 194.529 9.52133 193.931 9.988C193.353 10.436 193.063 11.024 193.063 11.752C193.063 12.4613 193.353 13.0493 193.931 13.516C194.529 13.9827 195.387 14.216 196.507 14.216C197.646 14.216 198.505 13.9827 199.083 13.516C199.662 13.0493 199.951 12.4613 199.951 11.752C199.951 11.024 199.662 10.436 199.083 9.988C198.505 9.52133 197.646 9.288 196.507 9.288ZM207.427 0.215998C207.801 0.215998 208.127 0.309332 208.407 0.496C208.687 0.682666 208.827 0.981332 208.827 1.392V7.692H211.935C212.29 7.692 212.542 7.81333 212.691 8.056C212.859 8.28 212.943 8.56 212.943 8.896C212.943 9.232 212.859 9.52133 212.691 9.764C212.542 9.988 212.29 10.1 211.935 10.1H208.827V18.248C208.827 18.6587 208.687 18.9573 208.407 19.144C208.127 19.3307 207.801 19.424 207.427 19.424C207.073 19.424 206.755 19.3307 206.475 19.144C206.195 18.9573 206.055 18.6587 206.055 18.248V1.392C206.055 0.981332 206.195 0.682666 206.475 0.496C206.755 0.309332 207.073 0.215998 207.427 0.215998ZM194.183 17.856C194.538 17.856 194.855 17.9493 195.135 18.136C195.434 18.3227 195.583 18.6213 195.583 19.032V22.7C195.583 22.9053 195.621 23.0453 195.695 23.12C195.789 23.2133 195.947 23.26 196.171 23.26H208.491C208.846 23.26 209.098 23.3813 209.247 23.624C209.415 23.8667 209.499 24.156 209.499 24.492C209.499 24.8093 209.415 25.0893 209.247 25.332C209.098 25.5747 208.846 25.696 208.491 25.696H194.911C194.09 25.696 193.521 25.5467 193.203 25.248C192.905 24.9493 192.755 24.3987 192.755 23.596V19.032C192.755 18.6213 192.895 18.3227 193.175 18.136C193.474 17.9493 193.81 17.856 194.183 17.856ZM231.512 1.644C232.333 1.644 232.893 1.79333 233.192 2.092C233.509 2.39067 233.668 2.94133 233.668 3.744V5.872C233.668 6.544 233.612 7.15067 233.5 7.692C233.406 8.21467 233.22 8.7 232.94 9.148C232.678 9.596 232.314 10.0253 231.848 10.436C231.381 10.8467 230.774 11.276 230.028 11.724C229.3 12.172 228.413 12.6573 227.368 13.18C226.322 13.7027 225.1 14.3 223.7 14.972C223.364 15.1213 223.037 15.1307 222.72 15C222.421 14.8507 222.197 14.6267 222.048 14.328C221.898 14.048 221.842 13.74 221.88 13.404C221.936 13.068 222.15 12.816 222.524 12.648C224.465 11.752 225.986 11.0147 227.088 10.436C228.208 9.83867 229.048 9.30667 229.608 8.84C230.168 8.37333 230.513 7.90667 230.644 7.44C230.793 6.97333 230.868 6.41333 230.868 5.76V4.64C230.868 4.43467 230.821 4.28533 230.728 4.192C230.653 4.09867 230.504 4.052 230.28 4.052H223.14C222.804 4.052 222.552 3.94 222.384 3.716C222.234 3.47333 222.16 3.19333 222.16 2.876C222.16 2.54 222.234 2.25067 222.384 2.008C222.552 1.76533 222.804 1.644 223.14 1.644H231.512ZM240.752 0.215998C241.106 0.215998 241.424 0.309332 241.704 0.496C241.984 0.682666 242.124 0.981332 242.124 1.392V15.784C242.124 16.1947 241.984 16.4933 241.704 16.68C241.424 16.8667 241.106 16.96 240.752 16.96C240.378 16.96 240.052 16.8667 239.772 16.68C239.492 16.4933 239.352 16.1947 239.352 15.784V8.672H232.744V6.292H239.352V1.392C239.352 0.981332 239.492 0.682666 239.772 0.496C240.052 0.309332 240.378 0.215998 240.752 0.215998ZM233.892 15.252C234.265 15.252 234.592 15.3453 234.872 15.532C235.152 15.7187 235.292 16.0173 235.292 16.428V17.464C235.292 17.9307 235.338 18.3413 235.432 18.696C235.525 19.0507 235.665 19.368 235.852 19.648C236.057 19.928 236.309 20.1893 236.608 20.432C236.906 20.6747 237.27 20.908 237.7 21.132C238.484 21.5613 239.277 21.972 240.08 22.364C240.901 22.756 241.741 23.1387 242.6 23.512C242.917 23.6613 243.104 23.8853 243.16 24.184C243.216 24.5013 243.169 24.8093 243.02 25.108C242.87 25.4067 242.656 25.6213 242.376 25.752C242.096 25.8827 241.788 25.8733 241.452 25.724C240.649 25.3693 239.884 25.0147 239.156 24.66C238.446 24.324 237.756 23.9693 237.084 23.596C235.982 23.0173 235.198 22.5227 234.732 22.112C234.284 21.72 234.013 21.3373 233.92 20.964H233.892C233.798 21.3373 233.518 21.7293 233.052 22.14C232.585 22.5693 231.801 23.0733 230.7 23.652C230.028 24.0253 229.328 24.38 228.6 24.716C227.89 25.0707 227.134 25.4253 226.332 25.78C225.996 25.9293 225.688 25.9387 225.408 25.808C225.128 25.6773 224.913 25.4627 224.764 25.164C224.614 24.8467 224.568 24.5293 224.624 24.212C224.68 23.8947 224.857 23.6613 225.156 23.512C226.033 23.1387 226.873 22.756 227.676 22.364C228.478 21.972 229.272 21.5613 230.056 21.132C230.485 20.908 230.849 20.6747 231.148 20.432C231.465 20.1893 231.717 19.928 231.904 19.648C232.109 19.368 232.258 19.0507 232.352 18.696C232.445 18.3413 232.492 17.9307 232.492 17.464V16.428C232.492 16.0173 232.632 15.7187 232.912 15.532C233.192 15.3453 233.518 15.252 233.892 15.252ZM257.808 0.859998C260.515 0.859998 262.606 1.28 264.08 2.12C265.574 2.96 266.32 4.23867 266.32 5.956C266.32 7.67333 265.574 8.952 264.08 9.792C262.606 10.632 260.515 11.052 257.808 11.052C255.102 11.052 253.002 10.632 251.508 9.792C250.034 8.952 249.296 7.67333 249.296 5.956C249.296 4.23867 250.034 2.96 251.508 2.12C253.002 1.28 255.102 0.859998 257.808 0.859998ZM257.808 3.156C255.792 3.156 254.327 3.408 253.412 3.912C252.516 4.39733 252.068 5.07867 252.068 5.956C252.068 6.83333 252.516 7.524 253.412 8.028C254.327 8.51333 255.792 8.756 257.808 8.756C259.824 8.756 261.28 8.51333 262.176 8.028C263.091 7.524 263.548 6.83333 263.548 5.956C263.548 5.07867 263.091 4.39733 262.176 3.912C261.28 3.408 259.824 3.156 257.808 3.156ZM268.588 13.46C268.924 13.46 269.167 13.5813 269.316 13.824C269.484 14.0667 269.568 14.3467 269.568 14.664C269.568 14.9813 269.484 15.2613 269.316 15.504C269.167 15.728 268.924 15.84 268.588 15.84H247.028C246.692 15.84 246.44 15.728 246.272 15.504C246.123 15.2613 246.048 14.9813 246.048 14.664C246.048 14.3467 246.123 14.0667 246.272 13.824C246.44 13.5813 246.692 13.46 247.028 13.46H268.588ZM250.64 17.856C251.014 17.856 251.34 17.9493 251.62 18.136C251.9 18.3227 252.04 18.6213 252.04 19.032V22.84C252.04 23.232 252.236 23.428 252.628 23.428H265.872C266.208 23.428 266.451 23.54 266.6 23.764C266.768 24.0067 266.852 24.2867 266.852 24.604C266.852 24.9213 266.768 25.2013 266.6 25.444C266.451 25.6867 266.208 25.808 265.872 25.808H251.368C250.547 25.808 249.987 25.6587 249.688 25.36C249.39 25.0613 249.24 24.5107 249.24 23.708V19.032C249.24 18.6213 249.38 18.3227 249.66 18.136C249.94 17.9493 250.267 17.856 250.64 17.856ZM296.145 1.364C296.966 1.364 297.526 1.51333 297.825 1.812C298.142 2.11067 298.301 2.66133 298.301 3.464V9.82C298.301 10.6227 298.142 11.1733 297.825 11.472C297.526 11.7707 296.966 11.92 296.145 11.92H283.321C282.499 11.92 281.939 11.7707 281.641 11.472C281.342 11.1733 281.193 10.6227 281.193 9.82V3.464C281.193 2.66133 281.342 2.11067 281.641 1.812C281.939 1.51333 282.499 1.364 283.321 1.364H296.145ZM284.581 3.772C284.189 3.772 283.993 3.95867 283.993 4.332V8.952C283.993 9.32533 284.189 9.512 284.581 9.512H294.885C295.277 9.512 295.473 9.32533 295.473 8.952V4.332C295.473 3.95867 295.277 3.772 294.885 3.772H284.581ZM300.513 14.944C300.849 14.944 301.091 15.0653 301.241 15.308C301.409 15.5507 301.493 15.8307 301.493 16.148C301.493 16.4653 301.409 16.7453 301.241 16.988C301.091 17.212 300.849 17.324 300.513 17.324H291.133V25.192C291.133 25.6027 290.993 25.9013 290.713 26.088C290.433 26.2747 290.106 26.368 289.733 26.368C289.359 26.368 289.033 26.2747 288.753 26.088C288.473 25.9013 288.333 25.6027 288.333 25.192V17.324H278.953C278.617 17.324 278.365 17.212 278.197 16.988C278.047 16.7453 277.973 16.4653 277.973 16.148C277.973 15.8307 278.047 15.5507 278.197 15.308C278.365 15.0653 278.617 14.944 278.953 14.944H300.513ZM310.429 1.252C311.512 1.252 312.454 1.41067 313.257 1.728C314.06 2.04533 314.722 2.484 315.245 3.044C315.786 3.604 316.188 4.26667 316.449 5.032C316.729 5.77867 316.869 6.59067 316.869 7.468C316.869 8.364 316.729 9.19467 316.449 9.96C316.188 10.7067 315.786 11.36 315.245 11.92C314.722 12.48 314.06 12.9187 313.257 13.236C312.454 13.5533 311.512 13.712 310.429 13.712C309.346 13.712 308.404 13.5533 307.601 13.236C306.798 12.9187 306.126 12.48 305.585 11.92C305.062 11.36 304.661 10.7067 304.381 9.96C304.12 9.19467 303.989 8.364 303.989 7.468C303.989 6.59067 304.12 5.77867 304.381 5.032C304.661 4.26667 305.062 3.604 305.585 3.044C306.126 2.484 306.798 2.04533 307.601 1.728C308.404 1.41067 309.346 1.252 310.429 1.252ZM310.429 3.604C309.757 3.604 309.178 3.70667 308.693 3.912C308.226 4.11733 307.844 4.39733 307.545 4.752C307.246 5.088 307.022 5.49867 306.873 5.984C306.742 6.45067 306.677 6.94533 306.677 7.468C306.677 8.00933 306.742 8.51333 306.873 8.98C307.022 9.44667 307.246 9.85733 307.545 10.212C307.844 10.5667 308.226 10.8467 308.693 11.052C309.178 11.2573 309.757 11.36 310.429 11.36C311.101 11.36 311.67 11.2573 312.137 11.052C312.622 10.8467 313.014 10.5667 313.313 10.212C313.612 9.85733 313.826 9.44667 313.957 8.98C314.106 8.51333 314.181 8.00933 314.181 7.468C314.181 6.94533 314.106 6.45067 313.957 5.984C313.826 5.49867 313.612 5.088 313.313 4.752C313.014 4.39733 312.622 4.11733 312.137 3.912C311.67 3.70667 311.101 3.604 310.429 3.604ZM323.085 0.215998C323.44 0.215998 323.757 0.309332 324.037 0.496C324.317 0.682666 324.457 0.981332 324.457 1.392V15.784C324.457 16.1947 324.317 16.4933 324.037 16.68C323.757 16.8667 323.44 16.96 323.085 16.96C322.712 16.96 322.385 16.8667 322.105 16.68C321.825 16.4933 321.685 16.1947 321.685 15.784V8.672H315.077V6.292H321.685V1.392C321.685 0.981332 321.825 0.682666 322.105 0.496C322.385 0.309332 322.712 0.215998 323.085 0.215998ZM316.225 15.252C316.598 15.252 316.925 15.3453 317.205 15.532C317.485 15.7187 317.625 16.0173 317.625 16.428V17.464C317.625 17.9307 317.672 18.3413 317.765 18.696C317.858 19.0507 317.998 19.368 318.185 19.648C318.39 19.928 318.642 20.1893 318.941 20.432C319.24 20.6747 319.604 20.908 320.033 21.132C320.817 21.5613 321.61 21.972 322.413 22.364C323.234 22.756 324.074 23.1387 324.933 23.512C325.25 23.6613 325.437 23.8853 325.493 24.184C325.549 24.5013 325.502 24.8093 325.353 25.108C325.204 25.4067 324.989 25.6213 324.709 25.752C324.429 25.8827 324.121 25.8733 323.785 25.724C322.982 25.3693 322.217 25.0147 321.489 24.66C320.78 24.324 320.089 23.9693 319.417 23.596C318.316 23.0173 317.532 22.5227 317.065 22.112C316.617 21.72 316.346 21.3373 316.253 20.964H316.225C316.132 21.3373 315.852 21.7293 315.385 22.14C314.918 22.5693 314.134 23.0733 313.033 23.652C312.361 24.0253 311.661 24.38 310.933 24.716C310.224 25.0707 309.468 25.4253 308.665 25.78C308.329 25.9293 308.021 25.9387 307.741 25.808C307.461 25.6773 307.246 25.4627 307.097 25.164C306.948 24.8467 306.901 24.5293 306.957 24.212C307.013 23.8947 307.19 23.6613 307.489 23.512C308.366 23.1387 309.206 22.756 310.009 22.364C310.812 21.972 311.605 21.5613 312.389 21.132C312.818 20.908 313.182 20.6747 313.481 20.432C313.798 20.1893 314.05 19.928 314.237 19.648C314.442 19.368 314.592 19.0507 314.685 18.696C314.778 18.3413 314.825 17.9307 314.825 17.464V16.428C314.825 16.0173 314.965 15.7187 315.245 15.532C315.525 15.3453 315.852 15.252 316.225 15.252ZM335.885 0.971999C336.949 0.971999 337.892 1.12133 338.713 1.42C339.535 1.7 340.216 2.10133 340.757 2.624C341.299 3.128 341.709 3.73467 341.989 4.444C342.269 5.13467 342.409 5.89067 342.409 6.712C342.409 7.53333 342.269 8.29867 341.989 9.008C341.709 9.71733 341.299 10.3333 340.757 10.856C340.216 11.36 339.535 11.7613 338.713 12.06C337.892 12.34 336.949 12.48 335.885 12.48C334.821 12.48 333.879 12.34 333.057 12.06C332.236 11.7613 331.555 11.36 331.013 10.856C330.472 10.3333 330.061 9.71733 329.781 9.008C329.501 8.29867 329.361 7.53333 329.361 6.712C329.361 5.89067 329.501 5.13467 329.781 4.444C330.061 3.73467 330.472 3.128 331.013 2.624C331.555 2.10133 332.236 1.7 333.057 1.42C333.879 1.12133 334.821 0.971999 335.885 0.971999ZM335.885 3.268C335.213 3.268 334.635 3.36133 334.149 3.548C333.664 3.73467 333.263 3.98667 332.945 4.304C332.647 4.62133 332.423 4.98533 332.273 5.396C332.124 5.80667 332.049 6.24533 332.049 6.712C332.049 7.17867 332.124 7.62667 332.273 8.056C332.423 8.46667 332.647 8.83067 332.945 9.148C333.263 9.46533 333.664 9.71733 334.149 9.904C334.635 10.0907 335.213 10.184 335.885 10.184C336.557 10.184 337.136 10.0907 337.621 9.904C338.107 9.71733 338.499 9.46533 338.797 9.148C339.115 8.83067 339.348 8.46667 339.497 8.056C339.647 7.62667 339.721 7.17867 339.721 6.712C339.721 6.24533 339.647 5.80667 339.497 5.396C339.348 4.98533 339.115 4.62133 338.797 4.304C338.499 3.98667 338.107 3.73467 337.621 3.548C337.136 3.36133 336.557 3.268 335.885 3.268ZM348.093 0.215998C348.467 0.215998 348.793 0.309332 349.073 0.496C349.353 0.682666 349.493 0.981332 349.493 1.392V12.256C349.493 12.6667 349.353 12.9653 349.073 13.152C348.793 13.3387 348.467 13.432 348.093 13.432C347.72 13.432 347.393 13.3387 347.113 13.152C346.833 12.9653 346.693 12.6667 346.693 12.256V1.392C346.693 0.981332 346.833 0.682666 347.113 0.496C347.393 0.309332 347.72 0.215998 348.093 0.215998ZM347.337 14.636C348.159 14.636 348.719 14.7853 349.017 15.084C349.335 15.3827 349.493 15.9333 349.493 16.736V19.312C349.493 20.1147 349.335 20.6653 349.017 20.964C348.719 21.2627 348.159 21.412 347.337 21.412H336.501C336.296 21.412 336.147 21.4587 336.053 21.552C335.96 21.6267 335.913 21.776 335.913 22V23.204C335.913 23.596 336.109 23.792 336.501 23.792H349.185C349.503 23.792 349.736 23.904 349.885 24.128C350.035 24.352 350.109 24.6133 350.109 24.912C350.109 25.2107 350.035 25.472 349.885 25.696C349.736 25.92 349.503 26.032 349.185 26.032H335.353C334.532 26.032 333.963 25.8827 333.645 25.584C333.347 25.2853 333.197 24.7347 333.197 23.932V21.356C333.197 20.5533 333.347 20.0027 333.645 19.704C333.963 19.4053 334.532 19.256 335.353 19.256H346.161C346.385 19.256 346.535 19.2187 346.609 19.144C346.703 19.0507 346.749 18.892 346.749 18.668V17.464C346.749 17.2587 346.703 17.1187 346.609 17.044C346.535 16.9507 346.385 16.904 346.161 16.904H334.065C333.748 16.904 333.515 16.792 333.365 16.568C333.216 16.344 333.141 16.0733 333.141 15.756C333.141 15.4573 333.216 15.196 333.365 14.972C333.515 14.748 333.748 14.636 334.065 14.636H347.337ZM365.71 2.148C366.531 2.148 367.091 2.29733 367.39 2.596C367.707 2.89467 367.866 3.44533 367.866 4.248V8C367.866 9.12 367.81 10.1 367.698 10.94C367.604 11.7613 367.371 12.592 366.998 13.432C366.643 14.2533 366.12 15.14 365.43 16.092C364.739 17.0253 363.796 18.1453 362.602 19.452C362.34 19.7507 362.042 19.8813 361.706 19.844C361.37 19.8067 361.071 19.676 360.81 19.452C360.548 19.228 360.38 18.9667 360.306 18.668C360.25 18.3507 360.352 18.0613 360.614 17.8C361.64 16.6427 362.452 15.6627 363.05 14.86C363.666 14.0387 364.132 13.2827 364.45 12.592C364.767 11.8827 364.963 11.1733 365.038 10.464C365.131 9.736 365.178 8.87733 365.178 7.888V5.144C365.178 4.77067 364.982 4.584 364.59 4.584H362.658C362.322 4.584 362.07 4.46267 361.902 4.22C361.752 3.97733 361.678 3.69733 361.678 3.38C361.678 3.044 361.752 2.75467 361.902 2.512C362.07 2.26933 362.322 2.148 362.658 2.148H365.71ZM358.598 2.148C359.438 2.148 360.007 2.29733 360.306 2.596C360.604 2.876 360.754 3.42667 360.754 4.248V7.328C360.754 8.37333 360.707 9.26933 360.614 10.016C360.52 10.7627 360.306 11.4907 359.97 12.2C359.634 12.8907 359.12 13.6373 358.43 14.44C357.758 15.224 356.834 16.204 355.658 17.38C355.396 17.6413 355.107 17.7533 354.79 17.716C354.472 17.6787 354.183 17.548 353.922 17.324C353.679 17.0813 353.53 16.8013 353.474 16.484C353.436 16.1667 353.548 15.8773 353.81 15.616C354.818 14.608 355.602 13.768 356.162 13.096C356.74 12.424 357.17 11.808 357.45 11.248C357.73 10.6693 357.898 10.0813 357.954 9.484C358.028 8.868 358.066 8.112 358.066 7.216V5.144C358.066 4.77067 357.87 4.584 357.478 4.584H355.154C354.799 4.584 354.538 4.46267 354.37 4.22C354.22 3.97733 354.146 3.69733 354.146 3.38C354.146 3.044 354.22 2.75467 354.37 2.512C354.538 2.26933 354.799 2.148 355.154 2.148H358.598ZM372.458 0.215998C372.812 0.215998 373.13 0.309332 373.41 0.496C373.69 0.682666 373.83 0.971999 373.83 1.364V8.672H376.602C376.956 8.672 377.208 8.79333 377.358 9.036C377.526 9.26 377.61 9.54 377.61 9.876C377.61 10.212 377.526 10.5013 377.358 10.744C377.208 10.968 376.956 11.08 376.602 11.08H373.83V23.26C373.83 23.652 373.69 23.9413 373.41 24.128C373.13 24.3147 372.812 24.408 372.458 24.408C372.103 24.408 371.786 24.3147 371.506 24.128C371.244 23.9413 371.114 23.652 371.114 23.26V1.364C371.114 0.971999 371.244 0.682666 371.506 0.496C371.786 0.309332 372.103 0.215998 372.458 0.215998ZM385.174 1.672C386.145 1.672 387.013 1.80267 387.778 2.064C388.543 2.30667 389.187 2.652 389.71 3.1C390.251 3.548 390.662 4.08933 390.942 4.724C391.241 5.34 391.39 6.03067 391.39 6.796V7.076C391.39 7.54267 391.334 7.98133 391.222 8.392C391.11 8.784 390.923 9.18533 390.662 9.596C390.419 9.988 390.093 10.3987 389.682 10.828C389.29 11.2573 388.814 11.724 388.254 12.228C387.769 12.676 387.377 13.068 387.078 13.404C386.779 13.7213 386.555 14.02 386.406 14.3C386.257 14.5613 386.154 14.8227 386.098 15.084C386.061 15.3453 386.042 15.6347 386.042 15.952C386.042 16.3067 385.911 16.5773 385.65 16.764C385.389 16.9507 385.09 17.044 384.754 17.044C384.399 17.044 384.082 16.96 383.802 16.792C383.541 16.6053 383.41 16.3067 383.41 15.896C383.41 15.4293 383.438 15 383.494 14.608C383.55 14.216 383.662 13.8427 383.83 13.488C384.017 13.1147 384.278 12.732 384.614 12.34C384.95 11.948 385.389 11.5093 385.93 11.024C386.471 10.5573 386.91 10.1467 387.246 9.792C387.601 9.43733 387.871 9.11067 388.058 8.812C388.263 8.51333 388.403 8.23333 388.478 7.972C388.553 7.71067 388.59 7.42133 388.59 7.104V6.908C388.59 6.124 388.301 5.47067 387.722 4.948C387.162 4.42533 386.294 4.164 385.118 4.164C384.278 4.164 383.55 4.304 382.934 4.584C382.318 4.84533 381.749 5.19067 381.226 5.62C380.946 5.82533 380.657 5.9 380.358 5.844C380.059 5.788 379.798 5.62 379.574 5.34C379.369 5.07867 379.266 4.78933 379.266 4.472C379.285 4.136 379.434 3.856 379.714 3.632C380.349 3.09067 381.123 2.63333 382.038 2.26C382.953 1.868 383.998 1.672 385.174 1.672ZM384.726 19.34C385.267 19.34 385.706 19.5173 386.042 19.872C386.397 20.208 386.574 20.6373 386.574 21.16C386.574 21.6827 386.397 22.1213 386.042 22.476C385.706 22.8307 385.267 23.008 384.726 23.008C384.203 23.008 383.765 22.8307 383.41 22.476C383.074 22.1213 382.906 21.6827 382.906 21.16C382.906 20.6373 383.074 20.208 383.41 19.872C383.765 19.5173 384.203 19.34 384.726 19.34Z" fill="black"/>
</svg>
