<svg width="48" height="48" viewBox="0 0 48 48" fill="none" xmlns="http://www.w3.org/2000/svg">
<circle cx="24" cy="24" r="24" fill="#A6DBCB"/>
<path d="M15.3398 32.6797C14.7305 32.0703 14.7539 31.0273 15.3164 30.4531L21.7617 24.0078L15.3164 17.5742C14.7539 17 14.7305 15.957 15.3398 15.3477C15.9375 14.7383 16.9922 14.7617 17.5547 15.3359L24 21.7695L30.4336 15.3359C31.0312 14.75 32.0391 14.75 32.6602 15.3594C33.2695 15.957 33.2695 16.9883 32.6719 17.5742L26.2383 24.0078L32.6719 30.4531C33.2695 31.0391 33.2578 32.0586 32.6602 32.668C32.0508 33.2773 31.0312 33.2773 30.4336 32.6914L24 26.2461L17.5547 32.6914C16.9922 33.2656 15.9492 33.2773 15.3398 32.6797Z" fill="white"/>
</svg>
