<svg width="495" height="153" viewBox="0 0 495 153" fill="none" xmlns="http://www.w3.org/2000/svg">
<g opacity="0.75">
<path d="M251.748 149.69C251.742 149.905 251.784 150.118 251.87 150.315C251.956 150.512 252.084 150.688 252.245 150.83C252.406 150.972 252.597 151.077 252.803 151.137C253.009 151.198 253.225 151.213 253.438 151.18C254.158 151.06 254.838 150.75 255.538 150.59C256.238 150.43 256.938 150.19 257.638 149.99C258.338 149.79 259.188 150.06 259.868 149.82C260.548 149.58 261.088 148.9 261.758 148.62C262.428 148.34 263.188 148.25 263.838 147.93C264.488 147.61 264.918 146.93 265.538 146.51C266.158 146.09 266.998 146.11 267.598 145.69C268.198 145.27 268.688 144.64 269.328 144.26C269.968 143.88 270.568 143.4 271.238 143.07C271.908 142.74 272.608 142.47 273.298 142.18C273.988 141.89 274.778 141.88 275.478 141.63C276.178 141.38 276.888 141.14 277.598 140.95C278.308 140.76 279.108 140.89 279.838 140.73C280.568 140.57 281.188 139.91 281.928 139.79C282.668 139.67 283.448 139.99 284.188 139.91C284.928 139.83 285.638 139.37 286.388 139.33C287.138 139.29 287.878 139.85 288.628 139.85C289.378 139.85 290.118 139.39 290.858 139.43C291.598 139.47 292.328 139.75 293.068 139.83C293.808 139.91 294.508 140.19 295.238 140.31C295.968 140.43 296.748 140.31 297.478 140.43C298.208 140.55 298.828 141.12 299.548 141.31C300.268 141.5 301.018 141.55 301.708 141.79C302.398 142.03 303.058 142.41 303.708 142.7C304.358 142.99 305.058 143.28 305.708 143.61C306.358 143.94 307.128 144.09 307.768 144.46C308.408 144.83 308.948 145.36 309.558 145.78C310.168 146.2 310.718 146.78 311.358 147.13C311.998 147.48 312.918 147.37 313.578 147.7C314.238 148.03 314.948 148.23 315.638 148.52C316.328 148.81 316.868 149.42 317.568 149.66C318.268 149.9 318.968 150.18 319.688 150.38C320.408 150.58 321.148 150.68 321.868 150.84C322.588 151 323.288 151.37 324.028 151.49C324.768 151.61 325.538 151.37 326.278 151.49C327.018 151.61 327.758 151.6 328.498 151.64C329.238 151.68 329.978 151.71 330.718 151.71C331.458 151.71 332.198 151.55 332.938 151.51C333.678 151.47 334.468 151.96 335.198 151.88C335.928 151.8 336.628 151.26 337.358 151.14C338.088 151.02 338.788 150.74 339.508 150.58C340.228 150.42 341.098 150.81 341.808 150.58C342.518 150.35 343.128 149.79 343.808 149.58C344.488 149.37 345.358 149.45 346.038 149.17C346.718 148.89 347.298 148.31 347.968 147.98C348.638 147.65 349.228 147.19 349.858 146.82C350.488 146.45 350.958 145.82 351.568 145.38C352.178 144.94 352.888 144.66 353.568 144.28C354.248 143.9 354.818 143.43 355.488 143.1C356.158 142.77 356.968 142.76 357.658 142.47C358.348 142.18 359.008 141.83 359.658 141.59C360.308 141.35 361.078 141.14 361.798 140.95C362.518 140.76 363.248 140.63 363.978 140.47C364.708 140.31 365.448 140.28 366.188 140.17C366.928 140.06 367.658 140.03 368.398 139.95C369.138 139.87 369.868 139.75 370.608 139.71C371.348 139.67 372.088 139.4 372.828 139.4C373.568 139.4 374.308 139.75 375.048 139.78C375.788 139.81 376.508 139.99 377.248 140.07C377.988 140.15 378.698 140.31 379.428 140.42C380.158 140.53 380.928 140.42 381.658 140.59C382.388 140.76 383.098 140.94 383.808 141.13C384.518 141.32 385.208 141.62 385.908 141.86C386.608 142.1 387.268 142.44 387.908 142.72C388.548 143 389.438 142.94 390.098 143.27C390.758 143.6 391.318 144.16 391.948 144.54C392.578 144.92 393.458 144.97 394.058 145.39C394.658 145.81 395.158 146.39 395.798 146.77C396.438 147.15 397.048 147.54 397.718 147.87C398.388 148.2 398.908 148.87 399.598 149.13C400.288 149.39 401.088 149.43 401.788 149.67C402.488 149.91 403.198 150.12 403.918 150.32C404.638 150.52 405.288 151.01 406.018 151.16C406.748 151.31 407.488 151.45 408.218 151.57C408.948 151.69 409.768 151.17 410.508 151.25C411.248 151.33 411.948 151.86 412.688 151.89C413.428 151.92 414.178 151.54 414.928 151.54C415.678 151.54 416.428 152.04 417.168 152C417.908 151.96 418.658 151.86 419.398 151.78C420.138 151.7 420.898 151.67 421.628 151.55C422.358 151.43 422.978 150.7 423.698 150.55C424.418 150.4 425.178 150.36 425.888 150.16C426.598 149.96 427.418 150.08 428.118 149.84C428.818 149.6 429.438 149.1 430.118 148.84C430.798 148.58 431.638 148.57 432.298 148.24C432.958 147.91 433.478 147.24 434.118 146.9C434.758 146.56 435.348 146.08 435.958 145.65C436.568 145.22 437.138 144.73 437.778 144.35C438.418 143.97 439.028 143.51 439.688 143.18C440.348 142.85 441.218 142.96 441.908 142.67C442.598 142.38 443.228 141.99 443.908 141.75C444.588 141.51 445.338 141.38 446.058 141.18C446.778 140.98 447.408 140.45 448.138 140.29C448.868 140.13 449.618 140.08 450.348 139.97C451.078 139.86 451.838 139.79 452.568 139.71C453.298 139.63 454.078 139.9 454.818 139.86C455.558 139.82 456.288 139.48 457.028 139.48C457.768 139.48 458.508 139.76 459.248 139.79C459.988 139.82 460.728 139.9 461.468 139.98C462.208 140.06 462.908 140.31 463.638 140.43C464.368 140.55 465.158 140.35 465.878 140.51C466.598 140.67 467.288 141.01 467.998 141.2C468.708 141.39 469.458 141.53 470.158 141.77C470.858 142.01 471.498 142.4 472.158 142.68C472.818 142.96 473.558 143.18 474.218 143.51C474.878 143.84 475.588 144.11 476.218 144.51C476.848 144.91 477.378 145.46 477.978 145.88C478.578 146.3 479.158 146.75 479.788 147.12C480.418 147.49 481.278 147.43 481.938 147.76C482.598 148.09 483.258 148.32 483.938 148.6C484.618 148.88 485.298 149.07 485.938 149.31C486.578 149.55 487.218 150.03 487.938 150.23C488.658 150.43 489.368 150.44 490.088 150.6C490.808 150.76 491.418 151.36 492.088 151.48C492.592 151.519 493.092 151.365 493.487 151.049C493.882 150.734 494.143 150.28 494.218 149.78C494.218 148.66 493.548 148.66 493.548 147.54C493.548 146.42 494.038 146.42 494.038 145.3C494.038 144.18 494.038 144.19 494.038 143.07C494.038 141.95 494.148 141.95 494.148 140.83C494.148 139.71 493.988 139.72 493.988 138.6C493.988 137.48 493.568 137.48 493.568 136.37C493.568 135.26 493.568 135.25 493.568 134.13C493.568 133.01 493.778 133.02 493.778 131.9C493.778 130.78 493.948 130.78 493.948 129.67C493.948 128.56 493.948 128.55 493.948 127.44C493.948 126.33 493.748 126.32 493.748 125.2C493.748 124.08 493.748 124.09 493.748 122.97C493.748 121.85 493.998 121.85 493.998 120.74C493.998 119.63 494.058 119.62 494.058 118.5V116.26C494.058 115.14 493.818 115.14 493.818 114.02C493.818 112.9 493.558 112.91 493.558 111.79C493.558 110.67 493.558 110.67 493.558 109.55C493.558 108.43 493.438 108.44 493.438 107.32C493.438 106.2 493.978 106.2 493.978 105.09C493.978 103.98 493.848 103.97 493.848 102.85C493.848 101.73 493.688 101.73 493.688 100.62C493.688 99.5103 493.568 99.5003 493.568 98.3803C493.568 97.2603 493.808 97.2603 493.808 96.1503C493.808 95.0403 493.718 95.0303 493.718 93.9103C493.718 92.7903 494.038 92.7903 494.038 91.6703C494.038 90.5503 493.738 90.5503 493.738 89.4303C493.738 88.3103 494.038 88.3203 494.038 87.2003C494.038 86.0803 493.658 86.0803 493.658 84.9603C493.658 83.8403 493.898 83.8403 493.898 82.7303C493.898 81.6203 493.848 81.6103 493.848 80.4903C493.848 79.3703 493.498 79.3703 493.498 78.2503C493.498 77.1303 493.698 77.1303 493.698 76.0103C493.698 74.8903 493.758 74.9003 493.758 73.7803C493.758 72.6603 493.758 72.6603 493.758 71.5403C493.758 70.4203 494.048 70.4203 494.048 69.3003C494.048 68.1803 493.748 68.1903 493.748 67.0703C493.748 65.9503 493.748 65.9503 493.748 64.8303C493.748 63.7103 493.508 63.7103 493.508 62.5903C493.508 61.4703 493.808 61.4703 493.808 60.3503C493.808 59.2303 493.428 59.2303 493.428 58.1203C493.428 57.0103 493.428 57.0003 493.428 55.8803C493.428 54.7603 493.818 54.7603 493.818 53.6403C493.818 52.5203 493.978 52.5203 493.978 51.4003C493.978 50.2803 493.428 50.2803 493.428 49.1603C493.428 48.0403 493.768 48.0403 493.768 46.9203V44.6903C493.768 43.5703 493.998 43.5703 493.998 42.4503C493.998 41.3303 493.748 41.3303 493.748 40.2103C493.748 39.0903 493.658 39.0903 493.658 37.9703C493.658 36.8503 493.898 36.8503 493.898 35.7303C493.898 34.6103 494.018 34.6203 494.018 33.5003C494.018 32.3803 493.888 32.3803 493.888 31.2603C493.888 30.1403 493.538 30.1503 493.538 29.0303C493.538 27.9103 493.808 27.9103 493.808 26.7903C493.808 25.6703 493.378 25.6703 493.378 24.5503C493.378 23.4303 493.448 23.4303 493.448 22.3103C493.448 21.1903 493.688 21.1903 493.688 20.0703C493.688 18.9503 493.688 18.9503 493.688 17.8303C493.688 16.7103 493.688 16.7103 493.688 15.5903C493.688 14.4703 493.578 14.4703 493.578 13.3503C493.578 12.2303 493.578 12.2303 493.578 11.1103C493.578 9.99034 493.818 9.99035 493.818 8.87035C493.818 7.75035 493.718 7.7503 493.718 6.6303C493.718 5.5103 493.268 5.51031 493.268 4.39031C493.268 3.27031 493.848 3.27032 493.848 2.15032C493.848 1.03032 493.898 1.03033 493.898 -0.0896683C493.898 -1.20967 493.798 -1.20966 493.798 -2.32966C493.798 -3.44966 493.298 -3.44966 493.298 -4.57966C493.298 -5.70966 493.788 -5.69965 493.788 -6.81965C493.788 -7.93965 493.448 -7.93965 493.448 -9.06965C493.448 -10.1996 494.598 -10.7297 493.808 -11.5297C493.018 -12.3297 492.468 -11.6097 491.348 -11.6097C490.228 -11.6097 490.228 -10.9697 489.108 -10.9697C487.988 -10.9697 487.988 -11.2397 486.868 -11.2397C485.748 -11.2397 485.748 -11.6597 484.618 -11.6597C483.488 -11.6597 483.498 -11.4497 482.378 -11.4497C481.258 -11.4497 481.258 -11.2697 480.138 -11.2697C479.018 -11.2697 479.018 -11.3997 477.888 -11.3997C476.758 -11.3997 476.768 -11.0797 475.648 -11.0797C474.528 -11.0797 474.528 -11.4097 473.408 -11.4097C472.288 -11.4097 472.278 -11.3497 471.158 -11.3497C470.038 -11.3497 470.038 -11.1997 468.918 -11.1997C467.798 -11.1997 467.798 -11.6697 466.678 -11.6697C465.558 -11.6697 465.558 -11.1597 464.428 -11.1597C463.298 -11.1597 463.308 -11.2197 462.188 -11.2197C461.068 -11.2197 461.068 -11.2997 459.948 -11.2997C458.828 -11.2997 458.828 -11.4697 457.708 -11.4697H455.458C454.338 -11.4697 454.338 -10.9997 453.218 -10.9997C452.098 -10.9997 452.098 -11.3697 450.978 -11.3697H449.238C448.118 -11.3697 448.118 -11.4297 446.998 -11.4297C445.878 -11.4297 445.868 -11.3196 444.748 -11.3196C443.628 -11.3196 443.628 -11.5297 442.508 -11.5297H440.268C439.148 -11.5297 439.148 -11.2997 438.018 -11.2997C436.888 -11.2997 436.898 -10.9597 435.778 -10.9597C434.658 -10.9597 434.668 -11.5397 433.548 -11.5397C432.428 -11.5397 432.428 -11.0997 431.308 -11.0997C430.188 -11.0997 430.188 -11.1797 429.068 -11.1797C427.948 -11.1797 427.948 -11.3697 426.828 -11.3697C425.708 -11.3697 425.708 -11.2397 424.588 -11.2397C423.468 -11.2397 423.468 -11.1797 422.348 -11.1797C421.228 -11.1797 421.228 -11.2397 420.118 -11.2397C419.008 -11.2397 418.998 -11.4797 417.878 -11.4797C416.758 -11.4797 416.748 -11.6397 415.628 -11.6397C414.508 -11.6397 414.508 -11.2997 413.388 -11.2997C412.268 -11.2997 412.268 -11.6097 411.148 -11.6097C410.028 -11.6097 410.028 -11.3597 408.898 -11.3597C407.768 -11.3597 407.778 -11.0097 406.658 -11.0097C405.538 -11.0097 405.538 -11.4297 404.408 -11.4297C403.278 -11.4297 403.288 -11.6697 402.168 -11.6697C401.048 -11.6697 401.048 -11.4497 399.928 -11.4497C398.808 -11.4497 398.808 -11.0696 397.688 -11.0696C396.568 -11.0696 396.568 -11.3297 395.448 -11.3297C394.328 -11.3297 394.328 -11.6697 393.208 -11.6697C392.088 -11.6697 392.088 -10.9797 390.968 -10.9797C389.848 -10.9797 389.848 -11.5597 388.728 -11.5597C387.608 -11.5597 387.608 -10.9597 386.478 -10.9597C385.348 -10.9597 385.358 -11.6097 384.238 -11.6097C383.118 -11.6097 383.118 -11.1897 381.998 -11.1897C380.878 -11.1897 380.868 -10.9597 379.748 -10.9597H377.508C376.378 -10.9597 376.378 -11.6497 375.258 -11.6497C374.138 -11.6497 374.138 -11.0597 373.018 -11.0597C371.898 -11.0597 371.898 -11.2797 370.778 -11.2797C369.658 -11.2797 369.658 -10.9797 368.528 -10.9797C367.398 -10.9797 367.408 -11.3697 366.288 -11.3697C365.168 -11.3697 365.168 -11.0997 364.048 -11.0997H361.808C360.678 -11.0997 360.678 -11.4497 359.558 -11.4497C358.438 -11.4497 358.438 -11.6097 357.308 -11.6097C356.178 -11.6097 356.188 -11.0097 355.068 -11.0097C353.948 -11.0097 353.948 -10.9197 352.818 -10.9197C351.688 -10.9197 351.698 -11.6497 350.578 -11.6497C349.458 -11.6497 349.458 -11.0297 348.338 -11.0297C347.218 -11.0297 347.208 -11.3297 346.088 -11.3297C344.968 -11.3297 344.968 -11.4197 343.848 -11.4197C342.728 -11.4197 342.718 -11.6097 341.598 -11.6097C340.478 -11.6097 340.478 -11.0097 339.348 -11.0097C338.218 -11.0097 338.228 -11.3697 337.108 -11.3697C335.988 -11.3697 335.988 -11.4497 334.858 -11.4497C333.728 -11.4497 333.738 -11.5897 332.618 -11.5897C331.498 -11.5897 331.498 -11.4297 330.368 -11.4297C329.238 -11.4297 329.248 -10.9397 328.128 -10.9397C327.008 -10.9397 326.998 -11.4897 325.878 -11.4897C324.758 -11.4897 324.758 -11.4897 323.628 -11.4897C322.498 -11.4897 322.508 -11.2397 321.388 -11.2397C320.268 -11.2397 320.268 -10.9897 319.138 -10.9897C318.008 -10.9897 318.018 -11.2197 316.898 -11.2197C315.778 -11.2197 315.768 -11.3796 314.648 -11.3796C313.528 -11.3796 313.528 -11.5797 312.398 -11.5797C311.268 -11.5797 311.278 -10.9297 310.158 -10.9297C309.038 -10.9297 309.028 -11.0297 307.908 -11.0297C306.788 -11.0297 306.788 -11.4697 305.658 -11.4697C304.528 -11.4697 304.538 -10.9797 303.408 -10.9797C302.278 -10.9797 302.288 -11.1497 301.168 -11.1497C300.048 -11.1497 300.048 -11.1497 298.918 -11.1497C297.788 -11.1497 297.798 -10.8796 296.678 -10.8796C295.558 -10.8796 295.558 -11.2097 294.438 -11.2097C293.318 -11.2097 293.308 -11.2097 292.188 -11.2097C291.068 -11.2097 291.068 -10.9897 289.938 -10.9897C288.808 -10.9897 288.818 -11.1097 287.698 -11.1097C286.578 -11.1097 286.578 -11.1697 285.448 -11.1697C284.318 -11.1697 284.328 -11.4897 283.198 -11.4897C282.068 -11.4897 282.078 -10.8397 280.958 -10.8397C279.838 -10.8397 279.828 -10.9497 278.708 -10.9497C277.588 -10.9497 277.578 -11.4997 276.458 -11.4997C275.338 -11.4997 275.338 -11.3097 274.208 -11.3097C273.078 -11.3097 273.088 -11.5297 271.958 -11.5297C270.828 -11.5297 270.838 -11.1497 269.708 -11.1497C268.578 -11.1497 268.588 -11.0897 267.458 -11.0897C266.328 -11.0897 266.338 -11.2297 265.218 -11.2297C264.098 -11.2297 264.088 -11.3597 262.968 -11.3597C261.848 -11.3597 261.838 -11.2597 260.718 -11.2597C259.598 -11.2597 259.588 -11.4997 258.458 -11.4997C257.328 -11.4997 257.338 -11.2297 256.208 -11.2297C255.078 -11.2297 255.078 -11.2897 253.958 -11.2897C252.838 -11.2897 252.348 -12.1497 251.538 -11.3497C250.728 -10.5497 251.968 -10.0797 251.968 -8.95966C251.968 -7.83966 251.428 -7.83967 251.428 -6.71967C251.428 -5.59967 251.678 -5.59969 251.678 -4.48969C251.678 -3.37969 251.678 -3.3697 251.678 -2.2497C251.678 -1.1297 251.858 -1.12966 251.858 -0.0196609C251.858 1.09034 251.448 1.10033 251.448 2.22033C251.448 3.34033 251.708 3.33031 251.708 4.45031C251.708 5.57031 251.858 5.57035 251.858 6.68035C251.858 7.79035 251.718 7.80033 251.718 8.91033C251.718 10.0203 251.918 10.0303 251.918 11.1503C251.918 12.2703 251.718 12.2603 251.718 13.3803C251.718 14.5003 251.718 14.5003 251.718 15.6103C251.718 16.7203 251.658 16.7303 251.658 17.8503C251.658 18.9703 251.428 18.9603 251.428 20.0803C251.428 21.2003 251.548 21.2003 251.548 22.3203C251.548 23.4403 251.398 23.4403 251.398 24.5603C251.398 25.6803 251.978 25.6803 251.978 26.7903C251.978 27.9003 251.458 27.9103 251.458 29.0303C251.458 30.1503 251.378 30.1503 251.378 31.2603C251.378 32.3703 251.898 32.3803 251.898 33.5003C251.898 34.6203 251.498 34.6103 251.498 35.7303C251.498 36.8503 251.288 36.8503 251.288 37.9603C251.288 39.0703 251.948 39.0803 251.948 40.2003C251.948 41.3203 251.548 41.3203 251.548 42.4403C251.548 43.5603 251.768 43.5603 251.768 44.6803C251.768 45.8003 251.538 45.7903 251.538 46.9103C251.538 48.0303 251.478 48.0303 251.478 49.1503C251.478 50.2703 251.728 50.2703 251.728 51.3803C251.728 52.4903 251.938 52.5003 251.938 53.6203C251.938 54.7403 251.938 54.7403 251.938 55.8503C251.938 56.9603 251.878 56.9703 251.878 58.0903C251.878 59.2103 251.358 59.2103 251.358 60.3303C251.358 61.4503 251.358 61.4503 251.358 62.5703C251.358 63.6903 251.508 63.6903 251.508 64.8003C251.508 65.9103 251.508 65.9203 251.508 67.0403C251.508 68.1603 251.768 68.1603 251.768 69.2803C251.768 70.4003 251.768 70.4003 251.768 71.5103C251.768 72.6203 251.318 72.6303 251.318 73.7503C251.318 74.8703 251.988 74.8703 251.988 75.9903C251.988 77.1103 251.798 77.1103 251.798 78.2303C251.798 79.3503 251.308 79.3503 251.308 80.4703C251.308 81.5903 251.998 81.5803 251.998 82.7003C251.998 83.8203 251.328 83.8203 251.328 84.9403C251.328 86.0603 251.388 86.0603 251.388 87.1803C251.388 88.3003 251.998 88.3003 251.998 89.4203C251.998 90.5403 251.488 90.5403 251.488 91.6603C251.488 92.7803 251.748 92.7803 251.748 93.9003C251.748 95.0203 251.808 95.0203 251.808 96.1303C251.808 97.2403 251.638 97.2503 251.638 98.3703C251.638 99.4903 251.428 99.4903 251.428 100.61C251.428 101.73 251.758 101.73 251.758 102.85C251.758 103.97 251.758 103.96 251.758 105.08C251.758 106.2 251.518 106.2 251.518 107.32C251.518 108.44 251.748 108.44 251.748 109.56C251.748 110.68 251.748 110.68 251.748 111.79C251.748 112.9 251.388 112.91 251.388 114.03C251.388 115.15 251.628 115.15 251.628 116.27C251.628 117.39 251.558 117.39 251.558 118.51C251.558 119.63 251.378 119.63 251.378 120.75C251.378 121.87 251.898 121.87 251.898 122.99C251.898 124.11 251.368 124.11 251.368 125.23C251.368 126.35 251.828 126.35 251.828 127.47C251.828 128.59 251.468 128.59 251.468 129.71C251.468 130.83 251.938 130.83 251.938 131.95C251.938 133.07 251.528 133.07 251.528 134.19C251.528 135.31 251.598 135.31 251.598 136.43C251.598 137.55 251.258 137.55 251.258 138.67C251.258 139.79 251.918 139.79 251.918 140.91C251.918 142.03 251.918 142.04 251.918 143.16C251.918 144.28 251.438 144.28 251.438 145.4C251.438 146.52 251.798 146.52 251.818 147.65C251.838 148.78 251.748 148.56 251.748 149.69Z" fill="#8E7167"/>
<path opacity="0.5" d="M446.498 40.5107C446.768 41.7307 446.798 41.7206 447.068 42.9406C447.338 44.1606 446.889 44.4306 447.669 45.4006C448.449 46.3706 448.908 45.7906 450.038 46.3006C451.168 46.8106 451.128 46.9306 452.258 47.4406C452.456 47.513 452.629 47.64 452.757 47.807C452.886 47.9739 452.964 48.1739 452.983 48.3836C453.002 48.5932 452.96 48.8039 452.864 48.9911C452.768 49.1783 452.62 49.3342 452.438 49.4406L450.338 50.6606C449.268 51.2906 448.779 50.7906 448.109 51.8406C447.439 52.8906 448.038 53.1206 447.908 54.3506C447.778 55.5806 447.619 55.5706 447.489 56.8106C447.498 57.0127 447.446 57.2128 447.339 57.3847C447.233 57.5566 447.076 57.6921 446.891 57.7733C446.706 57.8546 446.501 57.8777 446.302 57.8398C446.103 57.8018 445.921 57.7045 445.778 57.5606C444.848 56.7306 444.778 56.8206 443.828 56.0006C442.878 55.1806 443.298 54.4206 442.098 54.1106C440.898 53.8006 440.808 54.3506 439.588 54.6006C438.368 54.8506 438.378 54.8906 437.158 55.1506C436.96 55.2036 436.752 55.2016 436.555 55.145C436.358 55.0883 436.18 54.9792 436.04 54.8292C435.9 54.6791 435.804 54.4939 435.761 54.2934C435.719 54.0928 435.732 53.8845 435.799 53.6906C436.299 52.5406 436.578 52.6906 437.068 51.5206C437.558 50.3506 437.968 50.4206 437.898 49.1806C437.828 47.9406 437.338 48.0706 436.718 46.9906C436.098 45.9106 435.958 45.9906 435.338 44.9106C435.247 44.7262 435.206 44.5203 435.222 44.3148C435.238 44.1093 435.309 43.912 435.428 43.7437C435.547 43.5755 435.709 43.4426 435.898 43.3593C436.086 43.276 436.294 43.2454 436.498 43.2706L438.979 43.5206C440.219 43.6406 440.248 43.9706 441.408 43.5206C442.568 43.0706 442.209 42.6706 443.049 41.7506C443.889 40.8306 444.048 40.9706 444.878 40.0506C444.994 39.9172 445.146 39.8196 445.315 39.7692C445.485 39.7187 445.665 39.7176 445.835 39.7658C446.005 39.8141 446.157 39.9098 446.275 40.0417C446.392 40.1736 446.47 40.3363 446.498 40.5107Z" fill="#AA918C"/>
<path opacity="0.8" d="M433.657 87.0105C434.197 87.6905 434.257 87.6405 434.797 88.3205C435.337 89.0005 435.007 89.4505 435.797 89.8205C436.587 90.1905 436.717 89.7305 437.587 89.7005C438.457 89.6705 438.457 89.7005 439.327 89.7005C439.466 89.6899 439.605 89.7182 439.728 89.7821C439.852 89.8461 439.955 89.9431 440.027 90.0625C440.099 90.1818 440.136 90.3187 440.134 90.4579C440.132 90.5971 440.091 90.733 440.017 90.8505C439.527 91.5805 439.457 91.5205 439.017 92.2505C438.577 92.9805 438.197 92.8805 438.087 93.7405C437.977 94.6005 438.327 94.6005 438.617 95.4205C438.907 96.2405 439.037 96.2005 439.327 97.0205C439.374 97.1598 439.38 97.3094 439.347 97.4524C439.313 97.5954 439.24 97.7261 439.136 97.83C439.032 97.9339 438.902 98.0068 438.759 98.0404C438.616 98.0741 438.466 98.0672 438.327 98.0205C437.487 97.7805 437.467 97.8505 436.627 97.6105C435.787 97.3705 435.797 96.8305 434.947 97.0005C434.097 97.1705 434.267 97.6105 433.577 98.1505C432.887 98.6905 432.847 98.6305 432.167 99.1505C432.07 99.238 431.948 99.2946 431.819 99.313C431.689 99.3315 431.557 99.311 431.439 99.2542C431.321 99.1974 431.223 99.1068 431.157 98.994C431.09 98.8812 431.059 98.7512 431.067 98.6205C431.067 97.7405 431.007 97.7505 430.967 96.8705C430.927 95.9905 431.287 95.8705 430.857 95.1005C430.427 94.3305 430.057 94.6805 429.337 94.1905C428.617 93.7005 428.667 93.6205 427.947 93.1305C427.826 93.0555 427.728 92.9482 427.664 92.8208C427.6 92.6933 427.573 92.5506 427.585 92.4086C427.597 92.2665 427.649 92.1307 427.734 92.0163C427.819 91.9019 427.934 91.8133 428.067 91.7605L429.707 91.1605C430.527 90.8505 430.797 91.2605 431.387 90.6205C431.977 89.9805 431.587 89.7405 431.837 88.9105C432.087 88.0805 432.187 88.1005 432.427 87.2605C432.457 87.1317 432.523 87.0142 432.618 86.922C432.713 86.8298 432.832 86.7667 432.962 86.7404C433.091 86.714 433.226 86.7255 433.349 86.7734C433.472 86.8213 433.579 86.9036 433.657 87.0105Z" fill="#7B564C"/>
<path opacity="0.8" d="M461.038 62.7208C461.628 63.5708 461.598 63.6007 462.188 64.4507C462.778 65.3007 462.788 65.3008 463.378 66.1608C463.968 67.0208 463.628 67.3908 464.538 67.8808C465.448 68.3708 465.538 67.9507 466.618 67.9907C467.698 68.0307 467.618 67.9907 468.698 67.9907C469.778 67.9907 469.698 68.1908 470.768 68.2208C471.022 68.2168 471.271 68.2825 471.489 68.4107C471.707 68.5389 471.886 68.7247 472.006 68.9477C472.126 69.1707 472.182 69.4223 472.168 69.6751C472.154 69.9278 472.072 70.172 471.928 70.3808C471.298 71.2108 471.068 71.0307 470.438 71.8607C469.808 72.6907 470.108 72.9107 469.438 73.7407C468.768 74.5707 468.068 74.2208 467.878 75.2508C467.688 76.2808 468.238 76.2508 468.528 77.2508C468.818 78.2508 468.868 78.2508 469.158 79.2508C469.448 80.2508 469.268 80.3007 469.548 81.3007C469.639 81.5252 469.662 81.7714 469.615 82.0088C469.567 82.2462 469.451 82.4645 469.281 82.6368C469.111 82.809 468.894 82.9277 468.657 82.9782C468.42 83.0287 468.174 83.0087 467.948 82.9207C466.948 82.5807 466.948 82.5608 465.998 82.2208C465.048 81.8808 464.998 82.0008 463.998 81.6608C462.998 81.3208 463.078 80.5708 461.998 80.6608C460.918 80.7508 461.128 81.3807 460.268 81.9607C459.408 82.5407 459.368 82.4908 458.508 83.0708C457.648 83.6508 457.728 83.7708 456.868 84.3508C456.664 84.4784 456.428 84.547 456.187 84.549C455.945 84.5511 455.708 84.4865 455.501 84.3624C455.295 84.2383 455.126 84.0595 455.014 83.8457C454.903 83.6319 454.852 83.3914 454.868 83.1508C454.868 82.1508 454.808 82.1507 454.868 81.0807C454.928 80.0107 455.018 80.0808 455.038 79.0008C455.058 77.9208 455.298 77.8808 454.848 76.9408C454.398 76.0008 454.088 76.2708 453.268 75.6308C452.448 74.9908 452.378 75.0907 451.558 74.4507C450.738 73.8107 450.908 73.5907 450.088 72.9507C449.882 72.8187 449.719 72.6294 449.619 72.4061C449.518 72.1827 449.485 71.935 449.523 71.6931C449.561 71.4512 449.669 71.2257 449.834 71.0442C449.998 70.8626 450.212 70.7328 450.448 70.6707C451.448 70.3707 451.448 70.4707 452.448 70.1707C453.448 69.8707 453.448 69.9508 454.448 69.6508C455.448 69.3508 455.738 69.6508 456.498 68.9808C457.258 68.3108 456.848 67.9208 457.208 66.9808C457.568 66.0408 457.378 65.9308 457.728 64.9808C458.078 64.0308 458.238 64.0607 458.598 63.0807C458.676 62.8351 458.82 62.6162 459.016 62.4491C459.212 62.2819 459.451 62.1733 459.706 62.1358C459.96 62.0982 460.22 62.1331 460.456 62.2366C460.692 62.3401 460.894 62.5079 461.038 62.7208Z" fill="#7B564C"/>
<path opacity="0.5" d="M276.339 113.69C277.339 112.97 277.249 112.82 278.269 112.1C279.289 111.38 279.869 111.93 280.459 110.83C281.049 109.73 280.299 109.55 280.339 108.31C280.379 107.07 280.619 107.07 280.659 105.82C280.652 105.618 280.702 105.419 280.803 105.244C280.903 105.069 281.05 104.925 281.227 104.829C281.404 104.732 281.605 104.687 281.807 104.698C282.008 104.709 282.203 104.775 282.369 104.89C283.369 105.64 283.309 105.71 284.309 106.46C285.309 107.21 285.049 107.84 286.309 108.06C287.569 108.28 287.479 107.46 288.679 107.06C289.879 106.66 289.929 106.89 291.119 106.54C291.307 106.461 291.515 106.442 291.714 106.485C291.914 106.528 292.095 106.631 292.235 106.78C292.374 106.929 292.465 107.117 292.494 107.319C292.523 107.521 292.49 107.728 292.399 107.91C291.989 109.09 291.899 109.05 291.499 110.23C291.099 111.41 290.649 111.42 290.819 112.65C290.989 113.88 291.589 113.65 292.289 114.65C292.989 115.65 293.039 115.65 293.749 116.65C293.854 116.832 293.91 117.037 293.913 117.246C293.915 117.456 293.864 117.663 293.763 117.846C293.663 118.03 293.517 118.185 293.339 118.296C293.161 118.407 292.958 118.471 292.749 118.48C291.509 118.48 291.509 118.43 290.259 118.41C289.009 118.39 288.899 117.83 287.779 118.41C286.659 118.99 286.999 119.41 286.239 120.36C285.479 121.31 285.458 121.36 284.698 122.36C284.579 122.523 284.416 122.649 284.228 122.724C284.041 122.8 283.836 122.822 283.637 122.787C283.438 122.753 283.252 122.664 283.1 122.53C282.949 122.397 282.837 122.224 282.779 122.03C282.409 120.84 282.528 120.8 282.168 119.61C281.808 118.42 282.119 118.24 281.259 117.34C280.399 116.44 280.199 116.72 279.029 116.34C277.859 115.96 277.759 116.2 276.589 115.78C276.389 115.7 276.214 115.567 276.083 115.397C275.953 115.226 275.87 115.023 275.844 114.809C275.819 114.596 275.851 114.379 275.938 114.182C276.025 113.985 276.163 113.815 276.339 113.69Z" fill="#AA918C"/>
<path d="M0.339575 149.691C0.385392 150.18 0.619785 150.632 0.993109 150.951C1.36643 151.27 1.84936 151.431 2.33957 151.4C3.05957 151.28 3.66957 150.59 4.33957 150.4C5.00957 150.21 5.85958 150.521 6.55958 150.321C7.25958 150.121 7.80957 149.44 8.48957 149.2C9.16957 148.96 9.90958 148.85 10.5796 148.58C11.2496 148.31 11.9596 148.111 12.5796 147.791C13.1996 147.471 13.8296 147.05 14.4596 146.68C15.0896 146.31 15.8096 146.09 16.3996 145.68C16.9896 145.27 17.6196 144.851 18.2696 144.471C18.9196 144.091 19.3596 143.371 20.0296 143.041C20.6996 142.711 21.4696 142.591 22.1596 142.311C22.8496 142.031 23.5796 141.871 24.2896 141.631C24.9996 141.391 25.7196 141.241 26.4396 141.041C27.1596 140.841 27.8196 140.441 28.5496 140.281C29.2796 140.121 30.0596 140.281 30.7896 140.191C31.5196 140.101 32.2496 139.95 32.9896 139.87C33.7296 139.79 34.4696 139.87 35.2096 139.87C35.9496 139.87 36.6796 139.511 37.4196 139.511C38.1596 139.511 38.9096 139.43 39.6496 139.46C40.3896 139.49 41.1296 139.7 41.8696 139.77C42.6096 139.84 43.3296 140.051 44.0596 140.161C44.7896 140.271 45.5596 140.16 46.2896 140.36C47.0196 140.56 47.7896 140.51 48.5096 140.71C49.2296 140.91 49.7796 141.611 50.5096 141.851C51.2396 142.091 52.0496 141.991 52.7296 142.281C53.4096 142.571 54.0696 142.961 54.7296 143.281C55.3896 143.601 55.9096 144.21 56.5496 144.58C57.1896 144.95 58.1196 144.901 58.7196 145.321C59.3196 145.741 59.5996 146.691 60.2396 147.061C60.8796 147.431 61.7696 147.361 62.4396 147.691C63.1096 148.021 63.6096 148.691 64.2996 148.971C64.9896 149.251 65.6696 149.59 66.3696 149.83C67.0696 150.07 67.7796 150.361 68.4996 150.561C69.2196 150.761 70.0096 150.661 70.7396 150.821C71.4696 150.981 72.2296 150.821 72.9696 150.981C73.7096 151.141 74.3696 151.731 75.1096 151.811C75.8496 151.891 76.6196 151.6 77.3596 151.64C78.0996 151.68 78.8496 151.821 79.5896 151.821C80.3296 151.821 81.0596 151.37 81.7996 151.33C82.5396 151.29 83.3296 151.84 84.0696 151.77C84.8096 151.7 85.5596 151.621 86.2896 151.511C87.0196 151.401 87.6396 150.621 88.3696 150.511C89.0996 150.401 89.8796 150.51 90.5896 150.27C91.2996 150.03 92.1096 150.11 92.8096 149.87C93.5096 149.63 94.1596 149.2 94.8096 148.92C95.4596 148.64 96.2096 148.391 96.8696 148.061C97.5296 147.731 97.9496 146.941 98.5896 146.561C99.2296 146.181 100.06 146.13 100.67 145.71C101.28 145.29 101.89 144.881 102.53 144.501C103.17 144.121 103.92 143.98 104.59 143.65C105.26 143.32 105.73 142.651 106.42 142.321C107.11 141.991 107.82 141.801 108.52 141.561C109.22 141.321 110.03 141.421 110.75 141.221C111.47 141.021 112.08 140.43 112.81 140.27C113.54 140.11 114.36 140.531 115.1 140.411C115.84 140.291 116.48 139.57 117.22 139.49C117.96 139.41 118.72 139.49 119.46 139.43C120.2 139.37 120.95 139.27 121.7 139.27C122.45 139.27 123.18 139.681 123.92 139.721C124.66 139.761 125.43 139.5 126.16 139.58C126.89 139.66 127.59 140.141 128.32 140.261C129.05 140.381 129.84 140.21 130.56 140.37C131.28 140.53 131.93 141.051 132.64 141.251C133.35 141.451 134.16 141.361 134.86 141.601C135.56 141.841 136.1 142.511 136.78 142.791C137.46 143.071 138.34 142.921 139 143.251C139.66 143.581 140.3 144.011 140.93 144.381C141.56 144.751 142.33 144.981 142.93 145.381C143.53 145.781 143.93 146.57 144.56 146.95C145.19 147.33 146.05 147.301 146.72 147.631C147.39 147.961 147.89 148.63 148.58 148.9C149.27 149.17 149.9 149.62 150.58 149.9C151.26 150.18 152.02 150.311 152.74 150.511C153.46 150.711 154.24 150.65 154.97 150.8C155.7 150.95 156.43 151.02 157.17 151.14C157.91 151.26 158.65 151.14 159.39 151.21C160.13 151.28 160.82 151.971 161.56 152.011C162.3 152.051 163.06 151.9 163.8 151.9C164.54 151.9 165.29 151.831 166.03 151.791C166.77 151.751 167.51 151.6 168.25 151.52C168.99 151.44 169.68 151.06 170.41 150.95C171.14 150.84 171.89 150.841 172.61 150.691C173.33 150.541 174.09 150.491 174.81 150.291C175.53 150.091 176.34 150.19 177.04 149.95C177.74 149.71 178.37 149.23 179.04 148.95C179.71 148.67 180.34 148.23 181.04 147.9C181.74 147.57 182.29 147.12 182.93 146.74C183.57 146.36 184.44 146.34 185.05 145.92C185.66 145.5 186.15 144.921 186.79 144.531C187.43 144.141 188.1 143.861 188.79 143.531C189.48 143.201 190.16 143.011 190.85 142.721C191.54 142.431 192.22 142.19 192.92 141.95C193.62 141.71 194.25 141.25 194.92 141.05C195.59 140.85 196.29 140.391 197.02 140.231C197.75 140.071 198.5 140.03 199.24 139.92C199.98 139.81 200.73 139.82 201.47 139.74C202.21 139.66 202.95 139.68 203.7 139.64C204.45 139.6 205.18 139.7 205.92 139.7C206.66 139.7 207.41 139.531 208.15 139.571C208.89 139.611 209.66 139.431 210.4 139.501C211.14 139.571 211.89 139.671 212.63 139.791C213.37 139.911 214.05 140.34 214.77 140.49C215.49 140.64 216.29 140.581 217 140.781C217.71 140.981 218.24 141.781 218.94 142.031C219.64 142.281 220.48 142.15 221.16 142.43C221.84 142.71 222.37 143.36 223.03 143.68C223.69 144 224.33 144.37 224.96 144.74C225.59 145.11 226.39 145.25 226.96 145.67C227.53 146.09 228.28 146.28 228.91 146.67C229.54 147.06 230.04 147.67 230.69 147.95C231.34 148.23 232.08 148.39 232.76 148.67C233.44 148.95 233.94 149.671 234.64 149.881C235.34 150.091 236.2 149.75 236.9 149.95C237.6 150.15 238.23 150.581 238.9 150.731C239.57 150.881 240.3 151.12 241.02 151.24C241.227 151.271 241.439 151.255 241.64 151.192C241.84 151.13 242.024 151.023 242.178 150.88C242.331 150.737 242.451 150.561 242.527 150.366C242.604 150.17 242.635 149.96 242.62 149.751C242.62 148.631 242.55 148.631 242.55 147.511C242.55 146.391 243.06 146.39 243.06 145.27C243.06 144.15 242.61 144.161 242.61 143.041C242.61 141.921 242.84 141.92 242.84 140.8C242.84 139.68 242.41 139.691 242.41 138.571C242.41 137.451 242.83 137.45 242.83 136.34C242.83 135.23 242.56 135.221 242.56 134.101C242.56 132.981 242.41 132.99 242.41 131.87C242.41 130.75 242.41 130.75 242.41 129.64C242.41 128.53 242.67 128.521 242.67 127.411C242.67 126.301 242.67 126.29 242.67 125.17C242.67 124.05 243 124.061 243 122.941C243 121.821 242.46 121.82 242.46 120.71C242.46 119.6 242.87 119.591 242.87 118.471C242.87 117.351 242.47 117.351 242.47 116.231C242.47 115.111 243.04 115.11 243.04 113.99C243.04 112.87 242.57 112.881 242.57 111.761C242.57 110.641 242.79 110.64 242.79 109.52C242.79 108.4 242.99 108.411 242.99 107.291C242.99 106.171 242.7 106.171 242.7 105.061C242.7 103.951 243.06 103.941 243.06 102.821C243.06 101.701 242.88 101.7 242.88 100.59C242.88 99.4805 243 99.4705 243 98.3505V96.0905C243 94.9705 242.78 94.9705 242.78 93.8505C242.78 92.7305 242.92 92.7305 242.92 91.6105C242.92 90.4905 243.08 90.4905 243.08 89.3705C243.08 88.2505 242.53 88.2605 242.53 87.1405C242.53 86.0205 242.42 86.0205 242.42 84.9005C242.42 83.7805 242.81 83.7805 242.81 82.6705C242.81 81.5605 242.87 81.5505 242.87 80.4305C242.87 79.3105 242.8 79.3105 242.8 78.1905C242.8 77.0705 243.04 77.0705 243.04 75.9505C243.04 74.8305 242.71 74.8405 242.71 73.7205C242.71 72.6005 242.71 72.6005 242.71 71.4805C242.71 70.3605 242.71 70.3605 242.71 69.2405C242.71 68.1205 242.57 68.1305 242.57 67.0105C242.57 65.8905 243.11 65.8905 243.11 64.7705C243.11 63.6505 242.66 63.6505 242.66 62.5305C242.66 61.4105 242.5 61.4105 242.5 60.2905C242.5 59.1705 243.09 59.1705 243.09 58.0605C243.09 56.9505 242.7 56.9405 242.7 55.8205C242.7 54.7005 243.1 54.7005 243.1 53.5805C243.1 52.4605 242.81 52.4605 242.81 51.3405C242.81 50.2205 242.69 50.2205 242.69 49.1005C242.69 47.9805 242.4 47.9805 242.4 46.8605C242.4 45.7405 242.53 45.7405 242.53 44.6305C242.53 43.5205 242.4 43.5105 242.4 42.3905C242.4 41.2705 242.73 41.2705 242.73 40.1505C242.73 39.0305 242.63 39.0305 242.63 37.9105C242.63 36.7905 242.63 36.7905 242.63 35.6705C242.63 34.5505 242.69 34.5605 242.69 33.4405C242.69 32.3205 242.8 32.3205 242.8 31.2005C242.8 30.0805 242.88 30.0905 242.88 28.9705C242.88 27.8505 242.81 27.8505 242.81 26.7305C242.81 25.6105 242.56 25.6105 242.56 24.4905C242.56 23.3705 242.88 23.3705 242.88 22.2505C242.88 21.1305 242.99 21.1305 242.99 20.0105C242.99 18.8905 243.06 18.8905 243.06 17.7705C243.06 16.6505 242.81 16.6505 242.81 15.5305C242.81 14.4105 242.81 14.4105 242.81 13.2905C242.81 12.1705 242.88 12.1705 242.88 11.0505C242.88 9.93052 242.97 9.93047 242.97 8.81047C242.97 7.69047 242.56 7.69048 242.56 6.57048C242.56 5.45048 242.8 5.45049 242.8 4.33049C242.8 3.21049 242.37 3.2105 242.37 2.0905C242.37 0.970501 242.6 0.970511 242.6 -0.149489C242.6 -1.26949 242.66 -1.26948 242.66 -2.38948C242.66 -3.50948 243.03 -3.50948 243.03 -4.63948C243.03 -5.76948 242.76 -5.75947 242.76 -6.87947C242.76 -7.99947 242.76 -7.99947 242.76 -9.12947C242.76 -10.2595 243.76 -10.8195 242.98 -11.6195C242.2 -12.4195 241.62 -11.7095 240.5 -11.7095C239.38 -11.7095 239.38 -11.0895 238.26 -11.0895C237.14 -11.0895 237.13 -11.5595 236.01 -11.5595C234.89 -11.5595 234.89 -11.1595 233.77 -11.1595C232.65 -11.1595 232.65 -11.6695 231.53 -11.6695C230.41 -11.6695 230.41 -11.6695 229.28 -11.6695C228.15 -11.6695 228.16 -11.7295 227.04 -11.7295C225.92 -11.7295 225.92 -11.1195 224.8 -11.1195C223.68 -11.1195 223.67 -11.2595 222.55 -11.2595C221.43 -11.2595 221.43 -11.6095 220.31 -11.6095C219.19 -11.6095 219.19 -11.3595 218.07 -11.3595C216.95 -11.3595 216.94 -11.7195 215.82 -11.7195C214.7 -11.7195 214.7 -11.4095 213.58 -11.4095C212.46 -11.4095 212.46 -11.3495 211.34 -11.3495C210.22 -11.3495 210.22 -11.2295 209.1 -11.2295C207.98 -11.2295 207.97 -11.1095 206.85 -11.1095C205.73 -11.1095 205.73 -11.5695 204.61 -11.5695C203.49 -11.5695 203.49 -11.4195 202.37 -11.4195C201.25 -11.4195 201.24 -11.5095 200.12 -11.5095C199 -11.5095 199 -11.1495 197.88 -11.1495C196.76 -11.1495 196.76 -11.2295 195.63 -11.2295C194.5 -11.2295 194.51 -11.2295 193.39 -11.2295C192.27 -11.2295 192.27 -11.5495 191.15 -11.5495C190.03 -11.5495 190.02 -11.2295 188.9 -11.2295C187.78 -11.2295 187.78 -11.4895 186.66 -11.4895H184.42C183.3 -11.4895 183.3 -11.6495 182.18 -11.6495C181.06 -11.6495 181.06 -11.3195 179.94 -11.3195C178.82 -11.3195 178.83 -11.4895 177.71 -11.4895C176.59 -11.4895 176.59 -11.3895 175.47 -11.3895C174.35 -11.3895 174.35 -11.5295 173.23 -11.5295C172.11 -11.5295 172.11 -11.4295 170.99 -11.4295C169.87 -11.4295 169.87 -11.3395 168.75 -11.3395C167.63 -11.3395 167.63 -11.5495 166.51 -11.5495C165.39 -11.5495 165.39 -11.6195 164.27 -11.6195C163.15 -11.6195 163.15 -11.1495 162.03 -11.1495C160.91 -11.1495 160.91 -11.0895 159.78 -11.0895C158.65 -11.0895 158.66 -11.0195 157.54 -11.0195C156.42 -11.0195 156.42 -11.3095 155.29 -11.3095C154.16 -11.3095 154.17 -11.1495 153.05 -11.1495C151.93 -11.1495 151.93 -11.6095 150.81 -11.6095C149.69 -11.6095 149.69 -11.7195 148.57 -11.7195C147.45 -11.7195 147.45 -11.0495 146.33 -11.0495C145.21 -11.0495 145.21 -11.5395 144.09 -11.5395C142.97 -11.5395 142.97 -11.5395 141.85 -11.5395C140.73 -11.5395 140.72 -11.6495 139.6 -11.6495C138.48 -11.6495 138.48 -11.4895 137.36 -11.4895C136.24 -11.4895 136.24 -11.0695 135.12 -11.0695C134 -11.0695 134 -11.0695 132.88 -11.0695C131.76 -11.0695 131.76 -11.2795 130.63 -11.2795C129.5 -11.2795 129.51 -11.4495 128.39 -11.4495H126.34C125.22 -11.4495 125.22 -11.2495 124.1 -11.2495H121.86C120.73 -11.2495 120.73 -11.4995 119.61 -11.4995C118.49 -11.4995 118.49 -11.5595 117.37 -11.5595H115.13C114.01 -11.5595 114.01 -11.3195 112.89 -11.3195C111.77 -11.3195 111.76 -11.0595 110.64 -11.0595C109.52 -11.0595 109.52 -11.0595 108.4 -11.0595C107.28 -11.0595 107.27 -10.9495 106.15 -10.9495C105.03 -10.9495 105.03 -11.4895 103.9 -11.4895C102.77 -11.4895 102.78 -11.3495 101.66 -11.3495C100.54 -11.3495 100.54 -11.1895 99.4196 -11.1895C98.2996 -11.1895 98.2896 -11.0695 97.1696 -11.0695C96.0496 -11.0695 96.0496 -11.3095 94.9296 -11.3095C93.8096 -11.3095 93.8096 -11.2195 92.6796 -11.2195C91.5496 -11.2195 91.5596 -11.5395 90.4396 -11.5395C89.3196 -11.5395 89.3096 -11.2395 88.1896 -11.2395C87.0696 -11.2395 87.0696 -11.5395 85.9496 -11.5395C84.8296 -11.5395 84.8196 -11.1695 83.6996 -11.1695C82.5796 -11.1695 82.5796 -11.3995 81.4596 -11.3995C80.3396 -11.3995 80.3296 -11.3995 79.2096 -11.3995C78.0896 -11.3995 78.0896 -11.0495 76.9596 -11.0495C75.8296 -11.0495 75.8396 -11.2495 74.7196 -11.2495C73.5996 -11.2495 73.5896 -11.3095 72.4696 -11.3095C71.3496 -11.3095 71.3496 -11.3095 70.2296 -11.3095C69.1096 -11.3095 69.0996 -11.5995 67.9796 -11.5995C66.8596 -11.5995 66.8596 -11.2995 65.7296 -11.2995H63.4896C62.3596 -11.2995 62.3596 -11.0595 61.2396 -11.0595C60.1196 -11.0595 60.1196 -11.3595 58.9896 -11.3595C57.8596 -11.3595 57.8696 -10.9795 56.7396 -10.9795C55.6096 -10.9795 55.6196 -10.9795 54.4996 -10.9795C53.3796 -10.9795 53.3696 -11.3695 52.2496 -11.3695C51.1296 -11.3695 51.1296 -11.5295 49.9996 -11.5295C48.8696 -11.5295 48.8796 -10.9795 47.7596 -10.9795C46.6396 -10.9795 46.6396 -11.3195 45.5196 -11.3195H43.3396C42.2196 -11.3195 42.2196 -11.5495 41.0996 -11.5495C39.9796 -11.5495 39.9696 -11.2995 38.8496 -11.2995C37.7296 -11.2995 37.7296 -11.2095 36.6096 -11.2095C35.4896 -11.2095 35.4796 -11.4495 34.3596 -11.4495C33.2396 -11.4495 33.2296 -11.5695 32.1096 -11.5695C30.9896 -11.5695 30.9896 -11.4395 29.8596 -11.4395C28.7296 -11.4395 28.7396 -11.0895 27.6096 -11.0895C26.4796 -11.0895 26.4896 -11.3595 25.3696 -11.3595C24.2496 -11.3595 24.2396 -10.9295 23.1196 -10.9295C21.9996 -10.9295 21.9896 -10.9995 20.8696 -10.9995C19.7496 -10.9995 19.7396 -11.2395 18.6196 -11.2395H16.3396C15.2196 -11.2395 15.2196 -11.2395 14.0896 -11.2395C12.9596 -11.2395 12.9696 -11.1195 11.8396 -11.1195C10.7096 -11.1195 10.7196 -11.1195 9.58957 -11.1195C8.45957 -11.1195 8.46957 -11.3595 7.33957 -11.3595C6.20957 -11.3595 6.20957 -11.2595 5.08957 -11.2595C3.96957 -11.2595 3.95958 -10.8095 2.82958 -10.8095C1.69958 -10.8095 1.18958 -12.1095 0.389578 -11.3195C-0.410422 -10.5295 0.269568 -10.0195 0.269568 -8.89949C0.269568 -7.77949 0.369574 -7.7795 0.369574 -6.6595C0.369574 -5.5395 0.869574 -5.53952 0.869574 -4.42952C0.869574 -3.31952 0.379568 -3.30953 0.379568 -2.18953C0.379568 -1.06953 0.71958 -1.06949 0.71958 0.040513C0.71958 1.15051 0.279577 1.1605 0.279577 2.2805C0.279577 3.4005 0.279577 3.39048 0.279577 4.51048C0.279577 5.63048 0.909582 5.63052 0.909582 6.74052C0.909582 7.85052 0.639578 7.8605 0.639578 8.9705C0.639578 10.0805 0.21958 10.0905 0.21958 11.2105C0.21958 12.3305 0.429571 12.3205 0.429571 13.4405C0.429571 14.5605 0.609579 14.5605 0.609579 15.6705C0.609579 16.7805 0.479574 16.7905 0.479574 17.9105C0.479574 19.0305 0.799582 19.0205 0.799582 20.1405C0.799582 21.2605 0.479574 21.2605 0.479574 22.3805C0.479574 23.5005 0.479574 23.5005 0.479574 24.6205C0.479574 25.7405 0.629568 25.7405 0.629568 26.8505C0.629568 27.9605 0.169577 27.9705 0.169577 29.0905C0.169577 30.2105 0.669577 30.2105 0.669577 31.3205C0.669577 32.4305 0.609579 32.4405 0.609579 33.5605C0.609579 34.6805 0.529577 34.6705 0.529577 35.7905C0.529577 36.9105 0.359579 36.9105 0.359579 38.0205C0.359579 39.1305 0.359579 39.1405 0.359579 40.2605C0.359579 41.3805 0.82958 41.3805 0.82958 42.5005C0.82958 43.6205 0.45957 43.6205 0.45957 44.7405C0.45957 45.8605 0.45957 45.8505 0.45957 46.9705C0.45957 48.0905 0.399572 48.0905 0.399572 49.2105C0.399572 50.3305 0.509573 50.3305 0.509573 51.4405C0.509573 52.5505 0.309576 52.5605 0.309576 53.6805C0.309576 54.8005 0.309576 54.8005 0.309576 55.9105C0.309576 57.0205 0.539572 57.0305 0.539572 58.1505C0.539572 59.2705 0.879568 59.2705 0.879568 60.3905C0.879568 61.5105 0.299582 61.5105 0.299582 62.6305C0.299582 63.7505 0.739569 63.7505 0.739569 64.8605C0.739569 65.9705 0.659582 65.9805 0.659582 67.1005C0.659582 68.2205 0.479574 68.2205 0.479574 69.3405C0.479574 70.4605 0.599569 70.4605 0.599569 71.5705C0.599569 72.6805 0.659582 72.6905 0.659582 73.8105C0.659582 74.9305 0.599569 74.9305 0.599569 76.0505C0.599569 77.1705 0.359579 77.1705 0.359579 78.2905C0.359579 79.4105 0.199576 79.4105 0.199576 80.5305C0.199576 81.6505 0.539572 81.6405 0.539572 82.7605C0.539572 83.8805 0.229574 83.8805 0.229574 85.0005C0.229574 86.1205 0.479574 86.1205 0.479574 87.2405C0.479574 88.3605 0.82958 88.3605 0.82958 89.4805C0.82958 90.6005 0.409582 90.6005 0.409582 91.7205C0.409582 92.8405 0.169577 92.8405 0.169577 93.9605C0.169577 95.0805 0.389578 95.0805 0.389578 96.1905C0.389578 97.3005 0.769568 97.3105 0.769568 98.4305C0.769568 99.5505 0.519568 99.5505 0.519568 100.67C0.519568 101.79 0.169577 101.791 0.169577 102.911C0.169577 104.031 0.859579 104.02 0.859579 105.14C0.859579 106.26 0.339575 105.99 0.339575 107.09C0.339575 108.19 0.939581 108.21 0.939581 109.33C0.939581 110.45 0.299582 110.451 0.299582 111.561C0.299582 112.671 0.70957 112.68 0.70957 113.8C0.70957 114.92 0.939581 114.921 0.939581 116.041C0.939581 117.161 0.939581 117.161 0.939581 118.281C0.939581 119.401 0.249579 119.4 0.249579 120.52C0.249579 121.64 0.839575 121.641 0.839575 122.761C0.839575 123.881 0.619574 123.881 0.619574 125.001C0.619574 126.121 0.919577 126.12 0.919577 127.24C0.919577 128.36 0.529577 128.361 0.529577 129.481C0.529577 130.601 0.809576 130.601 0.809576 131.721C0.809576 132.841 0.809576 132.84 0.809576 133.96C0.809576 135.08 0.45957 135.08 0.45957 136.2C0.45957 137.32 0.299582 137.321 0.299582 138.441C0.299582 139.561 0.899572 139.56 0.899572 140.68C0.899572 141.8 0.989569 141.81 0.989569 142.93C0.989569 144.05 0.269568 144.05 0.269568 145.17C0.269568 146.29 0.949568 146.31 0.879568 147.43C0.809568 148.55 0.339575 148.561 0.339575 149.691Z" fill="#8E7167"/>
<path opacity="0.8" d="M207.166 35.9909C207.436 37.2009 207.466 37.2009 207.736 38.4109C208.006 39.6209 207.546 39.9109 208.336 40.8709C209.126 41.8309 209.566 41.2609 210.706 41.7709C211.846 42.2809 211.786 42.4009 212.926 42.9109C213.12 42.9874 213.289 43.1166 213.414 43.2839C213.538 43.4513 213.614 43.6502 213.632 43.8581C213.649 44.0661 213.608 44.2748 213.514 44.4608C213.419 44.6469 213.274 44.8027 213.096 44.9109L210.946 46.0909C209.876 46.7309 209.386 46.2309 208.716 47.2709C208.046 48.3109 208.656 48.5509 208.526 49.7909C208.396 51.0309 208.236 51.0109 208.096 52.2509C208.101 52.45 208.047 52.6462 207.94 52.8142C207.833 52.9822 207.678 53.1145 207.495 53.194C207.313 53.2735 207.111 53.2966 206.915 53.2604C206.719 53.2242 206.538 53.1304 206.396 52.9909C205.456 52.1709 205.396 52.2609 204.446 51.4309C203.496 50.6009 203.916 49.8609 202.706 49.5409C201.496 49.2209 201.426 49.7809 200.206 50.0409C198.986 50.3009 198.996 50.3309 197.776 50.5809C197.578 50.6338 197.369 50.6319 197.172 50.5752C196.975 50.5186 196.797 50.4094 196.657 50.2594C196.518 50.1094 196.421 49.9242 196.379 49.7236C196.336 49.523 196.349 49.3147 196.416 49.1209C196.906 47.9809 197.186 48.1209 197.686 46.9509C198.186 45.7809 198.576 45.8509 198.506 44.6109C198.436 43.3709 197.956 43.5109 197.336 42.4309C196.716 41.3509 196.566 41.4309 195.946 40.3509C195.855 40.1658 195.816 39.9597 195.832 39.7541C195.848 39.5485 195.919 39.3511 196.037 39.1824C196.156 39.0137 196.318 38.88 196.506 38.7953C196.694 38.7105 196.901 38.6779 197.106 38.7009C198.346 38.8209 198.346 38.8409 199.586 38.9609C200.826 39.0809 200.856 39.4109 202.016 38.9609C203.176 38.5109 202.826 38.1009 203.656 37.1809C204.486 36.2609 204.656 36.4109 205.496 35.4809C205.611 35.3291 205.77 35.2162 205.951 35.1575C206.132 35.0989 206.327 35.0972 206.509 35.1529C206.691 35.2085 206.852 35.3187 206.969 35.4685C207.087 35.6184 207.155 35.8007 207.166 35.9909Z" fill="#7B564C"/>
<path opacity="0.5" d="M181.936 14.0906C182.476 14.7706 182.536 14.7306 183.076 15.4106C183.616 16.0906 183.286 16.5306 184.076 16.9006C184.866 17.2706 184.996 16.8106 185.866 16.7806C186.736 16.7506 186.736 16.7806 187.606 16.7806C187.745 16.7655 187.885 16.7906 188.01 16.8529C188.136 16.9153 188.24 17.0123 188.312 17.1324C188.383 17.2524 188.419 17.3906 188.414 17.5303C188.41 17.67 188.365 17.8055 188.286 17.9206C187.806 18.6506 187.726 18.6006 187.286 19.3306C186.846 20.0606 186.456 19.9506 186.356 20.8206C186.256 21.6906 186.586 21.6806 186.886 22.5006C187.186 23.3206 187.306 23.2706 187.596 24.0906C187.639 24.2296 187.643 24.3776 187.608 24.5188C187.573 24.6599 187.5 24.7888 187.397 24.8917C187.294 24.9945 187.165 25.0674 187.024 25.1024C186.883 25.1375 186.735 25.1334 186.596 25.0906C185.756 24.8606 185.736 24.9206 184.896 24.6906C184.056 24.4606 184.076 23.9106 183.216 24.0706C182.356 24.2306 182.546 24.6906 181.856 25.2206C181.166 25.7506 181.126 25.7106 180.436 26.2206C180.34 26.3098 180.219 26.3678 180.089 26.3871C179.96 26.4064 179.827 26.3861 179.709 26.3288C179.592 26.2714 179.494 26.1798 179.429 26.0659C179.364 25.9521 179.335 25.8212 179.346 25.6906C179.346 24.8206 179.286 24.8206 179.246 23.9506C179.206 23.0806 179.556 22.9506 179.136 22.1806C178.716 21.4106 178.336 21.7606 177.616 21.2706C176.896 20.7806 176.946 20.7006 176.226 20.2106C176.105 20.1341 176.008 20.0259 175.944 19.8977C175.881 19.7696 175.854 19.6265 175.866 19.4841C175.879 19.3417 175.93 19.2054 176.014 19.0902C176.099 18.9749 176.214 18.8851 176.346 18.8306L177.986 18.2306C178.796 17.9206 179.076 18.3306 179.666 17.6906C180.256 17.0506 179.866 16.8206 180.106 15.9806C180.346 15.1406 180.456 15.1806 180.706 14.3406C180.736 14.2118 180.802 14.0943 180.897 14.002C180.992 13.9098 181.111 13.8468 181.241 13.8205C181.37 13.7941 181.505 13.8056 181.628 13.8535C181.751 13.9014 181.858 13.9837 181.936 14.0906Z" fill="#AA918C"/>
<path opacity="0.5" d="M26.8181 106.091C28.0581 106.091 28.0681 105.941 29.3081 105.981C30.5481 106.021 30.6881 106.811 31.8181 106.291C32.9481 105.771 32.4681 105.181 33.2481 104.201C34.0281 103.221 34.2481 103.391 35.0081 102.421C35.1251 102.258 35.285 102.13 35.4701 102.052C35.6551 101.974 35.8582 101.948 36.0569 101.978C36.2555 102.008 36.442 102.092 36.5958 102.222C36.7495 102.351 36.8645 102.52 36.9281 102.711C37.2781 103.901 37.1881 103.931 37.5281 105.121C37.8681 106.311 37.2881 106.671 38.1381 107.591C38.9881 108.511 39.4281 107.811 40.5981 108.251C41.7681 108.691 41.6881 108.871 42.8581 109.311C43.054 109.363 43.2294 109.474 43.361 109.628C43.4926 109.783 43.5741 109.974 43.5947 110.175C43.6153 110.377 43.574 110.58 43.4764 110.758C43.3788 110.936 43.2294 111.08 43.0481 111.171C42.0481 111.871 41.9681 111.791 40.9281 112.491C39.8881 113.191 39.5381 112.921 38.9281 114.001C38.3181 115.081 38.9281 115.271 38.9281 116.511C38.9281 117.751 38.9281 117.761 38.8681 119.001C38.8432 119.211 38.7639 119.412 38.6381 119.582C38.5122 119.753 38.3441 119.887 38.1504 119.973C37.9566 120.059 37.7438 120.093 37.533 120.071C37.3222 120.05 37.1206 119.974 36.9481 119.851C35.9481 119.091 35.9481 119.061 35.0081 118.291C34.0681 117.521 34.2681 117.011 33.0081 116.771C31.7481 116.531 31.8081 117.071 30.6081 117.401C29.4081 117.731 29.3981 117.701 28.1981 118.031C28.0044 118.086 27.7992 118.087 27.605 118.034C27.4108 117.98 27.235 117.874 27.0968 117.728C26.9585 117.581 26.8632 117.4 26.8211 117.203C26.779 117.006 26.7918 116.801 26.8581 116.611C27.2881 115.441 27.4081 115.481 27.8581 114.311C28.3081 113.141 28.6581 113.181 28.5081 111.941C28.3581 110.701 28.0381 110.821 27.3581 109.771C26.6781 108.721 26.4281 108.901 25.7481 107.851C25.6512 107.667 25.6036 107.462 25.6099 107.254C25.6162 107.047 25.6762 106.845 25.784 106.668C25.8918 106.49 26.0437 106.344 26.225 106.243C26.4062 106.142 26.6106 106.089 26.8181 106.091Z" fill="#AA918C"/>
<path opacity="0.5" d="M74.6767 118.15C75.5367 117.98 75.5067 117.83 76.3567 117.66C77.2067 117.49 77.3567 117.85 78.0367 117.32C78.7167 116.79 78.4567 116.59 78.8367 115.8C79.2167 115.01 79.2167 115.02 79.5867 114.23C79.6544 114.098 79.755 113.986 79.8788 113.904C80.0027 113.823 80.1455 113.775 80.2934 113.765C80.4414 113.755 80.5894 113.783 80.7231 113.847C80.8568 113.911 80.9717 114.009 81.0567 114.13C81.4867 114.89 81.4367 114.91 81.8667 115.68C82.2967 116.45 81.8667 116.82 82.6067 117.31C83.3467 117.8 83.5367 117.31 84.4067 117.38C85.2767 117.45 85.2467 117.62 86.1167 117.73C86.253 117.743 86.383 117.794 86.4918 117.877C86.6005 117.961 86.6836 118.073 86.7316 118.201C86.7796 118.329 86.7905 118.469 86.7631 118.603C86.7357 118.737 86.6711 118.861 86.5767 118.96C85.9867 119.6 86.0567 119.67 85.4667 120.31C84.8767 120.95 84.4167 120.69 84.1767 121.52C83.9367 122.35 84.3567 122.4 84.5167 123.26C84.6767 124.12 84.7867 124.09 84.9467 124.95C84.9638 125.095 84.942 125.242 84.8834 125.376C84.8248 125.509 84.7316 125.625 84.6133 125.711C84.4951 125.796 84.3561 125.849 84.2108 125.863C84.0655 125.877 83.9191 125.852 83.7867 125.79C82.9967 125.43 82.9367 125.55 82.1467 125.18C81.3567 124.81 81.4767 124.27 80.6067 124.3C79.7367 124.33 79.8867 124.85 79.1167 125.3C78.3467 125.75 78.2667 125.56 77.5067 125.97C77.3875 126.047 77.2492 126.089 77.1073 126.092C76.9654 126.094 76.8257 126.057 76.704 125.984C76.5822 125.911 76.4833 125.806 76.4184 125.679C76.3535 125.553 76.3252 125.411 76.3367 125.27C76.4367 124.4 76.4967 124.41 76.6067 123.54C76.7167 122.67 77.1767 122.61 76.8767 121.79C76.5767 120.97 76.0967 121.29 75.4667 120.69C74.8367 120.09 74.9267 120 74.2967 119.4C74.1852 119.313 74.1026 119.194 74.06 119.059C74.0173 118.925 74.0165 118.78 74.0576 118.645C74.0987 118.509 74.1799 118.39 74.2904 118.301C74.4009 118.213 74.5356 118.16 74.6767 118.15Z" fill="#AA918C"/>
<path opacity="0.8" d="M50.6665 96.0004C51.5865 95.5204 51.6065 95.5504 52.5265 95.0804C53.4465 94.6104 53.5265 94.7104 54.4365 94.2404C55.3465 93.7704 55.5765 94.0404 56.1865 93.2404C56.7965 92.4404 56.3565 92.2404 56.5265 91.2404C56.6965 90.2404 56.7565 90.2404 56.9265 89.2404C57.0965 88.2404 56.9965 88.2404 57.1665 87.1704C57.2206 86.9209 57.342 86.6909 57.5175 86.5054C57.6929 86.3199 57.9158 86.1859 58.1619 86.1179C58.4081 86.0499 58.6681 86.0506 58.9139 86.1197C59.1597 86.1889 59.3819 86.324 59.5565 86.5104C60.2865 87.2404 60.3065 87.2204 61.0465 87.9504C61.7865 88.6804 61.9965 88.4704 62.7365 89.2004C63.4765 89.9304 63.0865 90.4804 64.0665 90.8004C65.0465 91.1204 65.1165 90.8004 66.1465 90.6804C67.1765 90.5604 67.1465 90.1304 68.1465 89.9804C69.1465 89.8304 69.2065 90.0404 70.2365 89.8804C70.5018 89.8474 70.7712 89.8835 71.0184 89.9854C71.2657 90.0872 71.4824 90.2513 71.6474 90.4617C71.8125 90.6721 71.9204 90.9215 71.9605 91.1859C72.0006 91.4503 71.9717 91.7205 71.8765 91.9704C71.4065 92.8904 71.0665 92.7304 70.6065 93.6504C70.1465 94.5704 70.3765 94.6504 69.9065 95.6504C69.4365 96.6504 69.0165 96.4204 69.0165 97.4604C69.0165 98.5004 69.3465 98.3904 69.8165 99.3204L70.7365 101.18C71.2065 102.11 71.3865 102.02 71.8565 102.95C71.9533 103.206 71.9841 103.481 71.946 103.751C71.9079 104.022 71.8022 104.278 71.6386 104.496C71.475 104.715 71.2588 104.888 71.0102 105.001C70.7616 105.114 70.4886 105.162 70.2165 105.14C69.2165 104.98 69.2165 104.7 68.2165 104.54C67.2165 104.38 67.1365 104.69 66.1165 104.54C65.0965 104.39 65.0365 103.68 64.0465 104.01C63.0565 104.34 63.3165 104.8 62.5765 105.53C61.8365 106.26 61.9565 106.39 61.2165 107.12C60.4765 107.85 60.3065 107.68 59.5665 108.41C59.4034 108.593 59.191 108.725 58.9547 108.79C58.7184 108.855 58.4683 108.85 58.2347 108.776C58.0011 108.702 57.7938 108.562 57.638 108.373C57.4822 108.184 57.3844 107.954 57.3565 107.71C57.1865 106.71 56.9765 106.71 56.8065 105.71C56.6365 104.71 56.8065 104.65 56.6565 103.63C56.5065 102.61 56.7265 102.54 56.1165 101.7C55.5065 100.86 55.3965 101.02 54.4765 100.55C53.5565 100.08 53.4765 100.3 52.4765 99.8204C51.4765 99.3404 51.6965 99.0604 50.7765 98.5804C50.5101 98.4927 50.2768 98.3259 50.1076 98.1022C49.9384 97.8786 49.8413 97.6086 49.8294 97.3284C49.8174 97.0482 49.8911 96.7711 50.0407 96.5338C50.1902 96.2965 50.4085 96.1105 50.6665 96.0004Z" fill="#7B564C"/>
</g>
</svg>
