<svg width="611" height="65" viewBox="0 0 611 65" fill="none" xmlns="http://www.w3.org/2000/svg">
<path d="M610.133 69.4493C611.203 68.3893 609.923 67.8692 609.923 66.3692C609.923 64.8692 609.863 64.8692 609.863 63.3692C609.863 61.8692 609.953 61.8692 609.953 60.3692C609.953 58.8692 609.903 58.8692 609.903 57.3692C609.903 55.8692 610.063 55.8692 610.063 54.3692C610.063 52.8692 609.923 52.8792 609.923 51.3692C609.923 49.8592 610.113 49.8692 610.113 48.3692C610.113 46.8692 610.063 46.8692 610.063 45.3692C610.063 43.8692 610.153 43.8692 610.153 42.3692C610.153 40.8692 609.963 40.8692 609.963 39.3692C609.963 37.8692 609.883 37.8692 609.883 36.3692C609.883 34.8692 610.163 34.8692 610.163 33.3692C610.163 31.8692 609.933 31.8692 609.933 30.3692C609.933 28.8692 610.223 28.8692 610.223 27.3692C610.223 25.8692 610.083 25.8692 610.083 24.3692C610.083 22.8692 609.903 22.8692 609.903 21.3692C609.903 19.8692 610.103 19.8692 610.103 18.3692C610.103 16.8692 610.103 16.8692 610.103 15.3692C610.103 13.8692 610.053 13.8692 610.053 12.3692C610.053 10.8692 610.163 10.8692 610.163 9.36922C610.163 7.86922 610.243 7.85922 610.243 6.36922C610.243 4.87922 610.243 4.86922 610.243 3.36922C610.243 1.86922 611.323 1.16926 610.103 0.289263C608.883 -0.590737 608.613 0.769264 607.203 1.28926C605.793 1.80926 605.793 1.78926 604.373 2.28926C602.953 2.78926 603.013 2.92926 601.603 3.40926L598.763 4.40926C597.353 4.88926 597.283 4.68927 595.863 5.16927C594.443 5.64927 594.513 5.81928 593.103 6.30928C591.693 6.79928 591.663 6.72931 590.253 7.20931C588.843 7.68931 588.813 7.60932 587.403 8.09932C585.993 8.58932 586.043 8.74921 584.633 9.23921C583.223 9.72921 583.193 9.64924 581.783 10.1392C580.373 10.6292 580.323 10.4693 578.903 10.9593C577.483 11.4493 577.533 11.5493 576.123 12.0393C574.713 12.5293 574.773 12.7193 573.353 13.2093C571.933 13.6993 571.913 13.6093 570.493 14.0893C569.073 14.5693 569.113 14.6893 567.703 15.1693C566.293 15.6493 566.183 15.3693 564.773 15.8493C563.363 16.3293 563.433 16.5493 562.023 17.0393C560.613 17.5293 560.523 17.2792 559.113 17.7692C557.703 18.2592 557.753 18.4092 556.343 18.8992C554.933 19.3892 554.953 19.4492 553.533 19.8992C552.113 20.3492 552.083 20.2592 550.663 20.7492C549.243 21.2392 549.223 21.1592 547.813 21.6392C546.403 22.1192 546.413 22.1792 545.003 22.6392C543.593 23.0992 543.543 23.0092 542.133 23.4992L539.293 24.4992C537.883 24.9792 537.933 25.1492 536.523 25.6292C535.113 26.1092 535.153 26.2393 533.733 26.7193C532.313 27.1993 532.273 27.0593 530.853 27.5493C529.433 28.0393 529.423 27.9893 528.013 28.4693C526.603 28.9493 526.633 29.0593 525.213 29.5493C523.793 30.0393 523.743 29.8493 522.323 30.3393C520.903 30.8293 520.963 30.9793 519.543 31.4693C518.123 31.9593 518.163 32.0293 516.743 32.4693C515.323 32.9093 515.303 32.8892 513.893 33.3692C512.483 33.8492 512.513 33.9693 511.103 34.4493C509.693 34.9293 509.643 34.8393 508.233 35.3193C506.823 35.7993 506.843 35.8992 505.433 36.3792C504.023 36.8592 504.023 36.8992 502.603 37.3792C501.183 37.8592 501.163 37.7792 499.743 38.2692C498.323 38.7592 498.273 38.5893 496.863 39.0793C495.453 39.5693 495.503 39.7492 494.093 40.2292C492.683 40.7092 492.613 40.5493 491.203 41.0393C489.793 41.5293 489.863 41.7392 488.443 42.2292C487.023 42.7192 486.943 42.4693 485.533 42.9593C484.123 43.4493 484.153 43.5693 482.743 44.0493C481.333 44.5293 481.363 44.6492 479.943 45.1392C478.523 45.6292 478.493 45.5192 477.083 46.0092C475.673 46.4992 475.623 46.3692 474.203 46.8592C472.783 47.3492 472.893 47.6592 471.473 48.1392C470.053 48.6192 470.013 48.4793 468.593 48.9693C467.173 49.4593 467.123 49.2993 465.713 49.7893C464.303 50.2793 464.323 50.3493 462.903 50.7893C461.483 51.2293 461.523 51.3792 460.103 51.8592C458.683 52.3392 458.643 52.1993 457.223 52.6893C455.803 53.1793 455.883 53.3992 454.473 53.8792C453.063 54.3592 452.983 54.1593 451.573 54.6493C450.163 55.1393 450.113 55.0292 448.703 55.5192C447.293 56.0092 447.313 56.0692 445.893 56.5192C444.473 56.9692 444.553 57.2193 443.133 57.7093C441.713 58.1993 441.633 57.9493 440.213 58.4393L437.383 59.4393C435.963 59.9193 436.023 60.0793 434.603 60.5693C433.183 61.0593 433.193 61.0793 431.773 61.5693C430.353 62.0593 430.383 62.1392 428.963 62.6192C427.543 63.0992 427.463 62.8693 426.043 63.3493C424.623 63.8293 424.683 63.9992 423.273 64.4892C421.863 64.9792 421.783 64.7792 420.363 65.2692C418.943 65.7592 419.013 65.9293 417.593 66.4193C416.173 66.9093 416.213 67.0292 414.803 67.5192C413.393 68.0092 413.273 67.6993 411.853 68.1893C410.433 68.6793 408.783 67.8293 409.023 69.3093C409.263 70.7893 410.553 69.1092 412.023 69.1092C413.493 69.1092 413.523 69.4193 415.023 69.4193C416.523 69.4193 416.523 69.1693 418.023 69.1693C419.523 69.1693 419.523 69.2793 421.023 69.2793C422.523 69.2793 422.523 69.1392 424.023 69.1392C425.523 69.1392 425.523 69.4393 427.023 69.4393C428.523 69.4393 428.513 69.2392 430.023 69.2392C431.533 69.2392 431.523 69.1793 433.023 69.1793C434.523 69.1793 434.513 69.1793 436.023 69.1793C437.533 69.1793 437.523 69.4792 439.023 69.4792H442.023H445.023C446.523 69.4792 446.523 69.4792 448.023 69.4792C449.523 69.4792 449.513 69.4792 451.023 69.4792C452.533 69.4792 452.523 69.2692 454.023 69.2692C455.523 69.2692 455.513 69.2692 457.023 69.2692C458.533 69.2692 458.523 69.3692 460.023 69.3692C461.523 69.3692 461.523 69.4792 463.023 69.4792H466.023C467.523 69.4792 467.523 69.4792 469.023 69.4792C470.523 69.4792 470.523 69.2193 472.023 69.2193H478.023C479.523 69.2193 479.523 69.3093 481.023 69.3093C482.523 69.3093 482.523 69.4193 484.023 69.4193H487.023C488.523 69.4193 488.523 69.4892 490.023 69.4892C491.523 69.4892 491.523 69.2093 493.023 69.2093C494.523 69.2093 494.523 69.2093 496.023 69.2093C497.523 69.2093 497.523 69.2993 499.023 69.2993C500.523 69.2993 500.523 69.3992 502.023 69.3992C503.523 69.3992 503.513 69.2492 505.023 69.2492C506.533 69.2492 506.533 69.2492 508.023 69.2492C509.513 69.2492 509.523 69.3393 511.023 69.3393C512.523 69.3393 512.523 69.4193 514.023 69.4193C515.523 69.4193 515.523 69.4193 517.023 69.4193C518.523 69.4193 518.523 69.2193 520.023 69.2193C521.523 69.2193 521.523 69.4792 523.023 69.4792C524.523 69.4792 524.523 69.2392 526.023 69.2392C527.523 69.2392 527.523 69.5192 529.023 69.5192C530.523 69.5192 530.523 69.3093 532.023 69.3093C533.523 69.3093 533.523 69.4393 535.023 69.4393C536.523 69.4393 536.523 69.3892 538.023 69.3892H541.023C542.523 69.3892 542.523 69.5793 544.023 69.5793C545.523 69.5793 545.533 69.2893 547.023 69.2893C548.513 69.2893 548.523 69.2893 550.023 69.2893C551.523 69.2893 551.523 69.3493 553.023 69.3493C554.523 69.3493 554.523 69.4693 556.023 69.4693C557.523 69.4693 557.523 69.3592 559.023 69.3592C560.523 69.3592 560.523 69.3592 562.023 69.3592C563.523 69.3592 563.523 69.5092 565.023 69.5092C566.523 69.5092 566.523 69.2492 568.023 69.2492C569.523 69.2492 569.523 69.2492 571.023 69.2492C572.523 69.2492 572.523 69.3992 574.023 69.3992C575.523 69.3992 575.523 69.3193 577.023 69.3193C578.523 69.3193 578.533 69.3193 580.023 69.3193C581.513 69.3193 581.523 69.6392 583.023 69.6392C584.523 69.6392 584.523 69.2893 586.023 69.2893H589.023C590.523 69.2893 590.523 69.3992 592.023 69.3992C593.523 69.3992 593.523 69.3992 595.023 69.3992C596.523 69.3992 596.523 69.5693 598.023 69.5693C599.523 69.5693 599.523 69.4193 601.023 69.4193C602.523 69.4193 602.523 69.5493 604.023 69.5493C605.021 69.4111 606.036 69.4415 607.023 69.6392C608.613 69.9292 609.073 70.5093 610.133 69.4493Z" fill="#B5CDEB"/>
<path d="M0.67277 69.3467C-0.39723 68.2867 0.472773 67.9367 0.472773 66.4367C0.472773 64.9367 0.532771 64.9367 0.532771 63.4367C0.532771 61.9367 0.662776 61.9367 0.662776 60.4367C0.662776 58.9367 0.412776 58.9367 0.412776 57.4367C0.412776 55.9367 0.702769 55.9367 0.702769 54.4367C0.702769 52.9367 0.702769 52.9467 0.702769 51.4367C0.702769 49.9267 0.702769 49.9367 0.702769 48.4367C0.702769 46.9367 0.592768 46.9367 0.592768 45.4367C0.592768 43.9367 0.67277 43.9367 0.67277 42.4367C0.67277 40.9367 0.772776 40.9367 0.772776 39.4367C0.772776 37.9367 0.582774 37.9367 0.582774 36.4367C0.582774 34.9367 0.462779 34.9367 0.462779 33.4367C0.462779 31.9367 0.462779 31.9367 0.462779 30.4367C0.462779 28.9367 0.67277 28.9367 0.67277 27.4367C0.67277 25.9367 0.762767 25.9367 0.762767 24.4367C0.762767 22.9367 0.712779 22.9367 0.712779 21.4367C0.712779 19.9367 0.492778 19.9367 0.492778 18.4367C0.492778 16.9367 0.722773 16.9367 0.722773 15.4367C0.722773 13.9367 0.722773 13.9367 0.722773 12.4367C0.722773 10.9367 0.482768 10.9367 0.482768 9.43667C0.482768 7.93667 0.482768 7.92667 0.482768 6.43667C0.482768 4.94667 0.632777 4.93667 0.632777 3.43667C0.632777 1.93667 -0.707233 1.16676 0.512767 0.286763C1.73277 -0.593237 2.06277 0.786763 3.51277 1.28676C4.96277 1.78676 4.86277 1.94666 6.28277 2.42666C7.70277 2.90666 7.72277 2.82667 9.14277 3.31667C10.5628 3.80667 10.5228 3.90674 11.9328 4.38674C13.3428 4.86674 13.3728 4.78675 14.7928 5.27675C16.2128 5.76675 16.2028 5.7367 17.6228 6.2267C19.0428 6.7167 18.9828 6.84668 20.4028 7.32668C21.8228 7.80668 21.8728 7.64673 23.2828 8.12673C24.6928 8.60673 24.6328 8.78675 26.0428 9.27675L28.8728 10.2768C30.2828 10.7568 30.3128 10.6868 31.7228 11.1668C33.1328 11.6468 33.1828 11.5267 34.5928 12.0167C36.0028 12.5067 36.0028 12.5167 37.4128 13.0167C38.8228 13.5167 38.7428 13.7767 40.1528 14.2567C41.5628 14.7367 41.6028 14.6467 43.0228 15.1267C44.4428 15.6067 44.4828 15.4867 45.8928 15.9767C47.3028 16.4667 47.2728 16.5666 48.6828 17.0466C50.0928 17.5266 50.0828 17.5866 51.4928 18.0466C52.9028 18.5066 52.9928 18.2867 54.4028 18.7667C55.8128 19.2467 55.8328 19.1967 57.2528 19.6867C58.6728 20.1767 58.6328 20.2467 60.0528 20.6867C61.4728 21.1267 61.4828 21.1267 62.8928 21.6067C64.3028 22.0867 64.2128 22.3867 65.6228 22.8767L68.4628 23.8767C69.8728 24.3667 69.9628 24.1167 71.3728 24.5967C72.7828 25.0767 72.7128 25.3066 74.1228 25.7966C75.5328 26.2866 75.6128 26.0867 77.0228 26.5767L79.8428 27.5767C81.2628 28.0667 81.2028 28.2367 82.6128 28.7267C84.0228 29.2167 84.1228 28.9367 85.5328 29.4267C86.9428 29.9167 86.8628 30.1667 88.2828 30.6467C89.7028 31.1267 89.6628 31.2267 91.0828 31.7067C92.5028 32.1867 92.5728 31.9967 93.9828 32.4767C95.3928 32.9567 95.3228 33.1768 96.7428 33.6668C98.1628 34.1568 98.1628 34.1368 99.5728 34.6668C100.983 35.1968 101.023 35.0468 102.443 35.5368C103.863 36.0268 103.853 36.0468 105.263 36.5368C106.673 37.0268 106.673 37.0368 108.093 37.5368C109.513 38.0368 109.483 38.0868 110.903 38.5368C112.323 38.9868 112.343 38.9567 113.753 39.4367C115.163 39.9167 115.203 39.8167 116.623 40.3067C118.043 40.7967 118.033 40.8067 119.453 41.3067L122.293 42.3067C123.703 42.7867 123.683 42.8467 125.103 43.3067C126.523 43.7667 126.553 43.6967 127.963 44.1867C129.373 44.6767 129.353 44.7667 130.763 45.2567C132.173 45.7467 132.243 45.5468 133.663 46.0368C135.083 46.5268 135.003 46.7467 136.423 47.2367L139.253 48.2367C140.673 48.7167 140.723 48.5566 142.143 49.0466C143.563 49.5366 143.503 49.6867 144.923 50.1767C146.343 50.6667 146.423 50.4067 147.843 50.8967C149.263 51.3867 149.173 51.6267 150.583 52.1167C151.993 52.6067 152.023 52.5468 153.433 53.0368L156.273 54.0368L159.093 55.0368C160.513 55.5268 160.483 55.5968 161.903 56.0368C163.323 56.4768 163.353 56.4368 164.763 56.9168C166.173 57.3968 166.213 57.3166 167.633 57.7966C169.053 58.2766 168.993 58.4367 170.413 58.9267C171.833 59.4167 171.883 59.2567 173.303 59.7467C174.723 60.2367 174.663 60.3967 176.073 60.8767C177.483 61.3567 177.503 61.3367 178.923 61.8267L181.763 62.8267C183.183 63.3167 183.203 63.2467 184.623 63.7367L187.463 64.7367C188.873 65.2167 188.863 65.2567 190.283 65.7367C191.703 66.2167 191.743 66.0967 193.163 66.5867L195.983 67.5867C197.413 68.0767 197.383 68.1367 198.803 68.5867C200.223 69.0367 201.803 68.0967 201.583 69.5867C201.363 71.0767 200.143 69.5867 198.643 69.5867C197.143 69.5867 197.143 69.5067 195.643 69.5067C194.143 69.5067 194.143 69.6767 192.643 69.6767C191.143 69.6767 191.143 69.6767 189.643 69.6767H186.643C185.143 69.6767 185.143 69.4367 183.643 69.4367C182.143 69.4367 182.153 69.6468 180.643 69.6468C179.133 69.6468 179.143 69.4867 177.643 69.4867C176.143 69.4867 176.153 69.4867 174.643 69.4867H171.643H168.643C167.143 69.4867 167.143 69.7868 165.643 69.7868C164.143 69.7868 164.143 69.8567 162.643 69.8567C161.143 69.8567 161.153 69.6167 159.643 69.6167C158.133 69.6167 158.143 69.6167 156.643 69.6167H153.643C152.143 69.6167 152.143 69.6167 150.643 69.6167C149.143 69.6167 149.153 69.7667 147.643 69.7667C146.133 69.7667 146.143 69.7667 144.643 69.7667C143.143 69.7667 143.143 69.5667 141.643 69.5667C140.143 69.5667 140.143 69.7667 138.643 69.7667C137.143 69.7667 137.143 69.7667 135.643 69.7667C134.143 69.7667 134.143 69.5767 132.643 69.5767C131.143 69.5767 131.143 69.6867 129.643 69.6867C128.143 69.6867 128.143 69.4767 126.643 69.4767C125.143 69.4767 125.143 69.7167 123.643 69.7167C122.143 69.7167 122.143 69.7167 120.643 69.7167C119.143 69.7167 119.143 69.4667 117.643 69.4667C116.143 69.4667 116.143 69.7267 114.643 69.7267C113.143 69.7267 113.143 69.5767 111.643 69.5767C110.143 69.5767 110.143 69.5067 108.643 69.5067C107.143 69.5067 107.153 69.5067 105.643 69.5067C104.133 69.5067 104.143 69.3467 102.643 69.3467C101.143 69.3467 101.143 69.6767 99.6428 69.6767C98.1428 69.6767 98.1428 69.5368 96.6428 69.5368H93.6428C92.1428 69.5368 92.1428 69.5368 90.6428 69.5368C89.1428 69.5368 89.1328 69.6767 87.6428 69.6767C86.1528 69.6767 86.1428 69.5867 84.6428 69.5867C83.1428 69.5867 83.1428 69.7567 81.6428 69.7567C80.1428 69.7567 80.1428 69.6568 78.6428 69.6568C77.1428 69.6568 77.1428 69.7667 75.6428 69.7667C74.1428 69.7667 74.1428 69.5567 72.6428 69.5567C71.1428 69.5567 71.1428 69.6167 69.6428 69.6167C68.1428 69.6167 68.1428 69.6867 66.6428 69.6867C65.1428 69.6867 65.1428 69.3968 63.6428 69.3968C62.1428 69.3968 62.1428 69.6967 60.6428 69.6967C59.1428 69.6967 59.1428 69.3767 57.6428 69.3767C56.1428 69.3767 56.1428 69.3767 54.6428 69.3767H51.6428C50.1428 69.3767 50.1428 69.6167 48.6428 69.6167H45.6428C44.1428 69.6167 44.1428 69.4367 42.6428 69.4367C41.1428 69.4367 41.1428 69.6267 39.6428 69.6267H36.6428C35.1428 69.6267 35.1428 69.6867 33.6428 69.6867C32.1428 69.6867 32.1328 69.6067 30.6428 69.6067C29.1528 69.6067 29.1428 69.3968 27.6428 69.3968C26.1428 69.3968 26.1428 69.6167 24.6428 69.6167H21.6428C20.1428 69.6167 20.1428 69.4168 18.6428 69.4168C17.1428 69.4168 17.1328 69.5167 15.6428 69.5167C14.1528 69.5167 14.1428 69.6767 12.6428 69.6767C11.1428 69.6767 11.1428 69.3467 9.64277 69.3467C8.14277 69.3467 8.14277 69.6867 6.64277 69.6867C5.14277 69.6867 5.14277 69.3867 3.64277 69.6867C2.14277 69.9867 1.73277 70.4067 0.67277 69.3467Z" fill="#B5CDEB"/>
</svg>
