<svg width="105" height="178" viewBox="0 0 105 178" fill="none" xmlns="http://www.w3.org/2000/svg">
<path d="M22.5911 169.65C22.6011 169.531 22.6011 169.41 22.5911 169.29H10.7011C10.71 168.523 10.8006 167.759 10.9711 167.01V166.88C10.9711 166.77 10.9711 166.65 10.9711 166.53C10.9711 166.06 10.8711 165.53 10.8711 164.82C10.8711 164.44 10.8711 164.05 10.8711 163.66V162.58C10.8776 161.813 10.9647 161.049 11.1311 160.3C11.1311 160.3 11.1311 160.23 11.1311 160.19V159.93C11.0476 159.321 11.0042 158.706 11.0011 158.09V157.01C11.0011 156.83 11.0011 156.65 11.0011 156.46C10.6697 155.536 10.494 154.562 10.4811 153.58C10.4913 152.858 10.5683 152.138 10.7111 151.43V151.34C10.7111 151.34 10.7111 151.28 10.7111 151.25C10.5678 150.539 10.4908 149.816 10.4811 149.09C10.4906 148.169 10.6563 147.256 10.9711 146.39C10.8685 145.799 10.815 145.2 10.8111 144.6C10.8235 143.851 10.9038 143.105 11.0511 142.37C11.0568 142.304 11.0568 142.237 11.0511 142.17V141.05V140.89C10.6624 139.937 10.4555 138.92 10.4411 137.89C10.4497 137.143 10.5402 136.398 10.7111 135.67C10.5176 134.926 10.4168 134.16 10.4111 133.39C10.4151 132.648 10.5263 131.911 10.7411 131.2C10.4961 130.455 10.3712 129.675 10.3711 128.89C10.3771 128.255 10.4239 127.62 10.5111 126.99C10.5111 126.86 10.5111 126.72 10.5611 126.58C10.6111 126.44 10.5611 125.98 10.5611 125.65C10.5611 125.32 10.5611 124.81 10.5611 124.4C10.5688 123.678 10.6425 122.959 10.7811 122.25C10.7811 122.17 10.7811 122.08 10.7811 122C10.7972 121.398 10.8506 120.796 10.9411 120.2C10.9411 120.07 10.9411 119.95 10.9411 119.82C10.9411 119.69 10.9411 119.44 10.9411 119.2C10.9411 118.73 10.8811 118.26 10.8811 117.8C10.8867 117.707 10.8867 117.614 10.8811 117.52C10.7615 116.86 10.6946 116.191 10.6811 115.52C10.6811 115.43 10.6811 115.33 10.6811 115.24C10.5529 114.554 10.486 113.858 10.4811 113.16C10.4857 112.575 10.5225 111.991 10.5911 111.41C10.601 111.244 10.601 111.077 10.5911 110.91C10.5989 110.08 10.7235 109.256 10.9611 108.46C10.8513 107.923 10.7844 107.378 10.7611 106.83V106.75C10.5325 105.916 10.4115 105.056 10.4011 104.19C10.4103 103.285 10.5518 102.385 10.8211 101.52C10.8211 101.46 10.8211 101.39 10.8211 101.33C10.8211 100.89 10.7311 100.33 10.7311 99.7104C10.738 99.0404 10.7948 98.3719 10.9011 97.7104C10.9011 97.5903 10.9011 97.4604 10.9511 97.3404C11.0011 97.2204 10.9511 96.8804 10.9511 96.6104C10.9511 96.1304 10.9511 95.6603 10.9511 95.1903C10.9511 94.7203 10.9511 94.4803 10.9511 94.1303C10.9511 93.7803 10.9511 93.3404 10.9511 92.9504C10.9511 92.8304 10.9511 92.6804 10.9511 92.5304C10.8682 91.9272 10.8248 91.3192 10.8211 90.7104V89.5004C10.8211 89.1504 10.8211 88.8104 10.8211 88.5004C10.831 87.8027 10.8979 87.1071 11.0211 86.4204C11.0211 86.3304 11.0211 86.2403 11.0211 86.1504C11.0211 85.8704 11.0211 85.6004 11.0211 85.3304V84.5604C10.7198 83.6606 10.5612 82.7192 10.5511 81.7703C10.5624 80.7106 10.7727 79.6624 11.1711 78.6804C11.1711 78.3104 11.2311 77.9704 11.2711 77.6804C10.9813 76.8265 10.8294 75.932 10.8211 75.0304C10.8297 74.253 10.9202 73.4787 11.0911 72.7204V72.5503C11.0532 72.0379 11.0466 71.5236 11.0711 71.0104C10.741 70.046 10.5918 69.0289 10.6311 68.0104C10.6633 67.3554 10.7435 66.7036 10.8711 66.0604C10.9033 65.9085 10.9267 65.7549 10.9411 65.6003C10.9411 65.4503 10.9411 65.2904 10.9411 65.1304C10.8914 64.4646 10.8914 63.7961 10.9411 63.1304C11.0489 62.2045 11.288 61.2988 11.6511 60.4404V60.3704C11.7304 59.9406 11.8373 59.5164 11.9711 59.1003C11.685 58.0331 11.6474 56.9144 11.8611 55.8304C12.0463 54.9642 12.3385 54.1244 12.7311 53.3304L12.7911 53.2104C12.9694 52.5548 13.2036 51.9158 13.4911 51.3004C13.5319 51.2189 13.5686 51.1355 13.6011 51.0504L13.7511 50.4304C13.8711 49.9304 14.0111 49.3604 14.2111 48.7304L14.3711 48.2204C14.5711 47.5804 14.7711 46.9604 14.9911 46.3503C15.2096 45.7671 15.4738 45.2021 15.7811 44.6604C15.7933 43.5678 16.0387 42.4904 16.5011 41.5004C16.9136 40.6393 17.4872 39.8654 18.1911 39.2204C18.3698 38.4635 18.6632 37.7385 19.0611 37.0704C19.1811 36.8703 19.2911 36.6704 19.4011 36.4704C19.6811 35.9804 19.9911 35.4704 20.4011 34.8604C20.9656 34.0668 21.6388 33.3565 22.4011 32.7504L22.5411 32.5303C22.8477 32.0163 23.1815 31.5189 23.5411 31.0404L23.6311 30.8704C24.0341 30.0986 24.5312 29.3798 25.1111 28.7304C25.71 28.1059 26.3814 27.5553 27.1111 27.0904C27.5897 26.3593 28.1536 25.6879 28.7911 25.0904C29.5808 24.4 30.4887 23.858 31.4711 23.4904L31.5511 23.4204C31.9011 23.1004 32.3311 22.7004 32.8611 22.2904C32.9195 22.2386 32.973 22.1817 33.0211 22.1204C33.5749 21.523 34.188 20.9835 34.8511 20.5104C35.5232 20.063 36.2404 19.6876 36.9911 19.3904L37.2011 19.3004C37.6611 19.0204 38.1211 18.7704 38.5911 18.5204L39.2111 18.1704C40.0156 17.7235 40.8767 17.3871 41.7711 17.1704L41.9911 17.1104C41.8174 17.1707 41.6499 17.2477 41.4911 17.3404L47.2311 27.7704C46.4971 28.1632 45.718 28.4654 44.9111 28.6704L44.2811 29.0204C44.0111 29.1704 43.7411 29.3104 43.4711 29.4804C42.8931 29.8316 42.2878 30.1359 41.6611 30.3904C41.1744 30.904 40.6422 31.3726 40.0711 31.7904C39.8911 31.9204 39.7411 32.0804 39.5811 32.2204C39.2511 32.5304 38.9211 32.8304 38.5811 33.1204C37.9713 33.603 37.2984 34 36.5811 34.3004C36.2531 34.7619 35.885 35.1936 35.4811 35.5904C35.0471 36.0399 34.5754 36.4514 34.0711 36.8204C33.7547 37.4109 33.3831 37.9701 32.9611 38.4904C32.8711 38.6104 32.7811 38.7704 32.6811 38.9204C32.4344 39.327 32.1644 39.727 31.8711 40.1204C31.3868 40.7565 30.8297 41.3338 30.2111 41.8404C30.1011 42.0104 30.0111 42.1904 29.9011 42.3704C29.8815 42.4124 29.8581 42.4526 29.8311 42.4904C29.699 43.4338 29.4046 44.3473 28.9611 45.1904C28.6385 45.8038 28.2274 46.3665 27.7411 46.8604C27.6511 47.4996 27.4797 48.1246 27.2311 48.7204C27.0059 49.2538 26.7453 49.7716 26.4511 50.2704C26.3911 50.3604 26.3411 50.4604 26.2811 50.5604C26.1411 50.9804 26.0011 51.4004 25.8711 51.8304L25.6911 52.3904C25.6111 52.6604 25.5511 52.9404 25.4811 53.2204C25.4111 53.5004 25.3011 53.9704 25.1911 54.3404C25.0212 54.9589 24.797 55.5613 24.5211 56.1404C24.5211 56.2304 24.4511 56.3104 24.4111 56.4004C24.3165 56.7814 24.1963 57.1556 24.0511 57.5204C24.262 58.4526 24.2926 59.4166 24.1411 60.3604C24.016 61.0774 23.8217 61.7807 23.5611 62.4604L23.5011 62.6204C23.3728 63.3042 23.1786 63.974 22.9211 64.6204V64.7604C22.9501 65.3233 22.9501 65.8874 22.9211 66.4504C22.8829 66.9433 22.8195 67.4339 22.7311 67.9204C23.0061 68.8234 23.1212 69.7676 23.0711 70.7104C23.047 71.3063 22.9902 71.9006 22.9011 72.4903C22.9011 72.6203 22.9011 72.7604 22.8411 72.9004C22.8329 73.5214 22.7693 74.1406 22.6511 74.7504C22.9182 75.5779 23.0598 76.4408 23.0711 77.3104C23.0623 77.9297 23.0122 78.5477 22.9211 79.1603C22.9211 79.3003 22.9211 79.4404 22.9211 79.5904C22.9161 80.3918 22.788 81.1878 22.5411 81.9504C22.701 82.6252 22.7782 83.3169 22.7711 84.0104C22.7711 84.3104 22.7711 84.6003 22.7711 84.9004C22.7711 85.3503 22.7711 85.8004 22.7711 86.2604C22.7613 86.931 22.6978 87.5998 22.5811 88.2604C22.5811 88.3604 22.5811 88.4604 22.5811 88.5604C22.5811 88.9104 22.5811 89.2703 22.5811 89.6303V90.7104C22.5737 90.8402 22.5737 90.9705 22.5811 91.1003C22.6682 91.7133 22.7149 92.3313 22.7211 92.9504C22.7211 93.2904 22.7211 93.6404 22.7211 93.9504C22.7211 94.2604 22.7211 94.7603 22.7211 95.1603C22.7211 95.5603 22.7211 95.7004 22.7211 95.9704C22.7211 96.4404 22.7211 96.9203 22.7211 97.4103C22.715 98.06 22.6616 98.7084 22.5611 99.3503C22.5611 99.4803 22.5611 99.6104 22.5611 99.7403C22.5611 99.8703 22.5611 100.05 22.5611 100.25C22.5611 100.7 22.6511 101.25 22.6511 101.89C22.6429 102.689 22.5286 103.482 22.3111 104.25C22.4597 104.88 22.5468 105.523 22.5711 106.17C22.5663 106.24 22.5663 106.31 22.5711 106.38C22.7189 107.118 22.7992 107.868 22.8111 108.62C22.7963 109.557 22.6447 110.487 22.3611 111.38C22.3611 111.85 22.3011 112.26 22.2611 112.6C22.2611 112.74 22.2611 112.88 22.2611 113.01C22.2611 113.14 22.2611 113.17 22.2611 113.26C22.3787 113.904 22.4456 114.556 22.4611 115.21C22.4611 115.3 22.4611 115.39 22.4611 115.48C22.5898 116.173 22.6601 116.876 22.6711 117.58C22.6711 117.82 22.6711 118.06 22.6711 118.29C22.6711 118.8 22.7311 119.29 22.7311 119.82C22.7278 120.49 22.6743 121.159 22.5711 121.82C22.5711 121.94 22.5711 122.07 22.5711 122.2C22.5555 122.872 22.4819 123.541 22.3511 124.2C22.3511 124.28 22.3511 124.36 22.3511 124.44C22.3511 124.72 22.3511 125 22.3511 125.29C22.3511 125.58 22.3511 126.12 22.3511 126.54C22.3501 127.028 22.3201 127.516 22.2611 128C22.6751 128.947 22.8961 129.967 22.9111 131C22.9109 131.924 22.7379 132.84 22.4011 133.7C22.5289 134.292 22.5926 134.895 22.5911 135.5C22.5905 136.129 22.5235 136.756 22.3911 137.37C22.6981 138.21 22.8571 139.096 22.8611 139.99C22.8611 140.43 22.8611 140.87 22.8611 141.3C22.8611 141.73 22.8611 141.92 22.8611 142.24C22.8487 142.989 22.7684 143.736 22.6211 144.47V144.59C22.7598 145.295 22.8334 146.012 22.8411 146.73C22.8341 147.657 22.6719 148.577 22.3611 149.45C22.4647 150.038 22.5182 150.634 22.5211 151.23C22.5137 151.861 22.4535 152.49 22.3411 153.11C22.6181 153.95 22.7631 154.827 22.7711 155.71C22.7711 156.07 22.7711 156.43 22.7711 156.79C22.7711 157.15 22.7711 157.57 22.7711 157.95C22.7711 158.08 22.7711 158.23 22.7711 158.38C22.854 158.984 22.8974 159.592 22.9011 160.2C22.89 160.974 22.8029 161.744 22.6411 162.5V162.66V164.66C22.6308 164.847 22.6308 165.034 22.6411 165.22C22.6411 165.68 22.7311 166.22 22.7311 166.9C22.723 167.681 22.6325 168.459 22.4611 169.22C22.4917 169.367 22.5352 169.511 22.5911 169.65Z" fill="#5A6D3B"/>
<path d="M32.1188 9.31022L34.1188 7.95022C35.1188 7.27022 35.1188 7.25022 36.0488 6.57022C36.9788 5.89022 36.9688 5.80022 37.9388 5.12022C38.9088 4.44022 38.9388 4.48022 39.9388 3.79022C40.9388 3.10022 40.8588 3.03022 41.8388 2.35022C42.8188 1.67022 42.9288 1.83022 43.9088 1.15022C44.273 0.859874 44.6913 0.644918 45.1394 0.517871C45.5875 0.390824 46.0564 0.354229 46.5188 0.41022C47.4768 0.569466 48.3345 1.09703 48.9088 1.88022L50.1588 3.68022C50.7888 4.58022 50.6188 4.68021 51.2488 5.60021C51.8788 6.52022 51.9988 6.41022 52.6288 7.32022C53.2588 8.23022 53.1388 8.32022 53.7688 9.20022C54.3988 10.0802 54.4388 10.0702 55.0688 10.9702C55.6988 11.8702 55.7388 11.8402 56.3688 12.7402C56.9988 13.6402 56.9488 13.6702 57.5788 14.5702C58.2088 15.4702 58.1988 15.4802 58.8288 16.3802C59.4588 17.2802 59.4788 17.2702 60.1088 18.1702L61.3688 19.9702C61.9988 20.8702 61.9588 20.9002 62.5988 21.8002C63.2388 22.7002 63.2788 22.6702 63.9088 23.5702C64.5388 24.4702 64.5488 24.4702 65.1788 25.3702C65.4421 25.753 65.6256 26.185 65.7184 26.6403C65.8112 27.0956 65.8113 27.5649 65.7188 28.0202C65.661 28.4858 65.5109 28.9352 65.2774 29.3421C65.0439 29.7491 64.7316 30.1054 64.3588 30.3902C63.3588 31.0702 63.3588 31.0002 62.3588 31.6802L60.3488 33.0102C59.3488 33.7002 59.4288 33.7802 58.4488 34.4602C57.4688 35.1402 57.4488 35.0702 56.4488 35.7502C55.4488 36.4302 55.5388 36.5302 54.5588 37.2202C53.5788 37.9102 53.4788 37.7502 52.4988 38.4402C52.1255 38.7182 51.701 38.9195 51.2497 39.0328C50.7983 39.1461 50.329 39.169 49.8688 39.1002C49.4088 39.0124 48.9706 38.8348 48.5793 38.5774C48.1881 38.32 47.8515 37.9879 47.5888 37.6002C46.9588 36.7002 46.9388 36.7202 46.3088 35.8202C45.6788 34.9202 45.6688 34.9202 45.0488 34.0202C44.4288 33.1202 44.3788 33.1502 43.7488 32.2502C43.1188 31.3502 43.1788 31.2502 42.5488 30.4002C41.9188 29.5502 41.8388 29.5702 41.2088 28.6702C40.5788 27.7702 40.6188 27.7402 39.9888 26.8402C39.3588 25.9402 39.3888 25.9202 38.7688 25.0202C38.1488 24.1202 38.1588 24.1002 37.5288 23.2002C36.8988 22.3002 36.9288 22.2702 36.2988 21.3702C35.6688 20.4702 35.5488 20.5602 34.9188 19.6602C34.2888 18.7602 34.4388 18.6602 33.7988 17.7502C33.1588 16.8402 33.0688 16.9502 32.4388 16.0102C31.8088 15.0702 31.7688 15.1302 31.1388 14.2302C30.8889 13.8341 30.7197 13.3926 30.6408 12.931C30.5618 12.4695 30.5748 11.9968 30.6788 11.5402C30.7586 11.0915 30.9271 10.6632 31.1743 10.2803C31.4216 9.89738 31.7426 9.56761 32.1188 9.31022Z" fill="#4A5E2B"/>
<path d="M71.3883 53.8602C72.0231 53.4412 72.6921 53.0766 73.3883 52.7702C74.0749 52.4369 74.7872 52.1593 75.5183 51.9402C76.2593 51.749 77.0155 51.6218 77.7783 51.5602C78.5398 51.5236 79.303 51.5571 80.0583 51.6602C80.8155 51.7203 81.5654 51.8509 82.2983 52.0502C83.0461 52.2061 83.7789 52.4269 84.4883 52.7102C85.159 53.0762 85.7979 53.4977 86.3983 53.9702C87.0393 54.3816 87.6418 54.8502 88.1983 55.3702C88.7353 55.9097 89.2238 56.4953 89.6583 57.1202C90.0889 57.7532 90.4637 58.4224 90.7783 59.1202C91.1212 59.8028 91.4088 60.5117 91.6383 61.2402C91.9771 62.7317 92.0784 64.2672 91.9383 65.7902C91.8853 66.5514 91.7716 67.3071 91.5983 68.0502C91.3784 68.7807 91.094 69.4902 90.7483 70.1702C90.4373 70.87 90.0624 71.5395 89.6283 72.1702C89.1796 72.7863 88.6741 73.3588 88.1183 73.8802C87.5945 74.4299 87.0259 74.935 86.4183 75.3902C85.7869 75.8347 85.1176 76.2229 84.4183 76.5502C82.3354 77.5253 80.0246 77.9093 77.7383 77.6602C76.9751 77.624 76.216 77.5271 75.4683 77.3702C74.743 77.133 74.0403 76.8318 73.3683 76.4702C72.6742 76.1947 72.0051 75.8602 71.3683 75.4702C70.7721 74.9978 70.2168 74.476 69.7083 73.9102C69.1684 73.3779 68.6765 72.799 68.2383 72.1802C67.3411 70.9431 66.6831 69.5492 66.2983 68.0702C66.0754 67.3418 65.9149 66.5958 65.8183 65.8402C65.7881 65.0782 65.8283 64.3149 65.9383 63.5602C65.9606 62.7965 66.0544 62.0365 66.2183 61.2902C66.4356 60.5553 66.7132 59.8395 67.0483 59.1502C67.3834 58.4509 67.7782 57.7817 68.2283 57.1502C68.6404 56.5097 69.1089 55.9073 69.6283 55.3502C70.1705 54.8034 70.7594 54.3048 71.3883 53.8602Z" fill="#C0C0C0"/>
<path d="M0.840759 166.65C0.911594 165.851 1.13568 165.073 1.50076 164.36C1.81518 163.642 2.26701 162.993 2.83076 162.45C3.41611 161.942 4.09571 161.555 4.83076 161.31C5.51995 160.964 6.27141 160.76 7.04076 160.71C8.15076 160.71 8.15076 160.64 9.26077 160.64C10.3708 160.64 10.3708 160.94 11.4808 160.94C12.5908 160.94 12.5808 160.76 13.6908 160.76C14.8008 160.76 14.8008 160.92 15.9008 160.92C17.0008 160.92 17.0108 160.75 18.1208 160.75C19.2308 160.75 19.2308 160.66 20.3308 160.66C21.4308 160.66 21.4408 160.88 22.5508 160.88C23.6608 160.88 23.6608 160.88 24.7608 160.88C25.8608 160.88 25.8708 160.57 26.9808 160.57C28.0908 160.57 28.0908 160.98 29.1908 160.98C30.2908 160.98 30.3008 160.6 31.4008 160.6C32.5008 160.6 32.5108 160.71 33.6108 160.71H35.8308C36.9408 160.71 36.9408 160.66 38.0408 160.66C39.1408 160.66 39.1508 160.8 40.2608 160.8C41.3708 160.8 41.3608 160.99 42.4708 160.99C43.5808 160.99 43.5808 160.52 44.6908 160.52C45.8008 160.52 45.8008 160.69 46.9008 160.69C48.0008 160.69 48.0108 160.9 49.1208 160.9C50.2308 160.9 50.2308 160.81 51.3408 160.81C52.4508 160.81 52.4408 160.9 53.5508 160.9C54.6608 160.9 54.6608 160.56 55.7708 160.56C56.8808 160.56 56.8808 160.67 57.9908 160.67C59.1008 160.67 59.1008 160.83 60.2108 160.83C61.3208 160.83 61.3108 160.56 62.4208 160.56C63.5308 160.56 63.5308 160.66 64.6408 160.66C65.7508 160.66 65.7508 160.98 66.8608 160.98C67.9708 160.98 67.9708 160.73 69.0808 160.73C70.1908 160.73 70.1908 160.73 71.3008 160.73C72.4108 160.73 72.4108 160.86 73.5208 160.86H75.7408C76.5269 160.802 77.3162 160.914 78.0554 161.187C78.7946 161.461 79.4665 161.89 80.0257 162.445C80.585 163.001 81.0185 163.67 81.2971 164.407C81.5758 165.145 81.6929 165.933 81.6408 166.72C81.6408 167.72 81.7108 167.72 81.7108 168.79C81.7108 169.86 81.4708 169.79 81.4708 170.86C81.4708 171.93 81.6708 171.86 81.6708 172.93C81.6708 174 81.8308 173.93 81.8308 175.01C81.8308 176.09 82.3808 176.29 81.6208 177.01C80.8608 177.73 80.6208 176.89 79.4608 176.89C78.3008 176.89 78.3408 177.02 77.2208 177.02C76.1008 177.02 76.1008 177.16 74.9908 177.16C73.8808 177.16 73.8708 177.22 72.7508 177.22C71.6308 177.22 71.6308 177.1 70.5108 177.1C69.3908 177.1 69.3908 176.96 68.2708 176.96H66.0308C64.9208 176.96 64.9208 176.86 63.8008 176.86C62.6808 176.86 62.6808 177.27 61.5608 177.27C60.4408 177.27 60.4408 176.88 59.3208 176.88C58.2008 176.88 58.2008 177.1 57.0808 177.1C55.9608 177.1 55.9608 176.9 54.8408 176.9C53.7208 176.9 53.7308 177.24 52.6108 177.24C51.4908 177.24 51.4908 177.24 50.3708 177.24C49.2508 177.24 49.2308 177.01 48.0708 177.01C46.9108 177.01 46.9608 177.16 45.8408 177.16C44.7208 177.16 44.7208 176.83 43.6008 176.83C42.4808 176.83 42.4808 176.98 41.3708 176.98C40.2608 176.98 40.2508 176.83 39.1308 176.83C38.0108 176.83 38.0108 177.12 36.8908 177.12H34.6508C33.5308 177.12 33.5308 177.21 32.4108 177.21C31.2908 177.21 31.2908 177.05 30.1808 177.05H27.9708C26.8608 177.05 26.8608 177.13 25.7408 177.13C24.6208 177.13 24.6108 176.96 23.4908 176.96C22.3708 176.96 22.3708 176.81 21.2508 176.81C20.1308 176.81 20.1308 177.03 19.0108 177.03C17.8908 177.03 17.8908 177.19 16.7708 177.19C15.6508 177.19 15.6508 177.19 14.5308 177.19C13.4108 177.19 13.4108 176.85 12.2908 176.85C11.1708 176.85 11.1708 177.01 10.0708 177.01C8.97076 177.01 8.95076 177.01 7.83076 177.01C6.71076 177.01 6.71076 177.21 5.58076 177.21H3.32076C2.19076 177.21 1.87076 177.79 1.04076 177.03C0.210764 176.27 1.04076 175.97 1.04076 174.93C1.04076 173.89 0.930763 173.93 0.930763 172.86C0.930763 171.79 1.26077 171.86 1.26077 170.79C1.29574 170.093 1.29574 169.396 1.26077 168.7C1.19077 167.67 0.840759 167.69 0.840759 166.65Z" fill="#4A5E2B"/>
<path fill-rule="evenodd" clip-rule="evenodd" d="M104.119 41.0699C102.819 39.1799 102.559 39.4299 100.879 37.8599L97.5286 34.7299C95.8586 33.1599 95.9286 33.0799 94.2486 31.5199C92.5686 29.9599 92.6886 29.8199 91.0186 28.2499C89.3486 26.6799 89.3486 26.6699 87.6786 25.0999C86.0086 23.5299 85.7386 23.8099 84.0586 22.2399C82.3786 20.6699 82.2786 20.7699 80.5986 19.2399C78.9186 17.7099 79.0986 17.4699 77.4286 15.8999C76.1913 14.7173 74.5822 14.0003 72.8756 13.8708C71.1689 13.7414 69.4702 14.2075 68.0686 15.1899C66.1686 16.5199 66.1386 16.4699 64.2386 17.7999C62.3386 19.1299 62.3586 19.1499 60.4686 20.4799C58.5786 21.8099 58.5986 21.8499 56.7086 23.1799C54.8186 24.5099 54.7086 24.3799 52.8286 25.7099C50.9486 27.0399 51.0986 27.2699 49.1986 28.5999C47.2986 29.9299 47.1986 29.7999 45.3186 31.1299C43.4386 32.4599 43.3186 32.2399 41.3186 33.5699C39.3186 34.8999 39.4786 34.9899 37.5786 36.3199C36.2436 37.3983 35.3188 38.9019 34.9586 40.5799C34.4664 42.1888 34.5549 43.9195 35.2086 45.4699C36.1186 47.6099 35.8786 47.7099 36.7986 49.8498C37.7186 51.9898 37.7386 51.9799 38.6486 54.1199C39.5586 56.2599 40.0186 56.1199 40.9286 58.2099C41.8386 60.2999 41.5286 60.4899 42.4486 62.6299C43.3686 64.7699 43.4486 64.7099 44.4486 66.8498C45.4486 68.9898 45.2686 69.0299 46.1886 71.1699C47.1086 73.3099 46.9086 73.3999 47.8286 75.5399C48.7486 77.6799 48.5286 77.8099 50.0186 79.5999C51.7734 79.7201 53.5358 79.5374 55.2286 79.0599C57.0282 78.6513 58.7479 77.9485 60.3186 76.9799C61.8434 75.8727 63.1746 74.5212 64.2586 72.9799C65.3625 71.5271 66.2113 69.8972 66.7686 68.1598C68.2602 68.3848 69.777 68.3848 71.2686 68.1598C72.8321 68.1362 74.3843 67.8904 75.8786 67.4299C77.4165 67.0168 78.8879 66.3871 80.2486 65.5599C81.4984 64.5777 82.6056 63.4267 83.5386 62.1399C85.4682 59.6613 86.7254 56.7266 87.1886 53.6199C89.043 53.7873 90.9124 53.6419 92.7186 53.1899C94.4729 52.5178 96.1047 51.5617 97.5486 50.3599C98.6907 49.7106 99.7543 48.9321 100.719 48.0399C101.533 47.0056 102.222 45.8776 102.769 44.6799C103.368 43.5376 103.821 42.3248 104.119 41.0699Z" fill="#795762"/>
</svg>
