<svg width="206" height="82" viewBox="0 0 206 82" fill="none" xmlns="http://www.w3.org/2000/svg">
<path d="M204.892 70.5104C204.552 69.4504 204.332 69.5104 203.992 68.4604C203.652 67.4104 203.992 67.2904 203.632 66.2304C203.272 65.1704 203.042 65.2305 202.702 64.1805C202.362 63.1305 202.412 63.1004 202.072 62.0404C201.732 60.9804 201.672 61.0405 201.332 59.9305C200.992 58.8205 201.022 58.8504 200.682 57.7904C200.342 56.7304 200.512 56.6704 200.172 55.6104C199.832 54.5504 199.832 54.5504 199.492 53.4804C199.152 52.4104 199.182 52.4104 198.842 51.3504C198.502 50.2904 198.522 50.2804 198.192 49.2204C197.862 48.1604 197.602 48.2204 197.272 47.2204L196.592 45.0904C196.252 44.0304 196.482 43.9604 196.142 42.8904C195.802 41.8204 195.742 41.8904 195.402 40.7904C195.062 39.6904 194.892 39.7904 194.552 38.7104C194.212 37.6304 194.552 37.5504 194.182 36.4904C193.812 35.4304 193.592 35.4904 193.252 34.4404C192.912 33.3904 193.022 33.3404 192.682 32.2804C192.342 31.2204 192.152 31.2804 191.812 30.2104C191.472 29.1404 191.682 29.0804 191.342 28.0104C191.002 26.9404 190.982 26.9504 190.642 25.8904C190.302 24.8304 190.322 24.8204 189.982 23.7504C189.642 22.6804 189.522 22.7504 189.182 21.6604C188.842 20.5704 188.792 20.6104 188.462 19.5504C188.132 18.4904 188.182 18.4605 187.842 17.4005C187.502 16.3405 187.422 16.4004 187.082 15.2904C186.742 14.1804 187.082 14.1304 186.722 13.0604C186.362 11.9904 186.092 12.0604 185.722 11.0604C185.352 10.0604 185.612 9.92043 185.272 8.85043C184.932 7.78043 184.892 7.79043 184.552 6.72043C184.294 5.91354 183.913 5.15127 183.422 4.46043C182.502 3.01787 181.075 1.97246 179.422 1.53044C178.612 1.30827 177.771 1.21711 176.932 1.26044C175.812 1.26044 175.812 1.26044 174.692 1.26044C173.572 1.26044 173.572 1.14044 172.442 1.14044C171.312 1.14044 171.322 0.94043 170.202 0.94043C169.082 0.94043 169.082 1.12044 167.952 1.12044C166.822 1.12044 166.832 1.29044 165.712 1.29044C164.592 1.29044 164.592 1.04044 163.462 1.04044C162.332 1.04044 162.342 1.04044 161.222 1.04044C160.102 1.04044 160.092 1.25044 158.972 1.25044H156.722C155.592 1.25044 155.592 0.990433 154.472 0.990433C153.352 0.990433 153.352 1.38043 152.222 1.38043C151.092 1.38043 151.102 1.38043 149.972 1.38043C148.842 1.38043 148.852 1.13043 147.732 1.13043C146.612 1.13043 146.612 1.20044 145.482 1.20044H140.972C139.852 1.20044 139.852 1.20044 138.722 1.20044C137.592 1.20044 137.602 1.33044 136.472 1.33044C135.342 1.33044 135.352 1.33044 134.222 1.33044C133.092 1.33044 133.102 1.18044 131.972 1.18044C130.842 1.18044 130.852 1.37044 129.722 1.37044C128.592 1.37044 128.602 1.03044 127.482 1.03044C126.362 1.03044 126.352 1.13043 125.232 1.13043C124.112 1.13043 124.112 1.19043 122.982 1.19043C121.852 1.19043 121.862 1.19043 120.732 1.19043C119.602 1.19043 119.612 1.02043 118.482 1.02043C117.352 1.02043 117.362 1.02043 116.232 1.02043C115.102 1.02043 115.112 1.26044 113.982 1.26044C112.852 1.26044 112.862 1.08044 111.732 1.08044C110.602 1.08044 110.612 1.28044 109.492 1.28044C108.372 1.28044 108.362 1.18044 107.242 1.18044C106.122 1.18044 106.112 1.29044 104.992 1.29044C103.872 1.29044 103.862 1.10043 102.742 1.10043C101.622 1.10043 101.612 1.10043 100.492 1.10043C99.372 1.10043 99.362 1.24043 98.242 1.24043C97.122 1.24043 97.112 1.16043 95.992 1.16043H93.732C92.612 1.16043 92.612 0.970444 91.482 0.970444C90.352 0.970444 90.362 1.27043 89.232 1.27043C88.102 1.27043 88.112 1.00044 86.982 1.00044C85.852 1.00044 85.862 1.09044 84.732 1.09044C83.602 1.09044 83.612 0.970444 82.482 0.970444H80.232C79.112 0.970444 79.112 1.19043 77.982 1.19043C76.852 1.19043 76.862 1.24043 75.732 1.24043C74.602 1.24043 74.612 1.06044 73.492 1.06044H71.242C70.112 1.06044 70.112 1.06044 68.992 1.06044C67.872 1.06044 67.862 1.00044 66.742 1.00044C65.622 1.00044 65.612 1.15044 64.492 1.15044C63.372 1.15044 63.362 1.00044 62.242 1.00044C61.122 1.00044 61.112 1.32043 59.992 1.32043C58.872 1.32043 58.862 0.980438 57.742 0.980438C56.622 0.980438 56.612 1.31044 55.482 1.31044C54.352 1.31044 54.362 1.21043 53.232 1.21043C52.102 1.21043 52.102 1.09044 50.982 1.09044C49.862 1.09044 49.852 1.36044 48.722 1.36044C47.592 1.36044 47.602 1.02043 46.472 1.02043C45.342 1.02043 45.342 1.36044 44.222 1.36044C43.102 1.36044 43.092 1.26044 41.972 1.26044C40.852 1.26044 40.842 1.26044 39.722 1.26044C38.602 1.26044 38.592 1.33044 37.462 1.33044C36.332 1.33044 36.332 1.03044 35.202 1.03044C34.072 1.03044 34.082 1.13043 32.952 1.13043C31.822 1.13043 31.822 1.05043 30.692 1.05043C29.562 1.05043 29.562 1.28044 28.432 1.28044C27.5866 1.12253 26.7154 1.17394 25.8944 1.43018C25.0734 1.68641 24.3276 2.13969 23.722 2.75044C23.025 3.23108 22.4047 3.81434 21.882 4.48044C21.4073 5.18057 21.043 5.94956 20.802 6.76044C20.462 7.83044 20.672 7.90045 20.332 8.96045C19.992 10.0204 19.922 9.96042 19.582 11.0604C19.242 12.1604 19.282 12.1404 18.942 13.2004C18.602 14.2604 18.632 14.2804 18.292 15.3404C17.952 16.4004 17.912 16.3904 17.572 17.4604L16.892 19.5804C16.552 20.6404 16.312 20.5804 15.982 21.6304C15.652 22.6804 15.862 22.7704 15.522 23.8304C15.182 24.8904 15.132 24.8804 14.792 25.9404C14.452 27.0004 14.472 27.0104 14.142 28.0704C13.812 29.1304 13.552 29.0704 13.212 30.1204C12.872 31.1704 13.122 31.2604 12.782 32.3204C12.442 33.3804 12.472 33.4004 12.142 34.4604C11.812 35.5204 11.502 35.4604 11.142 36.4604C10.782 37.4604 10.972 37.5805 10.632 38.6505C10.292 39.7205 10.192 39.6504 9.85202 40.7404C9.51202 41.8304 9.85204 41.9004 9.46204 42.9604C9.07204 44.0204 9.00202 43.9604 8.66202 45.0504C8.32202 46.1404 8.38203 46.1404 8.04203 47.2004C7.70203 48.2604 7.51203 48.2004 7.17203 49.2704C6.83203 50.3404 6.95203 50.3704 6.61203 51.4404C6.27203 52.5104 6.36204 52.5304 6.02204 53.6004C5.68204 54.6704 5.44202 54.6005 5.10202 55.6505L4.42203 57.7804C4.08203 58.8404 4.16203 58.8705 3.83203 59.9305C3.50203 60.9905 3.63203 61.0404 3.29203 62.1104C2.95203 63.1804 2.97202 63.1804 2.63202 64.2504C2.29202 65.3204 2.15205 65.2504 1.81205 66.3404C1.47205 67.4304 1.39204 67.3404 1.05204 68.4504C0.712036 69.5604 0.972023 69.6004 0.632023 70.6704C0.351533 71.3261 0.156611 72.015 0.0520361 72.7204C-0.083227 73.8083 0.0461549 74.9128 0.429172 75.94C0.81219 76.9672 1.4375 77.8867 2.25202 78.6204C2.80412 79.0786 3.41651 79.4588 4.07203 79.7504C4.63639 80.1907 5.25897 80.5508 5.92203 80.8204C6.62727 80.952 7.34652 80.9923 8.06205 80.9404C9.19205 80.9404 9.19205 81.2104 10.312 81.2104C11.432 81.2104 11.432 81.0904 12.562 81.0904C13.692 81.0904 13.682 81.0104 14.802 81.0104C15.922 81.0104 15.922 80.8704 17.052 80.8704C18.182 80.8704 18.172 80.9204 19.292 80.9204C20.412 80.9204 20.422 81.1204 21.542 81.1204H23.782C24.912 81.1204 24.912 80.8704 26.032 80.8704C27.152 80.8704 27.152 80.9604 28.282 80.9604C29.412 80.9604 29.402 81.0604 30.522 81.0604C31.642 81.0604 31.652 80.8804 32.772 80.8804C33.892 80.8804 33.902 80.8804 35.022 80.8804C36.142 80.8804 36.152 80.9604 37.272 80.9604C38.392 80.9604 38.402 80.8304 39.522 80.8304C40.642 80.8304 40.652 81.0404 41.782 81.0404C42.912 81.0404 42.902 80.8904 44.032 80.8904C45.162 80.8904 45.152 81.1204 46.272 81.1204C47.392 81.1204 47.402 80.8004 48.522 80.8004C49.642 80.8004 49.652 80.8004 50.772 80.8004C51.892 80.8004 51.902 81.0204 53.022 81.0204C54.142 81.0204 54.142 80.8204 55.272 80.8204C56.402 80.8204 56.392 80.8204 57.512 80.8204C58.632 80.8204 58.642 80.8204 59.762 80.8204C60.882 80.8204 60.892 80.8204 62.012 80.8204C63.132 80.8204 63.142 80.9704 64.262 80.9704C65.382 80.9704 65.392 80.9005 66.512 80.9005C67.632 80.9005 67.642 80.9704 68.772 80.9704C69.902 80.9704 69.892 81.0704 71.022 81.0704C72.152 81.0704 72.142 80.7704 73.272 80.7704C74.402 80.7704 74.392 81.0804 75.522 81.0804C76.652 81.0804 76.642 80.9204 77.772 80.9204C78.902 80.9204 78.892 81.0804 80.022 81.0804C81.152 81.0804 81.142 80.8704 82.272 80.8704C83.402 80.8704 83.392 80.7704 84.522 80.7704C85.652 80.7704 85.642 81.0104 86.772 81.0104C87.902 81.0104 87.892 80.8504 89.022 80.8504C90.152 80.8504 90.152 80.9404 91.272 80.9404C92.392 80.9404 92.402 81.1204 93.532 81.1204C94.662 81.1204 94.652 81.0404 95.782 81.0404C96.912 81.0404 96.902 81.0404 98.032 81.0404C99.162 81.0404 99.152 81.0404 100.282 81.0404C101.412 81.0404 101.412 81.0404 102.532 81.0404C103.652 81.0404 103.662 80.9404 104.782 80.9404C105.902 80.9404 105.912 80.7204 107.042 80.7204C108.172 80.7204 108.162 80.8504 109.292 80.8504C110.422 80.8504 110.422 80.7204 111.542 80.7204C112.662 80.7204 112.672 80.8104 113.792 80.8104C114.912 80.8104 114.922 80.6805 116.052 80.6805C117.182 80.6805 117.172 80.7904 118.302 80.7904C119.432 80.7904 119.432 80.6805 120.552 80.6805C121.672 80.6805 121.682 80.7404 122.812 80.7404C123.942 80.7404 123.932 81.0704 125.062 81.0704C126.192 81.0704 126.182 80.8804 127.312 80.8804C128.442 80.8804 128.442 80.7504 129.562 80.7504C130.682 80.7504 130.692 81.0704 131.822 81.0704C132.952 81.0704 132.952 80.9904 134.072 80.9904C135.192 80.9904 135.202 80.8304 136.332 80.8304C137.462 80.8304 137.452 80.6704 138.582 80.6704C139.712 80.6704 139.712 80.7904 140.832 80.7904C141.952 80.7904 141.962 81.0304 143.092 81.0304C144.222 81.0304 144.212 80.8904 145.342 80.8904C146.472 80.8904 146.472 81.0004 147.602 81.0004C148.732 81.0004 148.722 81.0504 149.852 81.0504H152.172C153.292 81.0504 153.292 80.9604 154.422 80.9604C155.552 80.9604 155.542 80.9005 156.672 80.9005H158.932C160.052 80.9005 160.052 80.7104 161.182 80.7104H163.432C164.562 80.7104 164.562 80.6505 165.692 80.6505C166.822 80.6505 166.812 80.6505 167.942 80.6505C169.072 80.6505 169.072 80.6505 170.202 80.6505C171.332 80.6505 171.322 80.9504 172.452 80.9504C173.582 80.9504 173.582 80.8804 174.712 80.8804C175.842 80.8804 175.842 80.6805 176.962 80.6805C178.082 80.6805 178.092 80.6805 179.222 80.6805C180.352 80.6805 180.352 80.7604 181.482 80.7604C182.612 80.7604 182.602 80.9404 183.732 80.9404C184.862 80.9404 184.862 80.9404 185.992 80.9404C187.122 80.9404 187.122 81.0204 188.242 81.0204C189.362 81.0204 189.372 80.8904 190.502 80.8904C191.632 80.8904 191.632 80.7304 192.762 80.7304C193.892 80.7304 193.892 80.9504 195.032 80.9504H197.292C198.018 80.9584 198.741 80.8675 199.442 80.6805C200.728 80.0789 201.91 79.2754 202.942 78.3004C203.503 77.8486 204 77.324 204.422 76.7404C204.787 76.1126 205.069 75.4404 205.262 74.7404C205.424 74.0258 205.492 73.2927 205.462 72.5604C205.355 71.8566 205.164 71.1683 204.892 70.5104Z" fill="#E7F2FF"/>
<path fill-rule="evenodd" clip-rule="evenodd" d="M119.402 36.3905C118.722 36.0605 118.022 35.7505 117.322 35.4605C116.622 35.1705 115.902 34.9205 115.192 34.6705C114.482 34.4205 113.662 34.5005 112.932 34.2905C112.202 34.0805 111.532 33.6805 110.802 33.5105C110.072 33.3405 109.342 33.0805 108.602 32.9505C107.862 32.8205 107.092 32.7505 106.342 32.6605C105.592 32.5705 104.832 32.5705 104.082 32.5305C103.332 32.4905 102.562 32.6205 101.812 32.6205C101.062 32.6205 100.292 32.4505 99.5416 32.4905C98.7916 32.5305 98.0416 32.7005 97.2916 32.7805C96.5416 32.8605 95.8116 33.0605 95.0616 33.1905C94.3116 33.3205 93.5416 33.2905 92.8116 33.4605C92.0816 33.6305 91.3816 33.9505 90.6516 34.1605C89.9216 34.3705 89.2216 34.6205 88.5016 34.8805C87.7816 35.1405 87.0515 35.3105 86.3615 35.6005C85.6715 35.8905 85.0315 36.3305 84.3615 36.6605C83.3615 37.1505 83.3615 37.1205 82.3615 37.6105C81.3615 38.1005 81.3615 38.0605 80.3615 38.5505C79.3615 39.0405 79.3615 39.0105 78.3615 39.5505C77.3615 40.0905 77.2715 39.8705 76.2715 40.3605C75.2715 40.8505 75.2715 40.9505 74.2715 41.4305C73.2715 41.9105 73.2715 41.8605 72.2715 42.3505C71.2715 42.8405 71.3216 42.9405 70.3216 43.4305C69.3216 43.9205 69.3216 43.9405 68.3216 44.4305C67.3216 44.9205 67.3216 44.9305 66.3216 45.4305C65.3216 45.9305 65.3816 46.0305 64.3816 46.5205C63.3816 47.0105 63.2516 46.7505 62.2516 47.2405C61.2516 47.7305 61.2516 47.8005 60.2516 48.2405C59.2516 48.6805 59.2516 48.8005 58.2516 49.2905C57.2516 49.7805 57.1715 49.6105 56.1715 50.1005C55.1715 50.5905 55.1715 50.5505 54.1715 51.0405C53.1715 51.5305 53.1715 51.5505 52.1715 52.0405C51.1715 52.5305 51.1715 52.5605 50.1715 53.0405C49.1715 53.5205 49.2516 53.7105 48.2616 54.2005C47.2716 54.6905 47.1216 54.4105 46.1216 54.9005C45.1216 55.3905 45.2415 55.6405 44.2415 56.1305C43.2415 56.6205 43.2415 56.5705 42.2415 57.0605C41.2415 57.5505 41.1516 57.3605 40.1516 57.8405C39.1516 58.3205 39.1516 58.3605 38.1516 58.8405C37.1516 59.3205 37.1516 59.3005 36.1516 59.7905C35.1516 60.2805 35.2316 60.4505 34.2316 60.9405C33.2316 61.4305 33.2316 61.4105 32.2316 61.9405C31.2316 62.4705 31.2316 62.4805 30.2316 62.9405C29.2316 63.4005 29.2316 63.3505 28.2316 63.8405C27.2316 64.3305 27.1616 64.2005 26.1616 64.6905C25.1616 65.1805 25.2916 65.4505 24.2916 65.9405C23.2916 66.4305 23.2916 66.4505 22.2916 66.9405C21.2916 67.4305 21.1516 67.1605 20.1516 67.6505C19.1516 68.1405 19.1516 68.1605 18.1516 68.6505C17.1516 69.1405 17.1516 69.2105 16.1516 69.7005C15.1516 70.1905 15.1516 70.1405 14.1516 70.6305C13.1516 71.1205 13.2415 71.3005 12.2415 71.7905C11.2415 72.2805 11.1716 72.1305 10.1616 72.6205C9.15156 73.1105 9.23157 73.2605 8.23157 73.7405C7.23157 74.2205 7.23157 74.1605 6.23157 74.6505C5.23157 75.1405 5.23157 75.1905 4.23157 75.6505L2.23157 76.6505C1.23157 77.1405 0.851562 76.6505 0.101562 77.4505C0.635915 78.1498 1.2771 78.7606 2.00156 79.2605C2.6448 79.8305 3.37805 80.2901 4.17154 80.6205C4.99404 80.8942 5.85471 81.036 6.72156 81.0405C7.85156 81.0405 7.85156 81.0405 8.97156 81.0405C10.0916 81.0405 10.0916 80.9205 11.2216 80.9205C12.3516 80.9205 12.3415 80.9205 13.4615 80.9205H15.7115C16.8315 80.9205 16.8316 80.8605 17.9516 80.8605C19.0716 80.8605 19.0816 81.0705 20.2016 81.0705C21.3216 81.0705 21.3216 80.8105 22.4416 80.8105C23.5616 80.8105 23.5716 81.0505 24.6916 81.0505C25.8116 81.0505 25.8116 81.1105 26.9416 81.1105C28.0716 81.1105 28.0615 80.8705 29.1815 80.8705C30.3015 80.8705 30.3115 80.9805 31.4315 80.9805C32.5515 80.9805 32.5615 80.9105 33.6815 80.9105C34.8015 80.9105 34.8115 81.0405 35.9315 81.0405C37.0515 81.0405 37.0615 80.9005 38.1815 80.9005C39.3015 80.9005 39.3116 81.1805 40.4416 81.1805C41.5716 81.1805 41.5616 81.0505 42.6916 81.0505C43.8216 81.0505 43.8115 80.9405 44.9315 80.9405C46.0515 80.9405 46.0615 80.8405 47.1815 80.8405C48.3015 80.8405 48.3115 81.0805 49.4315 81.0805C50.5515 81.0805 50.5615 81.0005 51.6815 81.0005C52.8015 81.0005 52.8015 81.0005 53.9315 81.0005C55.0615 81.0005 55.0515 81.0705 56.1715 81.0705C57.2915 81.0705 57.3015 81.0005 58.4215 81.0005C59.5415 81.0005 59.5515 81.0005 60.6715 81.0005C61.7915 81.0005 61.8015 80.9205 62.9215 80.9205C64.0415 80.9205 64.0515 80.9205 65.1715 80.9205C66.2915 80.9205 66.3015 80.8705 67.4315 80.8705C68.5615 80.8705 68.5515 80.7605 69.6815 80.7605C70.8115 80.7605 70.8015 80.8605 71.9315 80.8605C73.0615 80.8605 73.0515 81.0705 74.1815 81.0705C75.3115 81.0705 75.3015 80.9005 76.4315 80.9005C77.5615 80.9005 77.5515 80.9005 78.6815 80.9005C79.8115 80.9005 79.8015 80.7605 80.9315 80.7605C82.0615 80.7605 82.0515 80.8605 83.1815 80.8605C84.3115 80.8605 84.3015 80.7905 85.4315 80.7905C86.5615 80.7905 86.5515 81.0305 87.6815 81.0305C88.8115 81.0305 88.8115 81.0905 89.9315 81.0905H92.1916C93.3116 81.0905 93.3116 80.9205 94.4416 80.9205C95.5716 80.9205 95.5616 81.1305 96.6916 81.1305C97.8216 81.1305 97.8116 80.8805 98.9416 80.8805C100.072 80.8805 100.072 81.0205 101.192 81.0205C102.312 81.0205 102.322 81.0905 103.442 81.0905H105.702C106.822 81.0905 106.822 80.9905 107.952 80.9905C109.082 80.9905 109.082 80.9905 110.202 80.9905H112.452C113.582 80.9905 113.582 81.0805 114.712 81.0805C115.842 81.0805 115.832 80.8505 116.962 80.8505C118.092 80.8505 118.092 80.7305 119.212 80.7305C120.332 80.7305 120.342 81.0805 121.472 81.0805C122.602 81.0805 122.592 80.8505 123.722 80.8505C124.852 80.8505 124.842 80.9405 125.972 80.9405C127.102 80.9405 127.102 80.7605 128.222 80.7605C129.342 80.7605 129.352 81.1105 130.482 81.1105C131.612 81.1105 131.612 81.1105 132.732 81.1105C133.852 81.1105 133.862 80.8805 134.992 80.8805C136.122 80.8805 136.112 80.7905 137.242 80.7905C138.372 80.7905 138.372 80.9405 139.492 80.9405H141.752H144.002C145.132 80.9405 145.132 80.7405 146.262 80.7405C147.392 80.7405 147.382 81.0105 148.512 81.0105C149.642 81.0105 149.632 80.9505 150.762 80.9505C151.892 80.9505 151.882 80.8205 153.012 80.8205C154.142 80.8205 154.132 81.0305 155.262 81.0305C156.392 81.0305 156.392 80.9805 157.522 80.9805C158.652 80.9805 158.642 80.9005 159.772 80.9005C160.902 80.9005 160.892 80.7605 162.022 80.7605C163.152 80.7605 163.152 80.8605 164.282 80.8605C165.412 80.8605 165.402 80.8005 166.532 80.8005C167.662 80.8005 167.662 80.9905 168.792 80.9905C169.922 80.9905 169.912 80.9305 171.042 80.9305C172.172 80.9305 172.172 80.7205 173.302 80.7205C174.432 80.7205 174.432 80.9905 175.552 80.9905C176.672 80.9905 176.682 80.9905 177.812 80.9905C178.942 80.9905 178.942 80.8705 180.072 80.8705C181.202 80.8705 181.192 80.7405 182.322 80.7405C183.452 80.7405 183.452 80.9005 184.582 80.9005C185.712 80.9005 185.712 80.9005 186.832 80.9005C187.952 80.9005 187.962 80.7305 189.092 80.7305C190.222 80.7305 190.222 80.8805 191.352 80.8805C192.482 80.8805 192.482 81.0005 193.622 81.0005C194.762 81.0005 194.752 80.6605 195.882 80.6605C196.548 80.723 197.219 80.7062 197.882 80.6105C198.547 80.4946 199.195 80.2964 199.812 80.0205C200.423 79.7017 200.991 79.305 201.502 78.8405C201.971 78.3186 202.374 77.7409 202.702 77.1205C201.882 76.3405 201.702 76.5305 200.702 76.0305C199.702 75.5305 199.552 75.8105 198.532 75.3205C197.512 74.8305 197.532 74.8605 196.532 74.3205C195.532 73.7805 195.602 73.6505 194.532 73.1605C193.462 72.6705 193.532 72.5705 192.532 72.0805C191.532 71.5905 191.472 71.6705 190.462 71.1705C189.452 70.6705 189.382 70.8105 188.362 70.3105C187.342 69.8105 187.482 69.5405 186.462 69.0505C185.442 68.5605 185.332 68.8005 184.312 68.3005C183.292 67.8005 183.312 67.8505 182.262 67.3605C181.212 66.8705 181.312 66.7205 180.262 66.2205C179.212 65.7205 179.262 65.6205 178.262 65.1205C177.262 64.6205 177.212 64.7005 176.192 64.2005C175.172 63.7005 175.192 63.6805 174.192 63.2005C173.192 62.7205 173.192 62.6005 172.192 62.1005C171.192 61.6005 171.092 61.7805 170.082 61.2905C169.072 60.8005 169.142 60.6405 168.082 60.1505C167.022 59.6605 167.082 59.6305 166.082 59.1505C165.082 58.6705 165.082 58.6905 164.032 58.2005C162.982 57.7105 163.032 57.6705 162.032 57.2005C161.032 56.7305 160.942 56.8505 159.922 56.3605C158.902 55.8705 158.842 56.0105 157.822 55.5105C156.802 55.0105 156.822 54.9605 155.822 54.4605C154.822 53.9605 154.822 53.9505 153.822 53.4605C152.822 52.9705 152.912 52.7705 151.892 52.2705L149.892 51.2705C148.892 50.7805 148.842 50.8605 147.822 50.3605L145.822 49.3605C144.822 48.8705 144.702 49.0905 143.682 48.5905C142.662 48.0905 142.762 47.8905 141.752 47.3905C140.742 46.8905 140.752 46.7905 139.752 46.3005L137.752 45.3005C136.752 44.8105 136.752 44.7905 135.752 44.3005C134.752 43.8105 134.632 44.0105 133.612 43.5105C132.592 43.0105 132.612 42.9805 131.612 42.5105C130.612 42.0405 130.612 41.9705 129.612 41.5105C128.612 41.0505 128.492 41.2105 127.472 40.7205C126.452 40.2305 126.472 40.1205 125.472 39.6305C124.472 39.1405 124.472 39.0005 123.472 38.5005C122.472 38.0005 122.412 38.0905 121.422 37.5005C120.432 36.9105 120.422 36.8905 119.402 36.3905Z" fill="#CFE2F6"/>
<path fill-rule="evenodd" clip-rule="evenodd" d="M176.552 1.02C175.432 1.02 175.432 1.10001 174.312 1.10001C173.192 1.10001 173.192 1.19 172.062 1.19C170.932 1.19 170.942 1.02 169.812 1.02C168.682 1.02 168.692 1.02 167.562 1.02C166.432 1.02 166.442 1.09001 165.322 1.09001C164.202 1.09001 164.202 1.27 163.072 1.27H160.812C159.682 1.27 159.682 1.27 158.562 1.27H156.312C155.182 1.27 155.182 1.14 154.062 1.14C152.942 1.14 152.942 1.31 151.812 1.31C150.682 1.31 150.692 1.11 149.562 1.11C148.432 1.11 148.442 1.11 147.322 1.11C146.202 1.11 146.202 1.05 145.072 1.05C143.942 1.05 143.952 1.05 142.832 1.05H140.612C139.492 1.05 139.492 1.31 138.362 1.31C137.232 1.31 137.242 1.23001 136.112 1.23001H133.862C132.742 1.23001 132.742 1 131.612 1C130.482 1 130.492 1.28 129.362 1.28C128.232 1.28 128.242 1.28 127.122 1.28C126.002 1.28 125.992 1.22 124.872 1.22C123.752 1.22 123.752 1.12001 122.622 1.12001C121.492 1.12001 121.502 1.12001 120.372 1.12001C119.242 1.12001 119.252 1.25 118.122 1.25C116.992 1.25 117.002 1.18001 115.872 1.18001C114.742 1.18001 114.752 1.13 113.622 1.13C112.492 1.13 112.502 1.23001 111.372 1.23001C110.242 1.23001 110.252 1.23001 109.132 1.23001C108.012 1.23001 108.002 1.14 106.882 1.14C105.762 1.14 105.752 1.39 104.632 1.39C103.512 1.39 103.502 1.34001 102.382 1.34001C101.262 1.34001 101.252 1.13 100.132 1.13C99.0119 1.13 99.0019 1.43001 97.8819 1.43001C96.7619 1.43001 96.7519 1.43001 95.6319 1.43001C94.5119 1.43001 94.5019 1.28 93.3719 1.28C92.2419 1.28 92.2519 1.28 91.1219 1.28C89.9919 1.28 90.0019 1.28 88.8719 1.28H86.6219C85.5019 1.28 85.5019 1.43001 84.3719 1.43001C83.2419 1.43001 83.2519 1.15001 82.1219 1.15001C80.9919 1.15001 81.0019 1.15001 79.8719 1.15001C78.7419 1.15001 78.7519 1.37001 77.6219 1.37001C76.4919 1.37001 76.5019 1.37001 75.3719 1.37001C74.2419 1.37001 74.2519 1.37001 73.1319 1.37001C72.0119 1.37001 72.0019 1.37001 70.8819 1.37001C69.7619 1.37001 69.7519 1.15001 68.6319 1.15001C67.5119 1.15001 67.5019 1.44 66.3819 1.44C65.2619 1.44 65.2519 1.13 64.1319 1.13C63.0119 1.13 63.0019 1.34001 61.8819 1.34001C60.7619 1.34001 60.7519 1.23001 59.6319 1.23001C58.5119 1.23001 58.5019 1.43001 57.3819 1.43001H55.1219C54.0019 1.43001 54.0019 1.27 52.8719 1.27C51.7419 1.27 51.7419 1.38 50.6219 1.38C49.5019 1.38 49.4919 1.16 48.3619 1.16C47.2319 1.16 47.2419 1.37001 46.1119 1.37001C44.9819 1.37001 44.9819 1.16 43.8619 1.16C42.7419 1.16 42.7319 1.16 41.6119 1.16C40.4919 1.16 40.4819 1.39 39.3619 1.39C38.2419 1.39 38.2319 1.32001 37.1019 1.32001H34.8119C33.6919 1.32001 33.6919 1.22 32.5619 1.22C31.4319 1.22 31.4319 1.37001 30.3019 1.37001C29.1719 1.37001 29.1719 1.31 28.0419 1.31C26.6291 1.50619 25.239 1.84114 23.8919 2.31C23.2893 2.71079 22.7472 3.1957 22.2819 3.75C21.7549 4.29058 21.2979 4.89534 20.9219 5.55C21.6319 6.41 21.9219 6.10001 22.8719 6.71001C23.8219 7.32001 23.8719 7.18001 24.8719 7.78001C25.8719 8.38001 25.7919 8.42 26.7319 9.02C27.6719 9.62 27.5519 9.81 28.4919 10.42C29.4319 11.03 29.4319 11.01 30.3719 11.62C31.3119 12.23 31.3719 12.13 32.3019 12.73C33.2319 13.33 33.3019 13.28 34.2119 13.88C35.1219 14.48 35.0319 14.66 35.9719 15.27C36.9119 15.88 37.0719 15.62 37.9719 16.22C38.8719 16.82 38.8619 16.89 39.8019 17.5C40.7419 18.11 40.6919 18.18 41.6319 18.78L43.4919 20C44.4319 20.61 44.3819 20.69 45.3219 21.3C46.2619 21.91 46.3919 21.69 47.3219 22.3C48.2519 22.91 48.1719 23.05 49.1119 23.65C50.0519 24.25 50.1119 24.15 51.1119 24.76C52.1119 25.37 52.0119 25.42 52.9519 26.02C53.8919 26.62 53.8719 26.65 54.8119 27.25C55.7519 27.85 55.7319 27.89 56.6719 28.49C57.6119 29.09 57.5919 29.13 58.5319 29.74C59.4719 30.35 59.5319 30.18 60.5319 30.79C61.5319 31.4 61.4119 31.49 62.3519 32.09C63.2919 32.69 63.3519 32.65 64.2719 33.25C65.1919 33.85 65.2119 33.85 66.1519 34.45L68.0319 35.67C68.9719 36.27 68.9819 36.25 69.9219 36.85C70.8619 37.45 70.8319 37.5 71.7719 38.11C72.7119 38.72 72.6919 38.75 73.6319 39.36C74.5719 39.97 74.5319 40.02 75.4719 40.63C76.4119 41.24 76.4719 41.17 77.4019 41.78C78.3319 42.39 78.2719 42.51 79.2119 43.12C80.1519 43.73 80.2119 43.7 81.1119 44.31C81.7619 44.72 82.4219 45.12 83.1119 45.49C83.8019 45.86 84.5419 46.07 85.2219 46.41C85.9019 46.75 86.5719 47.12 87.2219 47.41C87.8719 47.7 88.6119 48.08 89.3219 48.34C90.0319 48.6 90.7719 48.86 91.5019 49.07C92.2319 49.28 93.0119 49.33 93.7519 49.51C94.4919 49.69 95.2419 49.83 95.9919 49.96C96.7419 50.09 97.4819 50.39 98.2319 50.48C98.9819 50.57 99.7819 50.36 100.542 50.4C101.302 50.44 102.062 50.74 102.822 50.74C103.582 50.74 104.352 50.54 105.112 50.49C105.872 50.44 106.652 50.6 107.412 50.49C108.172 50.38 108.922 50.23 109.682 50.1C110.442 49.97 111.192 49.83 111.932 49.66C112.672 49.49 113.362 49.09 114.092 48.87C114.822 48.65 115.612 48.61 116.332 48.35C117.052 48.09 117.762 47.8 118.462 47.5C119.162 47.2 119.882 46.92 120.572 46.58C121.262 46.24 121.852 45.73 122.512 45.35C123.172 44.97 123.932 44.75 124.582 44.35L126.492 43.12C127.492 42.5 127.392 42.4 128.342 41.78C129.292 41.16 129.262 41.1 130.212 40.49C131.162 39.88 131.212 39.98 132.212 39.36C133.212 38.74 133.212 38.76 134.122 38.14L136.032 36.91C136.982 36.3 136.872 36.12 137.822 35.5C138.772 34.88 138.922 35.11 139.882 34.5C140.842 33.89 140.822 33.86 141.782 33.24C142.742 32.62 142.692 32.55 143.642 31.93C144.592 31.31 144.642 31.4 145.642 30.78C146.642 30.16 146.552 30.08 147.502 29.47C148.452 28.86 148.352 28.68 149.312 28.07C150.272 27.46 150.312 27.51 151.262 26.89C152.212 26.27 152.262 26.37 153.262 25.76C154.262 25.15 154.172 25.07 155.122 24.45C156.072 23.83 156.052 23.79 157.012 23.17C157.972 22.55 158.012 22.65 159.012 22.03C160.012 21.41 159.952 21.38 160.912 20.76C161.872 20.14 161.912 20.18 162.842 19.56C163.772 18.94 163.782 18.91 164.742 18.29C165.702 17.67 165.742 17.76 166.742 17.14C167.742 16.52 167.612 16.39 168.562 15.77C169.512 15.15 169.562 15.27 170.562 14.65L172.482 13.43C173.482 12.81 173.482 12.86 174.482 12.24C175.482 11.62 175.402 11.58 176.362 10.96C177.322 10.34 177.212 10.17 178.172 9.56001C179.132 8.95001 179.172 9.07 180.172 8.45C181.172 7.83 181.172 7.85 182.102 7.23C183.032 6.61 183.292 6.85002 184.022 5.97002C183.727 5.24786 183.326 4.57375 182.832 3.97C182.338 3.38048 181.762 2.86518 181.122 2.44C180.436 2.09736 179.706 1.85168 178.952 1.71001C178.194 1.35358 177.384 1.12064 176.552 1.02Z" fill="#B5CDEB"/>
</svg>
