<svg width="168" height="99" viewBox="0 0 168 99" fill="none" xmlns="http://www.w3.org/2000/svg">
<path d="M136.771 97.78C135.661 97.78 135.661 97.92 134.541 97.92C133.421 97.92 133.431 98.02 132.311 98.02C131.191 98.02 131.201 97.8499 130.081 97.8499C128.961 97.8499 128.971 97.9799 127.861 97.9799C126.751 97.9799 126.741 97.8199 125.631 97.8199C124.521 97.8199 124.511 98.02 123.391 98.02C122.271 98.02 122.281 97.7199 121.161 97.7199C120.041 97.7199 120.041 97.7899 118.931 97.7899C117.821 97.7899 117.811 97.9999 116.701 97.9999C115.591 97.9999 115.581 97.8499 114.471 97.8499C113.361 97.8499 113.351 97.7899 112.241 97.7899C111.131 97.7899 111.121 97.71 110.011 97.71C108.901 97.71 108.891 97.9399 107.781 97.9399H103.311C102.191 97.9399 102.191 97.84 101.081 97.84H98.8513C97.7313 97.84 97.7313 97.9799 96.6213 97.9799C95.5113 97.9799 95.5013 97.9799 94.3913 97.9799C93.2813 97.9799 93.2713 97.77 92.1513 97.77C91.0313 97.77 91.0413 97.68 89.9213 97.68C88.8013 97.68 88.8013 97.68 87.6913 97.68C86.5813 97.68 86.5713 97.96 85.4613 97.96C84.3513 97.96 84.3413 97.68 83.2213 97.68C82.1013 97.68 82.1113 97.87 80.9913 97.87C79.8713 97.87 79.8713 97.95 78.7613 97.95C77.6513 97.95 77.6413 97.64 76.5213 97.64C75.4013 97.64 75.4113 97.6899 74.2913 97.6899C73.1713 97.6899 73.1713 97.6899 72.0613 97.6899C70.9513 97.6899 70.9413 97.61 69.8213 97.61C68.7013 97.61 68.7113 97.7899 67.5913 97.7899C66.4713 97.7899 66.4713 97.68 65.3613 97.68C64.2513 97.68 64.2413 97.7499 63.1313 97.7499C62.0213 97.7499 62.0113 97.89 60.9013 97.89C59.7913 97.89 59.7813 97.68 58.6713 97.68C57.5613 97.68 57.5513 97.84 56.4313 97.84C55.3113 97.84 55.3213 97.74 54.2013 97.74C53.0813 97.74 53.0913 97.8199 51.9713 97.8199C50.8513 97.8199 50.8513 97.7299 49.7413 97.7299C48.6313 97.7299 48.6213 97.8499 47.5013 97.8499C46.3813 97.8499 46.3913 97.8 45.2713 97.8C44.1513 97.8 44.1513 97.8799 43.0313 97.8799C41.9113 97.8799 41.9213 97.8799 40.8013 97.8799H38.5613C37.4513 97.8799 37.4513 97.8799 36.3313 97.8799C35.2113 97.8799 35.2113 97.77 34.0913 97.77H31.8613C30.7413 97.77 30.7413 97.77 29.6313 97.77C28.5213 97.77 28.5113 97.77 27.3913 97.77C26.2713 97.77 26.2713 97.86 25.1513 97.86H22.9113C21.8013 97.86 21.8013 97.81 20.6813 97.81C19.5613 97.81 19.5513 97.6899 18.4313 97.6899C17.3113 97.6899 17.3113 97.81 16.1913 97.81C15.4653 97.8551 14.7372 97.8551 14.0113 97.81C13.2931 97.6785 12.5848 97.4981 11.8913 97.27C11.1859 97.0849 10.4942 96.851 9.82126 96.5699C9.13617 96.3166 8.46811 96.0193 7.82126 95.68C7.21577 95.2689 6.64093 94.8143 6.10127 94.3199C5.56618 93.8349 5.065 93.3136 4.60127 92.7599C4.05204 92.2806 3.53116 91.7698 3.04126 91.2299C2.66424 90.586 2.33018 89.9179 2.04126 89.2299C1.06927 88.0984 0.44735 86.7087 0.251261 85.2299C0.0815766 83.7898 0.0114111 82.3397 0.0412621 80.89C-0.013754 80.161 -0.013754 79.4289 0.0412621 78.7C0.242391 77.9965 0.493016 77.3081 0.791262 76.64C0.983598 75.9609 1.21396 75.2932 1.48126 74.64C2.21126 73.78 2.42126 73.97 3.22126 73.18C4.02126 72.39 3.96126 72.32 4.76126 71.52C5.56126 70.72 5.54127 70.72 6.34127 69.92C7.14127 69.12 7.05126 69.03 7.85126 68.24C8.65126 67.45 8.85127 67.64 9.64127 66.84C10.4313 66.04 10.3213 65.94 11.1213 65.14C11.9213 64.34 12.0113 64.44 12.8013 63.65C13.5913 62.86 13.4513 62.6499 14.2513 61.9099C15.0513 61.1699 15.2513 61.26 16.0013 60.46C16.7513 59.66 16.8413 59.71 17.6413 58.92C18.4413 58.13 18.3513 58.04 19.1513 57.24C19.9513 56.44 19.9713 56.4599 20.7613 55.6599C21.5513 54.8599 21.5313 54.8299 22.3313 54.0399C23.1313 53.2499 23.0713 53.19 23.8713 52.39C24.6713 51.59 24.7313 51.65 25.5313 50.86C26.3313 50.07 26.4013 50.14 27.2013 49.34C28.0013 48.54 27.9013 48.44 28.7013 47.65C29.5013 46.86 29.6013 46.95 30.4013 46.15C31.2013 45.35 31.2313 45.38 32.0313 44.59C32.8313 43.8 32.7313 43.69 33.5313 42.89C34.3313 42.09 34.3613 42.13 35.1613 41.33C35.9613 40.53 35.9213 40.49 36.7213 39.7C37.5213 38.91 37.6313 39.01 38.4213 38.21C39.2113 37.41 39.1713 37.36 39.9713 36.56C40.7713 35.76 40.6613 35.66 41.4713 34.87C42.2813 34.08 42.4713 34.22 43.2213 33.42C43.9713 32.62 43.9613 32.56 44.7613 31.77C45.5613 30.98 45.5913 31 46.3913 30.2C47.1913 29.4 47.0113 29.2 47.8213 28.43C48.6313 27.66 48.8213 27.83 49.6213 27.03C50.4213 26.23 50.2713 26.08 51.0813 25.28C51.8913 24.48 51.7513 24.2799 52.7913 23.8499C53.4728 23.5382 54.2319 23.4372 54.9713 23.56C56.0813 23.56 56.0813 23.71 57.1913 23.7C58.3013 23.69 58.3113 23.4999 59.4213 23.4799C60.5313 23.4599 60.5413 23.69 61.6513 23.68C62.7613 23.67 62.7613 23.5299 63.8713 23.5099C64.9813 23.4899 64.9913 23.7299 66.1013 23.7199C67.2113 23.7099 67.2113 23.62 68.3213 23.61C69.4313 23.6 69.4413 23.4599 70.5513 23.4399C71.6613 23.4199 71.6613 23.32 72.7713 23.31C73.8813 23.3 73.8913 23.6 75.0013 23.59H77.2313C78.3513 23.59 78.3513 23.5 79.4613 23.49C80.5713 23.48 80.5713 23.3999 81.6813 23.3799C82.7913 23.3599 82.8013 23.3799 83.9113 23.3799C85.0213 23.3799 85.0213 23.19 86.1313 23.17C87.2413 23.15 87.2513 23.4199 88.3713 23.4099C89.4913 23.3999 89.4813 23.35 90.5913 23.33C91.7013 23.31 91.7013 23.07 92.8213 23.06C93.9413 23.05 93.9313 23.06 95.0413 23.06C96.1513 23.06 96.1613 23.1699 97.2713 23.1599C98.3813 23.1499 98.3913 23.09 99.5013 23.08C100.611 23.07 100.621 23.08 101.731 23.08C102.841 23.08 102.841 22.9599 103.961 22.9399C105.081 22.9199 105.071 23.18 106.191 23.17C107.311 23.16 107.301 22.9499 108.411 22.9399C109.521 22.9299 109.531 22.9899 110.641 22.9399C111.751 22.8899 111.761 22.9399 112.871 22.8799C113.981 22.8199 113.981 22.8799 115.101 22.8799C116.221 22.8799 116.211 22.8 117.321 22.78C118.431 22.76 118.431 22.78 119.551 22.78C120.671 22.78 120.661 22.9199 121.771 22.9099C122.881 22.8999 122.881 22.67 124.001 22.65C125.121 22.63 125.121 22.84 126.231 22.83C127.341 22.82 127.341 22.7699 128.461 22.7599C129.581 22.7499 129.571 22.5799 130.681 22.5699C131.791 22.5599 131.801 22.7 132.911 22.68C134.021 22.66 134.031 22.54 135.141 22.53C136.251 22.52 136.251 22.5299 137.371 22.4799C138.491 22.4299 138.481 22.5399 139.601 22.4799C140.721 22.4199 140.721 22.65 141.831 22.64C142.941 22.63 142.951 22.57 144.061 22.56C145.171 22.55 145.181 22.4899 146.291 22.4699H148.521C149.641 22.4699 149.641 22.3599 150.751 22.3499H152.981C154.101 22.3499 154.101 22.3499 155.211 22.3499C156.321 22.3499 156.331 22.3499 157.451 22.3499C158.571 22.3499 158.561 22.4899 159.681 22.4699C160.801 22.4499 160.801 22.23 161.921 22.21H164.151C164.882 22.2277 165.585 22.4881 166.151 22.95C166.634 23.4536 166.992 24.0631 167.197 24.7299C167.402 25.3967 167.448 26.1022 167.331 26.7899C166.911 27.8399 166.921 27.84 166.511 28.89C166.101 29.94 165.931 29.89 165.511 30.89C165.091 31.89 165.051 31.8899 164.641 32.9699C164.231 34.0499 164.411 34.0899 164.001 35.1299C163.591 36.1699 163.611 36.1899 163.191 37.2299C162.771 38.2699 162.801 38.29 162.381 39.33C161.961 40.37 161.911 40.33 161.501 41.4C161.091 42.47 161.101 42.4499 160.681 43.4999C160.261 44.5499 160.191 44.5 159.781 45.55C159.371 46.6 159.181 46.55 158.781 47.55C158.381 48.55 158.541 48.67 158.131 49.71C157.721 50.75 157.581 50.71 157.131 51.71C156.681 52.71 156.921 52.83 156.501 53.87C156.081 54.91 156.041 54.8699 155.631 55.9399C155.221 57.0099 155.201 56.99 154.791 58.03C154.381 59.07 154.341 59.03 153.921 60.11C153.501 61.19 153.591 61.1799 153.171 62.2299C152.751 63.2799 152.621 63.2299 152.171 64.2299C151.721 65.2299 151.751 65.2799 151.331 66.3199C150.911 67.3599 150.871 67.32 150.461 68.39C150.051 69.46 150.141 69.48 149.721 70.53C149.301 71.58 149.201 71.53 148.781 72.53C148.361 73.53 148.501 73.63 148.081 74.68C147.661 75.73 147.801 75.7799 147.381 76.8199C146.961 77.8599 146.921 77.82 146.501 78.9C146.081 79.98 146.091 79.95 145.671 80.99C145.251 82.03 145.211 81.99 144.791 83.06C144.371 84.13 144.261 84.06 143.851 85.11C143.441 86.16 143.491 86.1799 143.071 87.2299C142.651 88.2799 142.781 88.33 142.361 89.37C141.941 90.41 141.981 90.4299 141.561 91.4799C141.141 92.5299 141.061 92.48 140.641 93.55C140.221 94.62 140.051 94.55 139.641 95.55C139.401 96.1283 138.998 96.6248 138.482 96.9796C137.965 97.3344 137.357 97.5325 136.731 97.55L136.771 97.78Z" fill="#D972B9"/>
<path d="M135.93 74.0297C136.73 74.8197 135.74 75.2197 135.72 76.3397C135.7 77.4597 135.72 77.4596 135.72 78.5696C135.72 79.6796 135.6 79.6796 135.57 80.7996C135.54 81.9196 135.77 81.9197 135.74 83.0297C135.71 84.1397 135.57 84.1496 135.54 85.2596C135.51 86.3696 135.62 86.3796 135.6 87.4996C135.58 88.6196 135.6 88.6197 135.55 89.7397V91.9696C135.55 93.0896 136.28 93.5096 135.48 94.2896C134.68 95.0696 134.29 94.0996 133.17 94.0996C132.05 94.0996 132.06 94.2696 130.95 94.2696C129.84 94.2696 129.83 94.1497 128.72 94.1497C127.61 94.1497 127.61 94.1996 126.49 94.1996C125.37 94.1996 125.38 94.1096 124.26 94.1096C123.14 94.1096 123.15 94.1096 122.03 94.1096C120.91 94.1096 120.92 94.2397 119.8 94.2397H117.58C116.46 94.2397 116.46 94.1296 115.35 94.1296C114.24 94.1296 114.24 94.2797 113.12 94.2797C112 94.2797 112.01 94.2797 110.89 94.2797C109.77 94.2797 109.78 94.2797 108.67 94.2797C107.56 94.2797 107.55 94.2797 106.44 94.2797C105.33 94.2797 105.32 94.3296 104.21 94.3296C103.1 94.3296 103.09 94.2397 101.98 94.2397C100.87 94.2397 100.86 94.2996 99.7505 94.2996H97.4805C96.3705 94.2996 96.3705 94.2397 95.2505 94.2397C94.1305 94.2397 94.1405 94.1396 93.0205 94.1396C91.9005 94.1396 91.9005 94.2097 90.7905 94.2097C89.6805 94.2097 89.6705 94.3196 88.5605 94.3196C87.4505 94.3196 87.4505 94.0996 86.3305 94.0996C85.2105 94.0996 85.2205 94.2797 84.1005 94.2797C82.9805 94.2797 82.9905 94.2097 81.8705 94.2097C80.7505 94.2097 80.7505 94.2696 79.6405 94.2696C78.5305 94.2696 78.5205 94.0996 77.4105 94.0996C76.3005 94.0996 76.2905 94.3496 75.1805 94.3496H70.7205C69.6005 94.3496 69.6005 94.2696 68.4905 94.2696C67.3805 94.2696 67.3705 94.3196 66.2605 94.3196C65.1505 94.3196 65.1405 94.0897 64.0305 94.0897C62.9205 94.0897 62.9205 94.1896 61.8005 94.1896C60.6805 94.1896 60.6905 94.2696 59.5805 94.2696C58.4705 94.2696 58.4605 94.0897 57.3405 94.0897C56.2205 94.0897 56.2305 94.2397 55.1105 94.2397C53.9905 94.2397 54.0005 94.1396 52.8905 94.1396C51.7805 94.1396 51.7705 94.2296 50.6605 94.2296C49.5505 94.2296 49.5405 94.2797 48.4205 94.2797C47.3005 94.2797 47.3105 94.1497 46.1905 94.1497C45.0705 94.1497 45.0805 94.2797 43.9605 94.2797C42.8405 94.2797 42.8405 94.1096 41.7305 94.1096C40.6205 94.1096 40.6105 94.1096 39.5005 94.1096C38.3905 94.1096 38.3805 94.2596 37.2605 94.2596C36.1405 94.2596 36.1505 94.1296 35.0305 94.1296C33.9105 94.1296 33.9105 94.3596 32.8005 94.3596H30.5805C29.4605 94.3596 29.4605 94.2596 28.3405 94.2596C27.2205 94.2596 27.2305 94.3496 26.1105 94.3496C24.9905 94.3496 24.9905 94.1696 23.8705 94.1696C22.7505 94.1696 22.7605 94.2196 21.6405 94.2196C20.5205 94.2196 20.5205 94.2996 19.4005 94.2996C18.2805 94.2996 18.2805 94.2996 17.1605 94.2996C16.406 94.2399 15.6572 94.1229 14.9205 93.9496C14.1824 93.8302 13.4563 93.6462 12.7505 93.3997C12.0406 93.1601 11.3543 92.8554 10.7005 92.4897C9.3662 91.7823 8.23135 90.7507 7.40047 89.4896C6.90133 88.9242 6.46852 88.3035 6.11047 87.6396C5.86794 86.9256 5.70037 86.1883 5.61047 85.4396C5.41107 84.7105 5.2838 83.9636 5.23047 83.2097C5.23047 84.5597 5.34047 84.5596 5.32047 85.9096C5.32327 85.198 5.36333 84.4871 5.44047 83.7797C5.46089 83.0656 5.53106 82.3539 5.65047 81.6497C5.80991 80.9594 6.04465 80.2887 6.35047 79.6497C6.70334 79.0264 7.14836 78.4599 7.67047 77.9696C8.12251 77.4119 8.66302 76.9322 9.27046 76.5496C9.93288 76.2749 10.6291 76.0899 11.3405 75.9996C12.0406 75.8808 12.7506 75.8305 13.4605 75.8496H15.7205C16.8505 75.8496 16.8505 75.6897 17.9805 75.6797H20.2405C21.3705 75.6797 21.3805 75.7696 22.5105 75.7496C23.6405 75.7296 23.6405 75.7496 24.7705 75.6996C25.9005 75.6496 25.9005 75.6996 27.0405 75.6396C28.1805 75.5796 28.1705 75.6896 29.3005 75.6396L31.5705 75.5897C32.7005 75.5897 32.7005 75.3797 33.8305 75.3697C34.9605 75.3597 34.9705 75.5596 36.1005 75.5396C37.2305 75.5196 37.2305 75.3696 38.3605 75.3496C39.4905 75.3296 39.4905 75.4496 40.6205 75.4396C41.7505 75.4296 41.7605 75.2897 42.8905 75.2797C44.0205 75.2697 44.0205 75.4396 45.1605 75.4196C46.3005 75.3996 46.2905 75.2396 47.4205 75.2296C48.5505 75.2196 48.5605 75.3996 49.6905 75.3896C50.8205 75.3796 50.8205 75.2696 51.9505 75.2596C53.0805 75.2496 53.0905 75.2596 54.2205 75.2596C55.3505 75.2596 55.3505 75.1796 56.4805 75.1696C57.6105 75.1596 57.6205 75.1096 58.7505 75.0996C59.8805 75.0896 59.8805 75.1696 61.0205 75.1596C62.1605 75.1496 62.1505 75.1596 63.2805 75.1596C64.4105 75.1596 64.4105 75.0497 65.5505 75.0297C66.6905 75.0097 66.6805 75.0297 67.8105 75.0297C68.9405 75.0297 68.9505 74.9396 70.0805 74.9196C71.2105 74.8996 71.2205 75.0997 72.3505 75.0897C73.4805 75.0797 73.4805 74.9596 74.6105 74.9496C75.7405 74.9396 75.7505 74.9496 76.8805 74.9496C78.0105 74.9496 78.0205 74.9496 79.1505 74.9496C80.2805 74.9496 80.2805 74.6997 81.4105 74.6797C82.5405 74.6597 82.5505 74.8296 83.6805 74.8196L85.9505 74.7696C87.0805 74.7696 87.0805 74.7696 88.2105 74.7696C89.3405 74.7696 89.3405 74.6196 90.4705 74.6096C91.6005 74.5996 91.6105 74.6997 92.7405 74.6797C93.8705 74.6597 93.8705 74.7396 95.0105 74.7296C96.1505 74.7196 96.1405 74.6496 97.2705 74.6296H99.5405C100.67 74.6296 100.67 74.6296 101.81 74.6296C102.95 74.6296 102.94 74.5796 104.07 74.5696C105.2 74.5596 105.21 74.4596 106.34 74.4396C107.47 74.4196 107.47 74.4396 108.61 74.4396C109.75 74.4396 109.74 74.3296 110.88 74.3196C112.02 74.3096 112.01 74.3996 113.15 74.3796C114.29 74.3596 114.28 74.3796 115.42 74.3796C116.56 74.3796 116.55 74.2696 117.68 74.2496H119.95C121.09 74.2496 121.09 74.1796 122.22 74.1596C123.35 74.1396 123.36 74.3496 124.49 74.3296C125.62 74.3096 125.63 74.2096 126.76 74.1996C127.89 74.1896 127.9 74.0797 129.03 74.0597C130.16 74.0397 130.17 74.1397 131.31 74.1197C132.059 74.2054 132.816 74.1649 133.55 73.9996C134.78 73.7296 135.13 73.2297 135.93 74.0297Z" fill="white"/>
<path d="M135.121 69.9901C135.006 70.7256 135.006 71.4746 135.121 72.2101C135.121 73.3001 135.121 73.3001 135.181 74.4001C135.241 75.5001 135.181 75.5001 135.181 76.6001C135.181 77.7001 135.291 77.7001 135.301 78.8001C135.311 79.9001 135.301 79.9001 135.301 81.0001C135.301 82.1001 135.241 82.1001 135.241 83.2001C135.241 84.3001 135.291 84.3001 135.301 85.4001C135.311 86.5001 135.301 86.5001 135.301 87.6001C135.301 88.7001 135.381 88.7001 135.391 89.8001C135.401 90.9001 135.391 90.9001 135.391 92.0001C135.391 93.1001 134.301 94.1101 135.391 94.2601C136.481 94.4101 135.821 93.1601 136.231 92.1201C136.641 91.0801 136.561 91.0401 136.981 89.9901C137.401 88.9401 137.521 88.9901 137.931 87.9901C138.341 86.9901 138.331 86.9301 138.751 85.8901C139.171 84.8501 139.081 84.8101 139.501 83.7601C139.921 82.7101 140.021 82.7601 140.431 81.7101C140.841 80.6601 140.821 80.6501 141.241 79.6101C141.661 78.5701 141.601 78.5401 142.011 77.5001C142.421 76.4601 142.381 76.4301 142.801 75.3901C143.221 74.3501 143.231 74.3901 143.651 73.3001C144.071 72.2101 144.151 72.3001 144.561 71.2401C144.971 70.1801 144.961 70.1901 145.381 69.1501C145.801 68.1101 145.751 68.0801 146.161 67.0401C146.571 66.0001 146.641 66.0401 147.061 64.9701C147.481 63.9001 147.371 63.8801 147.791 62.8401C148.211 61.8001 148.331 61.8401 148.791 60.8401C149.251 59.8401 149.071 59.7301 149.491 58.6901C149.911 57.6501 150.001 57.6901 150.411 56.6301C150.821 55.5701 150.801 55.5701 151.221 54.5301C151.641 53.4901 151.701 53.5301 152.121 52.4601C152.541 51.3901 152.481 51.3901 152.891 50.3401C153.301 49.2901 153.241 49.2701 153.661 48.2201C154.081 47.1701 154.141 47.2201 154.561 46.1501C154.981 45.0801 154.991 45.1501 155.411 44.0601C155.831 42.9701 155.801 43.0001 156.211 41.9501C156.621 40.9001 156.671 40.9501 157.091 39.8801C157.511 38.8101 157.401 38.7901 157.821 37.7401C158.241 36.6901 158.221 36.7401 158.631 35.6401L159.471 33.5401C159.891 32.4901 159.871 32.4801 160.281 31.4301C160.691 30.3801 160.691 30.4301 161.111 29.3301C161.531 28.2301 161.781 28.3301 162.001 27.2501C162.221 26.1701 161.941 26.1801 161.941 25.1101C161.941 24.0401 162.011 24.0401 162.011 22.9701C162.011 21.9001 161.931 21.9001 161.931 20.8301C161.931 19.7601 162.031 19.7601 162.031 18.6901C162.031 17.6201 161.941 17.6201 161.941 16.5501C161.941 15.4801 161.941 15.4801 161.941 14.4101V12.2601C161.941 11.1901 161.941 11.1901 161.941 10.1201C161.941 9.05008 162.031 9.04009 162.031 7.97009C162.031 6.90009 163.031 5.97009 161.961 5.83009C160.891 5.69009 161.451 6.83009 161.021 7.83009C160.591 8.83009 160.741 8.93009 160.311 9.97009C159.881 11.0101 159.781 10.9701 159.311 11.9701C158.841 12.9701 158.841 12.9701 158.411 14.0201C157.981 15.0701 158.041 15.0801 157.611 16.1201C157.181 17.1601 157.211 17.1701 156.781 18.2101C156.351 19.2501 156.271 19.2101 155.841 20.2101C155.411 21.2101 155.531 21.2901 155.101 22.3301C154.671 23.3701 154.581 23.3301 154.151 24.3301C153.721 25.3301 153.791 25.3901 153.361 26.4301C152.931 27.4701 152.821 27.4301 152.361 28.4301C151.901 29.4301 151.901 29.4301 151.471 30.4901C151.041 31.5501 151.121 31.5601 150.691 32.5901C150.261 33.6201 150.191 33.5901 149.761 34.6401C149.331 35.6901 149.381 35.6901 148.951 36.7301C148.521 37.7701 148.501 37.7301 148.071 38.7901C147.641 39.8501 147.651 39.7901 147.221 40.8701C146.791 41.9501 146.761 41.8701 146.331 42.9301C145.901 43.9901 145.991 44.0101 145.551 45.0401C145.111 46.0701 145.021 46.0401 144.551 47.0401C144.081 48.0401 144.181 48.1101 143.751 49.1401C143.321 50.1701 143.351 50.2001 142.921 51.2301C142.491 52.2601 142.431 52.2301 142.001 53.2901C141.571 54.3501 141.551 54.2901 141.121 55.3501C140.691 56.4101 140.661 56.3501 140.221 57.4101C139.781 58.4701 139.921 58.5001 139.491 59.5401C139.061 60.5801 138.931 60.5401 138.491 61.5401C138.051 62.5401 138.121 62.6001 137.691 63.6401C137.261 64.6801 137.271 64.6901 136.841 65.7301C136.59 66.4374 136.29 67.1258 135.941 67.7901C135.511 68.4551 135.231 69.2059 135.121 69.9901Z" fill="#DDCED9"/>
<path d="M134.771 75.64C133.641 75.64 133.641 75.87 132.511 75.87C131.381 75.87 131.371 75.77 130.241 75.77C129.111 75.77 129.111 75.82 127.971 75.82C126.831 75.82 126.841 75.94 125.711 75.94C124.581 75.94 124.581 75.64 123.481 75.64C122.381 75.64 122.341 75.82 121.211 75.82C120.081 75.82 120.081 75.76 118.951 75.76C117.821 75.76 117.821 75.91 116.691 75.91H114.421C113.291 75.91 113.291 75.81 112.161 75.81C111.031 75.81 111.031 75.88 109.891 75.88C108.751 75.88 108.761 75.88 107.631 75.88C106.501 75.88 106.491 75.67 105.361 75.67H103.101C101.961 75.67 101.961 75.77 100.831 75.77C99.7007 75.77 99.7007 75.61 98.5707 75.61C97.4407 75.61 97.4407 75.7 96.3007 75.7C95.1607 75.7 95.1707 75.7 94.0407 75.7C92.9107 75.7 92.9007 75.76 91.7707 75.76C90.6407 75.76 90.6407 75.69 89.5007 75.69C88.3607 75.69 88.3707 75.85 87.2407 75.85C86.1107 75.85 86.1107 75.79 84.9707 75.79C83.8307 75.79 83.8407 75.63 82.7107 75.63C81.5807 75.63 81.5807 75.63 80.4407 75.63H78.1707C77.0407 75.63 77.0407 75.71 75.9107 75.71C74.7807 75.71 74.7707 75.8 73.6407 75.8C72.5107 75.8 72.5107 75.66 71.3807 75.66C70.2507 75.66 70.2407 75.49 69.1107 75.49C67.9807 75.49 67.9707 75.65 66.8407 75.65C65.7107 75.65 65.7107 75.52 64.5707 75.52C63.4307 75.52 63.4407 75.58 62.3107 75.58H60.0407C58.9107 75.58 58.9107 75.75 57.7707 75.75C56.6307 75.75 56.6107 75.64 55.4807 75.64C54.3507 75.64 54.3507 75.75 53.2207 75.75C52.0907 75.75 52.0807 75.75 50.9507 75.75H48.6907C47.5507 75.75 47.5507 75.66 46.4207 75.66C45.2907 75.66 45.2907 75.66 44.1607 75.66C43.0307 75.66 43.0207 75.87 41.8907 75.87H39.6207C38.4907 75.87 38.4907 75.64 37.3607 75.64C36.2307 75.64 36.2207 75.73 35.0907 75.73C33.9607 75.73 33.9607 75.92 32.8207 75.92C31.6807 75.92 31.6907 75.78 30.5607 75.78C29.4307 75.78 29.4207 75.78 28.2907 75.78H26.0207C24.8807 75.78 24.8807 75.6 23.7507 75.6C22.6207 75.6 22.6107 75.92 21.4807 75.92C20.3507 75.92 20.3407 75.66 19.2107 75.66C18.0807 75.66 18.0707 75.78 16.9407 75.78C15.8107 75.78 15.8007 75.87 14.6707 75.87C13.5407 75.87 13.5407 75.87 12.4007 75.87C11.2607 75.87 11.2707 75.87 10.1307 75.87C8.99067 75.87 8.99068 75.58 7.86068 75.58C6.73068 75.58 6.72067 75.65 5.58067 75.65H3.31067C2.17067 75.65 1.71067 76.65 1.17067 75.65C0.630674 74.65 1.79067 74.86 2.41067 73.9C3.03067 72.94 2.97067 72.9 3.59067 71.9C4.21067 70.9 4.29067 71 4.92067 70.05C5.55067 69.1 5.38067 68.99 6.00067 68.05C6.62067 67.11 6.67067 67.12 7.29067 66.17C7.91067 65.22 8.03067 65.29 8.65067 64.34C9.27067 63.39 9.22067 63.34 9.85067 62.4C10.4807 61.46 10.4507 61.4 11.0807 60.48C11.7107 59.56 11.5807 59.48 12.2107 58.48C12.8407 57.48 12.8807 57.56 13.5007 56.61C14.1207 55.66 14.2207 55.72 14.8507 54.77C15.4807 53.82 15.4007 53.77 16.0207 52.77C16.6407 51.77 16.5107 51.77 17.1407 50.77C17.7707 49.77 17.9707 49.95 18.5907 49C19.2107 48.05 19.1907 48 19.8207 47.08C20.4507 46.16 20.3107 46.08 20.9307 45.08C21.5507 44.08 21.7307 44.24 22.3507 43.29C22.9707 42.34 22.9407 42.29 23.5607 41.36C24.1807 40.43 24.1007 40.36 24.7307 39.36C25.3607 38.36 25.2707 38.36 25.9007 37.36C26.5307 36.36 26.5707 36.43 27.1907 35.48C27.8107 34.53 27.9607 34.62 28.5907 33.67C29.2207 32.72 29.1907 32.67 29.8107 31.75C30.4307 30.83 30.3607 30.75 30.9907 29.75C31.6207 28.75 31.7207 28.87 32.3507 27.92C32.9807 26.97 32.8107 26.85 33.4407 25.92C34.0707 24.99 34.2807 25.11 34.9007 24.15C35.5207 23.19 35.3007 23.05 35.9007 22.09C36.5007 21.13 36.6907 21.25 37.3207 20.3C37.9507 19.35 37.8907 19.3 38.5207 18.36C39.1507 17.42 39.2707 17.48 39.8907 16.53C40.5107 15.58 40.4307 15.53 41.0507 14.53C41.6707 13.53 41.5707 13.53 42.1907 12.53C42.8107 11.53 42.9307 11.64 43.5607 10.69C44.1907 9.74 44.2607 9.77 44.8607 8.8C45.1503 8.13172 45.4844 7.4836 45.8607 6.86C46.289 6.2723 46.7568 5.71435 47.2607 5.19C47.6967 4.59664 48.1746 4.0352 48.6907 3.50999C49.2412 3.02504 49.826 2.58054 50.4407 2.17999C51.0667 1.80184 51.7183 1.4677 52.3907 1.17999C53.0736 0.950494 53.772 0.770042 54.4807 0.639999C55.1887 0.43268 55.9105 0.275622 56.6407 0.169998C57.3765 0.119847 58.1149 0.119847 58.8507 0.169998C59.9707 0.169998 59.9707 0.0599976 61.0907 0.0599976C62.2107 0.0599976 62.2107 0.190002 63.3307 0.190002C64.4507 0.190002 64.4407 0.0299988 65.5607 0.0299988C66.6807 0.0299988 66.6807 0.220001 67.8007 0.220001C68.9207 0.220001 68.9207 0.0399933 70.0407 0.0399933C71.1607 0.0399933 71.1607 0.0899963 72.2807 0.0899963H74.5207C75.6407 0.0899963 75.6407 0.179993 76.7607 0.179993C77.8807 0.179993 77.8807 0.350006 79.0007 0.350006C80.1207 0.350006 80.1207 0.179993 81.2307 0.179993C82.3407 0.179993 82.3507 0.360001 83.4707 0.360001C84.5907 0.360001 84.5907 0.0500031 85.7107 0.0500031C86.8307 0.0500031 86.8307 0.25 87.9507 0.25C89.0707 0.25 89.0707 0.339996 90.1907 0.339996C91.3107 0.339996 91.3107 0.199997 92.4307 0.199997C93.5507 0.199997 93.5507 0.130005 94.6707 0.130005C95.7907 0.130005 95.7907 0.300003 96.9107 0.300003C98.0307 0.300003 98.0307 0.0599976 99.1507 0.0599976C100.271 0.0599976 100.271 0.229996 101.391 0.229996C102.511 0.229996 102.511 0.0800018 103.631 0.0800018C104.751 0.0800018 104.751 0.309998 105.871 0.309998C106.991 0.309998 106.991 0.309998 108.111 0.309998C109.231 0.309998 109.231 0.149994 110.361 0.149994C111.491 0.149994 111.481 0.289993 112.601 0.289993C113.721 0.289993 113.721 0.179993 114.841 0.179993C115.961 0.179993 115.961 0.179993 117.071 0.179993C118.181 0.179993 118.191 0.179993 119.311 0.179993C120.431 0.179993 120.431 0.240005 121.551 0.240005C122.671 0.240005 122.671 0.0699921 123.791 0.0699921C124.911 0.0699921 124.911 0.279999 126.031 0.279999C127.151 0.279999 127.151 0.149994 128.271 0.149994C129.391 0.149994 129.391 0.0699921 130.511 0.0699921C131.631 0.0699921 131.631 0.190002 132.751 0.190002C133.871 0.190002 133.871 0.190002 134.991 0.190002C136.111 0.190002 136.111 0.270004 137.231 0.270004C138.351 0.270004 138.351 0 139.471 0C140.591 0 140.601 0.270004 141.721 0.270004C142.841 0.270004 142.841 0.130005 143.961 0.130005C145.081 0.130005 145.081 0.130005 146.201 0.130005C147.321 0.130005 147.331 0.199997 148.451 0.199997C149.571 0.199997 149.571 0.199997 150.691 0.199997C151.811 0.199997 151.811 0.289993 152.931 0.289993C154.051 0.289993 154.051 0.139999 155.181 0.139999C156.311 0.139999 156.301 0.0500031 157.421 0.0500031C158.541 0.0500031 158.541 0.220001 159.671 0.220001C160.801 0.220001 160.791 0.0899963 161.921 0.0899963C163.051 0.0899963 163.041 0.240005 164.171 0.240005C164.893 0.184287 165.614 0.359367 166.231 0.740005C166.729 1.25594 167.057 1.91202 167.171 2.62C167.383 3.27274 167.366 3.97869 167.121 4.62C166.681 5.62 166.871 5.73999 166.421 6.78999C165.971 7.83999 165.841 7.78999 165.421 8.78999C165.001 9.78999 164.911 9.79001 164.471 10.85C164.031 11.91 163.961 11.85 163.471 12.92C162.981 13.99 163.231 14.05 162.791 15.1C162.351 16.15 162.351 16.15 161.911 17.19C161.471 18.23 161.471 18.24 161.021 19.28C160.571 20.32 160.491 20.28 160.021 21.34C159.551 22.4 159.571 22.34 159.131 23.42C158.691 24.5 158.811 24.52 158.371 25.57C157.931 26.62 157.951 26.57 157.511 27.67C157.071 28.77 156.871 28.67 156.431 29.67C155.991 30.67 155.901 30.67 155.431 31.72C154.961 32.77 155.021 32.78 154.581 33.82C154.141 34.86 154.391 34.98 153.941 36.02C153.491 37.06 153.251 36.96 152.801 38.02C152.351 39.08 152.521 39.13 152.081 40.18C151.641 41.23 151.711 41.25 151.271 42.3C150.831 43.35 150.541 43.23 150.091 44.3C149.641 45.37 149.691 45.37 149.251 46.41C148.811 47.45 148.831 47.47 148.381 48.52C147.931 49.57 147.871 49.52 147.381 50.58C146.891 51.64 147.101 51.69 146.651 52.74C146.201 53.79 146.101 53.74 145.651 54.79C145.201 55.84 145.261 55.86 144.821 56.91C144.381 57.96 144.501 58.01 144.061 59.06C143.621 60.11 143.421 60.06 142.971 61.06C142.521 62.06 142.671 62.17 142.231 63.21C141.791 64.25 141.691 64.21 141.231 65.27C140.771 66.33 140.861 66.35 140.411 67.4C139.961 68.45 139.891 68.4 139.411 69.46C138.931 70.52 139.071 70.55 138.621 71.6C138.171 72.65 138.121 72.6 137.681 73.68C137.46 74.3133 137.052 74.8644 136.511 75.26C135.976 75.5418 135.374 75.6732 134.771 75.64Z" fill="#D972B9"/>
<path d="M117.132 25.7304C116.132 26.3204 115.972 25.7304 114.852 25.7304C113.732 25.7304 113.732 25.7304 112.602 25.7304C111.472 25.7304 111.482 25.6304 110.362 25.6304C109.242 25.6304 109.242 25.6304 108.112 25.6304C106.982 25.6304 106.992 25.6804 105.872 25.6804H103.622C102.502 25.6804 102.502 25.7604 101.382 25.7604H99.1319C98.0119 25.7604 98.0119 25.7104 96.8819 25.7104C95.7519 25.7104 95.7619 25.6004 94.6419 25.6004C93.5219 25.6004 93.5119 25.7104 92.3919 25.7104C91.2719 25.7104 91.2719 25.8204 90.1419 25.8204C89.0119 25.8204 89.0219 25.7204 87.8919 25.7204H85.6519C84.5219 25.7204 84.5219 25.8304 83.4019 25.8304C82.2819 25.8304 82.2819 25.7004 81.1519 25.7004C80.0219 25.7004 80.0319 25.5704 78.9019 25.5704C77.7719 25.5704 77.7819 25.7804 76.6519 25.7804C75.5219 25.7804 75.5319 25.5504 74.4019 25.5504C73.2719 25.5504 73.2719 25.8404 72.1519 25.8404C71.0319 25.8404 70.3219 26.7504 69.8019 25.7504C69.2819 24.7504 70.5519 24.7504 71.1619 23.7504C71.7719 22.7504 71.7819 22.7504 72.3819 21.7504C72.9819 20.7504 72.7919 20.6304 73.3819 19.6304C73.9719 18.6304 74.1819 18.7404 74.7819 17.7404C75.3819 16.7404 75.2519 16.6504 75.8619 15.6504C76.4719 14.6504 76.1719 14.3504 77.1919 13.7604C78.2119 13.1704 78.2919 13.6904 79.4319 13.6904H81.7119C82.8519 13.6904 82.8519 13.5604 83.9919 13.5604C85.1319 13.5604 85.1319 13.8204 86.2819 13.8204C87.4319 13.8204 87.4219 13.6704 88.5619 13.6704C89.7019 13.6704 89.7019 13.8004 90.8419 13.8004C91.9819 13.8004 91.9919 13.5904 93.1319 13.5904C94.2719 13.5904 94.2719 13.7904 95.4119 13.7904C96.5519 13.7904 96.5619 13.8504 97.7019 13.8504C98.8419 13.8504 98.8419 13.7404 99.9819 13.7404C101.122 13.7404 101.132 13.7404 102.272 13.7404C103.412 13.7404 103.412 13.6904 104.562 13.6904C105.712 13.6904 105.702 13.6204 106.842 13.6204C107.982 13.6204 107.982 13.6904 109.132 13.6904C110.282 13.6904 110.272 13.8004 111.412 13.8004C112.552 13.8004 112.562 13.6604 113.702 13.6604C114.842 13.6604 114.842 13.8004 115.992 13.8004C117.142 13.8004 117.132 13.8004 118.282 13.8004C119.432 13.8004 119.482 13.6404 120.582 13.6404C121.682 13.6404 122.192 12.7004 122.822 13.6404C123.452 14.5804 122.382 14.6404 121.902 15.6404C121.422 16.6404 121.292 16.5804 120.812 17.5804C120.332 18.5804 120.402 18.5804 119.922 19.5804C119.442 20.5804 119.562 20.6404 119.082 21.6504C118.602 22.6604 118.212 22.5104 117.922 23.5904C117.632 24.6704 118.072 25.1404 117.132 25.7304Z" fill="#E4BDF2"/>
</svg>
