<svg width="611" height="284" viewBox="0 0 611 284" fill="none" xmlns="http://www.w3.org/2000/svg">
<path d="M0.17955 218.804C0.17955 217.804 -0.0704541 216.804 0.0195459 215.884C0.281363 214.942 0.591771 214.014 0.949539 213.104C1.12954 212.104 1.25954 211.204 1.52954 210.284C1.84711 209.382 2.21094 208.498 2.61955 207.634C2.97955 206.734 2.93955 205.634 3.37955 204.804C3.81955 203.974 4.98955 203.524 5.50955 202.724C5.96001 201.885 6.45401 201.071 6.98955 200.284C7.58955 199.534 7.69954 198.344 8.35954 197.644C9.01954 196.944 9.96954 196.514 10.6995 195.894C11.4295 195.274 12.3395 194.894 13.1295 194.324C14.3595 193.464 14.0195 192.974 15.2495 192.114C16.4795 191.254 16.6395 191.484 17.8695 190.624C19.0995 189.764 19.3695 190.134 20.5995 189.274C21.8295 188.414 21.5995 188.054 22.7995 187.184C23.9995 186.314 24.4695 186.954 25.6995 186.094C26.9295 185.234 26.8295 185.094 28.0595 184.214C29.2895 183.334 28.9095 182.814 30.1395 181.954C31.3695 181.094 31.8695 181.804 33.1395 180.954C34.4095 180.104 33.7795 179.234 35.0095 178.374C36.2395 177.514 36.2295 177.494 37.4595 176.634C38.6895 175.774 39.1095 176.384 40.3395 175.514C41.5695 174.644 41.4295 174.454 42.6595 173.594C43.8895 172.734 43.7295 172.504 44.9595 171.594C46.1895 170.684 46.3295 170.924 47.5595 170.064C48.7895 169.204 48.8195 169.244 50.0495 168.384C51.2795 167.524 51.4295 167.734 52.6595 166.874C53.8895 166.014 53.5295 165.504 54.7695 164.644C56.0095 163.784 56.2695 164.164 57.4995 163.304C58.7295 162.444 58.5795 162.214 59.8095 161.304C61.0395 160.394 61.2595 160.764 62.4995 159.904C63.7395 159.044 63.4195 158.614 64.6495 157.744C65.8795 156.874 65.9595 157.004 67.1995 156.144C68.4395 155.284 68.7095 155.684 69.9395 154.824C71.1695 153.964 71.0795 153.824 72.3095 152.964C73.5395 152.104 73.5495 152.124 74.7795 151.264C76.0095 150.404 76.0895 150.514 77.3295 149.654C78.5695 148.794 78.0895 148.124 79.3295 147.264C80.5695 146.404 80.7195 146.624 81.9495 145.764C83.1795 144.904 82.9495 144.644 84.2295 143.764C85.5095 142.884 85.4195 142.834 86.6495 141.974C87.8795 141.114 88.1095 141.444 89.3395 140.574C90.5695 139.704 90.7095 139.924 91.9395 139.064C93.1695 138.204 93.4395 138.584 94.6695 137.724C95.8995 136.864 95.2495 135.944 96.4795 135.084C97.7095 134.224 98.2195 134.954 99.4795 134.084C100.74 133.214 100.73 133.254 101.96 132.394C103.19 131.534 103.26 131.634 104.49 130.774C105.72 129.914 105.33 129.334 106.56 128.474C107.79 127.614 107.99 127.904 109.22 127.044C110.45 126.184 110.5 126.244 111.73 125.384C112.96 124.524 112.49 123.854 113.73 122.994C114.97 122.134 115.31 122.634 116.54 121.774C117.77 120.914 117.7 120.774 118.93 119.964L121.39 118.244C122.62 117.384 122.39 117.054 123.62 116.244C124.85 115.434 124.97 115.554 126.2 114.694C127.43 113.834 127.58 114.054 128.81 113.194C130.04 112.334 130.08 112.384 131.31 111.524C132.54 110.664 132.58 110.724 133.82 109.864C135.06 109.004 134.71 108.514 135.94 107.654C137.17 106.794 137.41 107.134 138.64 106.264C139.87 105.394 139.75 105.264 140.99 104.384C142.23 103.504 142.44 103.844 143.67 102.974C144.9 102.104 145.15 102.474 146.38 101.614C147.61 100.754 147.44 100.504 148.67 99.614C149.9 98.724 149.55 98.2639 150.78 97.4039C152.01 96.5439 152.13 96.6939 153.36 95.8339C154.59 94.9739 154.74 95.1939 155.97 94.3339C157.2 93.4739 156.87 92.9939 158.1 92.1339C159.33 91.2739 159.24 91.1339 160.47 90.2739C161.7 89.4139 162.34 90.2739 163.57 89.4539C164.8 88.6339 164.2 87.7439 165.44 86.8839L167.9 85.1539C169.13 84.2939 169.78 85.2338 171.01 84.3738C172.24 83.5138 172.19 83.4339 173.42 82.5739C174.65 81.7139 174.14 80.984 175.37 80.114C176.6 79.244 176.62 79.2639 177.85 78.4039C179.08 77.5439 179.62 78.3039 180.85 77.4039C182.08 76.5039 182.03 76.474 183.26 75.614C184.49 74.754 184.12 74.214 185.35 73.354C186.58 72.494 186.47 72.3539 187.7 71.4639C188.93 70.5739 188.91 70.5739 190.14 69.7139C191.37 68.8539 191.6 69.1739 192.83 68.3139C194.06 67.4539 194.03 67.4039 195.27 66.5339C196.51 65.6639 196.45 65.6139 197.69 64.7539C198.93 63.8939 198.69 63.6239 199.96 62.7539C201.23 61.8839 201.66 62.5439 202.89 61.6839C204.12 60.8239 203.66 60.1639 204.89 59.3039C206.12 58.4439 206.59 59.094 207.82 58.234C209.05 57.374 208.92 57.2339 210.15 56.3239C211.38 55.4139 211.63 55.8039 212.86 54.9439C214.09 54.0839 213.93 53.8439 215.16 52.9439L217.63 51.2139C218.86 50.3539 219.02 50.5839 220.25 49.7239C221.48 48.8639 221.33 48.6339 222.56 47.7239C223.79 46.8139 223.63 46.6239 224.86 45.7239C226.09 44.8239 225.86 44.464 227.04 43.604C228.22 42.744 228.43 42.964 229.66 42.104C230.89 41.244 230.83 41.1039 232.06 40.2839C233.29 39.4639 233.63 39.9139 234.87 39.0539L237.33 37.3239C238.56 36.4639 238.67 36.6239 239.91 35.7639C241.15 34.9039 240.81 34.4239 242.04 33.5639C243.27 32.7039 243.24 32.6539 244.47 31.7939C245.7 30.9339 245.97 31.3039 247.2 30.4339C248.43 29.5639 248.39 29.5139 249.62 28.6439C250.85 27.7739 251.02 28.0139 252.25 27.1439C253.48 26.2739 253.33 26.0639 254.57 25.2039C255.81 24.3439 255.7 24.2039 256.93 23.3239C258.16 22.4439 257.87 22.0439 259.1 21.1739C260.33 20.3039 260.57 20.6439 261.8 19.7839C263.03 18.9239 263.22 19.1839 264.45 18.3139C265.68 17.4439 265.33 16.9439 266.56 16.0739C267.79 15.2039 268.23 15.8339 269.46 14.9639C270.69 14.0939 270.52 13.8439 271.76 12.9639C273 12.0839 273.15 12.3139 274.39 11.4539C275.63 10.5939 275.7 10.6939 276.93 9.82392C277.77 9.23392 278.53 8.57389 279.39 8.04389C280.25 7.51389 281.12 7.04388 282.02 6.52388C282.92 6.00388 283.52 4.95388 284.45 4.52388C285.38 4.09388 286.35 3.72396 287.3 3.36396C288.25 3.00396 289.36 3.05385 290.3 2.74385C291.24 2.43385 292.39 2.74396 293.38 2.48396C294.37 2.22396 295.31 1.95387 296.31 1.76387C297.31 1.57387 298.31 1.37385 299.31 1.24385C300.31 1.11385 301.31 0.49391 302.31 0.43391C303.31 0.37391 304.31 0.603953 305.37 0.603953C306.43 0.603953 307.43 -0.0561442 308.45 0.00385579C309.47 0.0638558 310.52 0.0639095 311.53 0.18391C312.54 0.30391 313.47 1.09388 314.47 1.27388C315.47 1.45388 316.47 1.59394 317.47 1.84394C318.47 2.09394 319.58 1.94385 320.55 2.24385C321.52 2.54385 322.19 3.73395 323.14 4.10395C324.09 4.47395 325.35 4.10386 326.28 4.50386C327.21 4.90386 328.2 5.28387 329.1 5.76387C330 6.24387 330.35 7.67393 331.22 8.20393C332.09 8.73393 333.12 8.97391 333.96 9.56391C335.19 10.4239 334.96 10.7739 336.17 11.6339C337.38 12.4939 337.75 12.004 338.98 12.864C340.21 13.724 340.06 13.9339 341.3 14.7939L343.76 16.5139C344.99 17.3739 345.11 17.2039 346.34 18.0639C347.57 18.9239 347.81 18.5939 349.04 19.4539C350.27 20.3139 349.75 21.0539 351.04 21.9139C352.33 22.7739 352.44 22.5339 353.67 23.3939C354.9 24.2539 355.02 24.0839 356.26 24.9439C357.5 25.8039 357.26 26.1339 358.48 26.9439C359.7 27.7539 359.84 27.624 361.07 28.484C362.3 29.344 362.35 29.2839 363.58 30.1439C364.81 31.0039 364.83 30.9839 366.06 31.8439C367.29 32.7039 367.26 32.734 368.49 33.604C369.72 34.474 369.92 34.1839 371.15 35.0439C372.38 35.9039 372.28 36.0439 373.51 36.9039C374.74 37.7639 374.68 37.9039 375.91 38.7239C377.14 39.5439 377.33 39.3139 378.56 40.1839C379.79 41.0539 379.49 41.4739 380.72 42.3339C381.95 43.1939 382.3 42.6939 383.53 43.5639C384.76 44.4339 384.43 44.8939 385.66 45.7539C386.89 46.6139 386.85 46.6839 388.08 47.5439C389.31 48.4039 389.23 48.5439 390.46 49.3739C391.69 50.2039 391.84 50.0239 393.07 50.8839C394.3 51.7439 394.66 51.244 395.89 52.104C397.12 52.964 397.08 53.0239 398.31 53.8839C399.54 54.7439 399.57 54.7039 400.8 55.5639C402.03 56.4239 401.45 57.254 402.69 58.114C403.93 58.974 404.53 58.1139 405.76 58.9639C406.99 59.8139 406.64 60.3239 407.88 61.1839C409.12 62.0439 409.06 62.1039 410.3 62.9739C411.54 63.8439 411.3 64.1539 412.53 64.9739C413.76 65.7939 413.78 65.8039 415.01 66.6639C416.24 67.5239 416.87 66.6639 418.1 67.4739C419.33 68.2839 418.79 69.1139 420.02 69.9739C421.25 70.8339 421.73 70.1439 422.96 70.9739C424.19 71.8039 423.85 72.3239 425.08 73.1839C426.31 74.0439 426.72 73.4539 427.95 74.3139C429.18 75.1739 428.87 75.6338 430.1 76.4938C431.33 77.3538 431.1 77.6338 432.36 78.4938C433.62 79.3538 433.58 79.374 434.81 80.234C436.04 81.094 436.07 81.0539 437.29 81.9139C438.51 82.7739 438.62 82.6338 439.85 83.4938C441.08 84.3538 441.01 84.4939 442.24 85.3139C443.47 86.1339 443.38 86.3139 444.61 87.1639C445.84 88.0139 446.31 87.3439 447.54 88.1639C448.77 88.9839 448.62 89.244 449.85 90.104C451.08 90.964 451.15 90.874 452.38 91.734C453.61 92.594 453.49 92.7338 454.72 93.6238C455.95 94.5138 455.59 95.004 456.83 95.864C458.07 96.724 458.55 96.014 459.78 96.864C461.01 97.714 460.95 97.8639 462.18 98.6739C463.41 99.4839 463.18 99.8239 464.44 100.674C465.7 101.524 465.78 101.384 467.01 102.244C468.24 103.104 468.13 103.244 469.36 104.124C470.59 105.004 471 104.394 472.23 105.264C473.46 106.134 472.82 107.034 474.05 107.894C475.28 108.754 475.85 107.894 477.05 108.804C478.25 109.714 477.99 110.084 479.22 110.944C480.45 111.804 480.81 111.304 482.04 112.164C483.27 113.024 483.23 113.094 484.46 113.954C485.69 114.814 485.08 115.694 486.31 116.554C487.54 117.414 488.05 116.684 489.31 117.554C490.57 118.424 490.72 118.154 491.95 119.014C493.18 119.874 493.06 120.014 494.29 120.914C495.52 121.814 495.21 122.224 496.44 123.084C497.67 123.944 497.44 124.294 498.66 125.154C499.88 126.014 500.03 125.834 501.26 126.694C502.49 127.554 502.37 127.694 503.6 128.594C504.83 129.494 505.42 128.594 506.65 129.474C507.88 130.354 507.47 130.924 508.65 131.784C509.83 132.644 510 132.484 511.23 133.344C512.46 134.204 512.29 134.464 513.52 135.344C514.75 136.224 515.02 135.824 516.25 136.694C517.48 137.564 517.4 137.694 518.64 138.524C519.88 139.354 519.64 139.744 520.85 140.604C522.06 141.464 522.69 140.604 523.92 141.464C525.15 142.324 524.83 142.794 526.06 143.654C527.29 144.514 526.95 145.014 528.18 145.874C529.41 146.734 529.85 146.114 531.08 146.974C532.31 147.834 532.08 148.114 533.35 148.974C534.62 149.834 534.35 150.184 535.58 151.044C536.81 151.904 537.39 151.044 538.58 151.944C539.77 152.844 539.58 153.094 540.85 153.944C542.12 154.794 542.15 154.714 543.38 155.574C544.61 156.434 544.44 156.684 545.67 157.574C546.9 158.464 547.2 158.004 548.43 158.864C549.66 159.724 549.58 159.864 550.81 160.704C552.04 161.544 551.94 161.704 553.17 162.584C554.4 163.464 554.17 163.844 555.36 164.704C556.55 165.564 556.9 165.124 558.13 165.984C559.36 166.844 559.31 166.984 560.54 167.794C561.77 168.604 561.63 168.864 562.86 169.724C564.09 170.584 564.28 170.324 565.51 171.184C566.74 172.044 566.81 171.964 568.04 172.824C569.27 173.684 568.88 174.244 570.11 175.114C571.34 175.984 571.33 175.994 572.57 176.854C573.81 177.714 574.39 176.854 575.63 177.744C576.87 178.634 576.63 178.974 577.83 179.844C579.03 180.714 579.33 180.324 580.57 181.194C581.81 182.064 581.71 182.194 582.95 183.034C584.19 183.874 583.73 184.544 584.95 185.404C586.17 186.264 586.23 186.204 587.47 187.074C588.71 187.944 589.2 187.234 590.47 188.074C591.74 188.914 591.54 189.174 592.78 190.074C594.02 190.974 593.72 191.364 594.96 192.234C596.2 193.104 596.23 193.054 597.47 193.914C598.26 194.474 599.29 194.714 600.02 195.334C600.75 195.954 601.17 196.924 601.84 197.614C602.51 198.304 602.9 199.204 603.5 199.954C604.173 200.634 604.81 201.348 605.41 202.094C605.93 202.894 606.7 203.564 607.15 204.414C607.6 205.264 608.27 206.044 608.63 206.934C608.99 207.824 608.31 209.074 608.63 209.994C608.95 210.914 609.87 211.654 610.06 212.594C610.25 213.534 610.66 214.474 610.75 215.434C610.84 216.394 609.82 217.434 609.82 218.364C609.82 219.894 611 219.894 611 221.424C611 222.954 609.82 222.954 609.82 224.424C609.82 225.894 610.62 225.954 610.62 227.484C610.62 229.014 610.38 229.014 610.38 230.544C610.38 232.074 610.55 232.074 610.55 233.604C610.55 235.134 609.83 235.134 609.83 236.664C609.83 238.194 610.98 238.184 610.98 239.664C610.98 241.144 610.68 241.194 610.68 242.724C610.68 244.254 610.8 244.254 610.8 245.784C610.8 247.314 610.8 247.314 610.8 248.784C610.8 250.254 610.17 250.314 610.17 251.844C610.17 253.374 610 253.374 610 254.904C610 256.434 610.07 256.434 610.07 257.964C610.07 259.494 610.07 259.494 610.07 261.024C610.07 262.554 610.07 262.554 610.07 264.084C610.07 265.614 609.87 265.614 609.87 267.144C609.87 268.674 610.21 268.674 610.21 270.214C610.21 271.754 610.3 271.744 610.3 273.214C610.3 274.684 610.67 274.754 610.67 276.284C610.67 277.814 610.37 277.814 610.37 279.344C610.37 280.874 610.82 280.874 610.82 282.404C610.82 283.934 610.36 283.944 610.36 285.474C610.36 287.004 611.46 287.474 610.36 288.594C609.26 289.714 608.81 288.874 607.31 288.874C605.81 288.874 605.81 288.234 604.31 288.234C602.81 288.234 602.81 288.444 601.31 288.444C599.81 288.444 599.81 288.134 598.31 288.134C596.81 288.134 596.81 288.634 595.31 288.634C593.81 288.634 593.81 288.804 592.31 288.804C590.81 288.804 590.81 289.054 589.31 289.054C587.81 289.054 587.81 288.614 586.31 288.614C584.81 288.614 584.81 288.164 583.31 288.164C581.81 288.164 581.81 287.994 580.31 287.994C578.81 287.994 578.81 288.514 577.31 288.514C575.81 288.514 575.81 288.884 574.31 288.884C572.81 288.884 572.81 288.074 571.31 288.074C569.81 288.074 569.81 288.214 568.31 288.214C566.81 288.214 566.81 289.034 565.31 289.034C563.81 289.034 563.81 289.034 562.31 289.034C560.81 289.034 560.8 288.414 559.31 288.414C557.82 288.414 557.81 288.034 556.31 288.034C554.81 288.034 554.81 289.034 553.31 289.034C551.81 289.034 551.81 288.454 550.31 288.454C548.81 288.454 548.81 288.674 547.31 288.674C545.81 288.674 545.81 289.124 544.31 289.124C542.81 289.124 542.81 288.124 541.31 288.124C539.81 288.124 539.81 288.994 538.31 288.994C536.81 288.994 536.81 287.994 535.31 287.994C533.81 287.994 533.8 288.774 532.31 288.774C530.82 288.774 530.81 288.024 529.31 288.024C527.81 288.024 527.81 289.024 526.31 289.024C524.81 289.024 524.81 288.734 523.31 288.734C521.81 288.734 521.81 288.014 520.31 288.014C518.81 288.014 518.81 288.014 517.31 288.014C515.81 288.014 515.81 288.634 514.31 288.634C512.81 288.634 512.81 288.504 511.31 288.504C509.81 288.504 509.81 288.104 508.31 288.104C506.81 288.104 506.81 289.104 505.31 289.104C503.81 289.104 503.81 288.644 502.31 288.644C500.81 288.644 500.81 288.214 499.31 288.214C497.81 288.214 497.81 289.154 496.31 289.154C494.81 289.154 494.81 287.974 493.31 287.974H490.31C488.81 287.974 488.81 288.974 487.31 288.974C485.81 288.974 485.81 288.254 484.31 288.254C482.81 288.254 482.81 289.164 481.31 289.164C479.81 289.164 479.81 288.094 478.31 288.094C476.81 288.094 476.81 288.324 475.31 288.324C473.81 288.324 473.81 288.444 472.31 288.444C470.81 288.444 470.81 288.194 469.31 288.194C467.81 288.194 467.81 288.574 466.31 288.574C464.81 288.574 464.81 288.634 463.31 288.634C461.81 288.634 461.81 288.584 460.31 288.584C458.81 288.584 458.81 288.944 457.31 288.944C455.81 288.944 455.81 288.444 454.31 288.444C452.81 288.444 452.81 288.444 451.31 288.444C449.81 288.444 449.81 288.224 448.31 288.224C446.81 288.224 446.81 289.004 445.31 289.004H442.31C440.81 289.004 440.81 288.824 439.31 288.824C437.81 288.824 437.81 288.004 436.31 288.004C434.81 288.004 434.81 288.404 433.31 288.404H430.31C428.81 288.404 428.81 288.684 427.31 288.684C425.81 288.684 425.81 288.934 424.31 288.934C422.81 288.934 422.81 288.744 421.31 288.744C419.81 288.744 419.8 288.124 418.31 288.124C416.82 288.124 416.81 288.654 415.31 288.654C413.81 288.654 413.81 288.924 412.31 288.924C410.81 288.924 410.8 289.074 409.31 289.074C407.82 289.074 407.81 288.274 406.31 288.274C404.81 288.274 404.8 287.964 403.31 287.964H400.31C398.8 287.964 398.8 289.104 397.31 289.104C395.82 289.104 395.81 288.214 394.31 288.214C392.81 288.214 392.81 288.534 391.31 288.534C389.81 288.534 389.81 289.064 388.31 289.064C386.81 289.064 386.8 288.444 385.31 288.444C383.82 288.444 383.81 288.824 382.31 288.824C380.81 288.824 380.81 288.194 379.31 288.194C377.81 288.194 377.81 288.844 376.31 288.844C374.81 288.844 374.81 288.474 373.31 288.474C371.81 288.474 371.81 288.594 370.31 288.594C368.81 288.594 368.81 288.424 367.31 288.424C365.81 288.424 365.8 288.074 364.31 288.074C362.82 288.074 362.81 288.684 361.31 288.684C359.81 288.684 359.81 288.154 358.31 288.154C356.81 288.154 356.8 288.034 355.31 288.034C353.82 288.034 353.81 288.394 352.31 288.394C350.81 288.394 350.8 289.034 349.31 289.034C347.82 289.034 347.81 288.034 346.31 288.034C344.81 288.034 344.81 288.144 343.31 288.144C341.81 288.144 341.8 288.284 340.31 288.284C338.82 288.284 338.81 289.024 337.31 289.024C335.81 289.024 335.8 288.354 334.31 288.354C332.82 288.354 332.81 288.354 331.31 288.354C329.81 288.354 329.81 288.504 328.31 288.504C326.81 288.504 326.81 288.934 325.31 288.934C323.81 288.934 323.81 288.434 322.31 288.434C320.81 288.434 320.81 288.434 319.31 288.434C317.81 288.434 317.81 288.254 316.31 288.254C314.81 288.254 314.81 288.684 313.31 288.684C311.81 288.684 311.8 288.994 310.31 288.994C308.82 288.994 308.81 288.804 307.31 288.804C305.81 288.804 305.8 288.424 304.31 288.424C302.82 288.424 302.81 288.594 301.31 288.594C299.81 288.594 299.81 288.874 298.31 288.874C296.81 288.874 296.8 288.804 295.31 288.804C293.82 288.804 293.81 288.374 292.31 288.374C290.81 288.374 290.8 289.044 289.31 289.044C287.82 289.044 287.81 288.914 286.31 288.914C284.81 288.914 284.8 288.594 283.31 288.594C281.82 288.594 281.81 288.284 280.31 288.284C278.81 288.284 278.81 289.134 277.31 289.134C275.81 289.134 275.81 288.354 274.31 288.354C272.81 288.354 272.81 288.014 271.31 288.014C269.81 288.014 269.81 288.784 268.31 288.784C266.81 288.784 266.8 288.694 265.31 288.694C263.82 288.694 263.81 288.944 262.31 288.944C260.81 288.944 260.81 288.484 259.31 288.484C257.81 288.484 257.8 288.024 256.31 288.024C254.82 288.024 254.81 288.254 253.31 288.254C251.81 288.254 251.8 288.954 250.31 288.954C248.82 288.954 248.81 288.394 247.31 288.394C245.81 288.394 245.8 289.194 244.31 289.194C242.82 289.194 242.81 288.304 241.31 288.304C239.81 288.304 239.8 289.094 238.31 289.094C236.82 289.094 236.8 288.094 235.31 288.094C233.82 288.094 233.81 288.604 232.31 288.604H229.31C227.81 288.604 227.81 288.914 226.31 288.914C224.81 288.914 224.81 288.854 223.31 288.854C221.81 288.854 221.81 289.084 220.31 289.084C218.81 289.084 218.81 288.084 217.31 288.084C215.81 288.084 215.8 288.744 214.31 288.744C212.82 288.744 212.81 288.124 211.31 288.124C209.81 288.124 209.81 288.804 208.31 288.804C206.81 288.804 206.8 289.074 205.31 289.074C203.82 289.074 203.81 288.564 202.31 288.564C200.81 288.564 200.81 288.774 199.31 288.774C197.81 288.774 197.8 288.334 196.31 288.334C194.82 288.334 194.81 288.574 193.31 288.574C191.81 288.574 191.8 288.324 190.31 288.324C188.82 288.324 188.81 288.104 187.31 288.104C185.81 288.104 185.81 288.004 184.31 288.004C182.81 288.004 182.81 288.574 181.31 288.574C179.81 288.574 179.81 288.574 178.31 288.574C176.81 288.574 176.81 288.334 175.31 288.334C173.81 288.334 173.8 288.664 172.31 288.664C170.82 288.664 170.8 287.954 169.31 287.954C167.82 287.954 167.81 288.154 166.31 288.154C164.81 288.154 164.8 288.664 163.31 288.664C161.82 288.664 161.81 287.984 160.31 287.984C158.81 287.984 158.81 288.504 157.31 288.504C155.81 288.504 155.81 288.844 154.31 288.844C152.81 288.844 152.81 289.114 151.31 289.114C149.81 289.114 149.81 288.464 148.31 288.464C146.81 288.464 146.8 288.214 145.31 288.214C143.82 288.214 143.81 288.154 142.31 288.154C140.81 288.154 140.81 288.724 139.31 288.724C137.81 288.724 137.81 289.004 136.31 289.004C134.81 289.004 134.81 288.614 133.31 288.614C131.81 288.614 131.81 288.414 130.31 288.414C128.81 288.414 128.81 288.744 127.31 288.744C125.81 288.744 125.81 288.404 124.31 288.404C122.81 288.404 122.8 287.994 121.31 287.994C119.82 287.994 119.81 288.354 118.31 288.354C116.81 288.354 116.81 289.074 115.31 289.074C113.81 289.074 113.8 288.074 112.31 288.074C110.82 288.074 110.81 288.264 109.31 288.264C107.81 288.264 107.81 288.124 106.31 288.124C104.81 288.124 104.8 288.914 103.31 288.914C101.82 288.914 101.8 288.774 100.31 288.774C98.8195 288.774 98.8095 288.824 97.3095 288.824C95.8095 288.824 95.8095 288.594 94.3095 288.594H91.3095C89.7995 288.594 89.7995 288.744 88.3095 288.744C86.8195 288.744 86.7995 288.844 85.3095 288.844C83.8195 288.844 83.8095 288.654 82.3095 288.654C80.8095 288.654 80.8095 288.244 79.3095 288.244C77.8095 288.244 77.8095 288.244 76.3095 288.244C74.8095 288.244 74.8095 288.524 73.3095 288.524C71.8095 288.524 71.7995 288.454 70.3095 288.454C68.8195 288.454 68.7995 288.334 67.3095 288.334C65.8195 288.334 65.7995 288.674 64.3095 288.674C62.8195 288.674 62.7995 287.934 61.3095 287.934C59.8195 287.934 59.7995 288.294 58.3095 288.294C56.8195 288.294 56.7995 288.934 55.3095 288.934C53.8195 288.934 53.7995 288.934 52.3095 288.934C50.8195 288.934 50.8095 288.934 49.3095 288.934C47.8095 288.934 47.7995 288.454 46.3095 288.454C44.8195 288.454 44.7995 288.084 43.3095 288.084C41.8195 288.084 41.7995 288.784 40.3095 288.784C38.8195 288.784 38.8095 288.284 37.3095 288.284C35.8095 288.284 35.8095 288.964 34.3095 288.964C32.8095 288.964 32.7995 287.964 31.3095 287.964C29.8195 287.964 29.7995 288.964 28.3095 288.964C26.8195 288.964 26.7995 287.964 25.3095 287.964C23.8195 287.964 23.7995 288.514 22.3095 288.514C20.8195 288.514 20.8095 289.044 19.3095 289.044C17.8095 289.044 17.8095 287.944 16.3095 287.944C14.8095 287.944 14.8095 288.274 13.3095 288.274C11.8095 288.274 11.7995 288.994 10.3095 288.994C8.81954 288.994 8.79954 288.354 7.30954 288.354C5.81954 288.354 5.79954 287.964 4.30954 287.964C2.81954 287.964 2.65955 289.314 1.59955 288.244C0.539548 287.174 0.979553 287.014 0.979553 285.484C0.979553 283.954 1.13954 283.954 1.13954 282.424C1.13954 280.894 0.749542 280.894 0.749542 279.364C0.749542 277.834 0.799545 277.834 0.799545 276.304C0.799545 274.774 1.42955 274.774 1.42955 273.244C1.42955 271.714 1.15955 271.724 1.15955 270.244C1.15955 268.764 0.819549 268.714 0.819549 267.184C0.819549 265.654 0.889541 265.664 0.889541 264.134C0.889541 262.604 0.969543 262.604 0.969543 261.074C0.969543 259.544 0.969543 259.544 0.969543 258.014C0.969543 256.484 1.48955 256.484 1.48955 254.954C1.48955 253.424 0.759551 253.424 0.759551 251.894C0.759551 250.364 1.36955 250.364 1.36955 248.834C1.36955 247.304 1.09955 247.304 1.09955 245.774C1.09955 244.244 1.84955 244.244 1.84955 242.714C1.84955 241.184 1.79954 241.184 1.79954 239.654C1.79954 238.124 0.949539 238.124 0.949539 236.594C0.949539 235.064 1.89955 235.064 1.89955 233.534C1.89955 232.004 1.50955 232.004 1.50955 230.474C1.50955 228.944 1.03955 228.944 1.03955 227.414C1.03955 225.884 1.63954 225.874 1.63954 224.344C1.63954 222.814 1.40955 222.814 1.37955 221.274C1.34955 219.734 0.17955 220.284 0.17955 218.804Z" fill="#CFE2F6"/>
</svg>
