<svg width="444" height="48" viewBox="0 0 444 48" fill="none" xmlns="http://www.w3.org/2000/svg">
<rect width="444" height="48" rx="24" fill="white"/>
<path d="M168.57 14.78C168.81 14.78 169.02 14.84 169.2 14.96C169.392 15.08 169.488 15.272 169.488 15.536V16.598H173.79C174.018 16.598 174.18 16.676 174.276 16.832C174.384 16.976 174.438 17.156 174.438 17.372C174.438 17.576 174.384 17.756 174.276 17.912C174.18 18.056 174.018 18.128 173.79 18.128H169.47V18.398C169.47 18.878 169.59 19.28 169.83 19.604C170.07 19.928 170.454 20.21 170.982 20.45C171.594 20.726 172.176 20.978 172.728 21.206C173.292 21.434 173.844 21.65 174.384 21.854C174.588 21.926 174.714 22.064 174.762 22.268C174.81 22.472 174.792 22.676 174.708 22.88C174.624 23.084 174.486 23.228 174.294 23.312C174.114 23.396 173.922 23.396 173.718 23.312C173.238 23.132 172.74 22.94 172.224 22.736C171.72 22.52 171.222 22.304 170.73 22.088C170.322 21.92 169.986 21.764 169.722 21.62C169.458 21.464 169.248 21.32 169.092 21.188C168.936 21.044 168.816 20.918 168.732 20.81C168.66 20.69 168.612 20.576 168.588 20.468H168.57C168.534 20.576 168.48 20.696 168.408 20.828C168.336 20.948 168.216 21.074 168.048 21.206C167.892 21.338 167.682 21.482 167.418 21.638C167.154 21.794 166.824 21.956 166.428 22.124C165.924 22.34 165.42 22.556 164.916 22.772C164.412 22.976 163.92 23.168 163.44 23.348C163.224 23.432 163.02 23.432 162.828 23.348C162.648 23.252 162.516 23.102 162.432 22.898C162.348 22.694 162.33 22.49 162.378 22.286C162.426 22.07 162.552 21.926 162.756 21.854C163.296 21.65 163.842 21.434 164.394 21.206C164.958 20.978 165.546 20.726 166.158 20.45C166.686 20.21 167.07 19.928 167.31 19.604C167.55 19.28 167.67 18.878 167.67 18.398V18.128H163.35C163.122 18.128 162.954 18.056 162.846 17.912C162.75 17.756 162.702 17.576 162.702 17.372C162.702 17.156 162.75 16.976 162.846 16.832C162.954 16.676 163.122 16.598 163.35 16.598H167.652V15.536C167.652 15.272 167.742 15.08 167.922 14.96C168.114 14.84 168.33 14.78 168.57 14.78ZM175.5 24.608C175.716 24.608 175.872 24.686 175.968 24.842C176.076 24.998 176.13 25.178 176.13 25.382C176.13 25.586 176.076 25.766 175.968 25.922C175.872 26.066 175.716 26.138 175.5 26.138H169.47V31.052C169.47 31.316 169.38 31.508 169.2 31.628C169.02 31.748 168.81 31.808 168.57 31.808C168.33 31.808 168.12 31.748 167.94 31.628C167.76 31.508 167.67 31.316 167.67 31.052V26.138H161.64C161.424 26.138 161.262 26.066 161.154 25.922C161.058 25.766 161.01 25.586 161.01 25.382C161.01 25.178 161.058 24.998 161.154 24.842C161.262 24.686 161.424 24.608 161.64 24.608H175.5ZM181.875 15.662C182.571 15.662 183.177 15.764 183.693 15.968C184.209 16.172 184.635 16.454 184.971 16.814C185.319 17.174 185.577 17.6 185.745 18.092C185.925 18.572 186.015 19.094 186.015 19.658C186.015 20.234 185.925 20.768 185.745 21.26C185.577 21.74 185.319 22.16 184.971 22.52C184.635 22.88 184.209 23.162 183.693 23.366C183.177 23.57 182.571 23.672 181.875 23.672C181.179 23.672 180.573 23.57 180.057 23.366C179.541 23.162 179.109 22.88 178.761 22.52C178.425 22.16 178.167 21.74 177.987 21.26C177.819 20.768 177.735 20.234 177.735 19.658C177.735 19.094 177.819 18.572 177.987 18.092C178.167 17.6 178.425 17.174 178.761 16.814C179.109 16.454 179.541 16.172 180.057 15.968C180.573 15.764 181.179 15.662 181.875 15.662ZM181.875 17.174C181.443 17.174 181.071 17.24 180.759 17.372C180.459 17.504 180.213 17.684 180.021 17.912C179.829 18.128 179.685 18.392 179.589 18.704C179.505 19.004 179.463 19.322 179.463 19.658C179.463 20.006 179.505 20.33 179.589 20.63C179.685 20.93 179.829 21.194 180.021 21.422C180.213 21.65 180.459 21.83 180.759 21.962C181.071 22.094 181.443 22.16 181.875 22.16C182.307 22.16 182.673 22.094 182.973 21.962C183.285 21.83 183.537 21.65 183.729 21.422C183.921 21.194 184.059 20.93 184.143 20.63C184.239 20.33 184.287 20.006 184.287 19.658C184.287 19.322 184.239 19.004 184.143 18.704C184.059 18.392 183.921 18.128 183.729 17.912C183.537 17.684 183.285 17.504 182.973 17.372C182.673 17.24 182.307 17.174 181.875 17.174ZM190.011 14.996C190.239 14.996 190.443 15.056 190.623 15.176C190.803 15.296 190.893 15.488 190.893 15.752V23.978C190.893 24.242 190.803 24.434 190.623 24.554C190.443 24.674 190.239 24.734 190.011 24.734C189.771 24.734 189.561 24.674 189.381 24.554C189.201 24.434 189.111 24.242 189.111 23.978V20.432H184.863V18.902H189.111V15.752C189.111 15.488 189.201 15.296 189.381 15.176C189.561 15.056 189.771 14.996 190.011 14.996ZM189.507 25.508C190.035 25.508 190.395 25.604 190.587 25.796C190.791 25.988 190.893 26.342 190.893 26.858V30.98C190.893 31.244 190.803 31.436 190.623 31.556C190.443 31.676 190.233 31.736 189.993 31.736C189.753 31.736 189.543 31.676 189.363 31.556C189.183 31.436 189.093 31.244 189.093 30.98V27.416C189.093 27.176 188.967 27.056 188.715 27.056H180.633C180.405 27.056 180.237 26.978 180.129 26.822C180.033 26.666 179.985 26.486 179.985 26.282C179.985 26.078 180.033 25.898 180.129 25.742C180.237 25.586 180.405 25.508 180.633 25.508H189.507ZM198.258 15.914C199.662 15.914 200.718 16.376 201.426 17.3C202.134 18.212 202.488 19.544 202.488 21.296C202.488 23.048 202.134 24.386 201.426 25.31C200.718 26.222 199.662 26.678 198.258 26.678C196.854 26.678 195.798 26.222 195.09 25.31C194.394 24.386 194.046 23.048 194.046 21.296C194.046 19.544 194.394 18.212 195.09 17.3C195.798 16.376 196.854 15.914 198.258 15.914ZM198.258 17.498C197.37 17.498 196.734 17.822 196.35 18.47C195.978 19.118 195.792 20.06 195.792 21.296C195.792 22.532 195.978 23.474 196.35 24.122C196.734 24.77 197.37 25.094 198.258 25.094C199.158 25.094 199.794 24.77 200.166 24.122C200.55 23.474 200.742 22.532 200.742 21.296C200.742 20.06 200.55 19.118 200.166 18.47C199.794 17.822 199.158 17.498 198.258 17.498ZM206.07 14.996C206.31 14.996 206.52 15.056 206.7 15.176C206.892 15.296 206.988 15.488 206.988 15.752V29.792C206.988 30.056 206.892 30.248 206.7 30.368C206.52 30.488 206.31 30.548 206.07 30.548C205.842 30.548 205.632 30.488 205.44 30.368C205.26 30.248 205.17 30.056 205.17 29.792V15.752C205.17 15.488 205.26 15.296 205.44 15.176C205.632 15.056 205.842 14.996 206.07 14.996ZM221.751 15.878C221.967 15.878 222.123 15.956 222.219 16.112C222.327 16.268 222.381 16.448 222.381 16.652C222.381 16.856 222.327 17.036 222.219 17.192C222.123 17.348 221.967 17.426 221.751 17.426H216.783C216.531 17.426 216.405 17.546 216.405 17.786V21.386C216.405 21.53 216.435 21.632 216.495 21.692C216.555 21.74 216.651 21.764 216.783 21.764C217.971 21.764 219.075 21.734 220.095 21.674C221.115 21.614 222.111 21.518 223.083 21.386C223.287 21.362 223.449 21.416 223.569 21.548C223.701 21.668 223.779 21.83 223.803 22.034C223.827 22.25 223.797 22.442 223.713 22.61C223.641 22.778 223.503 22.874 223.299 22.898C222.879 22.958 222.423 23.012 221.931 23.06C221.451 23.108 220.917 23.15 220.329 23.186C219.741 23.222 219.087 23.252 218.367 23.276C217.659 23.288 216.867 23.294 215.991 23.294C215.463 23.294 215.097 23.198 214.893 23.006C214.701 22.814 214.605 22.46 214.605 21.944V17.228C214.605 16.712 214.701 16.358 214.893 16.166C215.097 15.974 215.463 15.878 215.991 15.878H221.751ZM225.837 14.996C226.077 14.996 226.287 15.056 226.467 15.176C226.647 15.296 226.737 15.488 226.737 15.752V18.794H228.717C228.957 18.794 229.125 18.872 229.221 19.028C229.329 19.184 229.383 19.364 229.383 19.568C229.383 19.796 229.329 19.988 229.221 20.144C229.125 20.288 228.957 20.36 228.717 20.36H226.737V23.618C226.737 23.882 226.647 24.074 226.467 24.194C226.287 24.314 226.077 24.374 225.837 24.374C225.597 24.374 225.387 24.314 225.207 24.194C225.027 24.074 224.937 23.882 224.937 23.618V15.752C224.937 15.488 225.027 15.296 225.207 15.176C225.387 15.056 225.597 14.996 225.837 14.996ZM225.351 25.148C225.879 25.148 226.239 25.244 226.431 25.436C226.635 25.628 226.737 25.982 226.737 26.498V30.152C226.737 30.668 226.635 31.022 226.431 31.214C226.239 31.406 225.879 31.502 225.351 31.502H217.791C217.263 31.502 216.897 31.406 216.693 31.214C216.501 31.022 216.405 30.668 216.405 30.152V26.498C216.405 25.982 216.501 25.628 216.693 25.436C216.897 25.244 217.263 25.148 217.791 25.148H225.351ZM218.565 26.66C218.313 26.66 218.187 26.786 218.187 27.038V29.612C218.187 29.864 218.313 29.99 218.565 29.99H224.577C224.829 29.99 224.955 29.864 224.955 29.612V27.038C224.955 26.786 224.829 26.66 224.577 26.66H218.565ZM237.215 16.058C237.743 16.058 238.103 16.154 238.295 16.346C238.499 16.538 238.601 16.892 238.601 17.408V18.884C238.601 19.52 238.523 20.066 238.367 20.522C238.211 20.978 237.899 21.422 237.431 21.854C236.963 22.286 236.303 22.742 235.451 23.222C234.599 23.702 233.483 24.29 232.103 24.986C231.899 25.082 231.689 25.088 231.473 25.004C231.269 24.908 231.119 24.764 231.023 24.572C230.939 24.392 230.903 24.194 230.915 23.978C230.939 23.75 231.071 23.582 231.311 23.474C232.571 22.862 233.561 22.358 234.281 21.962C235.013 21.554 235.565 21.188 235.937 20.864C236.309 20.54 236.543 20.228 236.639 19.928C236.747 19.616 236.801 19.25 236.801 18.83V17.984C236.801 17.852 236.771 17.762 236.711 17.714C236.663 17.654 236.567 17.624 236.423 17.624H231.743C231.515 17.624 231.347 17.546 231.239 17.39C231.143 17.234 231.095 17.054 231.095 16.85C231.095 16.634 231.143 16.448 231.239 16.292C231.347 16.136 231.515 16.058 231.743 16.058H237.215ZM242.813 14.996C243.053 14.996 243.263 15.056 243.443 15.176C243.623 15.296 243.713 15.488 243.713 15.752V26.408C243.713 26.672 243.623 26.864 243.443 26.984C243.263 27.104 243.053 27.164 242.813 27.164C242.573 27.164 242.363 27.104 242.183 26.984C242.003 26.864 241.913 26.672 241.913 26.408V15.752C241.913 15.488 242.003 15.296 242.183 15.176C242.363 15.056 242.573 14.996 242.813 14.996ZM234.119 25.652C234.347 25.652 234.551 25.712 234.731 25.832C234.923 25.952 235.019 26.144 235.019 26.408V29.45C235.019 29.582 235.043 29.672 235.091 29.72C235.151 29.78 235.253 29.81 235.397 29.81H243.497C243.725 29.81 243.887 29.888 243.983 30.044C244.091 30.2 244.145 30.386 244.145 30.602C244.145 30.806 244.091 30.986 243.983 31.142C243.887 31.298 243.725 31.376 243.497 31.376H234.587C234.059 31.376 233.693 31.28 233.489 31.088C233.297 30.896 233.201 30.542 233.201 30.026V26.408C233.201 26.144 233.291 25.952 233.471 25.832C233.663 25.712 233.879 25.652 234.119 25.652ZM254.426 15.788C255.05 15.788 255.59 15.89 256.046 16.094C256.502 16.298 256.88 16.58 257.18 16.94C257.48 17.288 257.702 17.708 257.846 18.2C257.99 18.68 258.062 19.202 258.062 19.766C258.062 20.342 257.99 20.876 257.846 21.368C257.702 21.848 257.48 22.268 257.18 22.628C256.88 22.976 256.502 23.252 256.046 23.456C255.59 23.66 255.05 23.762 254.426 23.762C253.802 23.762 253.262 23.66 252.806 23.456C252.35 23.252 251.972 22.976 251.672 22.628C251.372 22.268 251.15 21.848 251.006 21.368C250.862 20.876 250.79 20.342 250.79 19.766C250.79 19.202 250.862 18.68 251.006 18.2C251.15 17.708 251.372 17.288 251.672 16.94C251.972 16.58 252.35 16.298 252.806 16.094C253.262 15.89 253.802 15.788 254.426 15.788ZM254.426 17.3C254.066 17.3 253.76 17.366 253.508 17.498C253.256 17.618 253.052 17.792 252.896 18.02C252.74 18.248 252.626 18.512 252.554 18.812C252.482 19.112 252.446 19.43 252.446 19.766C252.446 20.114 252.482 20.438 252.554 20.738C252.626 21.038 252.74 21.302 252.896 21.53C253.052 21.746 253.256 21.92 253.508 22.052C253.76 22.184 254.066 22.25 254.426 22.25C254.786 22.25 255.092 22.184 255.344 22.052C255.596 21.92 255.8 21.746 255.956 21.53C256.112 21.302 256.226 21.038 256.298 20.738C256.37 20.438 256.406 20.114 256.406 19.766C256.406 19.43 256.37 19.112 256.298 18.812C256.226 18.512 256.112 18.248 255.956 18.02C255.8 17.792 255.596 17.618 255.344 17.498C255.092 17.366 254.786 17.3 254.426 17.3ZM263.912 14.996C264.128 14.996 264.32 15.056 264.488 15.176C264.668 15.284 264.758 15.458 264.758 15.698V24.032C264.758 24.272 264.668 24.452 264.488 24.572C264.32 24.68 264.128 24.734 263.912 24.734C263.708 24.734 263.516 24.68 263.336 24.572C263.168 24.452 263.084 24.272 263.084 24.032V20.522H261.158V23.942C261.158 24.182 261.068 24.362 260.888 24.482C260.72 24.59 260.528 24.644 260.312 24.644C260.108 24.644 259.916 24.59 259.736 24.482C259.568 24.362 259.484 24.182 259.484 23.942V15.788C259.484 15.548 259.568 15.374 259.736 15.266C259.916 15.146 260.108 15.086 260.312 15.086C260.528 15.086 260.72 15.146 260.888 15.266C261.068 15.374 261.158 15.548 261.158 15.788V19.01H263.084V15.698C263.084 15.458 263.168 15.284 263.336 15.176C263.516 15.056 263.708 14.996 263.912 14.996ZM263.372 25.508C263.9 25.508 264.26 25.604 264.452 25.796C264.656 25.988 264.758 26.342 264.758 26.858V30.98C264.758 31.244 264.668 31.436 264.488 31.556C264.308 31.676 264.098 31.736 263.858 31.736C263.618 31.736 263.408 31.676 263.228 31.556C263.048 31.436 262.958 31.244 262.958 30.98V27.416C262.958 27.176 262.832 27.056 262.58 27.056H254.12C253.892 27.056 253.724 26.978 253.616 26.822C253.52 26.666 253.472 26.486 253.472 26.282C253.472 26.078 253.52 25.898 253.616 25.742C253.724 25.586 253.892 25.508 254.12 25.508H263.372ZM275.669 16.256C275.885 16.256 276.041 16.334 276.137 16.49C276.245 16.646 276.299 16.826 276.299 17.03C276.299 17.234 276.245 17.414 276.137 17.57C276.041 17.726 275.885 17.804 275.669 17.804H272.735V19.496C272.735 19.892 272.753 20.246 272.789 20.558C272.837 20.87 272.915 21.164 273.023 21.44C273.131 21.704 273.269 21.962 273.437 22.214C273.617 22.466 273.839 22.724 274.103 22.988C274.487 23.372 274.859 23.738 275.219 24.086C275.579 24.434 275.909 24.734 276.209 24.986C276.389 25.154 276.461 25.346 276.425 25.562C276.401 25.778 276.317 25.958 276.173 26.102C276.029 26.258 275.855 26.354 275.651 26.39C275.447 26.426 275.255 26.366 275.075 26.21C274.811 25.97 274.517 25.7 274.193 25.4C273.881 25.088 273.539 24.752 273.167 24.392C272.915 24.128 272.705 23.906 272.537 23.726C272.369 23.534 272.237 23.366 272.141 23.222C272.045 23.078 271.973 22.952 271.925 22.844C271.877 22.736 271.847 22.634 271.835 22.538H271.817C271.793 22.646 271.757 22.754 271.709 22.862C271.673 22.97 271.601 23.096 271.493 23.24C271.397 23.384 271.265 23.552 271.097 23.744C270.941 23.936 270.731 24.164 270.467 24.428C270.107 24.788 269.753 25.136 269.405 25.472C269.057 25.808 268.691 26.144 268.307 26.48C268.115 26.648 267.911 26.702 267.695 26.642C267.479 26.582 267.305 26.474 267.173 26.318C267.029 26.15 266.951 25.964 266.939 25.76C266.939 25.544 267.029 25.358 267.209 25.202C267.629 24.83 268.025 24.464 268.397 24.104C268.769 23.744 269.147 23.372 269.531 22.988C269.795 22.724 270.011 22.466 270.179 22.214C270.359 21.962 270.503 21.704 270.611 21.44C270.719 21.164 270.791 20.87 270.827 20.558C270.875 20.246 270.899 19.892 270.899 19.496V17.804H267.875C267.647 17.804 267.479 17.726 267.371 17.57C267.275 17.414 267.227 17.234 267.227 17.03C267.227 16.826 267.275 16.646 267.371 16.49C267.479 16.334 267.647 16.256 267.875 16.256H275.669ZM278.765 14.996C279.005 14.996 279.215 15.056 279.395 15.176C279.575 15.296 279.665 15.488 279.665 15.752V20.432H281.645C281.885 20.432 282.053 20.51 282.149 20.666C282.257 20.81 282.311 20.99 282.311 21.206C282.311 21.422 282.257 21.608 282.149 21.764C282.053 21.92 281.885 21.998 281.645 21.998H279.665V29.792C279.665 30.056 279.575 30.248 279.395 30.368C279.215 30.488 279.005 30.548 278.765 30.548C278.525 30.548 278.315 30.488 278.135 30.368C277.955 30.248 277.865 30.056 277.865 29.792V15.752C277.865 15.488 277.955 15.296 278.135 15.176C278.315 15.056 278.525 14.996 278.765 14.996Z" fill="#5E9BF0"/>
</svg>
