<svg width="72" height="73" viewBox="0 0 72 73" fill="none" xmlns="http://www.w3.org/2000/svg">
<rect width="72" height="72" fill="white"/>
<path d="M58.8406 23.8052C58.7833 26.135 57.905 28.3698 56.3607 30.1152C55.774 30.619 55.1255 31.0458 54.4307 31.3852C53.1461 32.2552 51.609 32.6737 50.0607 32.5752C48.504 32.6709 46.9537 32.3055 45.6037 31.5246C44.2537 30.7438 43.1639 29.5822 42.4706 28.1852C41.6618 26.8622 41.204 25.3546 41.1406 23.8052C41.1847 23.0322 41.3327 22.2687 41.5806 21.5352C41.7627 20.7887 42.0417 20.0692 42.4106 19.3952C42.7848 18.7154 43.2453 18.0869 43.7806 17.5252C44.3412 16.9969 44.9702 16.5462 45.6506 16.1852C46.3014 15.7571 47.0081 15.4206 47.7507 15.1852C48.5098 15.0268 49.2865 14.9696 50.0607 15.0152C51.599 15.0217 53.1174 15.3629 54.5106 16.0152C55.1517 16.4512 55.7363 16.9651 56.2507 17.5452C56.8243 18.0611 57.3285 18.6494 57.7507 19.2952C58.1511 19.9632 58.4573 20.6834 58.6606 21.4352C58.8232 22.214 58.8837 23.0107 58.8406 23.8052Z" fill="#C8D2ED"/>
<path d="M70.51 57.1058C70.03 56.1058 69.58 56.3658 68.73 55.6858C67.88 55.0058 67.73 55.2458 66.84 54.5658C65.95 53.8858 65.8399 54.0258 65.0399 53.3458C64.2399 52.6658 64.4099 52.4058 63.5699 51.7258C62.7299 51.0458 62.57 51.2258 61.73 50.5358C60.89 49.8458 61.1599 49.5358 60.3199 48.8358C59.4799 48.1358 59.45 48.1858 58.6 47.5058C57.75 46.8258 57.49 47.1458 56.6 46.5058C55.71 45.8658 56.04 45.5058 55.19 44.7958C54.34 44.0858 54.03 44.5058 53.19 43.7958C52.35 43.0858 52.45 42.9758 51.6 42.2958C50.75 41.6158 50.6 41.7558 49.78 41.0758C49.18 40.5958 48.62 39.8658 47.9 39.8658C47.1081 39.9234 46.3551 40.2316 45.75 40.7458C44.8 41.5058 44.84 41.5558 43.89 42.3258C42.94 43.0958 43.02 43.1858 42.06 43.9458C41.1 44.7058 41.14 44.7458 40.18 45.5158C39.22 46.2858 39.45 46.7858 38.18 46.8458C36.91 46.9058 37.18 46.4658 36.38 45.7958C35.58 45.1258 35.65 44.9658 34.81 44.2958C33.97 43.6258 34.08 43.4658 33.23 42.7858L31.6 41.4058C30.76 40.7258 30.6 40.8658 29.8 40.1858C29 39.5058 29.09 39.3358 28.25 38.6458C27.41 37.9558 27.47 37.8958 26.62 37.2158C25.77 36.5358 25.62 36.7758 24.74 36.0858C23.86 35.3958 23.95 35.3358 23.1 34.6458C22.25 33.9558 22.31 33.8958 21.46 33.2158C20.7953 32.8515 20.0276 32.7212 19.28 32.8458C18.5417 32.7429 17.7905 32.8946 17.15 33.2758C16.33 33.9358 16.6 34.2758 15.78 34.9458C14.96 35.6158 14.54 35.1058 13.72 35.7758C12.9 36.4458 13.11 36.7058 12.28 37.3758C11.45 38.0458 11.28 37.8158 10.45 38.4858C9.61995 39.1558 9.75999 39.3258 8.92999 39.9958C8.09999 40.6658 8.31999 40.9258 7.48999 41.5958C6.65999 42.2658 6.54998 42.1258 5.72998 42.7958C4.90998 43.4658 4.62998 43.1258 3.78998 43.7958C2.94998 44.4658 2.78998 44.3958 2.28998 45.3658C1.78998 46.3358 2.64996 46.4858 2.64996 47.5958C2.64996 48.7058 2.08997 48.7058 2.08997 49.8158C2.08997 50.9258 2.29999 50.9258 2.29999 52.0358C2.29999 53.1458 2.5 53.1458 2.5 54.2558C2.5 55.3658 2.19995 55.3658 2.19995 56.4758C2.19995 57.5858 2.51996 57.5858 2.51996 58.6858C2.51996 59.7858 2 59.7958 2 60.9058C2 62.0158 2.10999 62.0258 2.10999 63.1358C2.10999 64.2458 2.63 64.2458 2.63 65.3558C2.63 66.4658 2.00995 66.4658 2.00995 67.5758C2.00995 68.6858 2.51996 68.6858 2.51996 69.8058C2.51996 70.9258 1.71996 71.0658 2.51996 71.8058C3.31996 72.5458 3.46998 71.6558 4.59998 71.6558C5.72998 71.6558 5.72999 71.7858 6.85999 71.7858C7.98999 71.7858 7.99 71.9558 9.13 71.9558C10.27 71.9558 10.26 72.0558 11.39 72.0558C12.52 72.0558 12.52 71.6758 13.65 71.6758C14.78 71.6758 14.78 71.7758 15.92 71.7758C17.06 71.7758 17.05 72.1958 18.18 72.1958C19.31 72.1958 19.31 71.7658 20.44 71.7658C21.57 71.7658 21.57 71.9758 22.7 71.9758C23.83 71.9758 23.83 72.3058 24.96 72.3058C26.09 72.3058 26.09 71.7558 27.22 71.7558C28.35 71.7558 28.35 71.6858 29.48 71.6858C30.61 71.6858 30.62 71.6858 31.75 71.6858C32.88 71.6858 32.8799 71.6858 34.0099 71.6858C35.1399 71.6858 35.14 72.2458 36.27 72.2458C37.4 72.2458 37.4 71.9458 38.54 71.9458C39.68 71.9458 39.67 71.7558 40.8 71.7558C41.93 71.7558 41.93 71.9758 43.06 71.9758C44.19 71.9758 44.2 71.7858 45.33 71.7858C46.46 71.7858 46.46 71.7258 47.59 71.7258C48.72 71.7258 48.73 71.7258 49.86 71.7258C50.99 71.7258 50.99 71.9358 52.12 71.9358H54.39C55.52 71.9358 55.52 72.3358 56.65 72.3358C57.78 72.3358 57.79 71.8558 58.92 71.8558C60.05 71.8558 60.0499 72.1558 61.1899 72.1558C62.3299 72.1558 62.32 71.9158 63.45 71.9158C64.58 71.9158 64.59 72.0058 65.72 72.0058C66.85 72.0058 66.86 72.1958 67.99 72.1958C69.12 72.1958 69.2399 72.5558 70.0699 71.7858C70.8999 71.0158 70.0699 70.9458 70.0699 69.8858C70.0699 68.8258 70.23 68.8858 70.23 67.7758C70.23 66.6658 70.52 66.7158 70.52 65.6558C70.52 64.5958 70.4199 64.6558 70.4199 63.5458C70.4199 62.4358 70.1699 62.4858 70.1699 61.4258C70.1699 60.3658 69.8 60.2958 70.01 59.2558C70.22 58.2158 70.97 58.0658 70.51 57.1058Z" fill="#C8D2ED"/>
</svg>
