<svg width="200" height="140" viewBox="0 0 200 140" fill="none" xmlns="http://www.w3.org/2000/svg">
<g filter="url(#filter0_i_918_9711)">
<rect width="200" height="140" rx="10" fill="white"/>
</g>
<path d="M56.5583 102.584C57.0437 102.584 57.4637 102.659 57.8183 102.808C58.173 102.948 58.467 103.144 58.7003 103.396C58.9337 103.648 59.1063 103.951 59.2183 104.306C59.3303 104.651 59.3863 105.029 59.3863 105.44C59.3863 105.851 59.3303 106.233 59.2183 106.588C59.1063 106.933 58.9337 107.237 58.7003 107.498C58.467 107.75 58.173 107.951 57.8183 108.1C57.4637 108.24 57.0437 108.31 56.5583 108.31C56.073 108.31 55.653 108.24 55.2983 108.1C54.9437 107.951 54.6497 107.75 54.4163 107.498C54.183 107.237 54.0103 106.933 53.8983 106.588C53.7863 106.233 53.7303 105.851 53.7303 105.44C53.7303 105.029 53.7863 104.651 53.8983 104.306C54.0103 103.951 54.183 103.648 54.4163 103.396C54.6497 103.144 54.9437 102.948 55.2983 102.808C55.653 102.659 56.073 102.584 56.5583 102.584ZM56.5583 103.732C56.2877 103.732 56.0543 103.779 55.8583 103.872C55.6623 103.965 55.499 104.091 55.3683 104.25C55.247 104.399 55.1583 104.577 55.1023 104.782C55.0463 104.987 55.0183 105.207 55.0183 105.44C55.0183 105.673 55.0463 105.897 55.1023 106.112C55.1583 106.317 55.247 106.499 55.3683 106.658C55.499 106.807 55.6623 106.929 55.8583 107.022C56.0543 107.115 56.2877 107.162 56.5583 107.162C56.829 107.162 57.0623 107.115 57.2583 107.022C57.4543 106.929 57.613 106.807 57.7343 106.658C57.865 106.499 57.9583 106.317 58.0143 106.112C58.0703 105.897 58.0983 105.673 58.0983 105.44C58.0983 105.207 58.0703 104.987 58.0143 104.782C57.9583 104.577 57.865 104.399 57.7343 104.25C57.613 104.091 57.4543 103.965 57.2583 103.872C57.0623 103.779 56.829 103.732 56.5583 103.732ZM63.9363 102.108C64.1043 102.108 64.2537 102.155 64.3843 102.248C64.5243 102.332 64.5943 102.467 64.5943 102.654V108.17C64.5943 108.357 64.5243 108.497 64.3843 108.59C64.2537 108.674 64.1043 108.716 63.9363 108.716C63.7777 108.716 63.6283 108.674 63.4883 108.59C63.3577 108.497 63.2923 108.357 63.2923 108.17V106.014H61.7943V108.1C61.7943 108.287 61.7243 108.427 61.5843 108.52C61.4537 108.604 61.3043 108.646 61.1363 108.646C60.9777 108.646 60.8283 108.604 60.6883 108.52C60.5577 108.427 60.4923 108.287 60.4923 108.1V102.724C60.4923 102.537 60.5577 102.402 60.6883 102.318C60.8283 102.225 60.9777 102.178 61.1363 102.178C61.3043 102.178 61.4537 102.225 61.5843 102.318C61.7243 102.402 61.7943 102.537 61.7943 102.724V104.866H63.2923V102.654C63.2923 102.467 63.3577 102.332 63.4883 102.248C63.6283 102.155 63.7777 102.108 63.9363 102.108ZM63.5163 109.318C63.927 109.318 64.207 109.393 64.3563 109.542C64.515 109.691 64.5943 109.967 64.5943 110.368V111.656C64.5943 112.057 64.515 112.333 64.3563 112.482C64.207 112.631 63.927 112.706 63.5163 112.706H57.7483C57.6457 112.706 57.571 112.729 57.5243 112.776C57.4777 112.813 57.4543 112.888 57.4543 113V113.602C57.4543 113.798 57.5523 113.896 57.7483 113.896H64.4403C64.599 113.896 64.7157 113.952 64.7903 114.064C64.865 114.176 64.9023 114.307 64.9023 114.456C64.9023 114.605 64.865 114.736 64.7903 114.848C64.7157 114.96 64.599 115.016 64.4403 115.016H57.1743C56.7637 115.016 56.479 114.941 56.3203 114.792C56.171 114.643 56.0963 114.367 56.0963 113.966V112.678C56.0963 112.277 56.171 112.001 56.3203 111.852C56.479 111.703 56.7637 111.628 57.1743 111.628H62.9283C63.0403 111.628 63.115 111.609 63.1523 111.572C63.199 111.525 63.2223 111.446 63.2223 111.334V110.732C63.2223 110.629 63.199 110.559 63.1523 110.522C63.115 110.475 63.0403 110.452 62.9283 110.452H56.5303C56.3717 110.452 56.255 110.396 56.1803 110.284C56.1057 110.172 56.0683 110.037 56.0683 109.878C56.0683 109.729 56.1057 109.598 56.1803 109.486C56.255 109.374 56.3717 109.318 56.5303 109.318H63.5163ZM67.5925 102.682C67.7699 102.682 67.9285 102.729 68.0685 102.822C68.2179 102.915 68.2925 103.065 68.2925 103.27V104.768H71.4565V103.27C71.4565 103.065 71.5265 102.915 71.6665 102.822C71.8065 102.729 71.9652 102.682 72.1425 102.682C72.3199 102.682 72.4785 102.729 72.6185 102.822C72.7679 102.915 72.8425 103.065 72.8425 103.27V107.666C72.8425 108.067 72.7632 108.343 72.6045 108.492C72.4552 108.641 72.1752 108.716 71.7645 108.716H67.9845C67.5739 108.716 67.2892 108.641 67.1305 108.492C66.9812 108.343 66.9065 108.067 66.9065 107.666V103.27C66.9065 103.065 66.9765 102.915 67.1165 102.822C67.2565 102.729 67.4152 102.682 67.5925 102.682ZM68.2925 107.274C68.2925 107.386 68.3112 107.465 68.3485 107.512C68.3952 107.549 68.4745 107.568 68.5865 107.568H71.1625C71.2652 107.568 71.3399 107.549 71.3865 107.512C71.4332 107.465 71.4565 107.386 71.4565 107.274V105.916H68.2925V107.274ZM76.1885 102.108C76.3659 102.108 76.5245 102.155 76.6645 102.248C76.8045 102.341 76.8745 102.491 76.8745 102.696V108.898C76.8745 109.103 76.8045 109.253 76.6645 109.346C76.5245 109.439 76.3659 109.486 76.1885 109.486C76.0019 109.486 75.8385 109.439 75.6985 109.346C75.5585 109.253 75.4885 109.103 75.4885 108.898V106.308H72.1985V105.118H75.4885V102.696C75.4885 102.491 75.5585 102.341 75.6985 102.248C75.8385 102.155 76.0019 102.108 76.1885 102.108ZM75.7965 110.088C76.2072 110.088 76.4872 110.163 76.6365 110.312C76.7952 110.461 76.8745 110.737 76.8745 111.138V113.896C76.8745 114.297 76.7952 114.573 76.6365 114.722C76.4872 114.871 76.2072 114.946 75.7965 114.946H69.7205C69.3099 114.946 69.0252 114.871 68.8665 114.722C68.7172 114.573 68.6425 114.297 68.6425 113.896V111.138C68.6425 110.737 68.7172 110.461 68.8665 110.312C69.0252 110.163 69.3099 110.088 69.7205 110.088H75.7965ZM70.3225 111.264C70.1265 111.264 70.0285 111.362 70.0285 111.558V113.476C70.0285 113.672 70.1265 113.77 70.3225 113.77H75.1945C75.3905 113.77 75.4885 113.672 75.4885 113.476V111.558C75.4885 111.362 75.3905 111.264 75.1945 111.264H70.3225ZM81.7487 102.934C82.7194 102.934 83.4334 103.279 83.8907 103.97C84.3481 104.661 84.5767 105.673 84.5767 107.008C84.5767 108.343 84.3481 109.355 83.8907 110.046C83.4334 110.737 82.7194 111.082 81.7487 111.082C80.7781 111.082 80.0641 110.737 79.6067 110.046C79.1587 109.355 78.9347 108.343 78.9347 107.008C78.9347 105.673 79.1587 104.661 79.6067 103.97C80.0641 103.279 80.7781 102.934 81.7487 102.934ZM81.7487 104.166C81.1887 104.166 80.7921 104.409 80.5587 104.894C80.3347 105.37 80.2227 106.075 80.2227 107.008C80.2227 107.941 80.3347 108.651 80.5587 109.136C80.7921 109.612 81.1887 109.85 81.7487 109.85C82.3087 109.85 82.7054 109.612 82.9387 109.136C83.1721 108.651 83.2887 107.941 83.2887 107.008C83.2887 106.075 83.1721 105.37 82.9387 104.894C82.7054 104.409 82.3087 104.166 81.7487 104.166ZM86.6347 102.248C86.7934 102.248 86.9381 102.295 87.0687 102.388C87.2087 102.472 87.2787 102.607 87.2787 102.794V113.07C87.2787 113.257 87.2087 113.392 87.0687 113.476C86.9381 113.569 86.7934 113.616 86.6347 113.616C86.4667 113.616 86.3127 113.569 86.1727 113.476C86.0421 113.392 85.9767 113.257 85.9767 113.07V107.596H83.7367V106.406H85.9767V102.794C85.9767 102.607 86.0421 102.472 86.1727 102.388C86.3127 102.295 86.4667 102.248 86.6347 102.248ZM89.1407 102.108C89.3087 102.108 89.4581 102.155 89.5887 102.248C89.7287 102.332 89.7987 102.467 89.7987 102.654V113.658C89.7987 113.845 89.7287 113.98 89.5887 114.064C89.4581 114.157 89.3087 114.204 89.1407 114.204C88.9821 114.204 88.8327 114.157 88.6927 114.064C88.5621 113.98 88.4967 113.845 88.4967 113.658V102.654C88.4967 102.467 88.5621 102.332 88.6927 102.248C88.8327 102.155 88.9821 102.108 89.1407 102.108ZM95.4149 102.766C95.6016 102.766 95.7649 102.813 95.9049 102.906C96.0542 102.999 96.1289 103.149 96.1289 103.354V105.524C96.1289 105.823 96.1476 106.093 96.1849 106.336C96.2222 106.569 96.2829 106.793 96.3669 107.008C96.4509 107.213 96.5629 107.419 96.7029 107.624C96.8429 107.829 97.0202 108.044 97.2349 108.268C97.5149 108.567 97.7902 108.856 98.0609 109.136C98.3409 109.407 98.6022 109.649 98.8449 109.864C98.9756 109.985 99.0269 110.13 98.9989 110.298C98.9802 110.466 98.9149 110.611 98.8029 110.732C98.7002 110.844 98.5649 110.914 98.3969 110.942C98.2289 110.97 98.0796 110.923 97.9489 110.802C97.7342 110.606 97.5056 110.391 97.2629 110.158C97.0296 109.915 96.7776 109.654 96.5069 109.374C96.3016 109.159 96.1336 108.977 96.0029 108.828C95.8722 108.669 95.7649 108.534 95.6809 108.422C95.6062 108.31 95.5502 108.212 95.5129 108.128C95.4756 108.044 95.4476 107.965 95.4289 107.89H95.4149C95.3962 107.974 95.3682 108.058 95.3309 108.142C95.2936 108.226 95.2329 108.329 95.1489 108.45C95.0742 108.562 94.9716 108.697 94.8409 108.856C94.7102 109.005 94.5422 109.187 94.3369 109.402C94.0662 109.682 93.8002 109.953 93.5389 110.214C93.2869 110.466 93.0116 110.727 92.7129 110.998C92.5729 111.129 92.4142 111.175 92.2369 111.138C92.0689 111.091 91.9336 111.007 91.8309 110.886C91.7189 110.755 91.6582 110.611 91.6489 110.452C91.6489 110.293 91.7142 110.149 91.8449 110.018C92.1529 109.729 92.4516 109.439 92.7409 109.15C93.0396 108.861 93.3289 108.567 93.6089 108.268C93.8142 108.044 93.9869 107.829 94.1269 107.624C94.2669 107.419 94.3789 107.213 94.4629 107.008C94.5562 106.793 94.6216 106.569 94.6589 106.336C94.6962 106.093 94.7149 105.823 94.7149 105.524V103.354C94.7149 103.149 94.7849 102.999 94.9249 102.906C95.0649 102.813 95.2282 102.766 95.4149 102.766ZM101.379 102.108C101.566 102.108 101.729 102.155 101.869 102.248C102.009 102.341 102.079 102.491 102.079 102.696V113.616C102.079 113.821 102.009 113.971 101.869 114.064C101.729 114.157 101.566 114.204 101.379 114.204C101.202 114.204 101.043 114.157 100.903 114.064C100.763 113.971 100.693 113.821 100.693 113.616V107.064H98.5649C98.3876 107.064 98.2569 107.008 98.1729 106.896C98.0982 106.775 98.0609 106.635 98.0609 106.476C98.0609 106.308 98.0982 106.168 98.1729 106.056C98.2569 105.935 98.3876 105.874 98.5649 105.874H100.693V102.696C100.693 102.491 100.763 102.341 100.903 102.248C101.043 102.155 101.202 102.108 101.379 102.108ZM116.501 103.004C116.912 103.004 117.192 103.079 117.341 103.228C117.5 103.377 117.579 103.653 117.579 104.054V105.342C117.579 106.201 117.537 106.971 117.453 107.652C117.378 108.324 117.271 108.982 117.131 109.626C117.084 109.813 116.982 109.948 116.823 110.032C116.664 110.107 116.482 110.121 116.277 110.074C116.109 110.046 115.969 109.976 115.857 109.864C115.754 109.752 115.722 109.603 115.759 109.416C115.89 108.753 115.992 108.095 116.067 107.442C116.142 106.789 116.179 106.075 116.179 105.3V104.516C116.179 104.32 116.081 104.222 115.885 104.222H109.319C109.142 104.222 109.016 104.166 108.941 104.054C108.866 103.933 108.829 103.788 108.829 103.62C108.829 103.452 108.866 103.307 108.941 103.186C109.016 103.065 109.142 103.004 109.319 103.004H116.501ZM112.399 107.106C112.586 107.106 112.749 107.153 112.889 107.246C113.029 107.339 113.099 107.489 113.099 107.694V111.796H118.671C118.839 111.796 118.96 111.857 119.035 111.978C119.119 112.09 119.161 112.225 119.161 112.384C119.161 112.543 119.119 112.683 119.035 112.804C118.96 112.925 118.839 112.986 118.671 112.986H107.891C107.723 112.986 107.597 112.925 107.513 112.804C107.438 112.683 107.401 112.543 107.401 112.384C107.401 112.225 107.438 112.09 107.513 111.978C107.597 111.857 107.723 111.796 107.891 111.796H111.713V107.694C111.713 107.489 111.783 107.339 111.923 107.246C112.063 107.153 112.222 107.106 112.399 107.106ZM129.033 102.892C129.444 102.892 129.724 102.967 129.873 103.116C130.032 103.265 130.111 103.541 130.111 103.942V105.832C130.111 106.233 130.032 106.509 129.873 106.658C129.724 106.807 129.444 106.882 129.033 106.882H123.307C123.205 106.882 123.13 106.905 123.083 106.952C123.037 106.989 123.013 107.064 123.013 107.176V108.254C123.013 108.45 123.111 108.548 123.307 108.548H129.929C130.097 108.548 130.219 108.609 130.293 108.73C130.377 108.842 130.419 108.977 130.419 109.136C130.419 109.295 130.377 109.435 130.293 109.556C130.219 109.668 130.097 109.724 129.929 109.724H122.719C122.309 109.724 122.024 109.654 121.865 109.514C121.716 109.365 121.641 109.089 121.641 108.688V106.784C121.641 106.383 121.716 106.107 121.865 105.958C122.024 105.809 122.309 105.734 122.719 105.734H128.445C128.641 105.734 128.739 105.641 128.739 105.454V104.376C128.739 104.18 128.641 104.082 128.445 104.082H122.103C121.935 104.082 121.809 104.026 121.725 103.914C121.651 103.793 121.613 103.653 121.613 103.494C121.613 103.335 121.651 103.195 121.725 103.074C121.809 102.953 121.935 102.892 122.103 102.892H129.033ZM131.273 111.782C131.441 111.782 131.563 111.843 131.637 111.964C131.721 112.076 131.763 112.216 131.763 112.384C131.763 112.543 131.721 112.683 131.637 112.804C131.563 112.925 131.441 112.986 131.273 112.986H120.493C120.325 112.986 120.199 112.925 120.115 112.804C120.041 112.683 120.003 112.543 120.003 112.384C120.003 112.216 120.041 112.076 120.115 111.964C120.199 111.843 120.325 111.782 120.493 111.782H131.273ZM138.107 103.06C138.518 103.06 138.798 103.135 138.947 103.284C139.106 103.433 139.185 103.709 139.185 104.11V105.692C139.185 106.084 139.162 106.439 139.115 106.756C139.069 107.064 138.98 107.358 138.849 107.638C138.719 107.918 138.537 108.193 138.303 108.464C138.07 108.725 137.767 109.005 137.393 109.304C137.029 109.593 136.586 109.911 136.063 110.256C135.541 110.601 134.92 110.993 134.201 111.432C134.043 111.525 133.884 111.544 133.725 111.488C133.567 111.423 133.441 111.325 133.347 111.194C133.254 111.063 133.207 110.909 133.207 110.732C133.217 110.555 133.301 110.415 133.459 110.312C134.122 109.911 134.687 109.561 135.153 109.262C135.629 108.954 136.026 108.679 136.343 108.436C136.661 108.184 136.913 107.955 137.099 107.75C137.295 107.535 137.445 107.325 137.547 107.12C137.65 106.905 137.715 106.681 137.743 106.448C137.771 106.205 137.785 105.935 137.785 105.636V104.558C137.785 104.455 137.762 104.385 137.715 104.348C137.678 104.301 137.603 104.278 137.491 104.278H133.851C133.674 104.278 133.543 104.217 133.459 104.096C133.385 103.975 133.347 103.835 133.347 103.676C133.347 103.508 133.385 103.363 133.459 103.242C133.543 103.121 133.674 103.06 133.851 103.06H138.107ZM142.447 102.108C142.634 102.108 142.797 102.155 142.937 102.248C143.087 102.341 143.161 102.491 143.161 102.696V113.616C143.161 113.821 143.087 113.971 142.937 114.064C142.797 114.157 142.634 114.204 142.447 114.204C142.27 114.204 142.107 114.157 141.957 114.064C141.817 113.971 141.747 113.821 141.747 113.616V102.696C141.747 102.491 141.817 102.341 141.957 102.248C142.107 102.155 142.27 102.108 142.447 102.108Z" fill="black"/>
<path d="M131.84 73.2699C129.57 73.2699 129.571 73.45 127.301 73.45C125.031 73.45 125.031 73.37 122.771 73.37C120.511 73.37 120.5 73.2899 118.23 73.2899C115.96 73.2899 115.96 73.3899 113.69 73.3899C111.42 73.3899 111.42 73.3899 109.16 73.3899C106.9 73.3899 106.89 73.2699 104.62 73.2699H100.08C97.8103 73.2699 97.8105 73.34 95.5405 73.34C93.2705 73.34 93.2705 73.2599 91.0005 73.2599C88.7305 73.2599 88.7304 73.2599 86.4604 73.2599C84.1904 73.2599 84.1904 73.2599 81.9104 73.2599C81.4313 73.2665 80.9557 73.1777 80.5112 72.9987C80.0668 72.8196 79.6624 72.5539 79.3218 72.2169C78.9811 71.88 78.711 71.4786 78.5271 71.0361C78.3432 70.5937 78.2491 70.119 78.2505 69.6399C78.2505 67.5299 78.2505 67.5299 78.2505 65.4099C78.2505 63.2899 78.1204 63.2999 78.1204 61.1799C78.1204 59.0599 78.1204 59.07 78.1204 56.95C78.1204 54.83 78.1904 54.84 78.1904 52.72C78.1904 50.6 78.0703 50.61 78.0703 48.5C78.0703 46.39 78.2405 46.3799 78.2405 44.2599C78.2405 42.1399 78.1904 42.1499 78.1904 40.0299C78.1904 37.9099 78.1204 37.9099 78.1204 35.7899C78.1282 34.804 78.5241 33.8609 79.2222 33.1647C79.9203 32.4685 80.8644 32.0752 81.8503 32.0699C84.1203 32.0699 84.1204 32.1899 86.3904 32.1899C88.6604 32.1899 88.6604 32.08 90.9204 32.08H95.4604C97.7304 32.08 97.7305 32.08 100 32.08C102.27 32.08 102.271 32.1899 104.541 32.1899C106.811 32.1899 106.8 32.08 109.07 32.08C111.34 32.08 111.34 32.22 113.61 32.22C115.88 32.22 115.88 32.0499 118.15 32.0499C120.42 32.0499 120.42 32.0499 122.69 32.0499C124.96 32.0499 124.96 32 127.23 32C129.5 32 129.501 32.0699 131.781 32.0699C132.262 32.0725 132.738 32.1705 133.181 32.3584C133.624 32.5462 134.026 32.8202 134.363 33.1643C134.699 33.5084 134.964 33.9159 135.143 34.3632C135.321 34.8104 135.408 35.2885 135.4 35.7699V40C135.4 42.12 135.4 42.12 135.4 44.23C135.4 46.34 135.4 46.35 135.4 48.46C135.4 50.57 135.4 50.5699 135.4 52.6899C135.4 54.8099 135.48 54.7999 135.48 56.9199C135.48 59.0399 135.37 59.0299 135.37 61.1499C135.37 63.2699 135.551 63.2699 135.551 65.3799C135.551 67.4899 135.42 67.5 135.42 69.62C135.43 70.096 135.344 70.569 135.168 71.0115C134.992 71.4539 134.73 71.8569 134.397 72.1968C134.064 72.5367 133.666 72.8066 133.227 72.9908C132.788 73.1751 132.316 73.27 131.84 73.2699Z" fill="#AFD0FF"/>
<rect x="68.6094" y="41.8799" width="57" height="41" fill="#EFF5FF"/>
<path d="M114.271 54.1903C114.289 55.0842 114.085 55.9686 113.677 56.7639C113.268 57.5592 112.668 58.2403 111.931 58.746C111.194 59.2517 110.342 59.5661 109.453 59.6608C108.564 59.7555 107.665 59.6276 106.838 59.2886C106.011 58.9495 105.281 58.41 104.714 57.7186C104.147 57.0273 103.761 56.2057 103.591 55.328C103.421 54.4503 103.471 53.544 103.738 52.6908C104.005 51.8376 104.481 51.0642 105.121 50.4403C105.62 49.9615 106.21 49.5868 106.856 49.3379C107.501 49.089 108.189 48.9708 108.881 48.9904C109.565 48.984 110.243 49.1152 110.876 49.3763C111.508 49.6375 112.081 50.0231 112.561 50.5103C113.075 50.9806 113.49 51.5479 113.784 52.1794C114.077 52.811 114.243 53.4945 114.271 54.1903Z" fill="#6AA6FB"/>
<path d="M123.379 83.9397C124.129 83.2897 123.279 82.9397 123.279 81.9397C123.279 80.9397 123.389 80.9397 123.389 79.9397C123.389 78.9397 123.389 78.9397 123.389 77.9397C123.389 76.9397 123.889 76.7997 123.439 75.9397C122.989 75.0797 122.438 75.3297 121.588 74.6297C120.738 73.9297 120.849 73.7798 119.979 73.0898C119.109 72.3998 119.089 72.4198 118.219 71.7198C117.349 71.0198 117.389 70.9897 116.519 70.2897C115.649 69.5897 115.519 69.7097 114.689 69.0097C113.859 68.3097 113.839 68.3098 112.969 67.6098C112.099 66.9098 112.198 66.7797 111.338 66.0798C110.478 65.3798 110.339 65.4897 109.509 64.7897C108.679 64.0897 108.579 64.1598 107.719 63.4598C107.283 63.109 106.738 62.9215 106.179 62.9297C105.613 62.9093 105.058 63.0861 104.609 63.4297C103.609 64.2197 103.539 64.0997 102.609 64.8797C101.679 65.6597 101.759 65.8798 100.789 66.6098C99.8187 67.3398 100.049 68.1097 98.7887 68.1397C97.5287 68.1697 97.8886 67.3498 96.9686 66.6098C96.0486 65.8698 95.9687 65.9197 95.0587 65.1797C94.1487 64.4397 94.0585 64.5097 93.1385 63.7697C92.2185 63.0297 92.2685 62.9498 91.3385 62.2098C90.4085 61.4698 90.3386 61.5497 89.4186 60.7997C88.4986 60.0497 88.5685 59.9497 87.6385 59.1997C86.7085 58.4497 86.6386 58.4997 85.7386 57.7597C85.3316 57.3705 84.8006 57.137 84.2386 57.0998C83.6423 57.0463 83.0451 57.1903 82.5387 57.5097L80.9086 58.8298C80.0886 59.4898 80.1385 59.5498 79.3185 60.2098C78.4985 60.8698 78.6187 61.0097 77.7987 61.6597C76.9787 62.3097 76.9686 62.2998 76.1486 62.9598C75.3286 63.6198 75.4185 63.7297 74.5985 64.3897C73.7785 65.0497 73.6785 64.9198 72.8585 65.5798C72.0385 66.2397 71.7885 65.9997 71.3385 66.9497C70.8885 67.8997 71.0685 67.9497 71.0685 69.0097C71.0685 70.0697 71.0685 70.0697 71.0685 71.1297C71.0685 72.1897 71.0087 72.1898 71.0087 73.2498C71.0087 74.3098 71.2487 74.3097 71.2487 75.3797C71.2487 76.4497 71.3585 76.4398 71.3585 77.4998C71.3585 78.5598 71.2386 78.5598 71.2386 79.6198C71.2386 80.6798 71.2386 80.6898 71.2386 81.7498C71.2386 82.8098 70.3886 83.2197 71.1586 83.9497C71.9286 84.6797 72.3586 83.9497 73.4886 83.9497C74.6186 83.9497 74.6187 83.7997 75.7487 83.7997C76.8787 83.7997 76.8887 83.7398 78.0187 83.7398C79.1487 83.7398 79.1487 84.0397 80.2787 84.0397C81.4087 84.0397 81.4087 83.8897 82.5487 83.8897C83.6887 83.8897 83.6787 83.7098 84.8087 83.7098H87.0785C88.2085 83.7098 88.2085 83.9898 89.3485 83.9898C90.4885 83.9898 90.4785 83.9898 91.6185 83.9898C92.7585 83.9898 92.7485 83.7997 93.8785 83.7997C95.0085 83.7997 95.0186 84.0097 96.1486 84.0097C97.2786 84.0097 97.2786 83.7597 98.4186 83.7597C99.5586 83.7597 99.5486 84.0297 100.689 84.0297C101.829 84.0297 101.819 83.8897 102.959 83.8897C104.099 83.8897 104.089 83.8097 105.229 83.8097C106.369 83.8097 106.359 83.9497 107.499 83.9497C108.639 83.9497 108.629 84.0798 109.759 84.0798C110.889 84.0798 110.899 83.9598 112.029 83.9598C113.159 83.9598 113.169 83.7198 114.299 83.7198H116.578C117.708 83.7198 117.709 83.7897 118.849 83.7897C119.608 83.6799 120.379 83.6799 121.139 83.7897C122.309 84.0897 122.519 84.6797 123.379 83.9397Z" fill="#AFD0FF"/>
<path d="M126.54 38.2395C124.29 38.2395 124.29 38.1694 122.05 38.1694C119.81 38.1694 119.8 38.0094 117.55 38.0094C115.3 38.0094 115.31 38.1594 113.06 38.1594C110.81 38.1594 110.81 38.0494 108.56 38.0494C106.31 38.0494 106.31 38.0494 104.07 38.0494C101.83 38.0494 101.82 38.1294 99.5698 38.1294C97.3198 38.1294 97.3198 38.0695 95.0698 38.0695C92.8198 38.0695 92.8198 38.2195 90.5698 38.2195C88.3198 38.2195 88.3198 37.9995 86.0698 37.9995C83.8198 37.9995 83.8198 38.1095 81.5698 38.1095C79.3198 38.1095 79.3198 37.9795 77.0698 37.9795C74.8198 37.9795 74.8198 38.0394 72.5698 38.0394C70.3198 38.0394 70.3101 38.1995 68.0601 38.1995C67.6756 38.1901 67.2932 38.258 66.9355 38.3993C66.5779 38.5406 66.2523 38.7523 65.978 39.0219C65.7038 39.2914 65.4865 39.6133 65.3391 39.9685C65.1917 40.3237 65.1171 40.7049 65.1199 41.0895C65.1199 43.2495 65.01 43.2494 65.01 45.4194C65.01 47.5894 65.1899 47.5795 65.1899 49.7495C65.1899 51.9195 65.1399 51.9095 65.1399 54.0795C65.1399 56.2495 65.1899 56.2494 65.1899 58.4094C65.1899 60.5694 65.0898 60.5795 65.0898 62.7495C65.0898 64.9195 65 64.9095 65 67.0795C65 69.2495 65 69.2394 65 71.4094C65 73.5794 65 73.5795 65 75.7495C65 77.9195 65.1899 77.9195 65.1899 80.0895C65.1899 82.2595 65.05 82.2594 65.05 84.4294C65.0521 85.2338 65.3657 86.0061 65.925 86.5841C66.4844 87.1621 67.2462 87.501 68.05 87.5294C70.3 87.5294 70.3 87.3295 72.55 87.3295C74.8 87.3295 74.79 87.4795 77.04 87.4795C79.29 87.4795 79.29 87.4094 81.54 87.4094C83.79 87.4094 83.78 87.4094 86.03 87.4094C88.28 87.4094 88.28 87.4795 90.53 87.4795C92.78 87.4795 92.78 87.5494 95.03 87.5494C97.28 87.5494 97.28 87.4695 99.53 87.4695C101.78 87.4695 101.78 87.5895 104.02 87.5895C106.26 87.5895 106.27 87.4294 108.52 87.4294C110.77 87.4294 110.77 87.5094 113.02 87.5094C115.27 87.5094 115.27 87.4395 117.52 87.4395C119.77 87.4395 119.77 87.5194 122.03 87.5194C124.29 87.5194 124.28 87.5895 126.53 87.5895C127.341 87.5638 128.111 87.226 128.679 86.6466C129.247 86.0672 129.57 85.2909 129.58 84.4795C129.58 82.3095 129.53 82.3094 129.53 80.1494C129.53 77.9894 129.44 77.9795 129.44 75.8195C129.44 73.6595 129.6 73.6495 129.6 71.4795C129.6 69.3095 129.6 69.3194 129.6 67.1494C129.6 64.9794 129.37 64.9795 129.37 62.8195C129.37 60.6595 129.44 60.6495 129.44 58.4795C129.44 56.3095 129.51 56.3194 129.51 54.1494C129.51 51.9794 129.57 51.9795 129.57 49.8195C129.57 47.6595 129.39 47.6495 129.39 45.4795C129.39 43.3095 129.46 43.3094 129.46 41.1394C129.464 40.7557 129.391 40.3753 129.246 40.0203C129.1 39.6653 128.885 39.343 128.613 39.0726C128.34 38.8023 128.017 38.5893 127.661 38.4462C127.305 38.3031 126.924 38.2328 126.54 38.2395ZM123.35 80.0795C123.327 80.4554 123.163 80.8087 122.89 81.0685C122.617 81.3282 122.256 81.4751 121.88 81.4795C119.64 81.4795 119.64 81.3195 117.41 81.3195C115.18 81.3195 115.18 81.4695 112.95 81.4695C110.72 81.4695 110.72 81.3595 108.48 81.3595C106.24 81.3595 106.25 81.3595 104.01 81.3595C101.77 81.3595 101.78 81.4395 99.55 81.4395C97.32 81.4395 97.3098 81.3794 95.0798 81.3794C92.8498 81.3794 92.8499 81.5294 90.6099 81.5294C88.3699 81.5294 88.3799 81.3094 86.1499 81.3094C83.9199 81.3094 83.9099 81.4194 81.6699 81.4194C79.4299 81.4194 79.44 81.2894 77.2 81.2894C74.96 81.2894 74.96 81.3495 72.73 81.3495C72.3671 81.3687 72.0112 81.244 71.7397 81.0024C71.4683 80.7609 71.3032 80.4221 71.28 80.0594C71.28 77.8994 71.28 77.8995 71.28 75.7295C71.28 73.5595 71.3999 73.5694 71.3999 71.4094C71.3999 69.2494 71.22 69.2495 71.22 67.0895C71.22 64.9295 71.22 64.9294 71.22 62.7594C71.22 60.5894 71.22 60.5995 71.22 58.4395C71.22 56.2795 71.3198 56.2795 71.3198 54.1095C71.3198 51.9395 71.3999 51.9494 71.3999 49.7794C71.3999 47.6094 71.3999 47.6195 71.3999 45.4495C71.3928 45.2808 71.4209 45.1125 71.4822 44.9552C71.5435 44.7979 71.6367 44.6551 71.7561 44.5358C71.8755 44.4164 72.0185 44.323 72.1758 44.2617C72.3331 44.2004 72.5013 44.1724 72.6699 44.1794C74.8999 44.1794 74.8999 43.9795 77.1299 43.9795C79.3599 43.9795 79.3599 44.1294 81.5999 44.1294C83.8399 44.1294 83.8301 44.2195 86.0601 44.2195C88.2901 44.2195 88.3 44.0194 90.53 44.0194C92.76 44.0194 92.76 44.1694 95 44.1694C97.24 44.1694 97.23 44.0995 99.47 44.0995C101.71 44.0995 101.7 44.0995 103.93 44.0995C106.16 44.0995 106.17 44.1694 108.4 44.1694C110.63 44.1694 110.63 44.2395 112.87 44.2395C115.11 44.2395 115.11 44.1594 117.34 44.1594C119.57 44.1594 119.58 44.2794 121.82 44.2794C121.991 44.2644 122.164 44.2845 122.328 44.3384C122.492 44.3923 122.643 44.479 122.772 44.5931C122.901 44.7073 123.006 44.8465 123.079 45.0023C123.153 45.1581 123.194 45.3273 123.2 45.4995C123.2 47.6695 123.12 47.6695 123.12 49.8295C123.12 51.9895 123.19 51.9894 123.19 54.1494C123.19 56.3094 123.12 56.3095 123.12 58.4795C123.12 60.6495 123.05 60.6394 123.05 62.7994C123.05 64.9594 123.11 64.9595 123.11 67.1195C123.11 69.2795 123.16 69.2895 123.16 71.4495C123.16 73.6095 123.16 73.6094 123.25 75.7794C123.34 77.9494 123.35 77.9095 123.35 80.0795Z" fill="#89BAFF"/>
<defs>
<filter id="filter0_i_918_9711" x="0" y="-4" width="200" height="144" filterUnits="userSpaceOnUse" color-interpolation-filters="sRGB">
<feFlood flood-opacity="0" result="BackgroundImageFix"/>
<feBlend mode="normal" in="SourceGraphic" in2="BackgroundImageFix" result="shape"/>
<feColorMatrix in="SourceAlpha" type="matrix" values="0 0 0 0 0 0 0 0 0 0 0 0 0 0 0 0 0 0 127 0" result="hardAlpha"/>
<feOffset dy="-4"/>
<feGaussianBlur stdDeviation="5"/>
<feComposite in2="hardAlpha" operator="arithmetic" k2="-1" k3="1"/>
<feColorMatrix type="matrix" values="0 0 0 0 0.341176 0 0 0 0 0.615686 0 0 0 0 1 0 0 0 0.3 0"/>
<feBlend mode="normal" in2="shape" result="effect1_innerShadow_918_9711"/>
</filter>
</defs>
</svg>
