<svg width="531" height="152" viewBox="0 0 531 152" fill="none" xmlns="http://www.w3.org/2000/svg">
<g opacity="0.75">
<path d="M0.540127 -20.3872C-0.269873 -19.5972 0.260159 -19.3872 0.260159 -18.2972C0.260159 -17.2072 0.260159 -17.1672 0.260159 -16.0372C0.260159 -14.9072 0.360134 -14.9072 0.360134 -13.7772C0.360134 -12.6472 0.360134 -12.6472 0.360134 -11.5272C0.360134 -10.4072 0.440151 -10.3972 0.440151 -9.26722C0.440151 -8.13722 0.21011 -8.14722 0.21011 -7.01722C0.21011 -5.88722 0.370144 -5.88721 0.370144 -4.75721C0.370144 -3.62721 0.130154 -3.63721 0.130154 -2.50721C0.130154 -1.37721 0.300137 -1.38721 0.300137 -0.257208C0.300137 0.872792 0.200161 0.872792 0.200161 1.99279C0.200161 3.11279 0.200161 3.1228 0.200161 4.2528C0.200161 5.3828 0.200161 5.3728 0.200161 6.5028C0.200161 7.6328 0.630154 7.63275 0.630154 8.76275C0.630154 9.89275 0.300137 9.89275 0.300137 11.0128C0.300137 12.1328 0.560147 12.1428 0.560147 13.2728C0.560147 14.4028 0.170132 14.4028 0.170132 15.5328C0.170132 16.6628 0.170132 16.6628 0.170132 17.7928C0.170132 18.9228 0.110134 18.9128 0.110134 20.0428C0.110134 21.1728 0.350125 21.1728 0.350125 22.3028C0.350125 23.4328 0.510159 23.4228 0.510159 24.5528C0.510159 25.6828 0.46011 25.6828 0.46011 26.8128C0.46011 27.9428 0.280117 27.9328 0.280117 29.0628C0.280117 30.1928 0.380154 30.1928 0.380154 31.3228C0.380154 32.4528 0.610134 32.4528 0.610134 33.5828C0.610134 34.7128 0.120144 34.7128 0.120144 35.8428C0.120144 36.9728 0.620144 36.9628 0.620144 38.0928C0.620144 39.2228 0.510159 39.2228 0.510159 40.3528C0.510159 41.4828 0.200161 41.4828 0.200161 42.6128C0.200161 43.7428 0.200161 43.7328 0.200161 44.8628C0.200161 45.9928 0.410122 45.9928 0.410122 47.1228C0.410122 48.2528 0.330105 48.2528 0.330105 49.3828C0.330105 50.5128 0.330105 50.5128 0.330105 51.6328C0.330105 52.7528 0.240139 52.7628 0.240139 53.8928C0.240139 55.0228 0.520107 55.0228 0.520107 56.1528C0.520107 57.2828 0.340115 57.2828 0.340115 58.4128C0.340115 59.5428 0.530117 59.5428 0.530117 60.6728C0.530117 61.8028 0.530117 61.8028 0.530117 62.9228V65.1828C0.530117 66.3128 0.22012 66.3128 0.22012 67.4428C0.22012 68.5728 0.520107 68.5728 0.520107 69.7028C0.520107 70.8328 0.46011 70.8328 0.46011 71.9628C0.46011 73.0928 0.46011 73.0928 0.46011 74.2228C0.46011 75.3528 0.700161 75.3528 0.700161 76.4828C0.700161 77.6128 0.21011 77.6128 0.21011 78.7428C0.21011 79.8728 0.690151 79.8728 0.690151 80.9928C0.690151 82.1128 0.450161 82.1228 0.450161 83.2528C0.450161 84.3828 0.570156 84.3828 0.570156 85.5128C0.570156 86.6428 0.21011 86.6428 0.21011 87.7728C0.21011 88.9028 0.530117 88.9028 0.530117 90.0328C0.530117 91.1628 0.530117 91.1628 0.530117 92.2928C0.530117 93.4228 0.530117 93.4228 0.530117 94.5528C0.530117 95.6828 0.340115 95.6828 0.340115 96.8028C0.340115 97.9228 0.22012 97.9328 0.22012 99.0628C0.22012 100.193 0.22012 100.193 0.22012 101.323C0.22012 102.453 0.350125 102.453 0.350125 103.583C0.350125 104.713 0.550137 104.713 0.550137 105.843C0.550137 106.973 0.180142 106.973 0.180142 108.093C0.180142 109.213 0.540127 109.233 0.540127 110.363C0.540127 111.493 0.22012 111.493 0.22012 112.613C0.22012 113.733 0.600125 113.753 0.600125 114.883C0.600125 116.013 0.540127 116.013 0.540127 117.143C0.540127 118.273 0.280117 118.273 0.280117 119.403C0.280117 120.533 0.21011 120.533 0.21011 121.663C0.21011 122.793 0.630154 122.793 0.630154 123.923C0.630154 125.053 0.500149 125.053 0.500149 126.183C0.500149 127.313 0.660122 127.313 0.660122 128.443C0.660122 129.573 0.420132 129.573 0.420132 130.703C0.420132 131.833 0.420132 131.843 0.420132 132.973C0.420132 134.103 0.230129 134.103 0.230129 135.233C0.230129 136.363 0.550137 136.363 0.550137 137.503C0.550137 138.643 0.610134 138.633 0.610134 139.773C0.610134 140.913 0.480129 140.903 0.480129 142.033C0.459904 142.25 0.490134 142.469 0.568447 142.673C0.64676 142.877 0.771057 143.06 0.931668 143.208C1.09228 143.356 1.28487 143.465 1.49447 143.527C1.70407 143.588 1.92498 143.601 2.1401 143.563C2.90993 143.408 3.69572 143.348 4.48013 143.383C5.27329 143.338 6.06898 143.388 6.85012 143.533C7.58652 143.827 8.28761 144.202 8.94015 144.653C9.66621 144.967 10.3596 145.352 11.0102 145.803C11.5549 146.377 12.05 146.995 12.4901 147.653C13.0635 148.171 13.6827 148.636 14.3401 149.043C14.8638 149.609 15.4397 150.125 16.0601 150.583C16.7496 150.926 17.4737 151.194 18.2201 151.383C18.9695 151.511 19.731 151.555 20.4901 151.513C21.2405 151.663 22.0051 151.73 22.7701 151.713C23.5469 151.654 24.3149 151.51 25.0601 151.283C25.7301 151.013 26.1301 150.283 26.6701 149.913C27.2101 149.543 28.0701 149.343 28.4901 148.823C28.9101 148.303 28.8601 147.423 29.0901 146.823C29.4235 146.221 29.6438 145.564 29.7401 144.883C29.7401 144.103 29.3701 144.033 29.7401 143.333C30.4701 143.272 31.2045 143.293 31.9301 143.393C32.629 143.657 33.2992 143.992 33.9301 144.393C34.5845 144.698 35.2075 145.066 35.7901 145.493C36.6388 146.113 37.4079 146.835 38.0801 147.643C38.65 148.161 39.2659 148.626 39.9201 149.033C40.4914 149.511 41.1077 149.933 41.7602 150.293C42.3898 150.712 43.0598 151.067 43.7602 151.353C44.4999 151.509 45.2541 151.586 46.0102 151.583C46.7578 151.667 47.5125 151.667 48.2602 151.583C49.0274 151.543 49.7883 151.423 50.5301 151.223C51.2101 150.953 51.6401 150.313 52.1801 149.933C52.791 149.612 53.3588 149.216 53.8701 148.753C54.25 148.173 54.5305 147.535 54.7002 146.863C54.9756 146.231 55.1282 145.552 55.1501 144.863C55.1501 143.743 55.4101 143.743 55.4101 142.633C55.4101 141.523 55.1501 141.513 55.1501 140.393C55.1501 139.273 55.0102 139.283 55.0102 138.163C55.0102 137.043 55.1501 137.043 55.1501 135.933C55.1501 134.823 55.0001 134.813 55.0001 133.693C55.0001 132.573 55.2501 132.573 55.2501 131.463C55.2501 130.353 55.0001 130.343 55.0001 129.233C55.0001 128.123 55.0001 128.113 55.0001 127.003V124.723C55.0001 123.603 55.3901 123.603 55.3901 122.483C55.3901 121.363 55.2301 121.373 55.2301 120.253C55.2301 119.133 55.2301 119.143 55.2301 118.023C55.2301 116.903 55.3701 116.913 55.3701 115.793C55.3701 114.673 55.1101 114.683 55.1101 113.563C55.1101 112.443 55.3401 112.453 55.3401 111.333C55.3401 110.213 55.1501 110.213 55.1501 109.103C55.1501 107.993 55.1501 107.983 55.1501 106.863C55.1501 105.743 54.9001 105.743 54.9001 104.633C54.9001 103.523 55.0001 103.513 55.0001 102.393C55.0001 101.273 55.2201 101.283 55.2201 100.163C55.2201 99.0428 55.1601 99.0428 55.1601 97.9328C55.1601 96.8228 55.2901 96.8128 55.2901 95.7028C55.2901 94.5928 55.0401 94.5828 55.0401 93.4628C55.0401 92.3428 54.9101 92.3528 54.9101 91.2328C54.9101 90.1128 55.0301 90.1128 55.0301 89.0028C55.0301 87.8928 54.9101 87.8828 54.9101 86.7628C54.9101 85.6428 55.2602 85.6528 55.2602 84.5328C55.2602 83.4128 55.0102 83.4128 55.0102 82.2928C55.0102 81.1728 55.2101 81.1728 55.2101 80.0628C55.2101 78.9528 55.2801 78.9428 55.2801 77.8228C55.2801 76.7028 55.1302 76.7128 55.1302 75.5928C55.1302 74.4728 54.9701 74.4728 54.9701 73.3628C54.9701 72.2528 54.9701 72.2428 54.9701 71.1228C54.9701 70.0028 55.1801 70.0128 55.1801 68.8928C55.1801 67.7728 55.2401 67.7728 55.2401 66.6528C55.2401 65.5328 55.3901 65.5328 55.3901 64.4228C55.3901 63.3128 55.1801 63.3028 55.1801 62.1828C55.1801 61.0628 55.2602 61.0728 55.2602 59.9528C55.2602 58.8328 54.9601 58.8328 54.9601 57.7128C54.9601 56.5928 54.9601 56.6028 54.9601 55.4828C54.9601 54.3628 55.3501 54.3628 55.3501 53.2428C55.3501 52.1228 55.1001 52.1228 55.1001 51.0128C55.1001 49.9028 54.9901 49.8928 54.9901 48.7728C54.9901 47.6528 55.4101 47.6528 55.4101 46.5328C55.4101 45.4128 55.2501 45.4228 55.2501 44.3028C55.2501 43.1828 55.0301 43.1828 55.0301 42.0628C55.0301 40.9428 55.2602 40.9428 55.2602 39.8328C55.2602 38.7228 55.2602 38.7128 55.2602 37.5928C55.2602 36.4728 55.2602 36.4728 55.2602 35.3528C55.2602 34.2328 55.3202 34.2328 55.3202 33.1228C55.3202 32.0128 55.1101 32.0028 55.1101 30.8828C55.1101 29.7628 55.2101 29.7628 55.2101 28.6428C55.2101 27.5228 55.2101 27.5328 55.2101 26.4128C55.2101 25.2928 55.2101 25.2928 55.2101 24.1828C55.2101 23.0728 54.9301 23.0627 54.9301 21.9427C54.9301 20.8227 54.9901 20.8328 54.9901 19.7128C54.9901 18.5928 55.3001 18.5928 55.3001 17.4728C55.3001 16.3528 55.1001 16.3528 55.1001 15.2428C55.1001 14.1328 54.9801 14.1228 54.9801 13.0028C54.9801 11.8828 55.0801 11.8828 55.0801 10.7628C55.0801 9.64275 54.9901 9.65277 54.9901 8.53277C54.9901 7.41277 55.0901 7.41278 55.0901 6.29278C55.0901 5.17278 55.0901 5.17279 55.0901 4.05279C55.0901 2.93279 55.2501 2.9328 55.2501 1.8128C55.2501 0.692799 54.9502 0.692748 54.9502 -0.427252C54.9502 -1.54725 55.2201 -1.54724 55.2201 -2.66724C55.2201 -3.78724 55.3202 -3.78722 55.3202 -4.89722C55.3202 -6.00722 55.3202 -6.01721 55.3202 -7.13721C55.3202 -8.25721 55.0401 -8.2572 55.0401 -9.3772C55.0401 -10.4972 55.3101 -10.4973 55.3101 -11.6173C55.3101 -12.7373 54.9402 -12.7372 54.9402 -13.8572C54.9402 -14.9772 55.2301 -14.9772 55.2301 -16.0972C55.2301 -17.2172 55.0801 -17.2272 55.0801 -18.3472C55.0801 -19.4672 55.8301 -19.7472 55.0301 -20.5372C54.2301 -21.3272 53.9401 -20.5372 52.8101 -20.5372C51.6801 -20.5372 51.6701 -20.3972 50.5301 -20.3972C49.3901 -20.3972 49.3901 -20.6072 48.2501 -20.6072C47.1101 -20.6072 47.1101 -20.7472 45.9701 -20.7472C44.8301 -20.7472 44.8402 -20.5872 43.7002 -20.5872C42.5602 -20.5872 42.5601 -20.8272 41.4201 -20.8272C40.2801 -20.8272 40.2801 -20.3272 39.1401 -20.3272H36.8601C35.7201 -20.3272 35.7201 -20.5172 34.5801 -20.5172C33.4401 -20.5172 33.4401 -20.7772 32.3001 -20.7772C31.1601 -20.7772 31.1601 -20.7772 30.0201 -20.7772C28.8801 -20.7772 28.8801 -20.3772 27.7401 -20.3772C26.6001 -20.3772 26.6001 -20.7672 25.4601 -20.7672C24.3201 -20.7672 24.3201 -20.4872 23.1701 -20.4872C22.0201 -20.4872 22.0301 -20.6972 20.8901 -20.6972C19.7501 -20.6972 19.7501 -20.6072 18.6101 -20.6072C17.4701 -20.6072 17.4701 -20.8073 16.3301 -20.8073C15.1901 -20.8073 15.1901 -20.6773 14.0501 -20.6773C12.9101 -20.6773 12.9101 -20.4273 11.7701 -20.4273C10.6301 -20.4273 10.6301 -20.6572 9.48013 -20.6572C8.33013 -20.6572 8.34016 -20.6572 7.20016 -20.6572C6.06016 -20.6572 6.06012 -20.9072 4.91012 -20.9072C4.16344 -20.8074 3.4068 -20.8074 2.66012 -20.9072C1.58012 -20.9672 1.35013 -21.1972 0.540127 -20.3872Z" fill="#FFD0C0"/>
<path d="M29.5501 -20.6574C28.8001 -19.8274 29.7701 -19.4274 29.7701 -18.3074C29.7701 -17.1874 29.7701 -17.1874 29.7701 -16.0674C29.7701 -14.9474 29.5801 -14.9474 29.5801 -13.8274C29.5801 -12.7074 29.9201 -12.6974 29.9201 -11.5774C29.9201 -10.4574 29.8301 -10.4574 29.8301 -9.33738C29.8301 -8.21738 29.7301 -8.21739 29.7301 -7.09739C29.7301 -5.97739 29.7801 -5.9774 29.7801 -4.8574C29.7801 -3.7374 29.4502 -3.73741 29.4502 -2.61741C29.4502 -1.49741 29.5401 -1.49736 29.5401 -0.377356C29.5401 0.742644 29.5401 0.742635 29.5401 1.86263C29.5401 2.98263 29.4402 2.98262 29.4402 4.10262C29.4402 5.22262 29.8301 5.22262 29.8301 6.34262C29.8301 7.46262 29.5401 7.46261 29.5401 8.58261C29.5401 9.70261 29.7502 9.7026 29.7502 10.8226C29.7502 11.9426 29.4502 11.9426 29.4502 13.0726C29.4502 14.2026 29.6201 14.1926 29.6201 15.3126C29.6201 16.4326 29.7701 16.4326 29.7701 17.5526C29.7701 18.6726 29.5102 18.6826 29.5102 19.8026C29.5102 20.9226 29.5801 20.9226 29.5801 22.0426C29.5801 23.1626 29.5002 23.1626 29.5002 24.2826C29.5002 25.4026 29.5002 25.4026 29.5002 26.5226C29.5002 27.6426 29.5002 27.6426 29.5002 28.7626C29.5002 29.8826 29.7502 29.8826 29.7502 31.0026C29.7502 32.1226 29.5801 32.1326 29.5801 33.2526C29.5801 34.3726 29.8001 34.3726 29.8001 35.4926C29.8001 36.6126 29.6501 36.6126 29.6501 37.7426C29.6501 38.8726 29.5201 38.8626 29.5201 39.9826C29.5201 41.1026 29.6302 41.1026 29.6302 42.2326C29.6302 43.3626 29.7901 43.3526 29.7901 44.4726C29.7901 45.5926 29.5501 45.5926 29.5501 46.7126C29.5501 47.8326 29.7901 47.8326 29.7901 48.9526C29.7901 50.0726 29.5801 50.0726 29.5801 51.2026C29.5801 52.3326 29.7701 52.3226 29.7701 53.4426C29.7701 54.5626 29.6201 54.5626 29.6201 55.6926C29.6201 56.8226 29.6201 56.8126 29.6201 57.9326C29.6201 59.0526 29.6201 59.0526 29.6201 60.1826C29.6201 61.3126 29.8301 61.3026 29.8301 62.4226C29.8301 63.5426 29.5002 63.5426 29.5002 64.6626C29.5002 65.7826 29.6001 65.7926 29.6001 66.9126C29.6001 68.0326 29.8001 68.0326 29.8001 69.1526C29.8001 70.2726 29.9502 70.2826 29.9502 71.4026C29.9502 72.5226 29.6801 72.5226 29.6801 73.6426C29.6801 74.7626 29.6801 74.7726 29.6801 75.8926C29.6801 77.0126 29.7901 77.0126 29.7901 78.1426C29.7901 79.2726 29.9201 79.2626 29.9201 80.3826C29.9201 81.5026 29.6001 81.5026 29.6001 82.6326C29.6001 83.7626 29.7002 83.7526 29.7002 84.8726C29.7002 85.9926 29.7002 85.9926 29.7002 87.1226C29.7002 88.2526 29.5602 88.2426 29.5602 89.3626C29.5602 90.4826 29.8901 90.4926 29.8901 91.6126C29.8901 92.7326 29.7801 92.7326 29.7801 93.8526C29.7801 94.9726 29.7801 94.9826 29.7801 96.1026V98.3426C29.7801 99.4626 29.8601 99.4626 29.8601 100.583C29.8601 101.703 29.8601 101.703 29.8601 102.833C29.8601 103.963 29.5801 103.953 29.5801 105.073C29.5801 106.193 29.9101 106.193 29.9101 107.323C29.9101 108.453 30.0301 108.443 30.0301 109.563C30.0301 110.683 30.0301 110.693 30.0301 111.813C30.0301 112.933 29.5801 112.933 29.5801 114.053C29.5801 115.173 29.5801 115.183 29.5801 116.303C29.5801 117.423 29.5801 117.433 29.5801 118.553C29.5801 119.673 29.7801 119.673 29.7801 120.803C29.7801 121.933 29.8802 121.923 29.8802 123.053C29.8802 124.183 29.6601 124.173 29.6601 125.293C29.6601 126.413 29.6601 126.423 29.6601 127.543C29.6601 128.663 29.7201 128.673 29.7201 129.793C29.7201 130.913 29.9402 130.913 29.9402 132.043C29.9402 133.173 29.7701 133.163 29.7701 134.293C29.7701 135.423 29.7701 135.413 29.7701 136.543C29.7701 137.673 29.9601 137.663 29.9601 138.793C29.9601 139.923 29.6601 139.923 29.6601 141.043C29.5594 141.79 29.6382 142.551 29.8901 143.263C30.5725 143.354 31.243 143.518 31.8901 143.753C32.5776 143.899 33.2479 144.117 33.8901 144.403C34.6441 144.685 35.3705 145.037 36.0602 145.453C36.4202 144.393 35.6101 144.253 35.6101 143.133C35.6101 142.013 35.9301 142.013 35.9301 140.893C35.9301 139.773 35.7201 139.773 35.7201 138.653C35.7201 137.533 35.8901 137.533 35.8901 136.413C35.8901 135.293 35.8901 135.293 35.8901 134.173C35.8901 133.053 36.0602 133.053 36.0602 131.933C36.0602 130.813 35.7602 130.813 35.7602 129.693C35.7602 128.573 35.9801 128.573 35.9801 127.453C35.9801 126.333 35.7701 126.333 35.7701 125.213C35.7701 124.093 35.9801 124.103 35.9801 122.983C35.9801 121.863 35.5702 121.863 35.5702 120.743V118.503C35.5702 117.383 35.8901 117.383 35.8901 116.273C35.8901 115.163 35.8901 115.153 35.8901 114.033C35.8901 112.913 35.7002 112.913 35.7002 111.793C35.7002 110.673 36.0401 110.673 36.0401 109.553C36.0401 108.433 35.9901 108.433 35.9901 107.303C35.9901 106.173 35.6902 106.183 35.6902 105.063C35.6902 103.943 35.9402 103.943 35.9402 102.823C35.9402 101.703 35.7301 101.703 35.7301 100.583C35.7301 99.4626 36.0102 99.4626 36.0102 98.3426C36.0102 97.2226 35.5901 97.2226 35.5901 96.1026V93.8626C35.5901 92.7426 36.0401 92.7426 36.0401 91.6326C36.0401 90.5226 36.0401 90.5026 36.0401 89.3826C36.0401 88.2626 35.6001 88.2626 35.6001 87.1426C35.6001 86.0226 35.8102 86.0226 35.8102 84.9026C35.8102 83.7826 35.9402 83.7826 35.9402 82.6626C35.9402 81.5426 35.9402 81.5426 35.9402 80.4226C35.9402 79.3026 35.6401 79.3026 35.6401 78.1826C35.6401 77.0626 35.7301 77.0626 35.7301 75.9426C35.7301 74.8226 35.6401 74.8226 35.6401 73.7026C35.6401 72.5826 35.5301 72.5726 35.5301 71.4526C35.5301 70.3326 35.6302 70.3326 35.6302 69.2126C35.6302 68.0926 36.0201 68.0926 36.0201 66.9726C36.0201 65.8526 35.9601 65.8526 35.9601 64.7326C35.9601 63.6126 35.8601 63.6126 35.8601 62.4826C35.8601 61.3526 35.7801 61.3626 35.7801 60.2426C35.7801 59.1226 35.8401 59.1226 35.8401 58.0026C35.8401 56.8826 35.7401 56.8826 35.7401 55.7626C35.7401 54.6426 35.5301 54.6426 35.5301 53.5126C35.5301 52.3826 36.0102 52.3926 36.0102 51.2726C36.0102 50.1526 36.0102 50.1526 36.0102 49.0326C36.0102 47.9126 35.9301 47.9126 35.9301 46.7926C35.9301 45.6726 35.6902 45.6626 35.6902 44.5426C35.6902 43.4226 35.8901 43.4226 35.8901 42.3026C35.8901 41.1826 35.8901 41.1826 35.8901 40.0626C35.8901 38.9426 35.8901 38.9426 35.8901 37.8126C35.8901 36.6826 35.8901 36.6926 35.8901 35.5726C35.8901 34.4526 35.9601 34.4526 35.9601 33.3326C35.9601 32.2126 35.9101 32.2026 35.9101 31.0826C35.9101 29.9626 35.7801 29.9626 35.7801 28.8426C35.7801 27.7226 35.8601 27.7226 35.8601 26.6026C35.8601 25.4826 35.4801 25.4826 35.4801 24.3626C35.4801 23.2426 35.9201 23.2426 35.9201 22.1226C35.9201 21.0026 35.5602 21.0026 35.5602 19.8826C35.5602 18.7626 35.9001 18.7526 35.9001 17.6326C35.9001 16.5126 35.5901 16.5126 35.5901 15.3926C35.5901 14.2726 35.9601 14.2726 35.9601 13.1526C35.9601 12.0326 35.6501 12.0226 35.6501 10.9026C35.6501 9.78261 35.4801 9.78262 35.4801 8.66262C35.4801 7.54262 35.6101 7.54262 35.6101 6.41262C35.6101 5.28262 35.4901 5.29263 35.4901 4.17263C35.4901 3.05263 35.5801 3.05263 35.5801 1.92263C35.5801 0.792632 35.9001 0.802642 35.9001 -0.317358C35.9001 -1.43736 35.9001 -1.44736 35.9001 -2.56736C35.9001 -3.68736 35.9001 -3.68736 35.9001 -4.81736C35.9001 -5.94736 35.5102 -5.93741 35.5102 -7.05741C35.5102 -8.17741 35.5901 -8.1774 35.5901 -9.2974C35.5901 -10.4174 35.6601 -10.4274 35.6601 -11.5474C35.6601 -12.6674 35.5102 -12.6774 35.5102 -13.7974C35.5102 -14.9174 35.5102 -14.9174 35.5102 -16.0474C35.5102 -17.1774 35.7101 -17.1674 35.7101 -18.2974C35.7101 -19.4274 36.3701 -19.6474 35.6201 -20.4874C34.8701 -21.3274 34.6801 -20.7774 33.6201 -20.7774C32.5601 -20.7774 32.5601 -20.2474 31.6201 -20.4874C30.6801 -20.7274 30.2301 -21.4074 29.5501 -20.6574Z" fill="#FFBBA7"/>
<path opacity="0.5" d="M45.2515 4.72252C45.7915 5.40252 45.8515 5.36253 46.3915 6.04253C46.9315 6.72253 46.6015 7.16252 47.3915 7.53252C48.1815 7.90252 48.3115 7.44253 49.1815 7.41253C50.0515 7.38253 50.0515 7.41253 50.9215 7.41253C51.06 7.39945 51.1994 7.42567 51.3237 7.48821C51.4479 7.55074 51.5521 7.64708 51.6241 7.7661C51.6962 7.88512 51.7332 8.02202 51.731 8.16112C51.7287 8.30023 51.6873 8.43589 51.6115 8.55254C51.1215 9.28254 51.0415 9.23251 50.5615 9.96251C50.0815 10.6925 49.7415 10.5825 49.6315 11.4525C49.5215 12.3225 49.8715 12.3125 50.1615 13.1325C50.4515 13.9525 50.5815 13.9025 50.8715 14.7225C50.9182 14.8618 50.9251 15.0113 50.8914 15.1543C50.8578 15.2973 50.7849 15.4282 50.681 15.532C50.5772 15.6359 50.4463 15.7088 50.3033 15.7424C50.1603 15.7761 50.0108 15.7692 49.8715 15.7225C49.0315 15.4925 49.0115 15.5525 48.1715 15.3225C47.3315 15.0925 47.3415 14.5425 46.4915 14.7025C45.6415 14.8625 45.8115 15.3225 45.1215 15.8525C44.4315 16.3825 44.3915 16.3425 43.7015 16.8525C43.6055 16.9417 43.4847 16.9997 43.355 17.019C43.2254 17.0383 43.0929 17.018 42.975 16.9607C42.8572 16.9034 42.7594 16.8118 42.6945 16.6979C42.6296 16.584 42.6007 16.4531 42.6115 16.3225C42.6115 15.4525 42.5515 15.4525 42.5115 14.5825C42.4715 13.7125 42.8315 13.5826 42.4015 12.8126C41.9715 12.0426 41.6015 12.3925 40.8815 11.9025C40.1615 11.4125 40.2115 11.3325 39.4915 10.8425C39.3707 10.766 39.2733 10.6578 39.2099 10.5297C39.1465 10.4015 39.1195 10.2584 39.1318 10.116C39.1442 9.97359 39.1955 9.83735 39.2801 9.7221C39.3647 9.60685 39.4793 9.51702 39.6115 9.46251L41.2515 8.86254C42.0715 8.55254 42.3415 8.9625 42.9315 8.3225C43.5215 7.6825 43.1315 7.45254 43.3815 6.61254C43.6315 5.77254 43.7315 5.81252 43.9715 4.97252C43.9915 4.83044 44.0554 4.69815 44.1541 4.59404C44.2529 4.48994 44.3816 4.41922 44.5225 4.39171C44.6633 4.36421 44.8092 4.38124 44.9399 4.44054C45.0705 4.49984 45.1795 4.59842 45.2515 4.72252Z" fill="white"/>
<path opacity="0.8" d="M26.0491 76.8319C25.8307 76.6671 25.5752 76.5582 25.3051 76.5146C25.0349 76.471 24.7581 76.4941 24.4989 76.5818C24.2397 76.6695 24.0058 76.8193 23.8176 77.018C23.6294 77.2167 23.4926 77.4583 23.4191 77.722C23.2591 78.722 23.2991 78.7219 23.1391 79.7719C22.9791 80.8219 23.1391 80.832 22.9891 81.862C22.8391 82.892 23.1091 83.002 22.4991 83.862C21.8891 84.722 21.6891 84.472 20.7691 84.952C19.8491 85.432 19.8391 85.412 18.9191 85.892C17.9991 86.372 17.9191 86.232 16.9991 86.702C16.7743 86.8279 16.5871 87.0115 16.4568 87.2339C16.3265 87.4562 16.2578 87.7092 16.2578 87.9669C16.2578 88.2247 16.3265 88.4777 16.4568 88.7C16.5871 88.9224 16.7743 89.106 16.9991 89.232C17.9291 89.712 17.8392 89.882 18.7592 90.362C19.6792 90.842 19.7592 90.652 20.6992 91.132C21.6392 91.612 22.0692 91.132 22.6992 92.012C23.3292 92.892 22.5392 93.172 22.6992 94.192C22.8592 95.212 22.8591 95.192 23.0291 96.252C23.1991 97.312 23.2391 97.252 23.4091 98.252C23.4626 98.4992 23.5839 98.7267 23.7596 98.9088C23.9352 99.0909 24.1581 99.2204 24.4033 99.2827C24.6485 99.3451 24.9062 99.3378 25.1475 99.2617C25.3888 99.1856 25.604 99.0437 25.7691 98.852C26.7091 97.922 26.9791 98.1919 27.9191 97.2719C28.8591 96.3519 29.1091 96.4719 29.6391 95.2719C30.1691 94.0719 29.7291 94.072 29.7291 92.852C29.7291 91.632 29.5191 91.642 29.5191 90.422C29.5191 89.202 29.7491 89.2119 29.7491 87.9919C29.7491 86.7719 29.7491 86.7719 29.7491 85.5619C29.7491 84.3519 29.4492 84.3419 29.4492 83.1219C29.4492 81.9019 29.9992 81.8619 29.5092 80.7419C29.0192 79.6219 28.7491 79.7419 27.8591 78.7419C26.9691 77.7419 26.9891 77.7219 26.0491 76.8319Z" fill="#FFAF99"/>
<path opacity="0.5" d="M9.17994 99.7226C8.01994 99.2726 7.9899 99.3326 6.8299 98.8926C5.6699 98.4526 5.32993 98.9726 4.48993 98.0626C3.64993 97.1526 4.28995 96.8226 3.93995 95.6226C3.58995 94.4226 3.46995 94.4626 3.12995 93.2726C3.07558 93.0676 2.96502 92.8817 2.8108 92.7361C2.65657 92.5904 2.46479 92.4906 2.25696 92.448C2.04914 92.4054 1.83351 92.4217 1.63441 92.4949C1.4353 92.5681 1.26062 92.6955 1.12995 92.8626C0.67995 93.4226 0.509911 93.3226 0.339911 94.0026C0.122159 94.7588 0.0475757 95.549 0.11994 96.3326C0.11994 97.5126 0.219916 97.5126 0.219916 98.6826C0.219916 99.8526 0.169928 99.8526 0.169928 101.033C0.169928 102.213 0.289923 102.203 0.289923 103.383C0.289923 104.563 0.149908 104.553 0.149908 105.733C0.149908 106.913 -0.230084 107.013 0.219916 108.103C0.579916 108.953 0.90995 108.763 1.62995 109.333C2.34995 109.903 2.47991 109.753 3.20991 110.333C3.3633 110.462 3.5501 110.546 3.74891 110.575C3.94771 110.603 4.1505 110.575 4.33411 110.494C4.51772 110.412 4.67474 110.281 4.78718 110.114C4.89961 109.948 4.96292 109.753 4.96992 109.553C5.02992 108.303 4.96992 108.303 4.96992 107.063C4.96992 105.823 4.67992 105.723 5.28992 104.643C5.89992 103.563 6.21992 103.893 7.28992 103.193C8.35992 102.493 8.36991 102.563 9.39991 101.873C9.57165 101.741 9.70678 101.567 9.79249 101.368C9.87819 101.169 9.91164 100.952 9.88959 100.736C9.86755 100.521 9.79078 100.315 9.66657 100.137C9.54236 99.9598 9.37484 99.8171 9.17994 99.7226Z" fill="white"/>
<path d="M529.956 -20.3219C530.766 -19.5319 530.246 -19.322 530.246 -18.242C530.246 -17.162 530.156 -17.112 530.156 -15.982C530.156 -14.852 530.156 -14.8519 530.156 -13.7219C530.156 -12.5919 530.406 -12.5919 530.406 -11.4719C530.406 -10.3519 530.406 -10.3419 530.406 -9.21193C530.406 -8.08193 530.406 -8.09193 530.406 -6.96193C530.406 -5.83193 530.206 -5.83192 530.206 -4.70192C530.206 -3.57192 530.206 -3.58192 530.206 -2.45192C530.206 -1.32192 530.366 -1.33192 530.366 -0.201923C530.366 0.928077 530.036 0.928077 530.036 2.04808C530.036 3.16808 530.496 3.17809 530.496 4.30809C530.496 5.43809 530.406 5.42809 530.406 6.55809C530.406 7.68809 530.406 7.68804 530.406 8.81804C530.406 9.94804 530.486 9.94804 530.486 11.068C530.486 12.188 530.076 12.198 530.076 13.328C530.076 14.458 530.436 14.4581 530.436 15.5881C530.436 16.7181 530.126 16.7181 530.126 17.8481C530.126 18.9781 530.536 18.9681 530.536 20.0981C530.536 21.2281 530.536 21.2281 530.536 22.3581C530.536 23.4881 530.456 23.478 530.456 24.608C530.456 25.738 530.456 25.7381 530.456 26.8681C530.456 27.9981 530.376 27.9881 530.376 29.1181V31.3781C530.376 32.5081 530.276 32.508 530.276 33.638C530.276 34.768 530.356 34.7681 530.356 35.8981C530.356 37.0281 530.356 37.0181 530.356 38.1481C530.356 39.2781 530.356 39.2781 530.356 40.4081C530.356 41.5381 530.266 41.5381 530.266 42.6681C530.266 43.7981 530.666 43.7881 530.666 44.9181C530.666 46.0481 530.476 46.048 530.476 47.178C530.476 48.308 530.396 48.3081 530.396 49.4381C530.396 50.5681 530.296 50.5681 530.296 51.6881C530.296 52.8081 530.156 52.8181 530.156 53.9481C530.156 55.0781 530.536 55.078 530.536 56.208V58.4681C530.536 59.5981 530.536 59.5981 530.536 60.7281C530.536 61.8581 530.436 61.8581 530.436 62.9781C530.436 64.0981 530.436 64.108 530.436 65.238C530.436 66.368 530.576 66.3681 530.576 67.4981C530.576 68.6281 530.226 68.6281 530.226 69.7581C530.226 70.8881 530.226 70.888 530.226 72.018C530.226 73.148 530.716 73.1481 530.716 74.2781C530.716 75.4081 530.286 75.4081 530.286 76.5381C530.286 77.6681 530.286 77.668 530.286 78.798C530.286 79.928 530.466 79.928 530.466 81.048C530.466 82.168 530.686 82.1781 530.686 83.3081C530.686 84.4381 530.426 84.4381 530.426 85.5681C530.426 86.6981 530.646 86.698 530.646 87.828C530.646 88.958 530.586 88.9581 530.586 90.0881C530.586 91.2181 530.226 91.2181 530.226 92.3481C530.226 93.4781 530.306 93.478 530.306 94.608C530.306 95.738 530.656 95.738 530.656 96.858C530.656 97.978 530.526 97.988 530.526 99.118C530.526 100.248 530.416 100.248 530.416 101.378V103.638C530.416 104.768 530.576 104.768 530.576 105.898C530.576 107.028 530.306 107.028 530.306 108.148C530.306 109.268 530.376 109.288 530.376 110.418C530.376 111.548 530.376 111.548 530.376 112.668C530.376 113.788 530.566 113.808 530.566 114.938C530.566 116.068 530.646 116.068 530.646 117.198C530.646 118.328 530.276 118.328 530.276 119.458C530.276 120.588 530.476 120.588 530.476 121.718C530.476 122.848 530.366 122.848 530.366 123.978V126.238C530.366 127.368 530.186 127.368 530.186 128.498C530.186 129.628 530.646 129.628 530.646 130.758C530.646 131.888 530.646 131.898 530.646 133.028C530.646 134.158 530.406 134.158 530.406 135.288C530.406 136.418 530.246 136.418 530.246 137.558C530.246 138.698 530.176 138.688 530.176 139.828C530.176 140.968 530.626 140.958 530.626 142.088C530.613 142.332 530.549 142.571 530.44 142.789C530.33 143.008 530.177 143.202 529.989 143.358C529.802 143.515 529.584 143.631 529.349 143.7C529.115 143.769 528.869 143.789 528.626 143.758C527.877 143.517 527.101 143.366 526.316 143.308C525.52 143.313 524.728 143.414 523.956 143.608C523.194 143.841 522.46 144.156 521.766 144.548C521.091 144.958 520.461 145.438 519.886 145.978C519.237 146.435 518.631 146.951 518.076 147.518C517.636 148.145 517.145 148.734 516.606 149.278C516.043 149.809 515.43 150.285 514.776 150.698C514.062 151.003 513.318 151.231 512.556 151.378C511.826 151.592 511.075 151.723 510.316 151.768C509.555 151.858 508.787 151.858 508.026 151.768C507.258 151.672 506.503 151.491 505.776 151.228C505.106 150.958 504.686 150.318 504.146 149.928C503.537 149.607 502.975 149.203 502.476 148.728C502.046 148.18 501.708 147.565 501.476 146.908C501.242 146.267 501.123 145.59 501.126 144.908C501.126 144.128 501.436 144.048 501.126 143.338C500.384 143.303 499.64 143.343 498.906 143.458C498.214 143.661 497.544 143.932 496.906 144.268C496.239 144.572 495.6 144.933 494.996 145.348C494.101 145.939 493.281 146.638 492.556 147.428C492.075 148.005 491.547 148.54 490.976 149.028C490.452 149.582 489.876 150.084 489.256 150.528C488.573 150.864 487.855 151.126 487.116 151.308C486.386 151.488 485.638 151.586 484.886 151.598C484.14 151.643 483.392 151.603 482.656 151.478C481.911 151.382 481.179 151.201 480.476 150.938C479.785 150.772 479.114 150.53 478.476 150.218C477.824 149.828 477.234 149.343 476.726 148.778C476.299 148.228 475.962 147.613 475.726 146.958C475.493 146.317 475.374 145.64 475.376 144.958C475.376 143.838 475.436 143.838 475.436 142.728C475.436 141.618 475.116 141.608 475.116 140.488C475.116 139.368 475.116 139.378 475.116 138.258C475.116 137.138 475.446 137.138 475.446 136.028C475.446 134.918 475.336 134.908 475.336 133.788C475.336 132.668 475.336 132.668 475.336 131.558C475.336 130.448 475.526 130.438 475.526 129.328C475.526 128.218 475.246 128.208 475.246 127.098C475.246 125.988 475.586 125.978 475.586 124.868C475.586 123.758 475.356 123.748 475.356 122.628C475.356 121.508 475.156 121.518 475.156 120.398C475.156 119.278 475.566 119.288 475.566 118.168C475.566 117.048 475.566 117.058 475.566 115.938C475.566 114.818 475.396 114.828 475.396 113.708C475.396 112.588 475.396 112.598 475.396 111.478C475.396 110.358 475.116 110.358 475.116 109.248C475.116 108.138 475.236 108.128 475.236 107.008C475.236 105.888 475.236 105.888 475.236 104.778C475.236 103.668 475.236 103.658 475.236 102.538C475.236 101.418 475.236 101.428 475.236 100.308C475.236 99.1881 475.486 99.188 475.486 98.078C475.486 96.968 475.146 96.9581 475.146 95.8481C475.146 94.7381 475.216 94.728 475.216 93.608C475.216 92.488 475.536 92.4981 475.536 91.3781C475.536 90.2581 475.216 90.258 475.216 89.148C475.216 88.038 475.156 88.0281 475.156 86.9081C475.156 85.7881 475.446 85.798 475.446 84.678C475.446 83.558 475.396 83.5581 475.396 82.4381C475.396 81.3181 475.336 81.318 475.336 80.208C475.336 79.098 475.076 79.0881 475.076 77.9681C475.076 76.8481 475.176 76.858 475.176 75.738C475.176 74.618 475.176 74.6181 475.176 73.5081C475.176 72.3981 475.176 72.388 475.176 71.268C475.176 70.148 475.246 70.1581 475.246 69.0381C475.246 67.9181 475.396 67.918 475.396 66.798C475.396 65.678 475.026 65.6781 475.026 64.5681C475.026 63.4581 475.476 63.448 475.476 62.328C475.476 61.208 475.116 61.2181 475.116 60.0981C475.116 58.9781 475.256 58.978 475.256 57.858C475.256 56.738 475.446 56.7481 475.446 55.6281C475.446 54.5081 475.316 54.508 475.316 53.388C475.316 52.268 475.486 52.2681 475.486 51.1581C475.486 50.0481 475.246 50.0381 475.246 48.9181V46.678C475.246 45.568 475.156 45.5681 475.156 44.4481C475.156 43.3281 475.426 43.328 475.426 42.208C475.426 41.088 475.076 41.0881 475.076 39.9781C475.076 38.8681 475.076 38.858 475.076 37.738C475.076 36.618 475.076 36.6181 475.076 35.4981C475.076 34.3781 475.456 34.378 475.456 33.268C475.456 32.158 475.366 32.1481 475.366 31.0281C475.366 29.9081 475.286 29.9081 475.286 28.7881C475.286 27.6681 475.516 27.6781 475.516 26.5581C475.516 25.4381 475.456 25.438 475.456 24.328C475.456 23.218 475.276 23.2081 475.276 22.0881C475.276 20.9681 475.276 20.9781 475.276 19.8581C475.276 18.7381 475.526 18.7381 475.526 17.6181C475.526 16.4981 475.526 16.498 475.526 15.388C475.526 14.278 475.416 14.2681 475.416 13.1481C475.416 12.0281 475.336 12.0281 475.336 10.9081C475.336 9.78806 475.166 9.79808 475.166 8.67808C475.166 7.55808 475.166 7.55803 475.166 6.43803C475.166 5.31803 475.166 5.31804 475.166 4.19804C475.166 3.07804 475.166 3.07805 475.166 1.95805C475.166 0.83805 475.466 0.83806 475.466 -0.28194C475.466 -1.40194 475.126 -1.40193 475.126 -2.52193C475.126 -3.64193 475.396 -3.64197 475.396 -4.75197C475.396 -5.86197 475.396 -5.87196 475.396 -6.99196C475.396 -8.11196 475.396 -8.11195 475.396 -9.23195C475.396 -10.352 475.186 -10.3519 475.186 -11.4719C475.186 -12.5919 475.416 -12.5919 475.416 -13.7119C475.416 -14.8319 475.316 -14.8319 475.316 -15.9519C475.316 -17.0719 475.416 -17.0819 475.416 -18.2019C475.416 -19.3219 474.536 -19.6119 475.336 -20.4019C476.136 -21.1919 476.426 -20.6619 477.566 -20.6619C478.706 -20.6619 478.706 -20.312 479.846 -20.312C480.986 -20.312 480.986 -20.432 482.126 -20.432C483.266 -20.432 483.266 -20.562 484.406 -20.562C485.546 -20.562 485.536 -20.682 486.676 -20.682C487.816 -20.682 487.816 -20.502 488.956 -20.502C490.096 -20.502 490.096 -20.292 491.236 -20.292C492.376 -20.292 492.376 -20.6919 493.516 -20.6919C494.656 -20.6919 494.656 -20.4119 495.796 -20.4119H498.076C499.216 -20.4119 499.216 -20.312 500.356 -20.312C501.496 -20.312 501.496 -20.312 502.636 -20.312C503.776 -20.312 503.776 -20.4619 504.916 -20.4619C506.056 -20.4619 506.056 -20.242 507.196 -20.242C508.336 -20.242 508.346 -20.242 509.486 -20.242C510.626 -20.242 510.626 -20.3319 511.766 -20.3319C512.906 -20.3319 512.906 -20.2219 514.046 -20.2219C515.186 -20.2219 515.186 -20.4419 516.326 -20.4419C517.466 -20.4419 517.466 -20.1319 518.606 -20.1319C519.746 -20.1319 519.746 -20.5919 520.896 -20.5919C522.046 -20.5919 522.036 -20.182 523.176 -20.182C524.316 -20.182 524.316 -20.482 525.466 -20.482C526.616 -20.482 526.656 -19.992 527.786 -20.182C528.916 -20.372 529.146 -21.1219 529.956 -20.3219Z" fill="#FFD0C0"/>
<path opacity="0.5" d="M506.166 31.1981C506.446 32.4181 506.466 32.4081 506.746 33.6281C507.026 34.8481 506.556 35.1181 507.346 36.0881C508.136 37.0581 508.576 36.4781 509.716 36.9881C510.856 37.4981 510.796 37.6181 511.936 38.1281C512.134 38.2015 512.306 38.3294 512.433 38.4969C512.56 38.6645 512.637 38.8646 512.655 39.0742C512.673 39.2838 512.631 39.4941 512.534 39.6807C512.436 39.8673 512.288 40.0224 512.106 40.1281C511.036 40.7681 511.026 40.7581 509.956 41.3881C508.886 42.0181 508.396 41.5181 507.726 42.5681C507.056 43.6181 507.666 43.8481 507.536 45.0781C507.406 46.3081 507.246 46.2981 507.106 47.5381C507.114 47.7381 507.061 47.9356 506.955 48.1053C506.849 48.2749 506.694 48.4087 506.511 48.4895C506.328 48.5703 506.125 48.5943 505.928 48.5583C505.731 48.5224 505.549 48.4283 505.406 48.2881C504.466 47.4581 504.406 47.5481 503.456 46.7281C502.506 45.9081 502.926 45.1481 501.716 44.8381C500.506 44.5281 500.426 45.0781 499.216 45.3281C498.006 45.5781 497.996 45.6181 496.786 45.8781C496.588 45.931 496.38 45.929 496.183 45.8724C495.986 45.8158 495.808 45.7066 495.668 45.5566C495.528 45.4066 495.432 45.2214 495.389 45.0208C495.347 44.8203 495.36 44.6119 495.426 44.4181C495.916 43.2681 496.196 43.4181 496.686 42.2481C497.176 41.0781 497.586 41.1481 497.516 39.9081C497.446 38.6681 496.966 38.7981 496.346 37.7181C495.726 36.6381 495.576 36.7181 494.956 35.6381C494.868 35.4534 494.831 35.2484 494.848 35.0444C494.865 34.8403 494.937 34.6446 495.055 34.4774C495.173 34.3102 495.334 34.1777 495.52 34.0934C495.707 34.0091 495.913 33.9762 496.116 33.9981L498.596 34.2481C499.836 34.3681 499.866 34.6981 501.026 34.2481C502.186 33.7981 501.836 33.3981 502.666 32.4781C503.496 31.5581 503.666 31.6981 504.506 30.7781C504.614 30.628 504.765 30.5138 504.938 30.4504C505.112 30.387 505.3 30.3773 505.48 30.4226C505.659 30.468 505.82 30.5662 505.943 30.7045C506.065 30.8428 506.143 31.0148 506.166 31.1981Z" fill="white"/>
<path d="M500.945 -20.592C501.705 -19.762 500.705 -19.372 500.705 -18.252C500.705 -17.132 500.605 -17.132 500.605 -16.012C500.605 -14.892 500.685 -14.892 500.685 -13.772C500.685 -12.652 500.895 -12.642 500.895 -11.522C500.895 -10.402 500.895 -10.402 500.895 -9.28199C500.895 -8.16199 500.955 -8.162 500.955 -7.042C500.955 -5.922 500.805 -5.92201 500.805 -4.80201V-2.56202C500.805 -1.44202 500.885 -1.44197 500.885 -0.32197C500.885 0.79803 500.955 0.79802 500.955 1.91802C500.955 3.03802 500.825 3.03801 500.825 4.15801C500.825 5.27801 500.695 5.278 500.695 6.398C500.695 7.518 500.915 7.51799 500.915 8.63799C500.915 9.75799 500.805 9.75798 500.805 10.878C500.805 11.998 500.685 11.998 500.685 13.128C500.685 14.258 500.815 14.248 500.815 15.368C500.815 16.488 500.915 16.488 500.915 17.608C500.915 18.728 500.715 18.738 500.715 19.858C500.715 20.978 500.715 20.978 500.715 22.098C500.715 23.218 500.835 23.218 500.835 24.338C500.835 25.458 500.835 25.458 500.835 26.578C500.835 27.698 500.725 27.698 500.725 28.778C500.725 29.858 501.055 29.898 501.055 31.018C501.055 32.138 500.795 32.148 500.795 33.268C500.795 34.388 500.975 34.388 500.975 35.508C500.975 36.628 500.845 36.628 500.845 37.758C500.845 38.888 500.755 38.878 500.755 39.998C500.755 41.118 500.655 41.118 500.655 42.248C500.655 43.378 500.815 43.368 500.815 44.488C500.815 45.608 501.045 45.608 501.045 46.728C501.045 47.848 501.105 47.848 501.105 48.968C501.105 50.088 500.835 50.088 500.835 51.218C500.835 52.348 500.705 52.338 500.705 53.458C500.705 54.578 501.045 54.578 501.045 55.708C501.045 56.838 501.045 56.828 501.045 57.948C501.045 59.068 500.735 59.068 500.735 60.198C500.735 61.328 500.805 61.318 500.805 62.438V64.678C500.805 65.808 501.005 65.808 501.005 66.928C501.005 68.048 501.145 68.048 501.145 69.168C501.145 70.288 500.775 70.298 500.775 71.418C500.775 72.538 500.775 72.538 500.775 73.658C500.775 74.778 501.005 74.788 501.005 75.908C501.005 77.028 500.865 77.028 500.865 78.158C500.865 79.288 500.735 79.278 500.735 80.398C500.735 81.518 501.095 81.518 501.095 82.648C501.095 83.778 500.735 83.768 500.735 84.888C500.735 86.008 501.055 86.008 501.055 87.138C501.055 88.268 500.885 88.258 500.885 89.378C500.885 90.498 501.165 90.508 501.165 91.628C501.165 92.748 501.005 92.748 501.005 93.868C501.005 94.988 500.765 94.998 500.765 96.118C500.765 97.238 500.765 97.238 500.765 98.358C500.765 99.478 500.975 99.478 500.975 100.598C500.975 101.718 500.915 101.718 500.915 102.848C500.915 103.978 500.845 103.968 500.845 105.088C500.845 106.208 500.845 106.208 500.845 107.338C500.845 108.468 500.915 108.458 500.915 109.578C500.915 110.698 501.215 110.708 501.215 111.828C501.215 112.948 501.215 112.948 501.215 114.068C501.215 115.188 501.145 115.198 501.145 116.318C501.145 117.438 501.015 117.448 501.015 118.568C501.015 119.688 500.735 119.688 500.735 120.818C500.735 121.948 500.855 121.938 500.855 123.068C500.855 124.198 500.975 124.188 500.975 125.308C500.975 126.428 500.975 126.438 500.975 127.558C500.975 128.678 501.185 128.688 501.185 129.808C501.185 130.928 500.865 130.928 500.865 132.058C500.865 133.188 501.115 133.178 501.115 134.308C501.115 135.438 501.235 135.428 501.235 136.558C501.235 137.688 500.925 137.678 500.925 138.808C500.925 139.938 500.925 139.938 500.925 141.058C500.925 142.178 501.125 142.168 500.775 143.248C500.122 143.3 499.477 143.431 498.855 143.638C498.116 143.703 497.385 143.843 496.675 144.058C496.114 144.425 495.591 144.847 495.115 145.318C494.755 144.258 495.055 144.268 495.055 143.148C495.055 142.028 495.055 142.028 495.055 140.908C495.055 139.788 494.635 139.788 494.635 138.668C494.635 137.548 494.715 137.548 494.715 136.428C494.715 135.308 494.715 135.308 494.715 134.188C494.715 133.068 494.785 133.068 494.785 131.948C494.785 130.828 494.725 130.828 494.725 129.708C494.725 128.588 494.625 128.588 494.625 127.468C494.625 126.348 494.905 126.348 494.905 125.228C494.905 124.108 494.665 124.118 494.665 122.998C494.665 121.878 494.725 121.878 494.725 120.758C494.725 119.638 494.955 119.638 494.955 118.518V116.288C494.955 115.168 494.955 115.168 494.955 114.048C494.955 112.928 494.695 112.928 494.695 111.808C494.695 110.688 495.045 110.688 495.045 109.568C495.045 108.448 494.625 108.448 494.625 107.318C494.625 106.188 494.865 106.198 494.865 105.078C494.865 103.958 494.815 103.958 494.815 102.838C494.815 101.718 494.975 101.718 494.975 100.598C494.975 99.478 494.975 99.478 494.975 98.358C494.975 97.238 494.585 97.238 494.585 96.118C494.585 94.998 495.015 94.998 495.015 93.878C495.015 92.758 494.895 92.758 494.895 91.648C494.895 90.538 494.725 90.518 494.725 89.398C494.725 88.278 494.835 88.278 494.835 87.158C494.835 86.038 495.015 86.038 495.015 84.918C495.015 83.798 494.765 83.798 494.765 82.678C494.765 81.558 494.955 81.558 494.955 80.438C494.955 79.318 494.745 79.318 494.745 78.198C494.745 77.078 494.805 77.078 494.805 75.958C494.805 74.838 494.725 74.878 494.725 73.778C494.725 72.678 494.935 72.648 494.935 71.528C494.935 70.408 494.555 70.408 494.555 69.288C494.555 68.168 494.605 68.168 494.605 67.048C494.605 65.928 495.015 65.928 495.015 64.808C495.015 63.688 494.745 63.688 494.745 62.558C494.745 61.428 494.955 61.438 494.955 60.318C494.955 59.198 494.635 59.198 494.635 58.078C494.635 56.958 494.975 56.958 494.975 55.838C494.975 54.718 494.595 54.718 494.595 53.588C494.595 52.458 494.795 52.468 494.795 51.348C494.795 50.228 494.985 50.228 494.985 49.108C494.985 47.988 494.985 47.988 494.985 46.868C494.985 45.748 494.825 45.738 494.825 44.618C494.825 43.498 494.825 43.498 494.825 42.378C494.825 41.258 494.825 41.258 494.825 40.138C494.825 39.018 494.745 39.018 494.745 37.888C494.745 36.758 494.895 36.768 494.895 35.648C494.895 34.528 494.515 34.528 494.515 33.408C494.515 32.288 494.795 32.278 494.795 31.158C494.795 30.038 494.625 30.038 494.625 28.918C494.625 27.798 494.755 27.798 494.755 26.678C494.755 25.558 494.665 25.558 494.665 24.438C494.665 23.318 494.525 23.318 494.525 22.198C494.525 21.078 494.425 21.078 494.425 19.958C494.425 18.838 494.545 18.828 494.545 17.708C494.545 16.588 494.545 16.588 494.545 15.468C494.545 14.348 494.545 14.348 494.545 13.228C494.545 12.108 494.905 12.098 494.905 10.978C494.905 9.85802 494.805 9.85803 494.805 8.73803C494.805 7.61803 494.805 7.61803 494.805 6.48803C494.805 5.35803 494.695 5.36798 494.695 4.24798C494.695 3.12798 494.805 3.12798 494.805 1.99798C494.805 0.867976 494.805 0.877986 494.805 -0.242014C494.805 -1.36201 494.425 -1.37201 494.425 -2.49201C494.425 -3.61201 494.495 -3.61201 494.495 -4.74201C494.495 -5.87201 494.805 -5.862 494.805 -6.982C494.805 -8.102 494.455 -8.10199 494.455 -9.22199C494.455 -10.342 494.375 -10.352 494.375 -11.472C494.375 -12.592 494.635 -12.602 494.635 -13.722C494.635 -14.842 494.515 -14.842 494.515 -15.972C494.515 -17.102 494.745 -17.092 494.745 -18.222C494.745 -19.352 494.045 -19.472 494.805 -20.312C495.565 -21.152 495.635 -20.702 496.655 -20.702C497.675 -20.702 497.655 -20.382 498.655 -20.622C499.655 -20.862 500.265 -21.352 500.945 -20.592Z" fill="#FFBBA7"/>
<path opacity="0.8" d="M524.173 58.6383C523.273 58.1283 523.803 57.5883 523.173 56.7383C522.543 55.8883 522.413 55.9983 521.813 55.1383C521.213 54.2783 521.353 54.1983 520.813 53.3483C520.642 53.1392 520.419 52.9777 520.168 52.8796C519.916 52.7815 519.643 52.75 519.376 52.7882C519.108 52.8265 518.855 52.9331 518.641 53.0977C518.427 53.2624 518.258 53.4796 518.153 53.7283C517.793 54.7283 518.073 54.8083 517.723 55.7783C517.373 56.7483 517.353 56.7783 516.993 57.7283C516.633 58.6783 516.783 58.8283 515.993 59.5483C515.203 60.2683 514.993 59.7683 513.993 60.0683C512.993 60.3683 513.083 60.6483 512.083 60.9483C511.083 61.2483 511.003 60.9483 510.013 61.2683C509.759 61.3715 509.535 61.5364 509.361 61.7479C509.186 61.9595 509.068 62.2111 509.015 62.48C508.962 62.7489 508.978 63.0267 509.059 63.2883C509.141 63.5499 509.286 63.787 509.483 63.9783C510.303 64.6183 510.483 64.3783 511.303 64.9783C512.123 65.5783 511.943 65.8583 512.763 66.4983C513.583 67.1383 514.063 66.6983 514.513 67.6383C514.963 68.5783 514.613 68.6383 514.593 69.7083C514.573 70.7783 514.293 70.7083 514.273 71.7883C514.253 72.8683 514.623 72.8383 514.603 73.8683C514.563 74.1041 514.595 74.3465 514.696 74.5635C514.796 74.7804 514.961 74.9616 515.167 75.0831C515.373 75.2046 515.611 75.2606 515.849 75.2436C516.088 75.2267 516.316 75.1376 516.503 74.9883C517.363 74.4083 517.503 74.5683 518.323 73.9883C519.143 73.4083 519.223 73.4483 520.083 72.8683C520.943 72.2883 520.703 71.8683 521.733 71.7383C522.763 71.6083 522.633 72.0783 523.613 72.4183L525.613 73.0983C526.613 73.4383 526.613 73.2983 527.613 73.6383C527.856 73.721 528.118 73.7356 528.369 73.6804C528.62 73.6253 528.851 73.5025 529.038 73.3253C529.224 73.1482 529.358 72.9235 529.426 72.6755C529.494 72.4275 529.493 72.1657 529.423 71.9183L528.843 69.9183C528.563 68.9183 528.473 68.9183 528.183 67.9183C527.893 66.9183 527.503 66.9183 527.683 65.9183C527.863 64.9183 528.133 65.0083 528.683 64.2183C529.233 63.4283 529.893 63.7583 530.203 62.8183C530.513 61.8783 530.203 61.7583 530.203 60.7383C530.203 59.7183 530.733 59.4583 530.043 58.7383C529.353 58.0183 529.043 58.4883 528.043 58.4583C527.378 58.3775 526.707 58.3775 526.043 58.4583C525.143 58.6383 525.033 59.1183 524.173 58.6383Z" fill="#FFAF99"/>
</g>
</svg>
