<svg width="199" height="237" viewBox="0 0 199 237" fill="none" xmlns="http://www.w3.org/2000/svg">
<path d="M40.2319 51.7333L36.457 46.797C36.9757 46.417 37.4551 45.9862 37.8882 45.5111C38.529 44.8349 39.2225 44.2107 39.9622 43.6444C40.7837 42.9912 41.6909 42.4538 42.6585 42.0473C43.1664 41.8318 43.6412 41.5455 44.0689 41.197C44.9607 40.5333 45.3756 40.1807 45.8112 39.8073C46.2467 39.434 46.7653 38.9984 47.7816 38.231C48.2257 37.8983 48.6233 37.5077 48.9638 37.0695C49.6092 36.2211 50.3701 35.4671 51.2245 34.8295C52.2823 34.0414 52.8423 33.668 53.4023 33.3154C54.0028 32.9541 54.578 32.5521 55.1238 32.1125C55.9399 31.4789 56.8317 30.9494 57.7787 30.5362C58.2962 30.3059 58.7837 30.0134 59.2304 29.6651C60.1015 29.0014 60.5164 28.6488 60.9312 28.2754C61.346 27.9021 61.906 27.4458 62.9016 26.6784L66.6764 23.7954C67.1404 23.4414 67.5646 23.038 67.9416 22.5924C68.5912 21.8178 69.329 21.1218 70.1401 20.5184L72.2142 19.025C72.6912 18.7139 73.1475 18.3821 74.0394 17.6976C74.7014 17.1538 75.3939 16.6483 76.1135 16.1835C76.549 15.8931 77.0054 15.6028 77.8558 14.9391C78.3872 14.5436 78.8865 14.1066 79.349 13.6324C79.9981 12.9839 80.6911 12.381 81.4231 11.828C82.3775 11.062 83.4895 10.5166 84.6795 10.2309C85.0888 10.15 85.4728 9.97217 85.7994 9.71239L87.6246 8.26053L89.5535 6.76719C89.9826 6.45418 90.3606 6.07632 90.6736 5.64718C91.3069 4.77625 92.0692 4.00693 92.9343 3.3657C94.3956 2.24043 96.0888 1.45406 97.8914 1.06346C99.3798 0.802941 100.911 0.938852 102.33 1.45754L103.201 1.68569L103.948 1.83087C105.442 2.02106 106.867 2.5767 108.096 3.44865L109.963 4.87978C110.44 5.23237 110.937 5.58496 111.891 6.33163C112.368 6.7086 112.882 7.03528 113.426 7.30645C114.309 7.73385 115.144 8.2554 115.915 8.86201C116.807 9.53474 117.585 10.3472 118.217 11.2679C118.474 11.6966 118.821 12.0645 119.234 12.3465C119.723 12.7387 120.251 13.0793 120.81 13.3628C121.662 13.8109 122.474 14.3313 123.237 14.9183C123.965 15.4681 124.658 16.0639 125.311 16.702C125.799 17.1706 126.312 17.6136 126.846 18.0295C127.779 18.7346 128.235 19.0872 128.712 19.4191L130.641 20.8917L134.395 23.7747C135.412 24.5421 135.889 24.9569 136.366 25.351C136.843 25.745 137.216 26.0769 138.108 26.7613C138.527 27.0997 138.996 27.3724 139.497 27.5702C140.482 27.9603 141.404 28.4913 142.235 29.1465C143.158 29.8329 143.945 30.6837 144.558 31.6562C144.8 32.065 145.125 32.4184 145.512 32.6932C145.949 33.0566 146.438 33.3504 146.964 33.5643C147.904 33.9872 148.789 34.5236 149.598 35.1614C150.511 35.8458 150.967 36.1984 151.444 36.5303L153.518 38.0029C154.336 38.606 155.081 39.3021 155.738 40.077C156.096 40.5266 156.515 40.9245 156.982 41.2592C157.349 41.5765 157.781 41.8101 158.247 41.9436C159.325 42.3045 160.335 42.8444 161.234 43.5407L163.142 45.034L164.988 46.4859L161.213 51.4222L159.284 49.9288L157.438 48.477C157.063 48.1764 156.634 47.951 156.173 47.8133C155.091 47.4514 154.081 46.904 153.186 46.1955C152.365 45.5974 151.619 44.9008 150.967 44.1214C150.609 43.6717 150.19 43.2739 149.723 42.9392C148.81 42.234 148.354 41.9021 147.897 41.5703L145.927 40.0977C145.481 39.7374 144.985 39.444 144.455 39.2266C143.52 38.7941 142.636 38.2584 141.82 37.6295C140.898 36.9432 140.111 36.0924 139.497 35.1199C139.26 34.7133 138.934 34.3658 138.543 34.1036C138.129 33.7525 137.659 33.4722 137.154 33.274C136.167 32.8885 135.244 32.3572 134.416 31.6977C133.42 30.9303 132.923 30.5154 132.446 30.1006C131.969 29.6858 131.595 29.3747 130.724 28.711L126.97 25.828L125.103 24.4176L123.174 22.9658C122.447 22.4147 121.754 21.819 121.1 21.1821C120.622 20.703 120.109 20.2594 119.566 19.8546C119.07 19.4715 118.543 19.1315 117.989 18.8384C117.134 18.3951 116.322 17.8744 115.563 17.2828C114.671 16.6101 113.893 15.7976 113.26 14.8769C113.002 14.4549 112.655 14.0941 112.244 13.8191C111.769 13.4341 111.254 13.1004 110.709 12.8235C109.823 12.4009 108.988 11.879 108.22 11.2679C107.287 10.542 106.831 10.1894 106.354 9.85757L104.446 8.38497C103.946 8.15894 103.414 8.012 102.869 7.94942C102.537 7.94942 102.205 7.84571 101.874 7.76275C101.542 7.67979 101.023 7.55534 100.608 7.4309C100.169 7.26705 99.7077 7.1692 99.2396 7.14053C98.3324 7.33338 97.4811 7.73061 96.7506 8.30201C96.3167 8.60941 95.9381 8.98811 95.6307 9.42202C94.9939 10.2969 94.224 11.0667 93.3491 11.7035L91.5239 13.1346L89.595 14.6487C88.6352 15.4016 87.5246 15.9392 86.3387 16.225C85.9266 16.3097 85.5419 16.4949 85.2187 16.7643C84.6873 17.1598 84.1879 17.5967 83.7253 18.0709C83.0763 18.7194 82.3833 19.3224 81.6513 19.8754C80.9852 20.4138 80.293 20.9191 79.5772 21.3895C78.9743 21.7724 78.3928 22.1879 77.835 22.6339L75.7609 24.1065C75.3046 24.4384 74.8483 24.7495 73.9357 25.4547C73.4788 25.8019 73.0615 26.1983 72.6913 26.6369C72.0369 27.4069 71.2995 28.1025 70.4927 28.711L66.718 31.594L64.9964 32.9836C64.5194 33.3984 64.0423 33.8132 63.0468 34.5806C62.2265 35.2246 61.3274 35.7613 60.3713 36.1777C59.8583 36.3958 59.3769 36.6818 58.9401 37.0281C57.8824 37.8369 57.3224 38.1895 56.8661 38.5629C56.2695 38.9228 55.6946 39.3176 55.1445 39.7451C54.6958 40.0724 54.2975 40.4637 53.9623 40.9066C53.2871 41.7581 52.4904 42.5059 51.5978 43.1259C50.7267 43.7896 50.2912 44.1629 49.8764 44.5155C49.4616 44.8681 48.9016 45.3244 47.906 46.0918C47.0911 46.7436 46.1908 47.2809 45.2304 47.6888C44.7132 47.8986 44.2307 48.1853 43.7992 48.5392C43.2795 48.9257 42.7939 49.3559 42.3475 49.8251C41.7002 50.5226 40.9922 51.1612 40.2319 51.7333Z" fill="#C4C4C4"/>
<path d="M100.63 3.19824C102.517 3.19824 103.99 4.73306 105.525 5.62492C107.004 6.49526 108.237 7.7298 109.104 9.21103C109.972 10.6923 110.446 12.3709 110.482 14.0872C110.41 15.793 109.849 17.4421 108.864 18.8368C108.121 20.3632 106.964 21.6498 105.525 22.5494C103.99 23.4413 102.517 25.225 100.63 25.225C98.7143 25.0629 96.8686 24.4287 95.258 23.3791C93.792 22.3004 92.6163 20.8752 91.8358 19.2309C90.7162 17.7452 90.0015 15.9942 89.7617 14.1494C89.9073 12.2914 90.5366 10.5038 91.5869 8.96419C92.6818 7.60528 94.1113 6.55458 95.7351 5.91529C97.3944 4.96122 98.7425 3.19824 100.63 3.19824Z" fill="#7C97DD"/>
<path fill-rule="evenodd" clip-rule="evenodd" d="M4.66716 40.6098C3.62389 40.0524 2.78292 39.603 1.69858 40.6996C0.508489 41.8896 0.903299 42.6076 1.52321 43.735C1.87564 44.3759 2.30082 45.1491 2.5489 46.2166C2.88938 47.6126 2.55295 48.313 2.17847 49.0926C1.86858 49.7378 1.53262 50.4372 1.53262 51.63C1.53262 52.9444 1.6979 53.5978 1.86351 54.2524C2.02976 54.9096 2.19634 55.5681 2.19634 56.8981C2.19634 58.2282 2.06099 58.8919 1.92591 59.5543C1.79135 60.2141 1.65706 60.8726 1.65706 62.187C1.65706 63.5041 1.77631 64.1626 1.89556 64.8211C2.01481 65.4797 2.13406 66.1382 2.13406 67.4552C2.13406 68.7749 1.97789 69.4438 1.82204 70.1114C1.6668 70.7764 1.51186 71.44 1.51186 72.7441C1.51186 74.0457 1.59931 74.6938 1.6871 75.3446C1.77558 76.0004 1.86442 76.6589 1.86442 77.9916C1.86442 79.3216 1.99456 79.9853 2.12444 80.6477C2.25382 81.3075 2.38294 81.966 2.38294 83.2805C2.38294 84.5975 2.29999 85.256 2.21704 85.9146C2.13409 86.5731 2.05114 87.2316 2.05114 88.5486C2.05114 89.8657 2.10817 90.5346 2.1652 91.2035C2.22223 91.8724 2.27926 92.5413 2.27926 93.8583C2.27926 95.1806 2.22178 95.8495 2.16452 96.5158C2.10772 97.1769 2.05114 97.8353 2.05114 99.1265V104.353C2.05114 105.683 2.1917 106.336 2.33199 106.988C2.47172 107.638 2.61118 108.286 2.61118 109.601C2.61118 110.918 2.38303 111.576 2.15488 112.235C1.92673 112.893 1.69858 113.552 1.69858 114.869C1.69858 116.186 1.92673 116.844 2.15488 117.503C2.38303 118.161 2.61118 118.82 2.61118 120.137C2.61118 121.457 2.54351 122.12 2.47596 122.783C2.40869 123.443 2.34154 124.101 2.34154 125.405C2.34154 126.709 2.31056 127.363 2.27951 128.017C2.24834 128.674 2.2171 129.333 2.2171 130.653C2.2171 131.97 2.11858 132.628 2.02006 133.287C1.92154 133.945 1.82302 134.604 1.82302 135.921C1.82302 137.238 1.89043 137.896 1.95784 138.555C2.02525 139.213 2.09266 139.872 2.09266 141.189C2.09266 142.506 2.20672 143.164 2.32078 143.823C2.43484 144.481 2.5489 145.14 2.5489 146.457C2.5489 147.774 2.36224 148.427 2.17558 149.081C1.98892 149.734 1.80226 150.387 1.80226 151.704C1.80226 153.021 1.95262 153.68 2.10298 154.339C2.25334 154.997 2.4037 155.656 2.4037 156.973C2.4037 158.29 2.35186 158.948 2.30002 159.607C2.24818 160.265 2.19634 160.924 2.19634 162.241C2.19634 163.558 2.22745 164.216 2.25856 164.875C2.28967 165.533 2.32078 166.192 2.32078 167.509C2.32078 168.826 2.27929 169.485 2.2378 170.143C2.19631 170.802 2.15482 171.46 2.15482 172.777C2.15482 174.094 2.25334 174.753 2.35186 175.411C2.45038 176.07 2.5489 176.728 2.5489 178.045C2.5489 179.362 2.42965 180.021 2.3104 180.679C2.19115 181.338 2.0719 181.996 2.0719 183.313C2.0719 184.631 2.21191 185.289 2.35192 185.948C2.49193 186.606 2.63195 187.265 2.63195 188.582C2.63195 189.899 2.59046 190.557 2.54896 191.216C2.50747 191.874 2.46598 192.533 2.46598 193.85C2.46598 195.167 2.26375 195.825 2.06152 196.484C1.85929 197.142 1.65706 197.801 1.65706 199.118C1.65706 200.435 1.7815 201.094 1.90594 201.752C2.03038 202.411 2.15482 203.069 2.15482 204.386C2.15482 205.703 2.00965 206.362 1.86448 207.02C1.71931 207.679 1.57414 208.337 1.57414 209.654C1.57414 210.971 1.78153 211.63 1.98892 212.288C2.19631 212.947 2.4037 213.605 2.4037 214.923C2.4037 216.24 2.25853 216.893 2.11336 217.546C1.96819 218.2 1.82302 218.853 1.82302 220.17C1.82302 221.487 1.88524 222.145 1.94746 222.804C2.00968 223.463 2.0719 224.121 2.0719 225.438C2.0719 226.755 2.19115 227.414 2.3104 228.072C2.42965 228.731 2.5489 229.389 2.5489 230.706C2.5489 231.772 2.18899 232.512 1.88406 233.139C1.43535 234.061 1.10571 234.739 2.2171 235.85C3.48253 237.115 4.19512 236.98 5.34349 236.761C5.88912 236.657 6.53312 236.534 7.38155 236.534C8.69859 236.534 9.36229 236.265 10.026 235.995C10.6897 235.726 11.3534 235.456 12.6704 235.456C13.9849 235.456 14.6382 235.606 15.2929 235.756C15.9501 235.906 16.6085 236.057 17.9386 236.057C19.2686 236.057 19.9323 235.912 20.5947 235.766C21.2546 235.621 21.9131 235.477 23.2276 235.477C24.5446 235.477 25.2031 235.627 25.8616 235.777C26.5201 235.928 27.1787 236.078 28.4957 236.078C29.8102 236.078 30.4687 236.15 31.1285 236.223C31.7909 236.296 32.4546 236.369 33.7846 236.369H39.0321C40.3621 236.369 41.0258 236.41 41.6882 236.452C42.348 236.493 43.0065 236.534 44.321 236.534C45.638 236.534 46.2965 236.379 46.955 236.223C47.6135 236.068 48.272 235.912 49.5891 235.912C50.9061 235.912 51.5647 236.078 52.2232 236.244C52.8818 236.41 53.5403 236.576 54.8573 236.576C56.1796 236.576 56.8486 236.435 57.5149 236.294C58.1759 236.155 58.8343 236.016 60.1255 236.016C61.4141 236.016 61.9854 236.088 62.56 236.16C63.1415 236.233 63.7265 236.306 65.0618 236.306C66.3918 236.306 67.0555 236.213 67.7179 236.119C68.3777 236.026 69.0362 235.933 70.3507 235.933C71.6677 235.933 72.3262 236.037 72.9847 236.14C73.6432 236.244 74.3018 236.348 75.6188 236.348H80.8871C82.2067 236.348 82.8704 236.311 83.5328 236.275C84.1926 236.239 84.8511 236.203 86.1552 236.203H91.4027C92.7197 236.203 93.3782 236.177 94.0367 236.151C94.6952 236.125 95.3537 236.099 96.6708 236.099C97.9878 236.099 98.6463 235.917 99.3049 235.736C99.9634 235.554 100.622 235.373 101.939 235.373C103.256 235.373 103.914 235.451 104.573 235.529C105.232 235.606 105.89 235.684 107.207 235.684C108.524 235.684 109.178 235.637 109.831 235.591C110.484 235.544 111.137 235.497 112.455 235.497C113.772 235.497 114.43 235.539 115.089 235.58C115.747 235.622 116.406 235.663 117.723 235.663C119.04 235.663 119.698 235.783 120.357 235.902C121.015 236.021 121.674 236.14 122.991 236.14C124.308 236.14 124.966 236.021 125.625 235.902C126.283 235.783 126.942 235.663 128.259 235.663C129.576 235.663 130.235 235.57 130.893 235.477C131.552 235.383 132.21 235.29 133.527 235.29C134.844 235.29 135.503 235.414 136.161 235.539C136.82 235.663 137.478 235.788 138.795 235.788C140.112 235.788 140.771 235.736 141.429 235.684C142.088 235.632 142.746 235.58 144.064 235.58C145.381 235.58 146.039 235.751 146.698 235.923C147.356 236.094 148.015 236.265 149.332 236.265C150.649 236.265 151.307 236.021 151.966 235.777C152.624 235.534 153.283 235.29 154.6 235.29C155.917 235.29 156.576 235.518 157.234 235.746C157.893 235.974 158.551 236.203 159.868 236.203C161.185 236.203 161.844 236.026 162.502 235.85C163.161 235.674 163.819 235.497 165.136 235.497C166.453 235.497 167.112 235.617 167.77 235.736C168.429 235.855 169.087 235.974 170.404 235.974C171.721 235.974 172.38 235.891 173.039 235.809C173.697 235.726 174.356 235.643 175.673 235.643H180.92C182.237 235.643 182.896 235.793 183.554 235.943C184.213 236.094 184.871 236.244 186.188 236.244C187.505 236.244 188.164 236.286 188.822 236.327C189.481 236.369 190.139 236.41 191.456 236.41C192.379 236.41 193.085 236.593 193.694 236.751C194.823 237.044 195.615 237.249 196.828 236.037C197.953 234.912 197.609 234.141 197.159 233.13C196.861 232.463 196.517 231.691 196.517 230.644C196.517 229.327 196.476 228.663 196.434 228C196.393 227.336 196.351 226.672 196.351 225.355C196.351 224.041 196.527 223.387 196.703 222.733C196.879 222.075 197.056 221.417 197.056 220.087C197.056 218.757 196.916 218.093 196.776 217.431C196.636 216.771 196.496 216.113 196.496 214.798V209.53C196.496 208.21 196.715 207.541 196.933 206.874C197.151 206.209 197.367 205.545 197.367 204.241C197.367 202.939 197.223 202.291 197.079 201.641C196.933 200.985 196.787 200.326 196.787 198.994C196.787 197.664 196.709 197 196.631 196.337C196.553 195.678 196.476 195.019 196.476 193.705C196.476 192.388 196.579 191.729 196.683 191.071C196.787 190.412 196.89 189.753 196.89 188.436C196.89 187.119 196.942 186.461 196.994 185.802C197.046 185.144 197.098 184.485 197.098 183.168C197.098 181.851 196.979 181.193 196.859 180.534C196.74 179.876 196.621 179.217 196.621 177.9V172.632C196.621 171.302 196.564 170.638 196.506 169.976C196.45 169.316 196.393 168.658 196.393 167.343C196.393 166.026 196.512 165.367 196.631 164.709C196.75 164.05 196.87 163.392 196.87 162.075C196.87 160.758 196.906 160.099 196.942 159.441C196.979 158.782 197.015 158.124 197.015 156.807C197.015 155.487 196.843 154.823 196.672 154.161C196.501 153.501 196.33 152.843 196.33 151.539C196.33 150.234 196.408 149.581 196.486 148.926C196.564 148.269 196.642 147.611 196.642 146.291C196.642 144.974 196.569 144.316 196.496 143.657C196.424 142.999 196.351 142.34 196.351 141.023V135.755C196.351 134.438 196.429 133.779 196.507 133.121C196.585 132.462 196.662 131.804 196.662 130.487V125.239C196.662 123.922 196.605 123.264 196.548 122.605C196.491 121.947 196.434 121.288 196.434 119.971C196.434 118.654 196.683 117.995 196.932 117.337C197.181 116.678 197.43 116.02 197.43 114.703V109.435C197.43 108.118 197.388 107.459 197.347 106.801C197.305 106.142 197.264 105.484 197.264 104.166C197.264 102.849 197.181 102.191 197.098 101.532C197.015 100.874 196.932 100.215 196.932 98.8983C196.932 97.5813 196.828 96.9228 196.725 96.2642C196.621 95.6057 196.517 94.9472 196.517 93.6301C196.517 92.3131 196.745 91.6546 196.973 90.9961C197.202 90.3375 197.43 89.679 197.43 88.362C197.43 87.0449 197.145 86.3864 196.859 85.7279C196.574 85.0694 196.289 84.4108 196.289 83.0938C196.289 81.7768 196.455 81.1182 196.621 80.4597C196.787 79.8012 196.953 79.1427 196.953 77.8256V72.5575V67.2893C196.953 65.9723 197.082 65.3137 197.212 64.6552C197.342 63.9967 197.471 63.3382 197.471 62.0211C197.471 60.7041 197.3 60.0507 197.129 59.3974C196.958 58.7441 196.787 58.0907 196.787 56.7737C196.787 55.4567 196.704 54.7981 196.621 54.1396C196.538 53.4811 196.455 52.8226 196.455 51.5055C196.455 50.1885 196.657 49.53 196.859 48.8714C197.062 48.2129 197.264 47.5544 197.264 46.2374C197.264 45.2469 197.528 44.4852 197.758 43.821C198.14 42.7188 198.429 41.8851 197.264 40.7203C196.162 39.6188 195.35 40.0411 194.327 40.5725C193.617 40.9416 192.806 41.3633 191.726 41.3633C190.409 41.3633 189.745 41.3996 189.082 41.4359C188.418 41.4721 187.754 41.5084 186.437 41.5084C185.123 41.5084 184.469 41.4258 183.815 41.343C183.157 41.2599 182.499 41.1766 181.169 41.1766H175.88C174.563 41.1766 173.904 41.1455 173.246 41.1144C172.587 41.0833 171.929 41.0521 170.612 41.0521C169.292 41.0521 168.613 41.1667 167.935 41.281C167.26 41.3948 166.586 41.5084 165.281 41.5084C163.98 41.5084 163.332 41.3181 162.681 41.127C162.025 40.9344 161.367 40.741 160.034 40.741C158.704 40.741 158.04 40.8868 157.378 41.0323C156.718 41.1772 156.06 41.3218 154.745 41.3218H149.477C148.16 41.3218 147.501 41.3684 146.843 41.4151C146.184 41.4618 145.526 41.5084 144.209 41.5084C142.886 41.5084 142.218 41.3935 141.551 41.2789C140.89 41.1653 140.232 41.0521 138.941 41.0521C137.652 41.0521 137.009 41.1802 136.362 41.3091C135.708 41.4395 135.049 41.5707 133.714 41.5707C132.384 41.5707 131.72 41.4249 131.058 41.2794C130.398 41.1345 129.739 40.9899 128.425 40.9899C127.108 40.9899 126.449 40.8655 125.791 40.741C125.132 40.6166 124.474 40.4921 123.157 40.4921C121.84 40.4921 121.181 40.5751 120.523 40.6581C119.864 40.741 119.206 40.824 117.889 40.824C116.572 40.824 115.913 40.8966 115.255 40.9692C114.596 41.0418 113.938 41.1144 112.62 41.1144H107.373C106.056 41.1144 105.398 41.161 104.739 41.2077C104.08 41.2544 103.422 41.301 102.105 41.301C100.788 41.301 100.129 41.161 99.4708 41.021C98.8123 40.881 98.1538 40.741 96.8368 40.741C95.5197 40.741 94.8612 40.6892 94.2026 40.6373C93.5441 40.5855 92.8855 40.5336 91.5685 40.5336C90.2515 40.5336 89.5981 40.6736 88.9448 40.8136C88.2915 40.9536 87.6382 41.0936 86.3211 41.0936C85.0041 41.0936 84.3456 41.0366 83.6871 40.9796C83.0286 40.9225 82.3701 40.8655 81.053 40.8655C79.736 40.8655 79.0774 40.9121 78.4189 40.9588C77.7603 41.0055 77.1018 41.0521 75.7848 41.0521H70.5166C69.1996 41.0521 68.5411 41.1351 67.8825 41.2181C67.224 41.301 66.5654 41.384 65.2484 41.384C63.9313 41.384 63.2728 41.2388 62.6143 41.0936C61.9558 40.9484 61.2973 40.8033 59.9803 40.8033C58.6632 40.8033 58.0047 40.8966 57.3462 40.9899C56.6877 41.0833 56.0292 41.1766 54.7121 41.1766H49.4439C48.1268 41.1766 47.4683 40.9951 46.8098 40.8136C46.1513 40.6321 45.4928 40.4507 44.1758 40.4507C42.8587 40.4507 42.2002 40.4921 41.5417 40.5336C40.8832 40.5751 40.2247 40.6166 38.9076 40.6166C37.5906 40.6166 36.932 40.6736 36.2735 40.7307C35.615 40.7877 34.9564 40.8447 33.6394 40.8447C32.3223 40.8447 31.6638 40.7618 31.0053 40.6788C30.3468 40.5959 29.6883 40.5129 28.3713 40.5129H23.1031C21.7861 40.5129 21.1327 40.6373 20.4794 40.7618C19.826 40.8862 19.1727 41.0107 17.8556 41.0107C16.5386 41.0107 15.8801 40.9588 15.2216 40.907C14.5631 40.8551 13.9046 40.8033 12.5875 40.8033C11.2705 40.8033 10.6119 40.964 9.95339 41.1247C9.29485 41.2855 8.63631 41.4462 7.31927 41.4462C6.23249 41.4462 5.39992 41.0014 4.66716 40.6098ZM35.7955 71.8681C34.9409 71.5334 34.3445 71.2998 33.3269 72.3302C32.2027 73.4544 32.4808 74.0678 32.9246 75.0466C33.1441 75.5306 33.404 76.1039 33.555 76.8725C33.8144 78.1931 33.6582 78.8032 33.4751 79.5182C33.3361 80.0609 33.1817 80.6641 33.1817 81.6843C33.1817 82.8666 33.135 83.4629 33.0883 84.0592C33.0416 84.6555 32.9949 85.2518 32.9949 86.434C32.9949 87.6162 33.0831 88.2125 33.1713 88.8088C33.2594 89.4051 33.3476 90.0014 33.3476 91.1836C33.3476 92.3659 33.3943 92.9622 33.4409 93.5585C33.4876 94.1548 33.5342 94.7511 33.5342 95.9333C33.5342 97.1155 33.472 97.7066 33.4098 98.2977C33.3475 98.8888 33.2853 99.48 33.2853 100.662C33.2853 101.844 33.2283 102.441 33.1713 103.037C33.1142 103.633 33.0572 104.23 33.0572 105.412C33.0572 106.591 33.1656 107.177 33.2742 107.765C33.3833 108.354 33.4927 108.946 33.4927 110.141C33.4927 111.336 33.4667 111.932 33.4407 112.527C33.4148 113.12 33.389 113.711 33.389 114.89C33.389 116.073 33.3475 116.669 33.3061 117.265C33.2646 117.862 33.2232 118.458 33.2232 119.64V124.369V129.119V133.972V138.701C33.2232 139.883 33.1143 140.479 33.0054 141.076C32.8965 141.672 32.7876 142.268 32.7876 143.451C32.7876 144.633 32.9016 145.224 33.0157 145.815C33.1297 146.406 33.2438 146.997 33.2438 148.179C33.2438 149.362 33.2749 149.953 33.306 150.544C33.3371 151.135 33.3682 151.726 33.3682 152.908C33.3682 154.091 33.4045 154.687 33.4408 155.283C33.4771 155.879 33.5134 156.476 33.5134 157.658C33.5134 158.84 33.4409 159.431 33.3683 160.022C33.2957 160.614 33.2232 161.205 33.2232 162.387C33.2232 163.569 33.1869 164.16 33.1506 164.751C33.1143 165.342 33.078 165.934 33.078 167.116C33.078 168.298 33.0417 168.889 33.0054 169.48C32.9691 170.071 32.9328 170.662 32.9328 171.845V176.574C32.9328 177.769 32.8807 178.365 32.8287 178.96C32.7769 179.553 32.7253 180.144 32.7253 181.323C32.7253 182.503 32.8802 183.089 33.0354 183.676C33.1914 184.266 33.3476 184.857 33.3476 186.052C33.3476 187.247 33.2903 187.844 33.2331 188.439C33.1762 189.031 33.1194 189.622 33.1194 190.802C33.1194 191.984 33.2024 192.575 33.2853 193.166C33.3683 193.757 33.4513 194.349 33.4513 195.531C33.4513 196.705 33.3131 197.286 33.174 197.871C33.0331 198.463 32.8912 199.059 32.8912 200.28C32.8912 201.135 32.7345 201.74 32.6055 202.237C32.3681 203.153 32.2248 203.706 33.3269 204.781C34.3857 205.814 34.9541 205.617 35.8079 205.321C36.3256 205.142 36.9481 204.926 37.8483 204.926C39.0435 204.926 39.645 205.046 40.2452 205.166C40.8428 205.285 41.4391 205.403 42.6187 205.403C43.8009 205.403 44.3972 205.253 44.9935 205.103C45.5898 204.952 46.1861 204.802 47.3683 204.802C48.5505 204.802 49.1469 204.942 49.7432 205.082C50.3395 205.222 50.9358 205.362 52.118 205.362C53.3003 205.362 53.8966 205.279 54.4928 205.196C55.0891 205.113 55.6854 205.03 56.8676 205.03C58.0499 205.03 58.641 205.066 59.2321 205.103C59.8233 205.139 60.4144 205.175 61.5966 205.175C62.7788 205.175 63.3751 205.108 63.9714 205.04C64.5677 204.973 65.164 204.906 66.3462 204.906C67.5259 204.906 68.1118 204.844 68.6991 204.782C69.2889 204.719 69.88 204.657 71.0752 204.657C72.2704 204.657 72.8667 204.818 73.4617 204.979C74.054 205.14 74.6451 205.3 75.8248 205.3C77.007 205.3 77.6033 205.326 78.1996 205.352C78.7959 205.377 79.3922 205.403 80.5744 205.403C81.754 205.403 82.34 205.341 82.9272 205.279C83.5171 205.217 84.1082 205.154 85.3034 205.154C86.4986 205.154 87.0948 205.055 87.6898 204.957C88.2822 204.858 88.8733 204.76 90.053 204.76C91.2326 204.76 91.8237 204.797 92.4161 204.833C93.0111 204.869 93.6074 204.906 94.8026 204.906H99.5315C100.753 204.906 101.359 204.969 101.962 205.031C102.557 205.093 103.148 205.154 104.323 205.154C105.505 205.154 106.096 205.108 106.687 205.061C107.278 205.014 107.869 204.968 109.052 204.968C110.234 204.968 110.825 205.014 111.416 205.061C112.007 205.108 112.598 205.154 113.78 205.154H118.53C119.712 205.154 120.303 205.056 120.895 204.957C121.486 204.859 122.077 204.76 123.259 204.76C124.441 204.76 125.032 204.714 125.623 204.667C126.215 204.62 126.806 204.574 127.988 204.574C129.17 204.574 129.761 204.667 130.352 204.76C130.943 204.854 131.535 204.947 132.717 204.947H137.321C138.516 204.947 139.113 204.838 139.708 204.729C140.3 204.62 140.891 204.511 142.071 204.511C143.251 204.511 143.837 204.584 144.424 204.656C145.014 204.729 145.605 204.802 146.8 204.802C147.995 204.802 148.591 204.854 149.186 204.906C149.779 204.958 150.37 205.009 151.55 205.009C152.732 205.009 153.323 204.947 153.914 204.885C154.505 204.823 155.096 204.76 156.278 204.76H161.028C161.962 204.76 162.64 205.058 163.222 205.313C164.114 205.705 164.782 205.997 165.799 204.968C166.879 203.874 166.69 203.192 166.417 202.21C166.266 201.665 166.089 201.028 166.089 200.177V195.406C166.089 194.224 166.037 193.628 165.985 193.031C165.933 192.435 165.881 191.839 165.881 190.657V185.907C165.881 184.725 165.97 184.128 166.058 183.532C166.146 182.936 166.234 182.34 166.234 181.157C166.234 179.975 166.068 179.384 165.902 178.793C165.736 178.202 165.57 177.611 165.57 176.428V171.679V166.95V162.2C165.57 161.018 165.596 160.422 165.622 159.825C165.648 159.229 165.674 158.633 165.674 157.451V152.722C165.674 151.526 165.737 150.93 165.799 150.335C165.861 149.743 165.923 149.152 165.923 147.972C165.923 146.79 165.964 146.193 166.006 145.597C166.047 145.001 166.089 144.405 166.089 143.222V138.493C166.089 137.311 165.933 136.715 165.778 136.119C165.622 135.522 165.467 134.926 165.467 133.744C165.467 132.562 165.607 131.97 165.747 131.379C165.887 130.788 166.027 130.197 166.027 129.015C166.027 127.833 165.887 127.242 165.747 126.65C165.607 126.059 165.467 125.468 165.467 124.286V119.536C165.467 118.354 165.544 117.763 165.622 117.172C165.7 116.581 165.778 115.99 165.778 114.807C165.778 113.625 165.721 113.034 165.664 112.443C165.607 111.852 165.55 111.261 165.55 110.079C165.55 108.899 165.637 108.313 165.725 107.726C165.814 107.136 165.902 106.545 165.902 105.35C165.902 104.157 165.954 103.623 166.006 103.089C166.058 102.555 166.11 102.021 166.11 100.828C166.11 99.6329 165.969 99.0366 165.829 98.4416C165.689 97.8492 165.55 97.2581 165.55 96.0785C165.55 94.8988 165.735 94.3129 165.922 93.7257C166.109 93.1359 166.296 92.5448 166.296 91.3496C166.296 90.1544 166.192 89.5581 166.088 88.9631C165.985 88.3707 165.881 87.7796 165.881 86.5999C165.881 85.4177 165.933 84.8266 165.985 84.2355C166.037 83.6443 166.089 83.0532 166.089 81.871C166.089 80.6888 166.063 80.0925 166.037 79.4962C166.011 78.8999 165.985 78.3036 165.985 77.1214C165.985 76.2236 166.227 75.556 166.436 74.9813C166.776 74.0425 167.027 73.3516 165.985 72.3095C164.963 71.2877 164.279 71.5702 163.363 71.9484C162.773 72.1921 162.087 72.4754 161.153 72.4754C159.957 72.4754 159.356 72.3556 158.756 72.2361C158.158 72.1171 157.562 71.9984 156.382 71.9984C155.2 71.9984 154.604 72.0606 154.007 72.1228C153.411 72.185 152.815 72.2473 151.632 72.2473C150.45 72.2473 149.854 72.2939 149.258 72.3406C148.661 72.3873 148.065 72.4339 146.883 72.4339C145.701 72.4339 145.104 72.4754 144.508 72.5169C143.912 72.5584 143.315 72.5999 142.133 72.5999C140.951 72.5999 140.36 72.5636 139.769 72.5273C139.178 72.491 138.587 72.4547 137.404 72.4547C136.222 72.4547 135.626 72.3665 135.029 72.2784C134.433 72.1902 133.837 72.1021 132.655 72.1021C131.475 72.1021 130.889 72.1847 130.302 72.2675C129.712 72.3506 129.121 72.4339 127.926 72.4339H123.176H118.426C117.247 72.4339 116.661 72.372 116.074 72.3099C115.484 72.2475 114.893 72.185 113.698 72.185C112.502 72.185 111.906 72.133 111.311 72.081C110.719 72.0293 110.127 71.9776 108.948 71.9776C107.766 71.9776 107.169 71.9517 106.573 71.9258C105.977 71.8999 105.38 71.8739 104.198 71.8739C103.016 71.8739 102.425 71.9621 101.834 72.0502C101.243 72.1384 100.651 72.2265 99.4693 72.2265C98.287 72.2265 97.6907 72.1539 97.0945 72.0813C96.4982 72.0087 95.9019 71.9362 94.7197 71.9362H89.9908H85.2618C84.0796 71.9362 83.4833 71.9102 82.887 71.8843C82.2908 71.8584 81.6945 71.8324 80.5122 71.8324C79.33 71.8324 78.7389 71.9465 78.1478 72.0606C77.5566 72.1747 76.9655 72.2887 75.7833 72.2887C74.601 72.2887 74.0099 72.1695 73.4189 72.0502C72.8278 71.931 72.2366 71.8117 71.0544 71.8117C69.8722 71.8117 69.2811 71.905 68.6899 71.9984C68.0988 72.0917 67.5077 72.185 66.3255 72.185C65.1458 72.185 64.5599 72.1437 63.9727 72.1024C63.3829 72.0608 62.7918 72.0191 61.5966 72.0191C60.4014 72.0191 59.8051 72.1285 59.2101 72.2376C58.6177 72.3463 58.0265 72.4547 56.8469 72.4547C55.6672 72.4547 55.0813 72.3979 54.4941 72.341C53.9043 72.2838 53.3132 72.2265 52.118 72.2265C50.9228 72.2265 50.3265 72.1797 49.7315 72.1329C49.1391 72.0863 48.548 72.0399 47.3683 72.0399C46.1861 72.0399 45.595 72.071 45.0039 72.1021C44.4128 72.1332 43.8217 72.1643 42.6395 72.1643C41.4572 72.1643 40.861 72.2058 40.2647 72.2473C39.6684 72.2887 39.0721 72.3302 37.8899 72.3302C36.9756 72.3302 36.3342 72.0791 35.7955 71.8681Z" fill="#AABDED"/>
<path fill-rule="evenodd" clip-rule="evenodd" d="M197.549 233.123C197.994 234.173 198.337 234.98 197.199 236.1C195.918 237.373 195.017 236.957 193.752 236.373C193.163 236.101 192.496 235.793 191.675 235.602C190.137 235.244 189.477 235.371 188.637 235.532C188.065 235.642 187.41 235.768 186.338 235.768C185.017 235.768 184.361 235.68 183.703 235.592C183.042 235.504 182.38 235.415 181.044 235.415C179.707 235.415 179.04 235.623 178.374 235.831C177.711 236.038 177.049 236.245 175.728 236.245C174.404 236.245 173.743 236.214 173.081 236.183C172.419 236.151 171.757 236.12 170.433 236.12C169.107 236.12 168.435 236.146 167.764 236.172C167.096 236.198 166.429 236.224 165.118 236.224C163.81 236.224 163.158 236.152 162.504 236.08C161.845 236.007 161.183 235.934 159.844 235.934C158.507 235.934 157.84 236.017 157.175 236.1C156.511 236.183 155.85 236.265 154.529 236.265C153.205 236.265 152.543 236.115 151.881 235.965C151.219 235.814 150.558 235.664 149.234 235.664C147.91 235.664 147.248 235.814 146.587 235.965C145.925 236.115 145.263 236.265 143.939 236.265C142.615 236.265 141.954 235.985 141.292 235.705C140.63 235.425 139.968 235.145 138.645 235.145C137.323 235.145 136.667 235.414 136.009 235.683C135.348 235.953 134.686 236.224 133.35 236.224C132.013 236.224 131.346 235.953 130.68 235.683C130.017 235.414 129.355 235.145 128.034 235.145C126.711 235.145 126.049 235.192 125.387 235.239C124.725 235.285 124.063 235.332 122.74 235.332C121.416 235.332 120.754 235.472 120.092 235.612C119.43 235.752 118.769 235.892 117.445 235.892C116.119 235.892 115.452 235.934 114.786 235.975C114.123 236.017 113.461 236.058 112.15 236.058C110.84 236.058 110.183 236.089 109.525 236.12C108.865 236.151 108.203 236.183 106.876 236.183H101.582C100.258 236.183 99.5962 236.001 98.9344 235.82C98.2725 235.638 97.6107 235.457 96.2871 235.457C94.9634 235.457 94.3016 235.68 93.6397 235.903C92.9779 236.125 92.3161 236.348 90.9924 236.348C89.6688 236.348 89.0121 236.162 88.3555 235.975C87.6988 235.788 87.0422 235.602 85.7185 235.602C84.3949 235.602 83.733 235.674 83.0712 235.747C82.4094 235.82 81.7476 235.892 80.4239 235.892C79.1002 235.892 78.4384 235.991 77.7765 236.089C77.1147 236.188 76.4528 236.286 75.1291 236.286C73.8055 236.286 73.1436 236.105 72.4818 235.923C71.82 235.742 71.1582 235.56 69.8345 235.56H64.3731C63.0494 235.56 62.3876 235.602 61.7258 235.643C61.0639 235.685 60.4021 235.726 59.0784 235.726C57.7548 235.726 57.0929 235.835 56.4311 235.944C55.7692 236.053 55.1073 236.162 53.7837 236.162C52.46 236.162 51.7982 236.011 51.1364 235.861C50.4745 235.711 49.8127 235.56 48.489 235.56C47.1654 235.56 46.5035 235.483 45.8417 235.405C45.1798 235.327 44.518 235.249 43.1943 235.249C41.8706 235.249 41.2088 235.426 40.547 235.602C39.8851 235.778 39.2233 235.954 37.8997 235.954H32.605C31.2813 235.954 30.6195 235.856 29.9576 235.757C29.2958 235.659 28.6339 235.56 27.3103 235.56C25.9866 235.56 25.3248 235.659 24.6629 235.757C24.0011 235.856 23.3393 235.954 22.0156 235.954C20.692 235.954 20.0353 235.877 19.3787 235.799C18.7221 235.721 18.0655 235.643 16.7419 235.643C15.4182 235.643 14.7563 235.612 14.0945 235.581C13.4326 235.55 12.7708 235.519 11.4471 235.519C10.1234 235.519 9.4616 235.628 8.79978 235.737C8.13795 235.846 7.47613 235.954 6.15246 235.954C5.14676 235.954 4.32455 236.29 3.63671 236.57C2.51393 237.028 1.74916 237.34 1.1287 235.809C0.531442 234.336 1.36023 234.097 2.52886 233.76C3.31801 233.532 4.26213 233.26 5.02674 232.532C6.03264 231.575 6.4055 230.998 6.80116 230.384C7.15163 229.841 7.51999 229.271 8.36205 228.384C9.25491 227.444 9.82718 227.106 10.4085 226.762C10.9944 226.416 11.5894 226.065 12.5311 225.086C13.4499 224.131 13.8437 223.57 14.2267 223.023C14.6258 222.454 15.0132 221.901 15.9705 220.938C16.9406 219.962 17.4258 219.513 17.9305 219.046C18.4018 218.61 18.89 218.158 19.806 217.246C20.7571 216.3 21.1003 215.692 21.4426 215.087C21.783 214.484 22.1224 213.884 23.0579 212.953C23.9915 212.024 24.6566 211.747 25.3205 211.471C25.9907 211.192 26.6597 210.914 27.6021 209.966C28.5382 209.024 28.8204 208.361 29.1012 207.702C29.3832 207.039 29.6639 206.38 30.6038 205.445C31.2166 204.835 31.6892 204.484 32.114 204.223C32.2251 204.359 32.3586 204.503 32.5182 204.658C33.5823 205.691 34.1536 205.494 35.0118 205.198C35.532 205.019 36.1576 204.803 37.0624 204.803C38.2636 204.803 38.8682 204.923 39.4714 205.042C40.0719 205.161 40.6712 205.28 41.8568 205.28C43.045 205.28 43.6442 205.13 44.2435 204.979C44.8428 204.829 45.4421 204.679 46.6303 204.679C47.8185 204.679 48.4178 204.819 49.0171 204.959C49.6164 205.099 50.2157 205.239 51.4039 205.239C52.5921 205.239 53.1914 205.156 53.7907 205.073C54.39 204.99 54.9893 204.907 56.1774 204.907C57.3656 204.907 57.9597 204.943 58.5538 204.979C59.1479 205.016 59.742 205.052 60.9302 205.052C62.1184 205.052 62.7177 204.985 63.3169 204.917C63.9162 204.85 64.5155 204.782 65.7037 204.782C66.8893 204.782 67.4782 204.72 68.0684 204.658C68.6612 204.596 69.2552 204.533 70.4565 204.533C71.6577 204.533 72.257 204.695 72.8549 204.856C73.4503 205.016 74.0444 205.176 75.23 205.176C76.4181 205.176 77.0174 205.202 77.6167 205.228C78.216 205.254 78.8153 205.28 80.0035 205.28C81.189 205.28 81.778 205.218 82.3682 205.156C82.9609 205.094 83.555 205.031 84.7562 205.031C85.9574 205.031 86.5567 204.932 87.1547 204.833C87.7501 204.735 88.3442 204.637 89.5297 204.637C90.7153 204.637 91.3094 204.673 91.9048 204.709C92.5027 204.746 93.102 204.782 94.3032 204.782H99.056C100.283 204.782 100.893 204.845 101.499 204.908C102.097 204.97 102.691 205.031 103.871 205.031C105.059 205.031 105.654 204.984 106.248 204.938C106.842 204.891 107.436 204.844 108.624 204.844C109.812 204.844 110.406 204.891 111 204.938C111.594 204.984 112.188 205.031 113.377 205.031H118.15C119.338 205.031 119.932 204.933 120.527 204.834C121.121 204.736 121.715 204.637 122.903 204.637C124.091 204.637 124.685 204.59 125.279 204.544C125.873 204.497 126.467 204.45 127.656 204.45C128.844 204.45 129.438 204.544 130.032 204.637C130.626 204.73 131.22 204.824 132.408 204.824H137.036C138.237 204.824 138.836 204.714 139.434 204.605C140.03 204.497 140.624 204.388 141.81 204.388C142.995 204.388 143.584 204.46 144.174 204.533C144.767 204.606 145.361 204.679 146.562 204.679C147.763 204.679 148.363 204.731 148.961 204.783C149.556 204.834 150.15 204.886 151.336 204.886C152.524 204.886 153.118 204.824 153.712 204.762C154.306 204.699 154.9 204.637 156.088 204.637H160.862C161.8 204.637 162.482 204.934 163.067 205.19C163.964 205.581 164.635 205.874 165.656 204.844C166.742 203.751 166.552 203.069 166.278 202.086C166.126 201.542 165.948 200.904 165.948 200.053V195.283C165.948 194.101 165.896 193.504 165.844 192.908C165.792 192.312 165.74 191.716 165.74 190.533V185.784C165.74 184.601 165.828 184.005 165.917 183.409C166.006 182.813 166.094 182.216 166.094 181.034C166.094 179.852 165.927 179.261 165.761 178.67C165.594 178.078 165.427 177.487 165.427 176.305V171.555V166.827V162.077C165.427 160.895 165.453 160.298 165.479 159.702C165.505 159.106 165.531 158.51 165.531 157.327V152.598C165.531 151.403 165.594 150.807 165.657 150.212C165.719 149.619 165.781 149.028 165.781 147.849C165.781 146.667 165.823 146.07 165.865 145.474C165.907 144.878 165.948 144.281 165.948 143.099V138.37C165.948 137.188 165.792 136.592 165.636 135.995C165.479 135.399 165.323 134.803 165.323 133.621C165.323 132.438 165.464 131.847 165.604 131.256C165.745 130.665 165.886 130.074 165.886 128.892C165.886 127.709 165.745 127.118 165.604 126.527C165.464 125.936 165.323 125.345 165.323 124.163V119.413C165.323 118.231 165.401 117.64 165.479 117.049C165.557 116.457 165.636 115.866 165.636 114.684C165.636 113.502 165.578 112.911 165.521 112.32C165.464 111.729 165.406 111.137 165.406 109.955C165.406 108.776 165.494 108.19 165.583 107.602C165.672 107.013 165.761 106.422 165.761 105.226C165.761 104.034 165.813 103.5 165.865 102.966C165.917 102.431 165.969 101.897 165.969 100.705C165.969 99.5096 165.828 98.9133 165.687 98.3183C165.546 97.7259 165.406 97.1348 165.406 95.9552C165.406 94.7755 165.593 94.1896 165.78 93.6024C165.968 93.0126 166.157 92.4215 166.157 91.2263C166.157 90.0311 166.052 89.4348 165.948 88.8398C165.844 88.2474 165.74 87.6563 165.74 86.4766C165.74 85.2944 165.792 84.7033 165.844 84.1122C165.896 83.5211 165.948 82.9299 165.948 81.7477C165.948 80.5655 165.922 79.9692 165.896 79.3729C165.87 78.7766 165.844 78.1803 165.844 76.9981C165.844 76.1003 166.087 75.4327 166.297 74.8581C166.629 73.9471 166.876 73.2694 165.934 72.2779C166.221 72.0048 166.56 71.672 166.994 71.2308C167.926 70.2828 168.31 69.7156 168.684 69.1623C169.071 68.5896 169.448 68.0319 170.413 67.0826C171.303 66.2059 171.785 65.7501 172.24 65.3198C172.753 64.834 173.232 64.3807 174.227 63.3907C175.449 62.1748 175.875 61.7157 176.519 61.0218C176.864 60.6504 177.271 60.2117 177.896 59.5537C178.832 58.5681 179.348 58.1255 179.888 57.6617C180.382 57.2373 180.897 56.7953 181.773 55.9033C182.686 54.9746 183.196 54.5541 183.709 54.1311C184.228 53.7038 184.749 53.2739 185.692 52.3151C186.611 51.3809 187.025 50.8543 187.428 50.3411C187.848 49.8061 188.257 49.2856 189.215 48.3329C190.113 47.4396 190.595 46.988 191.06 46.5531C191.566 46.0793 192.051 45.6252 193.03 44.641C193.731 43.9353 194.083 43.1455 194.377 42.4852C194.869 41.3795 195.2 40.637 196.74 41.2603C198.188 41.8461 197.787 42.5613 197.212 43.5875C196.81 44.3051 196.323 45.1748 196.323 46.2588C196.323 47.5758 196.38 48.2395 196.438 48.9033C196.495 49.567 196.552 50.2307 196.552 51.5477C196.552 52.8622 196.687 53.5155 196.823 54.1702C196.958 54.8274 197.094 55.4859 197.094 56.8159C197.094 58.1459 196.917 58.8096 196.739 59.472C196.562 60.1318 196.386 60.7903 196.386 62.1048C196.386 63.4218 196.573 64.0804 196.761 64.7389C196.949 65.3974 197.136 66.0559 197.136 67.373C197.136 68.6926 196.984 69.3615 196.833 70.0291C196.682 70.6941 196.532 71.3578 196.532 72.6619C196.532 73.9634 196.718 74.6116 196.905 75.2623C197.093 75.9182 197.282 76.5767 197.282 77.9093C197.282 79.2393 197.136 79.903 196.989 80.5654C196.844 81.2252 196.698 81.8837 196.698 83.1982C196.698 84.5153 196.605 85.1738 196.511 85.8323C196.417 86.4908 196.323 87.1493 196.323 88.4664C196.323 89.7834 196.49 90.4419 196.657 91.1005C196.823 91.759 196.99 92.4175 196.99 93.7346V99.0027C196.99 100.291 196.995 100.934 197.001 101.581C197.006 102.236 197.011 102.894 197.011 104.229V109.518C197.011 110.835 196.943 111.494 196.876 112.152C196.808 112.811 196.74 113.469 196.74 114.786C196.74 116.104 196.886 116.762 197.032 117.421C197.178 118.079 197.324 118.738 197.324 120.055V125.323C197.324 126.627 197.178 127.28 197.033 127.935C196.887 128.592 196.74 129.251 196.74 130.57C196.74 131.887 196.672 132.546 196.605 133.204C196.537 133.863 196.469 134.521 196.469 135.838C196.469 137.155 196.563 137.814 196.657 138.473C196.75 139.131 196.844 139.79 196.844 141.107C196.844 142.424 196.896 143.082 196.949 143.741C197.001 144.399 197.053 145.058 197.053 146.375C197.053 147.692 196.86 148.345 196.667 148.998C196.474 149.652 196.281 150.305 196.281 151.622C196.281 152.939 196.412 153.598 196.542 154.256C196.672 154.915 196.803 155.573 196.803 156.89V162.159C196.803 163.476 196.672 164.134 196.542 164.793C196.412 165.451 196.281 166.11 196.281 167.427C196.281 168.744 196.334 169.402 196.386 170.061C196.438 170.719 196.49 171.378 196.49 172.695V177.963V183.231C196.49 184.548 196.573 185.207 196.657 185.865C196.74 186.524 196.823 187.182 196.823 188.499C196.823 189.816 196.954 190.475 197.084 191.133C197.214 191.792 197.345 192.451 197.345 193.768C197.345 195.085 197.167 195.743 196.99 196.402C196.813 197.06 196.636 197.719 196.636 199.036C196.636 200.353 196.823 201.011 197.011 201.67C197.199 202.328 197.386 202.987 197.386 204.304C197.386 205.621 197.188 206.279 196.99 206.938C196.792 207.596 196.594 208.255 196.594 209.572V214.84C196.594 216.157 196.672 216.811 196.75 217.464C196.829 218.117 196.907 218.771 196.907 220.088C196.907 221.405 196.839 222.063 196.771 222.722C196.704 223.38 196.636 224.039 196.636 225.356C196.636 226.673 196.709 227.331 196.782 227.99C196.855 228.648 196.928 229.307 196.928 230.624C196.928 231.66 197.26 232.443 197.549 233.123Z" fill="#7C97DD"/>
</svg>
