<svg width="444" height="48" viewBox="0 0 444 48" fill="none" xmlns="http://www.w3.org/2000/svg">
<rect width="444" height="48" rx="24" fill="white"/>
<path d="M137.842 15.788C138.466 15.788 139.006 15.89 139.462 16.094C139.918 16.298 140.296 16.58 140.596 16.94C140.896 17.288 141.118 17.708 141.262 18.2C141.406 18.68 141.478 19.202 141.478 19.766C141.478 20.342 141.406 20.876 141.262 21.368C141.118 21.848 140.896 22.268 140.596 22.628C140.296 22.976 139.918 23.252 139.462 23.456C139.006 23.66 138.466 23.762 137.842 23.762C137.218 23.762 136.678 23.66 136.222 23.456C135.766 23.252 135.388 22.976 135.088 22.628C134.788 22.268 134.566 21.848 134.422 21.368C134.278 20.876 134.206 20.342 134.206 19.766C134.206 19.202 134.278 18.68 134.422 18.2C134.566 17.708 134.788 17.288 135.088 16.94C135.388 16.58 135.766 16.298 136.222 16.094C136.678 15.89 137.218 15.788 137.842 15.788ZM137.842 17.3C137.482 17.3 137.176 17.366 136.924 17.498C136.672 17.618 136.468 17.792 136.312 18.02C136.156 18.248 136.042 18.512 135.97 18.812C135.898 19.112 135.862 19.43 135.862 19.766C135.862 20.114 135.898 20.438 135.97 20.738C136.042 21.038 136.156 21.302 136.312 21.53C136.468 21.746 136.672 21.92 136.924 22.052C137.176 22.184 137.482 22.25 137.842 22.25C138.202 22.25 138.508 22.184 138.76 22.052C139.012 21.92 139.216 21.746 139.372 21.53C139.528 21.302 139.642 21.038 139.714 20.738C139.786 20.438 139.822 20.114 139.822 19.766C139.822 19.43 139.786 19.112 139.714 18.812C139.642 18.512 139.528 18.248 139.372 18.02C139.216 17.792 139.012 17.618 138.76 17.498C138.508 17.366 138.202 17.3 137.842 17.3ZM147.328 14.996C147.544 14.996 147.736 15.056 147.904 15.176C148.084 15.284 148.174 15.458 148.174 15.698V24.032C148.174 24.272 148.084 24.452 147.904 24.572C147.736 24.68 147.544 24.734 147.328 24.734C147.124 24.734 146.932 24.68 146.752 24.572C146.584 24.452 146.5 24.272 146.5 24.032V20.522H144.574V23.942C144.574 24.182 144.484 24.362 144.304 24.482C144.136 24.59 143.944 24.644 143.728 24.644C143.524 24.644 143.332 24.59 143.152 24.482C142.984 24.362 142.9 24.182 142.9 23.942V15.788C142.9 15.548 142.984 15.374 143.152 15.266C143.332 15.146 143.524 15.086 143.728 15.086C143.944 15.086 144.136 15.146 144.304 15.266C144.484 15.374 144.574 15.548 144.574 15.788V19.01H146.5V15.698C146.5 15.458 146.584 15.284 146.752 15.176C146.932 15.056 147.124 14.996 147.328 14.996ZM146.788 25.508C147.316 25.508 147.676 25.604 147.868 25.796C148.072 25.988 148.174 26.342 148.174 26.858V30.98C148.174 31.244 148.084 31.436 147.904 31.556C147.724 31.676 147.514 31.736 147.274 31.736C147.034 31.736 146.824 31.676 146.644 31.556C146.464 31.436 146.374 31.244 146.374 30.98V27.416C146.374 27.176 146.248 27.056 145.996 27.056H137.536C137.308 27.056 137.14 26.978 137.032 26.822C136.936 26.666 136.888 26.486 136.888 26.282C136.888 26.078 136.936 25.898 137.032 25.742C137.14 25.586 137.308 25.508 137.536 25.508H146.788ZM159.085 16.256C159.301 16.256 159.457 16.334 159.553 16.49C159.661 16.646 159.715 16.826 159.715 17.03C159.715 17.234 159.661 17.414 159.553 17.57C159.457 17.726 159.301 17.804 159.085 17.804H156.151V19.496C156.151 19.892 156.169 20.246 156.205 20.558C156.253 20.87 156.331 21.164 156.439 21.44C156.547 21.704 156.685 21.962 156.853 22.214C157.033 22.466 157.255 22.724 157.519 22.988C157.903 23.372 158.275 23.738 158.635 24.086C158.995 24.434 159.325 24.734 159.625 24.986C159.805 25.154 159.877 25.346 159.841 25.562C159.817 25.778 159.733 25.958 159.589 26.102C159.445 26.258 159.271 26.354 159.067 26.39C158.863 26.426 158.671 26.366 158.491 26.21C158.227 25.97 157.933 25.7 157.609 25.4C157.297 25.088 156.955 24.752 156.583 24.392C156.331 24.128 156.121 23.906 155.953 23.726C155.785 23.534 155.653 23.366 155.557 23.222C155.461 23.078 155.389 22.952 155.341 22.844C155.293 22.736 155.263 22.634 155.251 22.538H155.233C155.209 22.646 155.173 22.754 155.125 22.862C155.089 22.97 155.017 23.096 154.909 23.24C154.813 23.384 154.681 23.552 154.513 23.744C154.357 23.936 154.147 24.164 153.883 24.428C153.523 24.788 153.169 25.136 152.821 25.472C152.473 25.808 152.107 26.144 151.723 26.48C151.531 26.648 151.327 26.702 151.111 26.642C150.895 26.582 150.721 26.474 150.589 26.318C150.445 26.15 150.367 25.964 150.355 25.76C150.355 25.544 150.445 25.358 150.625 25.202C151.045 24.83 151.441 24.464 151.813 24.104C152.185 23.744 152.563 23.372 152.947 22.988C153.211 22.724 153.427 22.466 153.595 22.214C153.775 21.962 153.919 21.704 154.027 21.44C154.135 21.164 154.207 20.87 154.243 20.558C154.291 20.246 154.315 19.892 154.315 19.496V17.804H151.291C151.063 17.804 150.895 17.726 150.787 17.57C150.691 17.414 150.643 17.234 150.643 17.03C150.643 16.826 150.691 16.646 150.787 16.49C150.895 16.334 151.063 16.256 151.291 16.256H159.085ZM162.181 14.996C162.421 14.996 162.631 15.056 162.811 15.176C162.991 15.296 163.081 15.488 163.081 15.752V20.432H165.061C165.301 20.432 165.469 20.51 165.565 20.666C165.673 20.81 165.727 20.99 165.727 21.206C165.727 21.422 165.673 21.608 165.565 21.764C165.469 21.92 165.301 21.998 165.061 21.998H163.081V29.792C163.081 30.056 162.991 30.248 162.811 30.368C162.631 30.488 162.421 30.548 162.181 30.548C161.941 30.548 161.731 30.488 161.551 30.368C161.371 30.248 161.281 30.056 161.281 29.792V15.752C161.281 15.488 161.371 15.296 161.551 15.176C161.731 15.056 161.941 14.996 162.181 14.996ZM170.23 16.058C171.478 16.058 172.396 16.502 172.984 17.39C173.572 18.278 173.866 19.58 173.866 21.296C173.866 23.012 173.572 24.314 172.984 25.202C172.396 26.09 171.478 26.534 170.23 26.534C168.982 26.534 168.064 26.09 167.476 25.202C166.9 24.314 166.612 23.012 166.612 21.296C166.612 19.58 166.9 18.278 167.476 17.39C168.064 16.502 168.982 16.058 170.23 16.058ZM170.23 17.642C169.51 17.642 169 17.954 168.7 18.578C168.412 19.19 168.268 20.096 168.268 21.296C168.268 22.496 168.412 23.408 168.7 24.032C169 24.644 169.51 24.95 170.23 24.95C170.95 24.95 171.46 24.644 171.76 24.032C172.06 23.408 172.21 22.496 172.21 21.296C172.21 20.096 172.06 19.19 171.76 18.578C171.46 17.954 170.95 17.642 170.23 17.642ZM176.512 15.176C176.716 15.176 176.902 15.236 177.07 15.356C177.25 15.464 177.34 15.638 177.34 15.878V29.09C177.34 29.33 177.25 29.504 177.07 29.612C176.902 29.732 176.716 29.792 176.512 29.792C176.296 29.792 176.098 29.732 175.918 29.612C175.75 29.504 175.666 29.33 175.666 29.09V22.052H172.786V20.522H175.666V15.878C175.666 15.638 175.75 15.464 175.918 15.356C176.098 15.236 176.296 15.176 176.512 15.176ZM179.734 14.996C179.95 14.996 180.142 15.056 180.31 15.176C180.49 15.284 180.58 15.458 180.58 15.698V29.846C180.58 30.086 180.49 30.26 180.31 30.368C180.142 30.488 179.95 30.548 179.734 30.548C179.53 30.548 179.338 30.488 179.158 30.368C178.99 30.26 178.906 30.086 178.906 29.846V15.698C178.906 15.458 178.99 15.284 179.158 15.176C179.338 15.056 179.53 14.996 179.734 14.996ZM194.569 14.78C194.809 14.78 195.019 14.84 195.199 14.96C195.391 15.08 195.487 15.272 195.487 15.536V16.598H199.789C200.017 16.598 200.179 16.676 200.275 16.832C200.383 16.976 200.437 17.156 200.437 17.372C200.437 17.576 200.383 17.756 200.275 17.912C200.179 18.056 200.017 18.128 199.789 18.128H195.469V18.398C195.469 18.878 195.589 19.28 195.829 19.604C196.069 19.928 196.453 20.21 196.981 20.45C197.593 20.726 198.175 20.978 198.727 21.206C199.291 21.434 199.843 21.65 200.383 21.854C200.587 21.926 200.713 22.064 200.761 22.268C200.809 22.472 200.791 22.676 200.707 22.88C200.623 23.084 200.485 23.228 200.293 23.312C200.113 23.396 199.921 23.396 199.717 23.312C199.237 23.132 198.739 22.94 198.223 22.736C197.719 22.52 197.221 22.304 196.729 22.088C196.321 21.92 195.985 21.764 195.721 21.62C195.457 21.464 195.247 21.32 195.091 21.188C194.935 21.044 194.815 20.918 194.731 20.81C194.659 20.69 194.611 20.576 194.587 20.468H194.569C194.533 20.576 194.479 20.696 194.407 20.828C194.335 20.948 194.215 21.074 194.047 21.206C193.891 21.338 193.681 21.482 193.417 21.638C193.153 21.794 192.823 21.956 192.427 22.124C191.923 22.34 191.419 22.556 190.915 22.772C190.411 22.976 189.919 23.168 189.439 23.348C189.223 23.432 189.019 23.432 188.827 23.348C188.647 23.252 188.515 23.102 188.431 22.898C188.347 22.694 188.329 22.49 188.377 22.286C188.425 22.07 188.551 21.926 188.755 21.854C189.295 21.65 189.841 21.434 190.393 21.206C190.957 20.978 191.545 20.726 192.157 20.45C192.685 20.21 193.069 19.928 193.309 19.604C193.549 19.28 193.669 18.878 193.669 18.398V18.128H189.349C189.121 18.128 188.953 18.056 188.845 17.912C188.749 17.756 188.701 17.576 188.701 17.372C188.701 17.156 188.749 16.976 188.845 16.832C188.953 16.676 189.121 16.598 189.349 16.598H193.651V15.536C193.651 15.272 193.741 15.08 193.921 14.96C194.113 14.84 194.329 14.78 194.569 14.78ZM201.499 24.608C201.715 24.608 201.871 24.686 201.967 24.842C202.075 24.998 202.129 25.178 202.129 25.382C202.129 25.586 202.075 25.766 201.967 25.922C201.871 26.066 201.715 26.138 201.499 26.138H195.469V31.052C195.469 31.316 195.379 31.508 195.199 31.628C195.019 31.748 194.809 31.808 194.569 31.808C194.329 31.808 194.119 31.748 193.939 31.628C193.759 31.508 193.669 31.316 193.669 31.052V26.138H187.639C187.423 26.138 187.261 26.066 187.153 25.922C187.057 25.766 187.009 25.586 187.009 25.382C187.009 25.178 187.057 24.998 187.153 24.842C187.261 24.686 187.423 24.608 187.639 24.608H201.499ZM207.873 15.662C208.569 15.662 209.175 15.764 209.691 15.968C210.207 16.172 210.633 16.454 210.969 16.814C211.317 17.174 211.575 17.6 211.743 18.092C211.923 18.572 212.013 19.094 212.013 19.658C212.013 20.234 211.923 20.768 211.743 21.26C211.575 21.74 211.317 22.16 210.969 22.52C210.633 22.88 210.207 23.162 209.691 23.366C209.175 23.57 208.569 23.672 207.873 23.672C207.177 23.672 206.571 23.57 206.055 23.366C205.539 23.162 205.107 22.88 204.759 22.52C204.423 22.16 204.165 21.74 203.985 21.26C203.817 20.768 203.733 20.234 203.733 19.658C203.733 19.094 203.817 18.572 203.985 18.092C204.165 17.6 204.423 17.174 204.759 16.814C205.107 16.454 205.539 16.172 206.055 15.968C206.571 15.764 207.177 15.662 207.873 15.662ZM207.873 17.174C207.441 17.174 207.069 17.24 206.757 17.372C206.457 17.504 206.211 17.684 206.019 17.912C205.827 18.128 205.683 18.392 205.587 18.704C205.503 19.004 205.461 19.322 205.461 19.658C205.461 20.006 205.503 20.33 205.587 20.63C205.683 20.93 205.827 21.194 206.019 21.422C206.211 21.65 206.457 21.83 206.757 21.962C207.069 22.094 207.441 22.16 207.873 22.16C208.305 22.16 208.671 22.094 208.971 21.962C209.283 21.83 209.535 21.65 209.727 21.422C209.919 21.194 210.057 20.93 210.141 20.63C210.237 20.33 210.285 20.006 210.285 19.658C210.285 19.322 210.237 19.004 210.141 18.704C210.057 18.392 209.919 18.128 209.727 17.912C209.535 17.684 209.283 17.504 208.971 17.372C208.671 17.24 208.305 17.174 207.873 17.174ZM216.009 14.996C216.237 14.996 216.441 15.056 216.621 15.176C216.801 15.296 216.891 15.488 216.891 15.752V23.978C216.891 24.242 216.801 24.434 216.621 24.554C216.441 24.674 216.237 24.734 216.009 24.734C215.769 24.734 215.559 24.674 215.379 24.554C215.199 24.434 215.109 24.242 215.109 23.978V20.432H210.861V18.902H215.109V15.752C215.109 15.488 215.199 15.296 215.379 15.176C215.559 15.056 215.769 14.996 216.009 14.996ZM215.505 25.508C216.033 25.508 216.393 25.604 216.585 25.796C216.789 25.988 216.891 26.342 216.891 26.858V30.98C216.891 31.244 216.801 31.436 216.621 31.556C216.441 31.676 216.231 31.736 215.991 31.736C215.751 31.736 215.541 31.676 215.361 31.556C215.181 31.436 215.091 31.244 215.091 30.98V27.416C215.091 27.176 214.965 27.056 214.713 27.056H206.631C206.403 27.056 206.235 26.978 206.127 26.822C206.031 26.666 205.983 26.486 205.983 26.282C205.983 26.078 206.031 25.898 206.127 25.742C206.235 25.586 206.403 25.508 206.631 25.508H215.505ZM226.974 15.176C228.702 15.176 230.046 15.41 231.006 15.878C231.966 16.334 232.446 17.06 232.446 18.056C232.446 19.064 231.966 19.802 231.006 20.27C230.046 20.726 228.702 20.954 226.974 20.954C225.246 20.954 223.902 20.726 222.942 20.27C221.982 19.802 221.502 19.064 221.502 18.056C221.502 17.06 221.982 16.334 222.942 15.878C223.902 15.41 225.246 15.176 226.974 15.176ZM226.974 16.598C225.678 16.598 224.736 16.724 224.148 16.976C223.572 17.228 223.284 17.588 223.284 18.056C223.284 18.524 223.572 18.89 224.148 19.154C224.736 19.406 225.678 19.532 226.974 19.532C228.27 19.532 229.206 19.406 229.782 19.154C230.37 18.89 230.664 18.524 230.664 18.056C230.664 17.588 230.37 17.228 229.782 16.976C229.206 16.724 228.27 16.598 226.974 16.598ZM233.922 22.088C234.126 22.088 234.276 22.16 234.372 22.304C234.48 22.436 234.534 22.604 234.534 22.808C234.534 23.024 234.48 23.204 234.372 23.348C234.276 23.492 234.126 23.564 233.922 23.564H220.026C219.822 23.564 219.666 23.492 219.558 23.348C219.462 23.204 219.414 23.024 219.414 22.808C219.414 22.604 219.462 22.436 219.558 22.304C219.666 22.16 219.822 22.088 220.026 22.088H233.922ZM231.096 24.95C231.624 24.95 231.984 25.046 232.176 25.238C232.38 25.43 232.482 25.784 232.482 26.3V27.632C232.482 28.148 232.38 28.502 232.176 28.694C231.984 28.886 231.624 28.982 231.096 28.982H223.482C223.29 28.982 223.194 29.072 223.194 29.252V29.99C223.194 30.17 223.29 30.26 223.482 30.26H232.284C232.488 30.26 232.638 30.332 232.734 30.476C232.83 30.62 232.878 30.782 232.878 30.962C232.878 31.154 232.83 31.316 232.734 31.448C232.638 31.592 232.488 31.664 232.284 31.664H222.834C222.306 31.664 221.94 31.568 221.736 31.376C221.544 31.184 221.448 30.83 221.448 30.314V28.982C221.448 28.466 221.544 28.112 221.736 27.92C221.94 27.728 222.306 27.632 222.834 27.632H230.448C230.64 27.632 230.736 27.542 230.736 27.362V26.642C230.736 26.45 230.64 26.354 230.448 26.354H221.988C221.784 26.354 221.634 26.288 221.538 26.156C221.454 26.012 221.412 25.844 221.412 25.652C221.412 25.472 221.454 25.31 221.538 25.166C221.634 25.022 221.784 24.95 221.988 24.95H231.096ZM247.749 15.878C247.965 15.878 248.121 15.956 248.217 16.112C248.325 16.268 248.379 16.448 248.379 16.652C248.379 16.856 248.325 17.036 248.217 17.192C248.121 17.348 247.965 17.426 247.749 17.426H242.781C242.529 17.426 242.403 17.546 242.403 17.786V21.386C242.403 21.53 242.433 21.632 242.493 21.692C242.553 21.74 242.649 21.764 242.781 21.764C243.969 21.764 245.073 21.734 246.093 21.674C247.113 21.614 248.109 21.518 249.081 21.386C249.285 21.362 249.447 21.416 249.567 21.548C249.699 21.668 249.777 21.83 249.801 22.034C249.825 22.25 249.795 22.442 249.711 22.61C249.639 22.778 249.501 22.874 249.297 22.898C248.877 22.958 248.421 23.012 247.929 23.06C247.449 23.108 246.915 23.15 246.327 23.186C245.739 23.222 245.085 23.252 244.365 23.276C243.657 23.288 242.865 23.294 241.989 23.294C241.461 23.294 241.095 23.198 240.891 23.006C240.699 22.814 240.603 22.46 240.603 21.944V17.228C240.603 16.712 240.699 16.358 240.891 16.166C241.095 15.974 241.461 15.878 241.989 15.878H247.749ZM251.835 14.996C252.075 14.996 252.285 15.056 252.465 15.176C252.645 15.296 252.735 15.488 252.735 15.752V18.794H254.715C254.955 18.794 255.123 18.872 255.219 19.028C255.327 19.184 255.381 19.364 255.381 19.568C255.381 19.796 255.327 19.988 255.219 20.144C255.123 20.288 254.955 20.36 254.715 20.36H252.735V23.618C252.735 23.882 252.645 24.074 252.465 24.194C252.285 24.314 252.075 24.374 251.835 24.374C251.595 24.374 251.385 24.314 251.205 24.194C251.025 24.074 250.935 23.882 250.935 23.618V15.752C250.935 15.488 251.025 15.296 251.205 15.176C251.385 15.056 251.595 14.996 251.835 14.996ZM251.349 25.148C251.877 25.148 252.237 25.244 252.429 25.436C252.633 25.628 252.735 25.982 252.735 26.498V30.152C252.735 30.668 252.633 31.022 252.429 31.214C252.237 31.406 251.877 31.502 251.349 31.502H243.789C243.261 31.502 242.895 31.406 242.691 31.214C242.499 31.022 242.403 30.668 242.403 30.152V26.498C242.403 25.982 242.499 25.628 242.691 25.436C242.895 25.244 243.261 25.148 243.789 25.148H251.349ZM244.563 26.66C244.311 26.66 244.185 26.786 244.185 27.038V29.612C244.185 29.864 244.311 29.99 244.563 29.99H250.575C250.827 29.99 250.953 29.864 250.953 29.612V27.038C250.953 26.786 250.827 26.66 250.575 26.66H244.563ZM260.604 15.932C261.996 15.932 263.046 16.388 263.754 17.3C264.462 18.212 264.816 19.544 264.816 21.296C264.816 23.048 264.462 24.38 263.754 25.292C263.046 26.204 261.996 26.66 260.604 26.66C259.212 26.66 258.162 26.204 257.454 25.292C256.758 24.38 256.41 23.048 256.41 21.296C256.41 19.544 256.758 18.212 257.454 17.3C258.162 16.388 259.212 15.932 260.604 15.932ZM260.604 17.516C259.728 17.516 259.098 17.84 258.714 18.488C258.342 19.124 258.156 20.06 258.156 21.296C258.156 22.532 258.342 23.474 258.714 24.122C259.098 24.758 259.728 25.076 260.604 25.076C261.492 25.076 262.122 24.758 262.494 24.122C262.878 23.474 263.07 22.532 263.07 21.296C263.07 20.06 262.878 19.124 262.494 18.488C262.122 17.84 261.492 17.516 260.604 17.516ZM268.038 14.996C268.278 14.996 268.488 15.056 268.668 15.176C268.848 15.296 268.938 15.488 268.938 15.752V20.432H270.918C271.158 20.432 271.326 20.51 271.422 20.666C271.53 20.81 271.584 20.99 271.584 21.206C271.584 21.422 271.53 21.608 271.422 21.764C271.326 21.92 271.158 21.998 270.918 21.998H268.938V29.792C268.938 30.056 268.848 30.248 268.668 30.368C268.488 30.488 268.278 30.548 268.038 30.548C267.798 30.548 267.588 30.488 267.408 30.368C267.228 30.248 267.138 30.056 267.138 29.792V15.752C267.138 15.488 267.228 15.296 267.408 15.176C267.588 15.056 267.798 14.996 268.038 14.996ZM275.277 15.752C275.505 15.752 275.709 15.818 275.889 15.95C276.081 16.07 276.177 16.256 276.177 16.508V18.65H283.629V16.508C283.629 16.256 283.719 16.07 283.899 15.95C284.091 15.818 284.295 15.752 284.511 15.752C284.751 15.752 284.961 15.818 285.141 15.95C285.333 16.07 285.429 16.256 285.429 16.508V22.862C285.429 23.378 285.327 23.732 285.123 23.924C284.931 24.116 284.571 24.212 284.043 24.212H275.763C275.235 24.212 274.875 24.116 274.683 23.924C274.491 23.732 274.395 23.378 274.395 22.862V16.508C274.395 16.256 274.485 16.07 274.665 15.95C274.845 15.818 275.049 15.752 275.277 15.752ZM276.177 22.322C276.177 22.562 276.303 22.682 276.555 22.682H283.251C283.503 22.682 283.629 22.562 283.629 22.322V20.18H276.177V22.322ZM280.803 27.452H286.833C287.049 27.452 287.205 27.53 287.301 27.686C287.409 27.83 287.463 28.004 287.463 28.208C287.463 28.412 287.409 28.592 287.301 28.748C287.205 28.904 287.049 28.982 286.833 28.982H272.973C272.757 28.982 272.595 28.904 272.487 28.748C272.391 28.592 272.343 28.412 272.343 28.208C272.343 28.004 272.391 27.83 272.487 27.686C272.595 27.53 272.757 27.452 272.973 27.452H279.003V23.258H280.803V27.452ZM297.347 16.256C297.563 16.256 297.719 16.334 297.815 16.49C297.923 16.646 297.977 16.826 297.977 17.03C297.977 17.234 297.923 17.414 297.815 17.57C297.719 17.726 297.563 17.804 297.347 17.804H294.413V19.496C294.413 19.892 294.431 20.246 294.467 20.558C294.515 20.87 294.593 21.164 294.701 21.44C294.809 21.704 294.947 21.962 295.115 22.214C295.295 22.466 295.517 22.724 295.781 22.988C296.165 23.372 296.537 23.738 296.897 24.086C297.257 24.434 297.587 24.734 297.887 24.986C298.067 25.154 298.139 25.346 298.103 25.562C298.079 25.778 297.995 25.958 297.851 26.102C297.707 26.258 297.533 26.354 297.329 26.39C297.125 26.426 296.933 26.366 296.753 26.21C296.489 25.97 296.195 25.7 295.871 25.4C295.559 25.088 295.217 24.752 294.845 24.392C294.593 24.128 294.383 23.906 294.215 23.726C294.047 23.534 293.915 23.366 293.819 23.222C293.723 23.078 293.651 22.952 293.603 22.844C293.555 22.736 293.525 22.634 293.513 22.538H293.495C293.471 22.646 293.435 22.754 293.387 22.862C293.351 22.97 293.279 23.096 293.171 23.24C293.075 23.384 292.943 23.552 292.775 23.744C292.619 23.936 292.409 24.164 292.145 24.428C291.785 24.788 291.431 25.136 291.083 25.472C290.735 25.808 290.369 26.144 289.985 26.48C289.793 26.648 289.589 26.702 289.373 26.642C289.157 26.582 288.983 26.474 288.851 26.318C288.707 26.15 288.629 25.964 288.617 25.76C288.617 25.544 288.707 25.358 288.887 25.202C289.307 24.83 289.703 24.464 290.075 24.104C290.447 23.744 290.825 23.372 291.209 22.988C291.473 22.724 291.689 22.466 291.857 22.214C292.037 21.962 292.181 21.704 292.289 21.44C292.397 21.164 292.469 20.87 292.505 20.558C292.553 20.246 292.577 19.892 292.577 19.496V17.804H289.553C289.325 17.804 289.157 17.726 289.049 17.57C288.953 17.414 288.905 17.234 288.905 17.03C288.905 16.826 288.953 16.646 289.049 16.49C289.157 16.334 289.325 16.256 289.553 16.256H297.347ZM300.443 14.996C300.683 14.996 300.893 15.056 301.073 15.176C301.253 15.296 301.343 15.488 301.343 15.752V20.432H303.323C303.563 20.432 303.731 20.51 303.827 20.666C303.935 20.81 303.989 20.99 303.989 21.206C303.989 21.422 303.935 21.608 303.827 21.764C303.731 21.92 303.563 21.998 303.323 21.998H301.343V29.792C301.343 30.056 301.253 30.248 301.073 30.368C300.893 30.488 300.683 30.548 300.443 30.548C300.203 30.548 299.993 30.488 299.813 30.368C299.633 30.248 299.543 30.056 299.543 29.792V15.752C299.543 15.488 299.633 15.296 299.813 15.176C299.993 15.056 300.203 14.996 300.443 14.996ZM306.836 15.68C307.136 15.68 307.376 15.746 307.556 15.878C307.748 16.01 307.838 16.232 307.826 16.544L307.61 25.04C307.598 25.328 307.514 25.532 307.358 25.652C307.214 25.76 307.04 25.814 306.836 25.814C306.632 25.814 306.452 25.76 306.296 25.652C306.152 25.532 306.08 25.328 306.08 25.04L305.846 16.544C305.846 16.232 305.936 16.01 306.116 15.878C306.296 15.746 306.536 15.68 306.836 15.68ZM306.836 27.29C307.172 27.29 307.454 27.404 307.682 27.632C307.91 27.848 308.024 28.124 308.024 28.46C308.024 28.796 307.91 29.078 307.682 29.306C307.454 29.534 307.172 29.648 306.836 29.648C306.5 29.648 306.218 29.534 305.99 29.306C305.762 29.078 305.648 28.796 305.648 28.46C305.648 28.124 305.762 27.848 305.99 27.632C306.218 27.404 306.5 27.29 306.836 27.29Z" fill="#5E9BF0"/>
</svg>
