<svg width="157" height="158" viewBox="0 0 157 158" fill="none" xmlns="http://www.w3.org/2000/svg">
<rect x="0.179688" y="0.107422" width="156.296" height="156.296" fill="white"/>
<path d="M127.903 51.784C127.779 56.8415 125.872 61.6926 122.52 65.4816C121.246 66.5752 119.838 67.5016 118.33 68.2385C115.542 70.127 112.205 71.0356 108.844 70.8217C105.465 71.0294 102.099 70.2361 99.1688 68.5411C96.2382 66.8461 93.8725 64.3246 92.3676 61.292C90.6117 58.42 89.6179 55.1474 89.4805 51.784C89.5761 50.106 89.8974 48.4485 90.4356 46.8563C90.8308 45.2358 91.4366 43.6741 92.2374 42.2109C93.0496 40.7352 94.0492 39.3708 95.2113 38.1515C96.4282 37.0047 97.7935 36.0264 99.2707 35.2427C100.683 34.3134 102.217 33.583 103.829 33.0719C105.477 32.728 107.163 32.6039 108.844 32.7029C112.183 32.717 115.479 33.4577 118.504 34.8737C119.895 35.8201 121.164 36.9357 122.281 38.195C123.526 39.3149 124.621 40.5919 125.537 41.9938C126.406 43.444 127.071 45.0072 127.512 46.6393C127.865 48.33 127.997 50.0594 127.903 51.784Z" fill="#C8D2ED"/>
<path d="M153.239 124.072C152.197 121.902 151.22 122.466 149.375 120.99C147.53 119.514 147.204 120.035 145.272 118.559C143.34 117.082 143.102 117.386 141.365 115.91C139.628 114.434 139.997 113.87 138.174 112.394C136.351 110.917 136.003 111.308 134.18 109.81C132.356 108.313 132.942 107.64 131.119 106.12C129.296 104.6 129.23 104.709 127.385 103.233C125.54 101.757 124.976 102.451 123.044 101.062C121.112 99.6728 121.828 98.8914 119.983 97.3501C118.138 95.8089 117.465 96.7206 115.641 95.1793C113.818 93.6381 114.035 93.3993 112.19 91.9232C110.345 90.447 110.019 90.751 108.239 89.2748C106.937 88.2329 105.721 86.6482 104.158 86.6482C102.439 86.7734 100.804 87.4424 99.4909 88.5585C97.4287 90.2083 97.5154 90.3168 95.4532 91.9883C93.3909 93.6598 93.5647 93.8552 91.4807 95.505C89.3968 97.1547 89.4836 97.2416 87.3997 98.9131C85.3157 100.585 85.815 101.67 83.0581 101.8C80.3012 101.93 80.8874 100.975 79.1508 99.5209C77.4141 98.0665 77.5661 97.7191 75.7426 96.2647C73.9192 94.8103 74.1579 94.463 72.3128 92.9868L68.7744 89.9912C66.9509 88.5151 66.6036 88.819 64.867 87.3428C63.1304 85.8667 63.3258 85.4977 61.5024 83.9998C59.6789 82.502 59.8091 82.3718 57.964 80.8956C56.1188 79.4195 55.7932 79.9405 53.8829 78.4427C51.9726 76.9448 52.168 76.8146 50.3228 75.3167C48.4777 73.8189 48.6079 73.6887 46.7627 72.2125C45.3199 71.4218 43.6533 71.139 42.0304 71.4094C40.4279 71.1861 38.7971 71.5153 37.4067 72.3428C35.6266 73.7755 36.2128 74.5136 34.4327 75.968C32.6527 77.4224 31.741 76.3153 29.9609 77.7697C28.1809 79.2241 28.6368 79.7885 26.835 81.243C25.0333 82.6974 24.6642 82.1981 22.8625 83.6525C21.0607 85.1069 21.3647 85.476 19.563 86.9304C17.7612 88.3848 18.2388 88.9492 16.4371 90.4036C14.6353 91.8581 14.3965 91.5541 12.6165 93.0086C10.8364 94.463 10.2286 93.7249 8.40517 95.1793C6.58172 96.6338 6.2344 96.4818 5.14901 98.5874C4.06362 100.693 5.93045 101.019 5.93045 103.428C5.93045 105.838 4.71483 105.838 4.71483 108.247C4.71483 110.657 5.17074 110.657 5.17074 113.067C5.17074 115.476 5.60492 115.476 5.60492 117.886C5.60492 120.295 4.95358 120.295 4.95358 122.705C4.95358 125.114 5.64824 125.114 5.64824 127.502C5.64824 129.89 4.51953 129.912 4.51953 132.321C4.51953 134.731 4.75828 134.753 4.75828 137.162C4.75828 139.572 5.88713 139.572 5.88713 141.981C5.88713 144.391 4.54113 144.391 4.54113 146.8C4.54113 149.21 5.64824 149.21 5.64824 151.641C5.64824 154.072 3.91162 154.376 5.64824 155.983C7.38486 157.589 7.71052 155.657 10.1635 155.657C12.6165 155.657 12.6165 155.939 15.0695 155.939C17.5224 155.939 17.5225 156.308 19.9972 156.308C22.4718 156.308 22.45 156.525 24.903 156.525C27.356 156.525 27.356 155.701 29.809 155.701C32.2619 155.701 32.262 155.918 34.7367 155.918C37.2114 155.918 37.1897 156.829 39.6426 156.829C42.0956 156.829 42.0956 155.896 44.5486 155.896C47.0016 155.896 47.0015 156.352 49.4545 156.352C51.9074 156.352 51.9074 157.068 54.3604 157.068C56.8134 157.068 56.8134 155.874 59.2664 155.874C61.7194 155.874 61.7194 155.722 64.1724 155.722C66.6253 155.722 66.6471 155.722 69.1001 155.722C71.553 155.722 71.5529 155.722 74.0059 155.722C76.4589 155.722 76.4589 156.938 78.9119 156.938C81.3648 156.938 81.3649 156.287 83.8396 156.287C86.3143 156.287 86.2926 155.874 88.7455 155.874C91.1985 155.874 91.1985 156.352 93.6515 156.352C96.1045 156.352 96.1261 155.939 98.5791 155.939C101.032 155.939 101.032 155.809 103.485 155.809C105.938 155.809 105.96 155.809 108.413 155.809C110.866 155.809 110.866 156.265 113.319 156.265H118.246C120.699 156.265 120.699 157.133 123.152 157.133C125.605 157.133 125.627 156.091 128.08 156.091C130.533 156.091 130.533 156.742 133.008 156.742C135.482 156.742 135.461 156.221 137.913 156.221C140.366 156.221 140.388 156.417 142.841 156.417C145.294 156.417 145.316 156.829 147.769 156.829C150.222 156.829 150.482 157.611 152.284 155.939C154.086 154.268 152.284 154.116 152.284 151.815C152.284 149.514 152.631 149.644 152.631 147.234C152.631 144.825 153.261 144.933 153.261 142.632C153.261 140.331 153.044 140.462 153.044 138.052C153.044 135.643 152.501 135.751 152.501 133.45C152.501 131.149 151.698 130.997 152.154 128.739C152.61 126.482 154.238 126.156 153.239 124.072Z" fill="#C8D2ED"/>
</svg>
