<svg width="444" height="48" viewBox="0 0 444 48" fill="none" xmlns="http://www.w3.org/2000/svg">
<rect width="444" height="48" rx="24" fill="#F2F7FF"/>
<path d="M178.332 15.626C179.196 15.626 179.97 15.728 180.654 15.932C181.35 16.124 181.932 16.412 182.4 16.796C182.88 17.168 183.246 17.63 183.498 18.182C183.75 18.722 183.876 19.334 183.876 20.018C183.876 20.702 183.75 21.32 183.498 21.872C183.246 22.412 182.88 22.874 182.4 23.258C181.932 23.63 181.35 23.918 180.654 24.122C179.97 24.314 179.196 24.41 178.332 24.41C176.592 24.41 175.236 24.026 174.264 23.258C173.292 22.478 172.806 21.398 172.806 20.018C172.806 18.638 173.292 17.564 174.264 16.796C175.236 16.016 176.592 15.626 178.332 15.626ZM178.332 17.156C177.684 17.156 177.126 17.228 176.658 17.372C176.19 17.516 175.8 17.72 175.488 17.984C175.188 18.236 174.966 18.536 174.822 18.884C174.678 19.232 174.606 19.61 174.606 20.018C174.606 20.426 174.678 20.804 174.822 21.152C174.966 21.5 175.188 21.806 175.488 22.07C175.8 22.322 176.19 22.52 176.658 22.664C177.126 22.808 177.684 22.88 178.332 22.88C178.98 22.88 179.538 22.808 180.006 22.664C180.474 22.52 180.858 22.322 181.158 22.07C181.47 21.806 181.698 21.5 181.842 21.152C181.986 20.804 182.058 20.426 182.058 20.018C182.058 19.61 181.986 19.232 181.842 18.884C181.698 18.536 181.47 18.236 181.158 17.984C180.858 17.72 180.474 17.516 180.006 17.372C179.538 17.228 178.98 17.156 178.332 17.156ZM179.232 27.452H185.262C185.478 27.452 185.634 27.53 185.73 27.686C185.838 27.83 185.892 28.004 185.892 28.208C185.892 28.412 185.838 28.592 185.73 28.748C185.634 28.904 185.478 28.982 185.262 28.982H171.402C171.186 28.982 171.024 28.904 170.916 28.748C170.82 28.592 170.772 28.412 170.772 28.208C170.772 28.004 170.82 27.83 170.916 27.686C171.024 27.53 171.186 27.452 171.402 27.452H177.432V23.258H179.232V27.452ZM189.962 15.158C190.202 15.158 190.412 15.218 190.592 15.338C190.772 15.458 190.862 15.656 190.862 15.932V18.722C190.862 18.962 190.988 19.082 191.24 19.082H199.7C199.904 19.082 200.054 19.154 200.15 19.298C200.258 19.442 200.312 19.616 200.312 19.82C200.312 20.024 200.258 20.204 200.15 20.36C200.054 20.504 199.904 20.576 199.7 20.576H190.43C189.902 20.576 189.542 20.48 189.35 20.288C189.158 20.096 189.062 19.742 189.062 19.226V15.932C189.062 15.656 189.152 15.458 189.332 15.338C189.512 15.218 189.722 15.158 189.962 15.158ZM201.482 21.998C201.686 21.998 201.836 22.07 201.932 22.214C202.04 22.358 202.094 22.532 202.094 22.736C202.094 22.94 202.04 23.12 201.932 23.276C201.836 23.42 201.686 23.492 201.482 23.492H187.586C187.382 23.492 187.226 23.42 187.118 23.276C187.022 23.12 186.974 22.94 186.974 22.736C186.974 22.532 187.022 22.358 187.118 22.214C187.226 22.07 187.382 21.998 187.586 21.998H201.482ZM198.656 24.95C199.184 24.95 199.544 25.046 199.736 25.238C199.94 25.43 200.042 25.784 200.042 26.3V27.632C200.042 28.148 199.94 28.502 199.736 28.694C199.544 28.886 199.184 28.982 198.656 28.982H191.042C190.85 28.982 190.754 29.072 190.754 29.252V29.99C190.754 30.17 190.85 30.26 191.042 30.26H199.844C200.048 30.26 200.198 30.332 200.294 30.476C200.39 30.62 200.438 30.782 200.438 30.962C200.438 31.154 200.39 31.316 200.294 31.448C200.198 31.592 200.048 31.664 199.844 31.664H190.394C189.866 31.664 189.5 31.568 189.296 31.376C189.104 31.184 189.008 30.83 189.008 30.314V28.982C189.008 28.466 189.104 28.112 189.296 27.92C189.5 27.728 189.866 27.632 190.394 27.632H198.008C198.2 27.632 198.296 27.542 198.296 27.362V26.642C198.296 26.45 198.2 26.354 198.008 26.354H189.548C189.344 26.354 189.194 26.288 189.098 26.156C189.014 26.012 188.972 25.844 188.972 25.652C188.972 25.472 189.014 25.31 189.098 25.166C189.194 25.022 189.344 24.95 189.548 24.95H198.656ZM208.721 15.932C209.441 15.932 210.071 16.034 210.611 16.238C211.163 16.43 211.619 16.706 211.979 17.066C212.339 17.414 212.609 17.828 212.789 18.308C212.981 18.788 213.077 19.304 213.077 19.856C213.077 20.42 212.981 20.942 212.789 21.422C212.609 21.902 212.339 22.322 211.979 22.682C211.619 23.03 211.163 23.306 210.611 23.51C210.071 23.702 209.441 23.798 208.721 23.798C208.001 23.798 207.365 23.702 206.813 23.51C206.273 23.306 205.823 23.03 205.463 22.682C205.103 22.322 204.827 21.902 204.635 21.422C204.455 20.942 204.365 20.42 204.365 19.856C204.365 19.304 204.455 18.788 204.635 18.308C204.827 17.828 205.103 17.414 205.463 17.066C205.823 16.706 206.273 16.43 206.813 16.238C207.365 16.034 208.001 15.932 208.721 15.932ZM208.721 17.444C207.821 17.444 207.155 17.678 206.723 18.146C206.291 18.602 206.075 19.172 206.075 19.856C206.075 20.54 206.291 21.116 206.723 21.584C207.155 22.052 207.821 22.286 208.721 22.286C209.621 22.286 210.287 22.052 210.719 21.584C211.151 21.116 211.367 20.54 211.367 19.856C211.367 19.172 211.151 18.602 210.719 18.146C210.287 17.678 209.621 17.444 208.721 17.444ZM213.671 25.832C213.875 25.808 214.031 25.862 214.139 25.994C214.259 26.126 214.325 26.3 214.337 26.516C214.361 26.72 214.325 26.906 214.229 27.074C214.145 27.23 214.001 27.32 213.797 27.344C212.345 27.476 210.797 27.572 209.153 27.632C207.509 27.692 205.799 27.722 204.023 27.722C203.807 27.722 203.645 27.644 203.537 27.488C203.441 27.332 203.393 27.152 203.393 26.948C203.393 26.744 203.441 26.564 203.537 26.408C203.645 26.252 203.807 26.174 204.023 26.174C205.631 26.174 207.221 26.156 208.793 26.12C210.365 26.084 211.991 25.988 213.671 25.832ZM216.173 14.996C216.413 14.996 216.623 15.056 216.803 15.176C216.983 15.296 217.073 15.488 217.073 15.752V29.792C217.073 30.056 216.983 30.248 216.803 30.368C216.623 30.488 216.413 30.548 216.173 30.548C215.945 30.548 215.741 30.488 215.561 30.368C215.381 30.248 215.291 30.056 215.291 29.792V15.752C215.291 15.488 215.381 15.296 215.561 15.176C215.741 15.056 215.945 14.996 216.173 14.996ZM228.542 15.914C229.946 15.914 231.002 16.376 231.71 17.3C232.418 18.212 232.772 19.544 232.772 21.296C232.772 23.048 232.418 24.386 231.71 25.31C231.002 26.222 229.946 26.678 228.542 26.678C227.138 26.678 226.082 26.222 225.374 25.31C224.678 24.386 224.33 23.048 224.33 21.296C224.33 19.544 224.678 18.212 225.374 17.3C226.082 16.376 227.138 15.914 228.542 15.914ZM228.542 17.498C227.654 17.498 227.018 17.822 226.634 18.47C226.262 19.118 226.076 20.06 226.076 21.296C226.076 22.532 226.262 23.474 226.634 24.122C227.018 24.77 227.654 25.094 228.542 25.094C229.442 25.094 230.078 24.77 230.45 24.122C230.834 23.474 231.026 22.532 231.026 21.296C231.026 20.06 230.834 19.118 230.45 18.47C230.078 17.822 229.442 17.498 228.542 17.498ZM236.354 14.996C236.594 14.996 236.804 15.056 236.984 15.176C237.176 15.296 237.272 15.488 237.272 15.752V29.792C237.272 30.056 237.176 30.248 236.984 30.368C236.804 30.488 236.594 30.548 236.354 30.548C236.126 30.548 235.916 30.488 235.724 30.368C235.544 30.248 235.454 30.056 235.454 29.792V15.752C235.454 15.488 235.544 15.296 235.724 15.176C235.916 15.056 236.126 14.996 236.354 14.996ZM244.367 15.932C245.759 15.932 246.809 16.388 247.517 17.3C248.225 18.212 248.579 19.544 248.579 21.296C248.579 23.048 248.225 24.38 247.517 25.292C246.809 26.204 245.759 26.66 244.367 26.66C242.975 26.66 241.925 26.204 241.217 25.292C240.521 24.38 240.173 23.048 240.173 21.296C240.173 19.544 240.521 18.212 241.217 17.3C241.925 16.388 242.975 15.932 244.367 15.932ZM244.367 17.516C243.491 17.516 242.861 17.84 242.477 18.488C242.105 19.124 241.919 20.06 241.919 21.296C241.919 22.532 242.105 23.474 242.477 24.122C242.861 24.758 243.491 25.076 244.367 25.076C245.255 25.076 245.885 24.758 246.257 24.122C246.641 23.474 246.833 22.532 246.833 21.296C246.833 20.06 246.641 19.124 246.257 18.488C245.885 17.84 245.255 17.516 244.367 17.516ZM251.801 14.996C252.041 14.996 252.251 15.056 252.431 15.176C252.611 15.296 252.701 15.488 252.701 15.752V18.38H254.555C254.771 18.38 254.927 18.458 255.023 18.614C255.131 18.758 255.185 18.938 255.185 19.154C255.185 19.37 255.131 19.556 255.023 19.712C254.927 19.856 254.771 19.928 254.555 19.928H252.701V22.484H254.555C254.771 22.484 254.927 22.562 255.023 22.718C255.131 22.862 255.185 23.042 255.185 23.258C255.185 23.474 255.131 23.66 255.023 23.816C254.927 23.96 254.771 24.032 254.555 24.032H252.701V29.792C252.701 30.056 252.611 30.248 252.431 30.368C252.251 30.488 252.041 30.548 251.801 30.548C251.561 30.548 251.351 30.488 251.171 30.368C250.991 30.248 250.901 30.056 250.901 29.792V15.752C250.901 15.488 250.991 15.296 251.171 15.176C251.351 15.056 251.561 14.996 251.801 14.996ZM263.18 16.22C263.708 16.22 264.068 16.316 264.26 16.508C264.464 16.7 264.566 17.054 264.566 17.57V19.604C264.566 20.108 264.536 20.564 264.476 20.972C264.416 21.368 264.302 21.746 264.134 22.106C263.966 22.466 263.732 22.82 263.432 23.168C263.132 23.504 262.742 23.864 262.262 24.248C261.794 24.62 261.224 25.028 260.552 25.472C259.88 25.916 259.082 26.42 258.158 26.984C257.954 27.104 257.75 27.128 257.546 27.056C257.342 26.972 257.18 26.846 257.06 26.678C256.94 26.51 256.88 26.312 256.88 26.084C256.892 25.856 257 25.676 257.204 25.544C258.056 25.028 258.782 24.578 259.382 24.194C259.994 23.798 260.504 23.444 260.912 23.132C261.32 22.808 261.644 22.514 261.884 22.25C262.136 21.974 262.328 21.704 262.46 21.44C262.592 21.164 262.676 20.876 262.712 20.576C262.748 20.264 262.766 19.916 262.766 19.532V18.146C262.766 18.014 262.736 17.924 262.676 17.876C262.628 17.816 262.532 17.786 262.388 17.786H257.708C257.48 17.786 257.312 17.708 257.204 17.552C257.108 17.396 257.06 17.216 257.06 17.012C257.06 16.796 257.108 16.61 257.204 16.454C257.312 16.298 257.48 16.22 257.708 16.22H263.18ZM268.76 14.996C269 14.996 269.21 15.056 269.39 15.176C269.582 15.296 269.678 15.488 269.678 15.752V29.792C269.678 30.056 269.582 30.248 269.39 30.368C269.21 30.488 269 30.548 268.76 30.548C268.532 30.548 268.322 30.488 268.13 30.368C267.95 30.248 267.86 30.056 267.86 29.792V15.752C267.86 15.488 267.95 15.296 268.13 15.176C268.322 15.056 268.532 14.996 268.76 14.996Z" fill="#5E9BF0"/>
</svg>
